<svg xmlns="http://www.w3.org/2000/svg" xmlns:xlink="http://www.w3.org/1999/xlink" width="50" zoomAndPan="magnify" viewBox="0 0 37.5 30.000001" height="40" preserveAspectRatio="xMidYMid meet" version="1.0"><defs><g/><clipPath id="ccc4c5d640"><path d="M 1.429688 1.375 L 35.996094 1.375 L 35.996094 27.851562 L 1.429688 27.851562 Z M 1.429688 1.375 " clip-rule="nonzero"/></clipPath></defs><g clip-path="url(#ccc4c5d640)"><path fill="#ffffff" d="M 34.265625 2.199219 C 34.757812 2.199219 35.167969 2.605469 35.167969 3.097656 L 35.167969 26.128906 C 35.167969 26.621094 34.757812 27.027344 34.265625 27.027344 L 3.160156 27.027344 C 2.667969 27.027344 2.261719 26.621094 2.261719 26.128906 L 2.261719 3.097656 C 2.261719 2.605469 2.667969 2.199219 3.160156 2.199219 L 34.265625 2.199219 M 34.265625 1.375 L 3.160156 1.375 C 2.207031 1.375 1.429688 2.148438 1.429688 3.097656 L 1.429688 26.128906 C 1.429688 27.078125 2.207031 27.851562 3.160156 27.851562 L 34.265625 27.851562 C 35.21875 27.851562 35.996094 27.078125 35.996094 26.128906 L 35.996094 3.097656 C 35.996094 2.148438 35.21875 1.375 34.265625 1.375 " fill-opacity="1" fill-rule="nonzero"/></g><g fill="#ffffff" fill-opacity="1"><g transform="translate(3.321221, 14.240238)"><g><path d="M -0.09375 0.078125 C -0.132812 0.0664062 -0.171875 0.046875 -0.203125 0.015625 C -0.234375 -0.015625 -0.234375 -0.0546875 -0.203125 -0.109375 C -0.0664062 -0.285156 0.0507812 -0.476562 0.15625 -0.6875 C 0.257812 -0.90625 0.335938 -1.101562 0.390625 -1.28125 C 0.453125 -1.457031 0.5 -1.679688 0.53125 -1.953125 C 0.5625 -2.222656 0.582031 -2.4375 0.59375 -2.59375 C 0.613281 -2.757812 0.628906 -2.992188 0.640625 -3.296875 C 0.648438 -3.609375 0.660156 -3.828125 0.671875 -3.953125 C 0.691406 -4.359375 0.71875 -4.695312 0.75 -4.96875 C 0.789062 -5.238281 0.84375 -5.554688 0.90625 -5.921875 C 0.976562 -6.296875 1.082031 -6.632812 1.21875 -6.9375 C 1.351562 -7.238281 1.519531 -7.515625 1.71875 -7.765625 C 1.914062 -8.003906 2.132812 -8.195312 2.375 -8.34375 C 2.445312 -8.382812 2.515625 -8.421875 2.578125 -8.453125 C 2.710938 -8.515625 2.8125 -8.546875 2.875 -8.546875 C 2.9375 -8.554688 2.984375 -8.539062 3.015625 -8.5 C 3.046875 -8.476562 3.0625 -8.445312 3.0625 -8.40625 C 3.0625 -8.375 3.050781 -8.34375 3.03125 -8.3125 C 3.019531 -8.289062 3.003906 -8.257812 2.984375 -8.21875 C 2.972656 -8.175781 2.96875 -8.148438 2.96875 -8.140625 C 2.925781 -7.984375 2.894531 -7.828125 2.875 -7.671875 C 2.851562 -7.421875 2.867188 -7.117188 2.921875 -6.765625 C 2.941406 -6.523438 2.984375 -6.234375 3.046875 -5.890625 C 3.109375 -5.554688 3.164062 -5.257812 3.21875 -5 C 3.28125 -4.75 3.332031 -4.457031 3.375 -4.125 C 3.425781 -3.789062 3.457031 -3.488281 3.46875 -3.21875 C 3.476562 -3.1875 3.484375 -3.148438 3.484375 -3.109375 C 3.597656 -3.515625 3.6875 -3.8125 3.75 -4 C 3.863281 -4.332031 3.960938 -4.625 4.046875 -4.875 C 4.128906 -5.125 4.238281 -5.40625 4.375 -5.71875 C 4.507812 -6.039062 4.648438 -6.320312 4.796875 -6.5625 C 4.941406 -6.800781 5.117188 -7.046875 5.328125 -7.296875 C 5.535156 -7.546875 5.753906 -7.757812 5.984375 -7.9375 C 6.242188 -8.144531 6.515625 -8.300781 6.796875 -8.40625 C 6.941406 -8.457031 7.054688 -8.492188 7.140625 -8.515625 C 7.335938 -8.566406 7.4375 -8.546875 7.4375 -8.453125 C 7.4375 -8.421875 7.382812 -8.335938 7.28125 -8.203125 C 7.1875 -8.066406 7.113281 -7.929688 7.0625 -7.796875 C 6.925781 -7.523438 6.820312 -7.195312 6.75 -6.8125 C 6.675781 -6.394531 6.613281 -5.722656 6.5625 -4.796875 C 6.519531 -3.867188 6.445312 -3.164062 6.34375 -2.6875 C 6.164062 -1.84375 5.882812 -1.179688 5.5 -0.703125 C 5.28125 -0.441406 5.035156 -0.238281 4.765625 -0.09375 C 4.535156 0.03125 4.382812 0.0859375 4.3125 0.078125 C 4.257812 0.0664062 4.21875 0.046875 4.1875 0.015625 C 4.15625 -0.015625 4.160156 -0.0546875 4.203125 -0.109375 C 4.335938 -0.285156 4.453125 -0.476562 4.546875 -0.6875 C 4.648438 -0.90625 4.726562 -1.101562 4.78125 -1.28125 C 4.84375 -1.457031 4.890625 -1.679688 4.921875 -1.953125 C 4.960938 -2.222656 4.988281 -2.4375 5 -2.59375 C 5.007812 -2.757812 5.019531 -2.992188 5.03125 -3.296875 C 5.050781 -3.609375 5.0625 -3.828125 5.0625 -3.953125 C 5.082031 -4.148438 5.097656 -4.316406 5.109375 -4.453125 C 4.828125 -3.617188 4.617188 -3.035156 4.484375 -2.703125 C 4.085938 -1.734375 3.664062 -1.019531 3.21875 -0.5625 C 3.039062 -0.375 2.882812 -0.234375 2.75 -0.140625 L 2.734375 -0.140625 C 2.472656 0.015625 2.25 0.0859375 2.0625 0.078125 C 2.019531 0.078125 1.992188 0.0703125 1.984375 0.0625 C 1.953125 0.0390625 1.953125 -0.00390625 1.984375 -0.078125 C 2.023438 -0.140625 2.054688 -0.203125 2.078125 -0.265625 C 2.160156 -0.492188 2.226562 -0.726562 2.28125 -0.96875 C 2.332031 -1.1875 2.375 -1.414062 2.40625 -1.65625 C 2.414062 -1.875 2.421875 -2.109375 2.421875 -2.359375 C 2.410156 -2.578125 2.390625 -2.816406 2.359375 -3.078125 C 2.335938 -3.296875 2.304688 -3.539062 2.265625 -3.8125 C 2.253906 -3.894531 2.234375 -4.015625 2.203125 -4.171875 C 2.179688 -4.335938 2.164062 -4.460938 2.15625 -4.546875 C 2.101562 -3.765625 2.03125 -3.144531 1.9375 -2.6875 C 1.757812 -1.832031 1.476562 -1.164062 1.09375 -0.6875 C 0.882812 -0.445312 0.640625 -0.25 0.359375 -0.09375 C 0.140625 0.03125 -0.0078125 0.0859375 -0.09375 0.078125 Z M -0.09375 0.078125 "/></g></g></g><g fill="#ffffff" fill-opacity="1"><g transform="translate(10.504957, 14.240238)"><g><path d="M 0.375 -3.015625 C 0.34375 -4.390625 0.625 -5.550781 1.21875 -6.5 C 1.65625 -7.207031 2.210938 -7.703125 2.890625 -7.984375 C 3.171875 -8.109375 3.484375 -8.191406 3.828125 -8.234375 C 3.972656 -8.242188 4.175781 -8.25 4.4375 -8.25 C 4.707031 -8.25 4.914062 -8.253906 5.0625 -8.265625 C 5.21875 -8.273438 5.359375 -8.34375 5.484375 -8.46875 C 5.535156 -8.53125 5.570312 -8.5625 5.59375 -8.5625 C 5.632812 -8.5625 5.664062 -8.539062 5.6875 -8.5 C 5.71875 -8.46875 5.722656 -8.4375 5.703125 -8.40625 C 5.648438 -8.269531 5.554688 -8.160156 5.421875 -8.078125 C 5.285156 -7.992188 5.160156 -7.9375 5.046875 -7.90625 C 4.929688 -7.882812 4.769531 -7.859375 4.5625 -7.828125 C 4.363281 -7.804688 4.234375 -7.789062 4.171875 -7.78125 C 3.378906 -7.613281 2.804688 -7.132812 2.453125 -6.34375 C 2.148438 -5.6875 1.894531 -4.753906 1.6875 -3.546875 C 1.488281 -2.347656 1.472656 -1.53125 1.640625 -1.09375 C 1.765625 -0.738281 2.023438 -0.578125 2.421875 -0.609375 C 2.753906 -0.617188 3.035156 -0.785156 3.265625 -1.109375 C 3.554688 -1.566406 3.816406 -2.253906 4.046875 -3.171875 C 4.285156 -4.085938 4.441406 -4.863281 4.515625 -5.5 C 4.585938 -6.019531 4.578125 -6.421875 4.484375 -6.703125 C 4.410156 -6.890625 4.3125 -7.019531 4.1875 -7.09375 C 4.101562 -7.132812 4.007812 -7.15625 3.90625 -7.15625 C 3.8125 -7.15625 3.742188 -7.15625 3.703125 -7.15625 C 3.648438 -7.175781 3.617188 -7.195312 3.609375 -7.21875 C 3.597656 -7.25 3.597656 -7.273438 3.609375 -7.296875 C 3.628906 -7.328125 3.648438 -7.351562 3.671875 -7.375 C 3.703125 -7.40625 3.734375 -7.429688 3.765625 -7.453125 C 3.941406 -7.554688 4.128906 -7.601562 4.328125 -7.59375 C 4.679688 -7.570312 4.972656 -7.40625 5.203125 -7.09375 C 5.429688 -6.78125 5.585938 -6.421875 5.671875 -6.015625 C 5.816406 -5.328125 5.789062 -4.503906 5.59375 -3.546875 C 5.507812 -3.160156 5.394531 -2.789062 5.25 -2.4375 C 5.113281 -2.082031 4.941406 -1.722656 4.734375 -1.359375 C 4.535156 -1.003906 4.273438 -0.703125 3.953125 -0.453125 C 3.640625 -0.210938 3.300781 -0.0507812 2.9375 0.03125 C 2.550781 0.113281 2.179688 0.0976562 1.828125 -0.015625 C 1.472656 -0.140625 1.1875 -0.351562 0.96875 -0.65625 C 0.75 -0.957031 0.597656 -1.304688 0.515625 -1.703125 C 0.429688 -2.109375 0.382812 -2.546875 0.375 -3.015625 Z M 0.375 -3.015625 "/></g></g></g><g fill="#ffffff" fill-opacity="1"><g transform="translate(16.636793, 14.240238)"><g><path d="M 2.34375 -4.484375 C 2.195312 -4.703125 2.0625 -4.898438 1.9375 -5.078125 C 1.445312 -5.878906 1.253906 -6.625 1.359375 -7.3125 C 1.398438 -7.5625 1.484375 -7.800781 1.609375 -8.03125 C 1.703125 -8.195312 1.800781 -8.335938 1.90625 -8.453125 C 1.976562 -8.535156 2.050781 -8.566406 2.125 -8.546875 C 2.164062 -8.523438 2.175781 -8.484375 2.15625 -8.421875 C 2 -7.703125 2.085938 -7.078125 2.421875 -6.546875 C 2.566406 -6.316406 2.75 -6.070312 2.96875 -5.8125 C 2.976562 -5.820312 2.988281 -5.835938 3 -5.859375 C 3.007812 -5.890625 3.019531 -5.910156 3.03125 -5.921875 C 3.53125 -6.878906 4.070312 -7.582031 4.65625 -8.03125 C 4.882812 -8.195312 5.117188 -8.328125 5.359375 -8.421875 C 5.578125 -8.503906 5.796875 -8.550781 6.015625 -8.5625 C 6.140625 -8.5625 6.207031 -8.535156 6.21875 -8.484375 C 6.25 -8.410156 6.226562 -8.359375 6.15625 -8.328125 C 5.601562 -8.078125 5.128906 -7.554688 4.734375 -6.765625 C 4.515625 -6.304688 4.242188 -5.625 3.921875 -4.71875 C 4.441406 -4.125 4.828125 -3.546875 5.078125 -2.984375 C 5.328125 -2.421875 5.378906 -1.828125 5.234375 -1.203125 C 5.160156 -0.898438 5.039062 -0.625 4.875 -0.375 C 4.851562 -0.332031 4.832031 -0.296875 4.8125 -0.265625 C 4.789062 -0.242188 4.757812 -0.203125 4.71875 -0.140625 C 4.675781 -0.0859375 4.640625 -0.046875 4.609375 -0.015625 C 4.578125 0.015625 4.539062 0.0390625 4.5 0.0625 C 4.46875 0.09375 4.429688 0.0976562 4.390625 0.078125 C 4.359375 0.0546875 4.335938 0.0195312 4.328125 -0.03125 C 4.316406 -0.0625 4.304688 -0.101562 4.296875 -0.15625 C 4.296875 -0.207031 4.296875 -0.257812 4.296875 -0.3125 C 4.304688 -0.375 4.304688 -0.421875 4.296875 -0.453125 C 4.296875 -0.585938 4.289062 -0.710938 4.28125 -0.828125 C 4.238281 -1.140625 4.175781 -1.425781 4.09375 -1.6875 C 3.957031 -2.132812 3.710938 -2.613281 3.359375 -3.125 C 3.117188 -2.5 2.851562 -1.953125 2.5625 -1.484375 C 2.269531 -1.015625 1.910156 -0.628906 1.484375 -0.328125 C 1.128906 -0.078125 0.773438 0.0546875 0.421875 0.078125 C 0.148438 0.0976562 0.015625 0.0546875 0.015625 -0.046875 C 0.015625 -0.0859375 0.0351562 -0.128906 0.078125 -0.171875 C 0.117188 -0.222656 0.171875 -0.265625 0.234375 -0.296875 C 0.304688 -0.335938 0.347656 -0.367188 0.359375 -0.390625 C 0.515625 -0.535156 0.664062 -0.71875 0.8125 -0.9375 C 0.957031 -1.164062 1.0625 -1.351562 1.125 -1.5 C 1.1875 -1.65625 1.28125 -1.878906 1.40625 -2.171875 C 1.488281 -2.359375 1.585938 -2.597656 1.703125 -2.890625 C 1.828125 -3.191406 1.941406 -3.472656 2.046875 -3.734375 C 2.148438 -4.003906 2.25 -4.253906 2.34375 -4.484375 Z M 2.34375 -4.484375 "/></g></g></g><g fill="#ffffff" fill-opacity="1"><g transform="translate(22.922558, 14.240238)"><g><path d="M 0.90625 -0.984375 C 1.03125 -0.785156 1.015625 -0.566406 0.859375 -0.328125 C 0.710938 -0.0976562 0.523438 0.03125 0.296875 0.0625 C 0.078125 0.09375 -0.109375 0.0078125 -0.265625 -0.1875 C -0.390625 -0.394531 -0.375 -0.613281 -0.21875 -0.84375 C -0.0703125 -1.070312 0.109375 -1.203125 0.328125 -1.234375 C 0.554688 -1.273438 0.75 -1.191406 0.90625 -0.984375 Z M 0.90625 -0.984375 "/></g></g></g><g fill="#ffffff" fill-opacity="1"><g transform="translate(3.854438, 23.904553)"><g><path d="M 3.78125 0.109375 C 3.828125 0.078125 3.847656 0.0429688 3.882812 0.0234375 C 3.890625 0.0117188 3.925781 0.0117188 3.949219 0.0117188 C 4.035156 0.03125 4.089844 0.03125 4.15625 -0.0234375 C 4.246094 -0.0898438 4.332031 -0.15625 4.386719 -0.242188 C 4.445312 -0.332031 4.445312 -0.453125 4.464844 -0.5625 C 4.464844 -0.574219 4.445312 -0.585938 4.445312 -0.59375 C 4.34375 -0.539062 4.355469 -0.539062 4.277344 -0.605469 C 4.210938 -0.671875 4.113281 -0.660156 4.035156 -0.683594 C 4.023438 -0.695312 4.011719 -0.671875 4.003906 -0.660156 C 3.96875 -0.617188 3.9375 -0.628906 3.902344 -0.671875 C 3.871094 -0.707031 3.835938 -0.761719 3.804688 -0.773438 C 3.671875 -0.78125 3.628906 -0.902344 3.539062 -0.960938 C 3.441406 -1.015625 3.363281 -1.101562 3.265625 -1.148438 C 3.242188 -1.148438 3.21875 -1.15625 3.21875 -1.167969 C 3.21875 -1.222656 3.175781 -1.234375 3.152344 -1.257812 C 3.121094 -1.3125 3.03125 -1.335938 3.042969 -1.421875 C 3.042969 -1.421875 3.019531 -1.445312 3.011719 -1.445312 C 2.898438 -1.433594 2.855469 -1.53125 2.777344 -1.585938 C 2.757812 -1.597656 2.734375 -1.597656 2.703125 -1.609375 C 2.691406 -1.621094 2.667969 -1.609375 2.65625 -1.621094 C 2.546875 -1.6875 2.449219 -1.765625 2.335938 -1.832031 C 2.269531 -1.863281 2.226562 -1.917969 2.214844 -1.984375 C 2.183594 -1.984375 2.140625 -1.984375 2.105469 -1.984375 C 2.128906 -2.183594 2.214844 -2.347656 2.28125 -2.523438 C 2.304688 -2.523438 2.335938 -2.535156 2.371094 -2.546875 C 2.347656 -2.570312 2.328125 -2.601562 2.328125 -2.625 C 2.328125 -2.644531 2.335938 -2.679688 2.347656 -2.703125 C 2.382812 -2.789062 2.402344 -2.878906 2.4375 -2.957031 C 2.46875 -3.019531 2.523438 -3.078125 2.535156 -3.164062 C 2.535156 -3.175781 2.546875 -3.199219 2.558594 -3.207031 C 2.570312 -3.230469 2.589844 -3.265625 2.613281 -3.285156 C 2.667969 -3.351562 2.703125 -3.441406 2.746094 -3.507812 C 2.789062 -3.550781 2.8125 -3.605469 2.832031 -3.648438 C 2.878906 -3.703125 2.890625 -3.78125 2.945312 -3.828125 C 3.019531 -3.890625 3.042969 -3.980469 3.085938 -4.058594 C 3.164062 -4.144531 3.199219 -4.257812 3.273438 -4.332031 C 3.339844 -4.398438 3.375 -4.464844 3.386719 -4.542969 C 3.429688 -4.574219 3.472656 -4.597656 3.515625 -4.632812 C 3.507812 -4.652344 3.496094 -4.6875 3.496094 -4.707031 C 3.515625 -4.761719 3.539062 -4.820312 3.550781 -4.886719 C 3.5625 -4.90625 3.5625 -4.929688 3.550781 -4.949219 C 3.507812 -5.015625 3.496094 -5.070312 3.527344 -5.160156 C 3.574219 -5.257812 3.628906 -5.371094 3.59375 -5.492188 C 3.59375 -5.511719 3.605469 -5.523438 3.605469 -5.546875 C 3.628906 -5.613281 3.640625 -5.691406 3.648438 -5.757812 C 3.648438 -5.765625 3.648438 -5.777344 3.648438 -5.789062 C 3.605469 -5.84375 3.574219 -5.910156 3.527344 -5.964844 C 3.507812 -6 3.472656 -6.042969 3.453125 -6.085938 C 3.417969 -6.128906 3.40625 -6.1875 3.386719 -6.230469 C 3.394531 -6.253906 3.40625 -6.261719 3.417969 -6.273438 C 3.375 -6.316406 3.328125 -6.351562 3.296875 -6.394531 C 3.242188 -6.394531 3.199219 -6.417969 3.152344 -6.441406 C 3.097656 -6.449219 3.078125 -6.515625 3 -6.484375 C 2.988281 -6.472656 2.945312 -6.496094 2.933594 -6.515625 C 2.867188 -6.582031 2.800781 -6.59375 2.710938 -6.605469 C 2.65625 -6.617188 2.570312 -6.550781 2.523438 -6.648438 C 2.523438 -6.648438 2.515625 -6.648438 2.503906 -6.648438 C 2.449219 -6.648438 2.382812 -6.671875 2.316406 -6.636719 C 2.292969 -6.617188 2.261719 -6.617188 2.238281 -6.628906 C 2.128906 -6.683594 1.996094 -6.648438 1.875 -6.660156 C 1.808594 -6.671875 1.730469 -6.683594 1.664062 -6.683594 C 1.609375 -6.648438 1.554688 -6.617188 1.488281 -6.582031 C 1.445312 -6.5625 1.398438 -6.550781 1.355469 -6.527344 C 1.289062 -6.472656 1.222656 -6.429688 1.148438 -6.503906 C 1.136719 -6.515625 1.113281 -6.503906 1.113281 -6.503906 C 1.082031 -6.527344 1.046875 -6.539062 1.015625 -6.550781 C 0.96875 -6.582031 0.925781 -6.636719 0.894531 -6.636719 C 0.816406 -6.617188 0.75 -6.5625 0.683594 -6.515625 C 0.671875 -6.503906 0.671875 -6.484375 0.660156 -6.472656 C 0.640625 -6.449219 0.617188 -6.429688 0.59375 -6.394531 C 0.550781 -6.308594 0.484375 -6.230469 0.464844 -6.128906 C 0.453125 -6.074219 0.441406 -6.007812 0.453125 -5.941406 C 0.453125 -5.886719 0.453125 -5.84375 0.417969 -5.800781 C 0.398438 -5.757812 0.375 -5.722656 0.417969 -5.667969 C 0.429688 -5.65625 0.429688 -5.632812 0.429688 -5.613281 C 0.429688 -5.589844 0.441406 -5.558594 0.441406 -5.523438 C 0.441406 -5.492188 0.441406 -5.457031 0.441406 -5.414062 C 0.453125 -5.390625 0.429688 -5.359375 0.441406 -5.335938 C 0.484375 -5.25 0.429688 -5.183594 0.375 -5.128906 C 0.417969 -5.070312 0.453125 -5.027344 0.417969 -4.949219 C 0.398438 -4.90625 0.363281 -4.839844 0.386719 -4.808594 C 0.429688 -4.707031 0.386719 -4.640625 0.363281 -4.566406 C 0.34375 -4.464844 0.332031 -4.355469 0.320312 -4.257812 C 0.320312 -4.199219 0.277344 -4.144531 0.296875 -4.078125 C 0.308594 -4.035156 0.34375 -3.992188 0.34375 -3.949219 C 0.34375 -3.835938 0.332031 -3.738281 0.332031 -3.640625 C 0.320312 -3.617188 0.308594 -3.582031 0.320312 -3.582031 C 0.375 -3.539062 0.320312 -3.507812 0.320312 -3.472656 C 0.308594 -3.429688 0.296875 -3.40625 0.308594 -3.363281 C 0.320312 -3.285156 0.332031 -3.1875 0.308594 -3.121094 C 0.285156 -3.03125 0.296875 -2.976562 0.34375 -2.910156 C 0.265625 -2.855469 0.277344 -2.824219 0.296875 -2.722656 C 0.320312 -2.625 0.34375 -2.523438 0.265625 -2.449219 C 0.265625 -2.394531 0.265625 -2.347656 0.265625 -2.304688 C 0.277344 -2.226562 0.285156 -2.160156 0.277344 -2.085938 C 0.277344 -2.019531 0.265625 -1.953125 0.242188 -1.898438 C 0.242188 -1.851562 0.21875 -1.832031 0.21875 -1.808594 C 0.21875 -1.71875 0.21875 -1.644531 0.21875 -1.566406 C 0.230469 -1.53125 0.230469 -1.5 0.230469 -1.464844 C 0.242188 -1.433594 0.265625 -1.390625 0.265625 -1.355469 C 0.265625 -1.257812 0.230469 -1.148438 0.265625 -1.058594 C 0.308594 -0.925781 0.21875 -0.804688 0.265625 -0.683594 C 0.265625 -0.660156 0.253906 -0.628906 0.285156 -0.59375 C 0.296875 -0.585938 0.296875 -0.539062 0.296875 -0.519531 C 0.308594 -0.484375 0.308594 -0.441406 0.308594 -0.40625 C 0.320312 -0.34375 0.363281 -0.253906 0.285156 -0.199219 C 0.277344 -0.1875 0.277344 -0.164062 0.277344 -0.15625 C 0.320312 -0.078125 0.265625 -0.0429688 0.230469 0 C 0.21875 0 0.21875 0.0234375 0.21875 0.0234375 C 0.230469 0.0429688 0.242188 0.0664062 0.265625 0.0898438 C 0.308594 0.0664062 0.363281 0.0429688 0.386719 0.121094 C 0.386719 0.132812 0.417969 0.144531 0.441406 0.144531 C 0.507812 0.164062 0.574219 0.175781 0.640625 0.175781 C 0.761719 0.1875 0.871094 0.199219 0.96875 0.132812 C 1.035156 0.078125 1.101562 0.0429688 1.179688 -0.0117188 C 1.167969 -0.0234375 1.15625 -0.03125 1.15625 -0.03125 C 1.214844 -0.132812 1.269531 -0.210938 1.324219 -0.308594 C 1.300781 -0.363281 1.300781 -0.441406 1.335938 -0.496094 C 1.34375 -0.507812 1.34375 -0.539062 1.34375 -0.550781 C 1.300781 -0.605469 1.335938 -0.652344 1.355469 -0.695312 C 1.367188 -0.738281 1.367188 -0.773438 1.367188 -0.816406 C 1.367188 -0.871094 1.300781 -0.9375 1.378906 -0.992188 C 1.390625 -1.003906 1.378906 -1.027344 1.378906 -1.046875 C 1.367188 -1.089844 1.355469 -1.136719 1.367188 -1.179688 C 1.390625 -1.234375 1.367188 -1.289062 1.367188 -1.34375 C 1.367188 -1.378906 1.378906 -1.410156 1.378906 -1.445312 C 1.433594 -1.410156 1.464844 -1.378906 1.5 -1.378906 C 1.53125 -1.378906 1.53125 -1.378906 1.566406 -1.355469 C 1.609375 -1.324219 1.644531 -1.269531 1.71875 -1.277344 C 1.808594 -1.300781 1.929688 -1.191406 1.953125 -1.101562 C 2.0625 -1.113281 2.105469 -1.015625 2.195312 -0.96875 C 2.238281 -0.949219 2.292969 -0.914062 2.328125 -0.882812 C 2.394531 -0.78125 2.492188 -0.726562 2.582031 -0.660156 C 2.613281 -0.640625 2.65625 -0.617188 2.691406 -0.585938 C 2.789062 -0.519531 2.890625 -0.441406 3 -0.375 C 3.078125 -0.34375 3.152344 -0.285156 3.164062 -0.175781 C 3.265625 -0.21875 3.363281 -0.144531 3.40625 -0.0234375 C 3.472656 0.0117188 3.515625 0.0429688 3.5625 0.0664062 C 3.617188 0.03125 3.617188 0.03125 3.78125 0.109375 Z M 1.6875 -3.351562 C 1.664062 -3.320312 1.652344 -3.273438 1.632812 -3.242188 C 1.597656 -3.1875 1.566406 -3.132812 1.53125 -3.078125 C 1.511719 -3.054688 1.488281 -3.03125 1.464844 -3.03125 C 1.433594 -3.03125 1.421875 -3.066406 1.433594 -3.109375 C 1.464844 -3.199219 1.421875 -3.285156 1.410156 -3.375 C 1.398438 -3.460938 1.390625 -3.5625 1.488281 -3.628906 C 1.464844 -3.660156 1.445312 -3.683594 1.445312 -3.695312 C 1.445312 -3.804688 1.457031 -3.890625 1.457031 -4.003906 C 1.457031 -4.003906 1.445312 -4.023438 1.433594 -4.035156 C 1.433594 -4.046875 1.421875 -4.058594 1.433594 -4.058594 C 1.488281 -4.144531 1.457031 -4.246094 1.464844 -4.332031 C 1.464844 -4.378906 1.464844 -4.421875 1.464844 -4.464844 C 1.464844 -4.464844 1.476562 -4.464844 1.488281 -4.464844 C 1.464844 -4.476562 1.445312 -4.5 1.433594 -4.519531 C 1.433594 -4.53125 1.433594 -4.53125 1.433594 -4.542969 C 1.488281 -4.585938 1.511719 -4.632812 1.488281 -4.707031 C 1.476562 -4.71875 1.476562 -4.742188 1.476562 -4.761719 C 1.511719 -4.839844 1.476562 -4.929688 1.476562 -5.007812 C 1.464844 -5.0625 1.464844 -5.105469 1.5 -5.160156 C 1.523438 -5.226562 1.554688 -5.269531 1.609375 -5.324219 C 1.644531 -5.335938 1.644531 -5.402344 1.644531 -5.445312 C 1.644531 -5.492188 1.621094 -5.535156 1.597656 -5.589844 C 1.644531 -5.601562 1.675781 -5.613281 1.71875 -5.613281 C 1.808594 -5.601562 1.90625 -5.589844 1.996094 -5.578125 C 2.027344 -5.578125 2.0625 -5.589844 2.09375 -5.589844 C 2.128906 -5.589844 2.183594 -5.601562 2.214844 -5.601562 C 2.25 -5.589844 2.261719 -5.589844 2.292969 -5.601562 C 2.328125 -5.625 2.382812 -5.632812 2.425781 -5.613281 C 2.523438 -5.578125 2.644531 -5.558594 2.757812 -5.535156 C 2.8125 -5.523438 2.878906 -5.511719 2.933594 -5.503906 C 2.957031 -5.492188 2.976562 -5.457031 2.988281 -5.4375 C 3.011719 -5.347656 3 -5.269531 2.933594 -5.203125 C 2.890625 -5.148438 2.84375 -5.082031 2.789062 -5.039062 C 2.746094 -5.007812 2.703125 -4.984375 2.644531 -4.949219 C 2.691406 -4.894531 2.710938 -4.851562 2.636719 -4.839844 C 2.625 -4.839844 2.625 -4.828125 2.613281 -4.820312 C 2.589844 -4.699219 2.480469 -4.632812 2.425781 -4.53125 C 2.394531 -4.488281 2.371094 -4.433594 2.359375 -4.378906 C 2.347656 -4.367188 2.347656 -4.34375 2.335938 -4.332031 C 2.226562 -4.246094 2.160156 -4.125 2.09375 -4.003906 C 2.039062 -3.914062 1.972656 -3.828125 1.917969 -3.738281 C 1.851562 -3.640625 1.753906 -3.539062 1.730469 -3.417969 C 1.730469 -3.394531 1.699219 -3.386719 1.675781 -3.363281 C 1.675781 -3.363281 1.675781 -3.351562 1.6875 -3.351562 Z M 1.6875 -3.351562 "/></g></g></g><g fill="#ffffff" fill-opacity="1"><g transform="translate(8.540762, 23.904553)"><g><path d="M 0.605469 -2.570312 C 0.585938 -2.535156 0.539062 -2.515625 0.527344 -2.492188 C 0.464844 -2.347656 0.472656 -2.183594 0.417969 -2.027344 C 0.386719 -1.941406 0.441406 -1.820312 0.363281 -1.71875 C 0.351562 -1.710938 0.363281 -1.6875 0.363281 -1.675781 C 0.386719 -1.632812 0.363281 -1.597656 0.332031 -1.566406 C 0.320312 -1.554688 0.308594 -1.53125 0.308594 -1.523438 C 0.296875 -1.433594 0.285156 -1.355469 0.285156 -1.277344 C 0.285156 -1.191406 0.265625 -1.125 0.21875 -1.046875 C 0.210938 -1.027344 0.199219 -0.992188 0.210938 -0.980469 C 0.242188 -0.925781 0.21875 -0.894531 0.1875 -0.859375 C 0.164062 -0.828125 0.15625 -0.78125 0.144531 -0.75 C 0.144531 -0.683594 0.121094 -0.640625 0.078125 -0.585938 C 0.078125 -0.585938 0.0664062 -0.5625 0.0664062 -0.550781 C 0.0429688 -0.453125 0.0664062 -0.363281 0.144531 -0.296875 C 0.121094 -0.277344 0.109375 -0.253906 0.0898438 -0.242188 C 0.121094 -0.230469 0.144531 -0.21875 0.164062 -0.210938 C 0.164062 -0.199219 0.15625 -0.175781 0.164062 -0.164062 C 0.21875 -0.109375 0.277344 -0.0234375 0.34375 0 C 0.417969 0.0234375 0.441406 0.0664062 0.453125 0.132812 C 0.496094 0.121094 0.539062 0.121094 0.574219 0.121094 C 0.660156 0.121094 0.738281 0.109375 0.792969 0.199219 C 0.828125 0.253906 0.859375 0.253906 0.914062 0.21875 C 1.058594 0.15625 1.148438 0.03125 1.257812 -0.0664062 C 1.3125 -0.121094 1.34375 -0.1875 1.335938 -0.265625 C 1.335938 -0.308594 1.324219 -0.363281 1.324219 -0.398438 C 1.335938 -0.429688 1.367188 -0.441406 1.367188 -0.472656 C 1.390625 -0.550781 1.421875 -0.640625 1.421875 -0.726562 C 1.445312 -0.859375 1.433594 -0.859375 1.464844 -0.914062 C 1.476562 -0.925781 1.488281 -0.960938 1.488281 -0.96875 C 1.464844 -1.058594 1.5 -1.125 1.53125 -1.191406 C 1.542969 -1.222656 1.542969 -1.269531 1.554688 -1.300781 C 1.554688 -1.335938 1.566406 -1.355469 1.566406 -1.390625 C 1.578125 -1.464844 1.597656 -1.554688 1.609375 -1.632812 C 1.621094 -1.710938 1.621094 -1.796875 1.644531 -1.875 C 1.664062 -1.929688 1.6875 -1.984375 1.644531 -2.039062 C 1.742188 -2.105469 1.832031 -2.128906 1.941406 -2.117188 C 2.007812 -2.117188 2.09375 -2.140625 2.128906 -2.183594 C 2.160156 -2.238281 2.195312 -2.25 2.25 -2.261719 C 2.335938 -2.28125 2.449219 -2.25 2.515625 -2.328125 C 2.523438 -2.335938 2.535156 -2.328125 2.535156 -2.328125 C 2.582031 -2.335938 2.625 -2.335938 2.667969 -2.347656 C 2.691406 -2.316406 2.710938 -2.28125 2.734375 -2.25 C 2.710938 -2.226562 2.703125 -2.207031 2.691406 -2.183594 C 2.746094 -2.105469 2.777344 -2.039062 2.722656 -1.984375 C 2.734375 -1.90625 2.722656 -1.851562 2.746094 -1.808594 C 2.769531 -1.71875 2.734375 -1.644531 2.789062 -1.566406 C 2.8125 -1.523438 2.824219 -1.433594 2.789062 -1.378906 C 2.734375 -1.289062 2.800781 -1.214844 2.8125 -1.136719 C 2.824219 -1.082031 2.832031 -1.003906 2.832031 -0.949219 C 2.832031 -0.859375 2.832031 -0.792969 2.910156 -0.738281 C 2.898438 -0.640625 2.824219 -0.539062 2.910156 -0.441406 C 2.898438 -0.40625 2.878906 -0.375 2.890625 -0.351562 C 2.933594 -0.277344 2.84375 -0.164062 2.957031 -0.109375 C 2.957031 -0.109375 2.957031 -0.0976562 2.957031 -0.0976562 C 2.957031 0.0117188 2.976562 0.109375 3.066406 0.164062 C 3.085938 0.1875 3.085938 0.21875 3.097656 0.242188 C 3.109375 0.253906 3.132812 0.277344 3.152344 0.277344 C 3.242188 0.296875 3.320312 0.332031 3.40625 0.308594 C 3.507812 0.296875 3.605469 0.296875 3.703125 0.285156 C 3.714844 0.285156 3.726562 0.277344 3.738281 0.265625 C 3.78125 0.21875 3.828125 0.175781 3.871094 0.132812 C 3.9375 0.0664062 3.957031 -0.0234375 3.992188 -0.0976562 C 4.023438 -0.175781 4.023438 -0.265625 3.992188 -0.332031 C 3.96875 -0.398438 3.96875 -0.441406 3.992188 -0.496094 C 3.992188 -0.507812 4.003906 -0.527344 3.992188 -0.539062 C 3.96875 -0.695312 3.902344 -0.839844 3.949219 -0.992188 C 3.949219 -0.992188 3.949219 -1.003906 3.9375 -1.003906 C 3.914062 -1.070312 3.882812 -1.148438 3.859375 -1.214844 C 3.847656 -1.234375 3.859375 -1.269531 3.871094 -1.277344 C 3.914062 -1.324219 3.890625 -1.378906 3.890625 -1.410156 C 3.859375 -1.53125 3.828125 -1.652344 3.859375 -1.773438 C 3.859375 -1.773438 3.859375 -1.773438 3.859375 -1.785156 C 3.816406 -1.851562 3.804688 -1.917969 3.78125 -1.996094 C 3.78125 -2.019531 3.769531 -2.039062 3.769531 -2.0625 C 3.769531 -2.117188 3.792969 -2.171875 3.769531 -2.214844 C 3.726562 -2.347656 3.769531 -2.480469 3.726562 -2.625 C 3.683594 -2.769531 3.695312 -2.921875 3.683594 -3.066406 C 3.683594 -3.132812 3.671875 -3.199219 3.671875 -3.265625 C 3.671875 -3.351562 3.671875 -3.394531 3.648438 -3.484375 C 3.648438 -3.507812 3.660156 -3.539062 3.660156 -3.574219 C 3.660156 -3.59375 3.671875 -3.617188 3.671875 -3.640625 C 3.648438 -3.726562 3.628906 -3.828125 3.617188 -3.925781 C 3.605469 -3.9375 3.605469 -3.957031 3.605469 -3.980469 C 3.59375 -4.070312 3.582031 -4.144531 3.582031 -4.246094 C 3.574219 -4.289062 3.582031 -4.332031 3.582031 -4.378906 C 3.605469 -4.445312 3.539062 -4.453125 3.484375 -4.476562 C 3.527344 -4.53125 3.574219 -4.574219 3.59375 -4.609375 C 3.574219 -4.699219 3.527344 -4.773438 3.539062 -4.839844 C 3.550781 -4.886719 3.539062 -4.941406 3.539062 -4.984375 C 3.539062 -5.082031 3.539062 -5.195312 3.527344 -5.304688 C 3.527344 -5.371094 3.515625 -5.425781 3.515625 -5.492188 C 3.507812 -5.535156 3.507812 -5.578125 3.507812 -5.632812 C 3.496094 -5.667969 3.484375 -5.699219 3.496094 -5.746094 C 3.515625 -5.789062 3.515625 -5.855469 3.507812 -5.910156 C 3.507812 -5.988281 3.496094 -6.074219 3.484375 -6.152344 C 3.472656 -6.195312 3.441406 -6.253906 3.460938 -6.273438 C 3.515625 -6.375 3.460938 -6.460938 3.460938 -6.550781 C 3.472656 -6.628906 3.441406 -6.714844 3.453125 -6.804688 C 3.453125 -6.835938 3.453125 -6.871094 3.429688 -6.914062 C 3.40625 -6.945312 3.386719 -7 3.429688 -7.046875 C 3.472656 -7.089844 3.460938 -7.144531 3.429688 -7.1875 C 3.386719 -7.265625 3.339844 -7.332031 3.375 -7.421875 C 3.386719 -7.433594 3.375 -7.453125 3.363281 -7.464844 C 3.328125 -7.507812 3.285156 -7.542969 3.308594 -7.609375 C 3.308594 -7.609375 3.296875 -7.628906 3.285156 -7.640625 C 3.242188 -7.664062 3.230469 -7.707031 3.230469 -7.75 C 3.230469 -7.785156 3.21875 -7.808594 3.1875 -7.839844 C 3.164062 -7.851562 3.152344 -7.894531 3.132812 -7.929688 C 3.097656 -7.960938 3.078125 -8.003906 3.042969 -8.039062 C 2.988281 -8.09375 2.921875 -8.136719 2.867188 -8.183594 C 2.867188 -8.183594 2.878906 -8.191406 2.890625 -8.203125 C 2.867188 -8.191406 2.84375 -8.191406 2.824219 -8.191406 C 2.734375 -8.191406 2.636719 -8.238281 2.601562 -8.105469 C 2.601562 -8.09375 2.589844 -8.09375 2.570312 -8.082031 C 2.480469 -8.039062 2.425781 -7.90625 2.449219 -7.808594 C 2.457031 -7.75 2.449219 -7.683594 2.449219 -7.640625 C 2.382812 -7.621094 2.347656 -7.640625 2.328125 -7.683594 C 2.316406 -7.695312 2.304688 -7.71875 2.28125 -7.71875 C 2.117188 -7.773438 1.953125 -7.816406 1.785156 -7.863281 C 1.753906 -7.871094 1.71875 -7.851562 1.699219 -7.828125 C 1.632812 -7.785156 1.578125 -7.742188 1.53125 -7.675781 C 1.476562 -7.609375 1.398438 -7.554688 1.410156 -7.441406 C 1.410156 -7.410156 1.398438 -7.367188 1.390625 -7.332031 C 1.367188 -7.277344 1.335938 -7.222656 1.378906 -7.1875 C 1.378906 -7.132812 1.367188 -7.089844 1.367188 -7.058594 C 1.367188 -7.046875 1.367188 -7.035156 1.355469 -7.023438 C 1.3125 -6.980469 1.300781 -6.925781 1.300781 -6.859375 C 1.289062 -6.804688 1.277344 -6.738281 1.257812 -6.683594 C 1.222656 -6.582031 1.234375 -6.472656 1.15625 -6.375 C 1.15625 -6.375 1.15625 -6.351562 1.167969 -6.328125 C 1.203125 -6.242188 1.214844 -6.242188 1.136719 -6.1875 C 1.136719 -6.164062 1.15625 -6.128906 1.148438 -6.121094 C 1.101562 -6.007812 1.082031 -5.898438 1.082031 -5.789062 C 1.082031 -5.746094 1.082031 -5.699219 1.070312 -5.667969 C 1.082031 -5.65625 1.089844 -5.65625 1.089844 -5.65625 C 1.058594 -5.632812 1.035156 -5.613281 1.003906 -5.589844 C 1.003906 -5.570312 0.992188 -5.558594 0.992188 -5.535156 C 1.003906 -5.457031 0.992188 -5.390625 0.949219 -5.335938 C 0.9375 -5.324219 0.9375 -5.292969 0.9375 -5.269531 C 0.9375 -5.257812 0.949219 -5.238281 0.949219 -5.226562 C 0.925781 -5.160156 0.902344 -5.09375 0.894531 -5.027344 C 0.882812 -4.996094 0.871094 -4.949219 0.882812 -4.929688 C 0.914062 -4.875 0.882812 -4.839844 0.871094 -4.796875 C 0.839844 -4.71875 0.804688 -4.652344 0.828125 -4.566406 C 0.839844 -4.488281 0.816406 -4.398438 0.804688 -4.3125 C 0.792969 -4.210938 0.75 -4.101562 0.773438 -4.003906 C 0.78125 -3.925781 0.761719 -3.882812 0.726562 -3.835938 C 0.714844 -3.816406 0.695312 -3.769531 0.707031 -3.769531 C 0.738281 -3.714844 0.707031 -3.671875 0.695312 -3.628906 C 0.671875 -3.574219 0.683594 -3.515625 0.683594 -3.460938 C 0.671875 -3.375 0.652344 -3.285156 0.640625 -3.199219 C 0.628906 -3.152344 0.652344 -3.109375 0.640625 -3.066406 C 0.605469 -2.921875 0.574219 -2.777344 0.539062 -2.625 C 0.539062 -2.625 0.539062 -2.613281 0.539062 -2.613281 C 0.5625 -2.601562 0.585938 -2.582031 0.605469 -2.570312 Z M 2.207031 -3.386719 C 2.128906 -3.308594 2.039062 -3.320312 1.953125 -3.375 C 1.941406 -3.550781 1.941406 -3.726562 2.007812 -3.890625 C 1.996094 -3.902344 1.984375 -3.925781 1.972656 -3.9375 C 2.039062 -4.058594 2.007812 -4.179688 2.019531 -4.300781 C 2.027344 -4.378906 2.039062 -4.453125 2.050781 -4.519531 C 2.0625 -4.585938 2.0625 -4.664062 2.074219 -4.71875 C 2.085938 -4.761719 2.074219 -4.808594 2.105469 -4.851562 C 2.128906 -4.886719 2.117188 -4.949219 2.128906 -5.015625 C 2.128906 -5.015625 2.160156 -5.039062 2.160156 -5.050781 C 2.128906 -5.160156 2.160156 -5.25 2.183594 -5.347656 C 2.183594 -5.390625 2.183594 -5.445312 2.183594 -5.503906 C 2.183594 -5.511719 2.183594 -5.535156 2.183594 -5.546875 C 2.238281 -5.632812 2.214844 -5.734375 2.226562 -5.820312 C 2.238281 -5.898438 2.269531 -5.964844 2.371094 -5.976562 C 2.347656 -6 2.316406 -6.007812 2.292969 -6.019531 C 2.292969 -6.066406 2.292969 -6.109375 2.292969 -6.140625 C 2.304688 -6.21875 2.316406 -6.296875 2.328125 -6.363281 C 2.335938 -6.460938 2.359375 -6.550781 2.371094 -6.648438 C 2.371094 -6.660156 2.371094 -6.671875 2.371094 -6.683594 C 2.394531 -6.738281 2.414062 -6.792969 2.4375 -6.847656 C 2.449219 -6.835938 2.480469 -6.824219 2.492188 -6.804688 C 2.503906 -6.769531 2.523438 -6.726562 2.523438 -6.683594 C 2.515625 -6.617188 2.535156 -6.539062 2.515625 -6.484375 C 2.503906 -6.40625 2.515625 -6.375 2.546875 -6.316406 C 2.570312 -6.273438 2.601562 -6.21875 2.546875 -6.140625 C 2.515625 -6.074219 2.523438 -5.988281 2.515625 -5.910156 C 2.515625 -5.855469 2.503906 -5.800781 2.503906 -5.746094 C 2.503906 -5.710938 2.492188 -5.679688 2.503906 -5.65625 C 2.535156 -5.570312 2.523438 -5.535156 2.457031 -5.46875 C 2.523438 -5.335938 2.523438 -5.203125 2.515625 -5.0625 C 2.503906 -4.996094 2.503906 -4.917969 2.558594 -4.886719 C 2.546875 -4.839844 2.523438 -4.808594 2.523438 -4.761719 C 2.523438 -4.699219 2.546875 -4.632812 2.558594 -4.566406 C 2.570312 -4.511719 2.582031 -4.453125 2.546875 -4.398438 C 2.535156 -4.367188 2.558594 -4.3125 2.558594 -4.277344 C 2.570312 -4.179688 2.582031 -4.070312 2.589844 -3.96875 C 2.570312 -3.957031 2.546875 -3.949219 2.523438 -3.925781 C 2.546875 -3.890625 2.570312 -3.859375 2.589844 -3.835938 C 2.582031 -3.792969 2.570312 -3.75 2.570312 -3.714844 C 2.601562 -3.5625 2.601562 -3.515625 2.558594 -3.441406 C 2.582031 -3.417969 2.601562 -3.386719 2.613281 -3.363281 C 2.523438 -3.285156 2.414062 -3.296875 2.207031 -3.386719 Z M 2.207031 -3.386719 "/></g></g></g><g fill="#ffffff" fill-opacity="1"><g transform="translate(12.786014, 23.904553)"><g><path d="M 4.464844 -4.773438 C 4.476562 -4.796875 4.476562 -4.796875 4.488281 -4.808594 C 4.574219 -4.863281 4.574219 -4.875 4.519531 -4.960938 C 4.5 -4.984375 4.476562 -5.015625 4.476562 -5.050781 C 4.5 -5.117188 4.453125 -5.136719 4.433594 -5.183594 C 4.398438 -5.226562 4.34375 -5.257812 4.300781 -5.292969 C 4.277344 -5.316406 4.257812 -5.324219 4.234375 -5.335938 C 4.210938 -5.371094 4.179688 -5.390625 4.144531 -5.414062 C 4.113281 -5.46875 4.089844 -5.558594 3.992188 -5.511719 C 3.980469 -5.511719 3.957031 -5.523438 3.949219 -5.535156 C 3.882812 -5.601562 3.816406 -5.644531 3.714844 -5.65625 C 3.617188 -5.667969 3.515625 -5.722656 3.429688 -5.746094 C 3.394531 -5.757812 3.375 -5.765625 3.339844 -5.765625 C 3.296875 -5.757812 3.253906 -5.734375 3.207031 -5.722656 C 3.152344 -5.710938 3.085938 -5.667969 3.042969 -5.667969 C 2.988281 -5.679688 2.976562 -5.644531 2.945312 -5.625 C 2.898438 -5.578125 2.855469 -5.535156 2.800781 -5.503906 C 2.777344 -5.480469 2.734375 -5.492188 2.710938 -5.46875 C 2.679688 -5.4375 2.667969 -5.382812 2.636719 -5.359375 C 2.589844 -5.335938 2.546875 -5.324219 2.492188 -5.316406 C 2.480469 -5.316406 2.46875 -5.304688 2.46875 -5.292969 C 2.414062 -5.226562 2.359375 -5.214844 2.28125 -5.257812 C 2.28125 -5.238281 2.269531 -5.214844 2.269531 -5.203125 C 2.25 -5.195312 2.226562 -5.183594 2.207031 -5.171875 C 2.207031 -5.195312 2.183594 -5.214844 2.195312 -5.238281 C 2.195312 -5.269531 2.226562 -5.292969 2.226562 -5.324219 C 2.238281 -5.4375 2.25 -5.558594 2.261719 -5.679688 C 2.269531 -5.722656 2.25 -5.757812 2.28125 -5.800781 C 2.328125 -5.84375 2.335938 -5.933594 2.328125 -5.988281 C 2.316406 -6.042969 2.335938 -6.097656 2.335938 -6.140625 C 2.347656 -6.21875 2.359375 -6.296875 2.304688 -6.363281 C 2.316406 -6.394531 2.328125 -6.429688 2.328125 -6.460938 C 2.304688 -6.550781 2.316406 -6.691406 2.359375 -6.75 C 2.402344 -6.8125 2.382812 -6.878906 2.347656 -6.925781 C 2.269531 -7.011719 2.25 -7.132812 2.195312 -7.234375 C 2.160156 -7.300781 2.140625 -7.375 2.085938 -7.433594 C 2.050781 -7.464844 2.027344 -7.5 2.019531 -7.554688 C 1.996094 -7.621094 1.953125 -7.640625 1.886719 -7.640625 C 1.808594 -7.652344 1.753906 -7.675781 1.675781 -7.640625 C 1.664062 -7.628906 1.632812 -7.652344 1.609375 -7.664062 C 1.523438 -7.574219 1.511719 -7.574219 1.398438 -7.597656 C 1.398438 -7.542969 1.398438 -7.488281 1.390625 -7.433594 C 1.34375 -7.421875 1.289062 -7.441406 1.269531 -7.375 C 1.246094 -7.34375 1.214844 -7.3125 1.167969 -7.265625 C 1.167969 -7.234375 1.179688 -7.167969 1.15625 -7.125 C 1.125 -7.058594 1.15625 -6.992188 1.136719 -6.925781 C 1.125 -6.902344 1.136719 -6.859375 1.136719 -6.835938 C 1.125 -6.769531 1.101562 -6.714844 1.070312 -6.660156 C 1.035156 -6.582031 1.046875 -6.515625 1.035156 -6.441406 C 1.027344 -6.375 1.015625 -6.316406 1.003906 -6.261719 C 0.980469 -6.140625 1.003906 -6.03125 0.925781 -5.921875 C 0.914062 -5.898438 0.914062 -5.867188 0.914062 -5.84375 C 0.902344 -5.8125 0.902344 -5.765625 0.902344 -5.734375 C 0.894531 -5.722656 0.871094 -5.710938 0.871094 -5.710938 C 0.847656 -5.601562 0.839844 -5.511719 0.828125 -5.414062 C 0.816406 -5.324219 0.792969 -5.238281 0.773438 -5.148438 C 0.75 -5.0625 0.761719 -4.960938 0.652344 -4.917969 C 0.683594 -4.886719 0.707031 -4.851562 0.726562 -4.828125 C 0.695312 -4.742188 0.660156 -4.652344 0.617188 -4.566406 C 0.617188 -4.519531 0.605469 -4.476562 0.605469 -4.433594 C 0.605469 -4.378906 0.605469 -4.3125 0.550781 -4.257812 C 0.550781 -4.257812 0.5625 -4.234375 0.5625 -4.222656 C 0.5625 -4.191406 0.574219 -4.15625 0.574219 -4.113281 C 0.5625 -4.035156 0.527344 -4.011719 0.464844 -3.980469 C 0.40625 -3.957031 0.320312 -3.914062 0.320312 -3.871094 C 0.308594 -3.78125 0.253906 -3.761719 0.21875 -3.714844 C 0.242188 -3.640625 0.296875 -3.59375 0.375 -3.582031 C 0.429688 -3.582031 0.453125 -3.539062 0.453125 -3.484375 C 0.453125 -3.386719 0.386719 -3.296875 0.429688 -3.207031 C 0.429688 -3.199219 0.429688 -3.1875 0.429688 -3.1875 C 0.417969 -3.085938 0.398438 -2.988281 0.398438 -2.890625 C 0.386719 -2.824219 0.417969 -2.746094 0.386719 -2.703125 C 0.332031 -2.601562 0.375 -2.535156 0.398438 -2.457031 C 0.417969 -2.394531 0.417969 -2.347656 0.363281 -2.316406 C 0.363281 -2.304688 0.363281 -2.292969 0.351562 -2.28125 C 0.375 -2.261719 0.398438 -2.25 0.40625 -2.238281 C 0.386719 -2.148438 0.34375 -2.050781 0.363281 -1.984375 C 0.398438 -1.90625 0.386719 -1.839844 0.375 -1.773438 C 0.375 -1.765625 0.375 -1.742188 0.386719 -1.730469 C 0.441406 -1.664062 0.429688 -1.609375 0.375 -1.554688 C 0.40625 -1.488281 0.453125 -1.421875 0.464844 -1.355469 C 0.496094 -1.269531 0.507812 -1.179688 0.519531 -1.082031 C 0.527344 -1.058594 0.519531 -1.015625 0.527344 -1.003906 C 0.574219 -0.914062 0.628906 -0.839844 0.683594 -0.75 C 0.714844 -0.683594 0.816406 -0.652344 0.761719 -0.539062 C 0.761719 -0.539062 0.78125 -0.507812 0.792969 -0.507812 C 0.859375 -0.441406 0.882812 -0.351562 0.925781 -0.277344 C 0.96875 -0.199219 1.027344 -0.0976562 1.113281 -0.0664062 C 1.234375 -0.0234375 1.335938 0.0898438 1.476562 0.0976562 C 1.542969 0.109375 1.609375 0.15625 1.675781 0.175781 C 1.730469 0.199219 1.785156 0.210938 1.851562 0.1875 C 1.886719 0.164062 1.917969 0.15625 1.953125 0.144531 C 1.984375 0.132812 2.019531 0.109375 2.027344 0.0664062 C 2.0625 -0.0429688 2.148438 -0.121094 2.28125 -0.144531 C 2.207031 -0.210938 2.328125 -0.230469 2.292969 -0.285156 C 2.382812 -0.40625 2.46875 -0.519531 2.558594 -0.640625 C 2.558594 -0.671875 2.558594 -0.695312 2.558594 -0.738281 C 2.480469 -0.738281 2.402344 -0.75 2.328125 -0.738281 C 2.25 -0.726562 2.160156 -0.714844 2.117188 -0.671875 C 2.0625 -0.605469 2.007812 -0.574219 1.941406 -0.539062 C 1.863281 -0.507812 1.785156 -0.527344 1.765625 -0.585938 C 1.71875 -0.660156 1.699219 -0.75 1.652344 -0.828125 C 1.632812 -0.882812 1.644531 -0.902344 1.6875 -0.9375 C 1.632812 -0.96875 1.609375 -1.015625 1.632812 -1.089844 C 1.644531 -1.136719 1.644531 -1.203125 1.621094 -1.234375 C 1.578125 -1.300781 1.585938 -1.34375 1.632812 -1.398438 C 1.609375 -1.421875 1.578125 -1.445312 1.578125 -1.464844 C 1.578125 -1.597656 1.578125 -1.730469 1.578125 -1.851562 C 1.578125 -1.996094 1.585938 -2.140625 1.597656 -2.28125 C 1.597656 -2.335938 1.609375 -2.394531 1.644531 -2.4375 C 1.664062 -2.480469 1.652344 -2.515625 1.644531 -2.546875 C 1.632812 -2.582031 1.632812 -2.625 1.632812 -2.65625 C 1.632812 -2.691406 1.652344 -2.734375 1.652344 -2.757812 C 1.652344 -2.824219 1.644531 -2.890625 1.675781 -2.945312 C 1.730469 -3.03125 1.664062 -3.140625 1.753906 -3.230469 C 1.753906 -3.230469 1.753906 -3.242188 1.753906 -3.242188 C 1.742188 -3.339844 1.765625 -3.441406 1.796875 -3.527344 C 1.808594 -3.5625 1.839844 -3.59375 1.875 -3.605469 C 1.996094 -3.648438 2.128906 -3.671875 2.25 -3.703125 C 2.261719 -3.703125 2.269531 -3.703125 2.28125 -3.714844 C 2.394531 -3.75 2.492188 -3.78125 2.601562 -3.816406 C 2.679688 -3.835938 2.769531 -3.828125 2.8125 -3.914062 C 2.824219 -3.9375 2.890625 -3.925781 2.921875 -3.9375 C 2.933594 -3.9375 2.964844 -3.9375 2.964844 -3.949219 C 3.042969 -4.046875 3.199219 -4.023438 3.265625 -4.136719 C 3.273438 -4.144531 3.273438 -4.136719 3.285156 -4.144531 C 3.328125 -4.15625 3.375 -4.179688 3.429688 -4.199219 C 3.460938 -4.210938 3.496094 -4.210938 3.527344 -4.222656 C 3.574219 -4.246094 3.605469 -4.277344 3.648438 -4.289062 C 3.714844 -4.332031 3.78125 -4.367188 3.847656 -4.398438 C 3.859375 -4.410156 3.871094 -4.421875 3.882812 -4.421875 C 3.957031 -4.410156 4.023438 -4.453125 4.101562 -4.5 C 4.15625 -4.519531 4.222656 -4.53125 4.3125 -4.554688 C 4.3125 -4.554688 4.324219 -4.585938 4.332031 -4.609375 C 4.464844 -4.554688 4.445312 -4.6875 4.511719 -4.71875 C 4.488281 -4.742188 4.476562 -4.761719 4.464844 -4.773438 Z M 4.464844 -4.773438 "/></g></g></g><g fill="#ffffff" fill-opacity="1"><g transform="translate(17.428228, 23.904553)"><g><path d="M 0.386719 -4.070312 C 0.386719 -4.003906 0.398438 -3.9375 0.386719 -3.871094 C 0.363281 -3.78125 0.34375 -3.695312 0.386719 -3.605469 C 0.398438 -3.59375 0.40625 -3.574219 0.398438 -3.550781 C 0.375 -3.484375 0.375 -3.453125 0.417969 -3.394531 C 0.429688 -3.386719 0.429688 -3.351562 0.429688 -3.339844 C 0.429688 -3.308594 0.40625 -3.265625 0.40625 -3.230469 C 0.40625 -3.132812 0.386719 -3.03125 0.375 -2.933594 C 0.363281 -2.878906 0.375 -2.832031 0.40625 -2.800781 C 0.375 -2.734375 0.34375 -2.667969 0.308594 -2.589844 C 0.332031 -2.582031 0.34375 -2.570312 0.375 -2.546875 C 0.320312 -2.46875 0.285156 -2.394531 0.34375 -2.292969 C 0.34375 -2.28125 0.34375 -2.261719 0.34375 -2.238281 C 0.34375 -2.140625 0.277344 -2.039062 0.296875 -1.941406 C 0.296875 -1.898438 0.285156 -1.851562 0.285156 -1.796875 C 0.277344 -1.796875 0.253906 -1.785156 0.21875 -1.773438 C 0.277344 -1.710938 0.265625 -1.644531 0.253906 -1.578125 C 0.253906 -1.523438 0.277344 -1.464844 0.285156 -1.410156 C 0.285156 -1.390625 0.296875 -1.378906 0.296875 -1.367188 C 0.296875 -1.335938 0.296875 -1.300781 0.296875 -1.269531 C 0.296875 -1.234375 0.285156 -1.203125 0.285156 -1.179688 C 0.277344 -1.125 0.242188 -1.082031 0.242188 -1.027344 C 0.253906 -0.914062 0.199219 -0.792969 0.277344 -0.683594 C 0.277344 -0.671875 0.277344 -0.660156 0.277344 -0.652344 C 0.285156 -0.507812 0.199219 -0.363281 0.285156 -0.21875 C 0.296875 -0.210938 0.285156 -0.175781 0.285156 -0.164062 C 0.285156 -0.121094 0.285156 -0.0664062 0.296875 -0.0234375 C 0.308594 0.0234375 0.320312 0.0664062 0.34375 0.121094 C 0.398438 0.15625 0.398438 0.230469 0.429688 0.320312 C 0.464844 0.441406 0.441406 0.617188 0.605469 0.683594 C 0.617188 0.683594 0.628906 0.695312 0.628906 0.695312 C 0.628906 0.75 0.660156 0.75 0.695312 0.75 C 0.714844 0.75 0.75 0.75 0.75 0.761719 C 0.828125 0.828125 0.925781 0.804688 1.015625 0.828125 C 1.027344 0.828125 1.035156 0.839844 1.035156 0.839844 C 1.035156 0.859375 1.035156 0.871094 1.035156 0.902344 C 1.082031 0.882812 1.113281 0.871094 1.148438 0.859375 C 1.203125 0.816406 1.257812 0.78125 1.324219 0.839844 C 1.34375 0.859375 1.378906 0.847656 1.410156 0.828125 C 1.488281 0.804688 1.488281 0.738281 1.511719 0.683594 C 1.542969 0.617188 1.5 0.527344 1.554688 0.464844 C 1.554688 0.453125 1.554688 0.441406 1.542969 0.429688 C 1.542969 0.40625 1.53125 0.375 1.53125 0.351562 C 1.511719 0.253906 1.609375 0.164062 1.523438 0.078125 C 1.523438 0.0664062 1.523438 0.0664062 1.523438 0.0546875 C 1.554688 -0.0117188 1.566406 -0.0664062 1.597656 -0.121094 C 1.511719 -0.210938 1.523438 -0.296875 1.566406 -0.398438 C 1.578125 -0.417969 1.585938 -0.453125 1.578125 -0.472656 C 1.554688 -0.527344 1.578125 -0.574219 1.585938 -0.628906 C 1.621094 -0.714844 1.597656 -0.773438 1.53125 -0.816406 C 1.554688 -0.859375 1.597656 -0.894531 1.597656 -0.9375 C 1.621094 -1.027344 1.621094 -1.113281 1.621094 -1.203125 C 1.609375 -1.34375 1.621094 -1.410156 1.675781 -1.566406 C 1.6875 -1.566406 1.675781 -1.585938 1.675781 -1.597656 C 1.675781 -1.6875 1.675781 -1.785156 1.675781 -1.875 C 1.675781 -1.984375 1.675781 -2.085938 1.6875 -2.195312 C 1.6875 -2.238281 1.699219 -2.28125 1.710938 -2.316406 C 1.71875 -2.414062 1.753906 -2.492188 1.753906 -2.582031 C 1.753906 -2.691406 1.753906 -2.789062 1.808594 -2.878906 C 1.886719 -2.890625 1.960938 -2.921875 2.039062 -2.898438 C 2.09375 -2.878906 2.148438 -2.890625 2.195312 -2.921875 C 2.28125 -2.976562 2.394531 -2.910156 2.46875 -3 C 2.46875 -3 2.480469 -3 2.480469 -3 C 2.625 -2.964844 2.746094 -3.011719 2.878906 -3.078125 C 2.898438 -3.011719 2.933594 -2.957031 2.921875 -2.878906 C 2.921875 -2.8125 2.945312 -2.734375 2.957031 -2.65625 C 2.964844 -2.65625 2.964844 -2.65625 2.976562 -2.65625 C 2.957031 -2.636719 2.945312 -2.613281 2.945312 -2.613281 C 2.964844 -2.503906 2.976562 -2.414062 3 -2.328125 C 3 -2.28125 3.011719 -2.25 3.011719 -2.214844 C 3.011719 -2.128906 3 -2.039062 3 -1.953125 C 3.011719 -1.886719 3.019531 -1.808594 3.054688 -1.753906 C 3.109375 -1.675781 3.011719 -1.621094 3.042969 -1.554688 C 3.054688 -1.542969 3.042969 -1.511719 3.054688 -1.5 C 3.121094 -1.464844 3.085938 -1.390625 3.121094 -1.34375 C 3.097656 -1.3125 3.054688 -1.269531 3.066406 -1.246094 C 3.097656 -1.179688 3.042969 -1.136719 3.03125 -1.082031 C 3.019531 -1.046875 3.019531 -1.003906 3.019531 -0.960938 C 3.03125 -0.925781 3.054688 -0.871094 3.042969 -0.847656 C 2.988281 -0.78125 3.019531 -0.726562 3.03125 -0.671875 C 2.988281 -0.652344 2.957031 -0.640625 2.910156 -0.617188 C 2.988281 -0.5625 2.988281 -0.519531 2.945312 -0.453125 C 2.933594 -0.429688 2.921875 -0.386719 2.910156 -0.351562 C 3.175781 -0.351562 3.175781 -0.351562 3.242188 -0.296875 C 3.328125 -0.332031 3.40625 -0.386719 3.507812 -0.363281 C 3.515625 -0.363281 3.527344 -0.363281 3.539062 -0.375 C 3.605469 -0.441406 3.671875 -0.417969 3.714844 -0.363281 C 3.75 -0.386719 3.78125 -0.398438 3.804688 -0.417969 C 3.828125 -0.429688 3.847656 -0.429688 3.847656 -0.441406 C 3.859375 -0.519531 3.914062 -0.550781 3.957031 -0.605469 C 4.003906 -0.660156 4.046875 -0.714844 4.089844 -0.773438 C 4.078125 -0.792969 4.070312 -0.816406 4.070312 -0.828125 C 4.101562 -0.894531 4.136719 -0.960938 4.167969 -1.027344 C 4.199219 -1.113281 4.234375 -1.203125 4.265625 -1.289062 C 4.289062 -1.34375 4.300781 -1.410156 4.324219 -1.476562 C 4.3125 -1.488281 4.300781 -1.511719 4.277344 -1.53125 C 4.332031 -1.621094 4.332031 -1.644531 4.277344 -1.699219 C 4.289062 -1.730469 4.3125 -1.753906 4.3125 -1.773438 C 4.324219 -1.90625 4.332031 -2.050781 4.34375 -2.183594 C 4.34375 -2.195312 4.332031 -2.214844 4.332031 -2.226562 C 4.332031 -2.269531 4.324219 -2.316406 4.332031 -2.347656 C 4.355469 -2.414062 4.367188 -2.46875 4.300781 -2.523438 C 4.34375 -2.558594 4.34375 -2.558594 4.332031 -2.601562 C 4.324219 -2.691406 4.3125 -2.769531 4.3125 -2.855469 C 4.324219 -2.957031 4.332031 -3.042969 4.34375 -3.140625 C 4.34375 -3.230469 4.277344 -3.328125 4.355469 -3.417969 C 4.34375 -3.5625 4.332031 -3.703125 4.324219 -3.859375 C 4.324219 -3.925781 4.332031 -3.980469 4.398438 -4.023438 C 4.433594 -4.058594 4.5 -4.089844 4.476562 -4.167969 C 4.464844 -4.191406 4.511719 -4.246094 4.542969 -4.246094 C 4.621094 -4.257812 4.585938 -4.324219 4.609375 -4.355469 C 4.609375 -4.378906 4.566406 -4.421875 4.542969 -4.433594 C 4.476562 -4.453125 4.433594 -4.488281 4.433594 -4.566406 C 4.433594 -4.585938 4.421875 -4.609375 4.398438 -4.621094 C 4.34375 -4.6875 4.324219 -4.761719 4.324219 -4.839844 C 4.3125 -4.917969 4.3125 -5.007812 4.3125 -5.09375 C 4.300781 -5.160156 4.300781 -5.226562 4.300781 -5.304688 C 4.300781 -5.382812 4.3125 -5.457031 4.277344 -5.535156 C 4.246094 -5.625 4.300781 -5.734375 4.234375 -5.820312 C 4.222656 -5.820312 4.234375 -5.832031 4.234375 -5.832031 C 4.234375 -5.921875 4.234375 -6 4.234375 -6.074219 C 4.234375 -6.109375 4.234375 -6.152344 4.210938 -6.175781 C 4.167969 -6.230469 4.167969 -6.273438 4.191406 -6.316406 C 4.167969 -6.375 4.136719 -6.417969 4.136719 -6.449219 C 4.144531 -6.582031 4.035156 -6.691406 4.078125 -6.835938 C 4.078125 -6.835938 4.070312 -6.847656 4.070312 -6.859375 C 4.046875 -6.914062 4.023438 -6.945312 3.992188 -6.992188 C 3.925781 -7.066406 3.882812 -7.167969 3.828125 -7.253906 C 3.804688 -7.300781 3.78125 -7.355469 3.75 -7.410156 C 3.683594 -7.410156 3.617188 -7.433594 3.5625 -7.507812 C 3.5625 -7.519531 3.496094 -7.53125 3.484375 -7.519531 C 3.441406 -7.488281 3.40625 -7.507812 3.363281 -7.519531 C 3.308594 -7.53125 3.242188 -7.554688 3.207031 -7.53125 C 3.140625 -7.5 3.066406 -7.441406 3.019531 -7.375 C 2.988281 -7.3125 2.957031 -7.246094 2.910156 -7.199219 C 2.921875 -7.144531 2.933594 -7.101562 2.933594 -7.058594 C 2.933594 -6.945312 2.898438 -6.824219 2.933594 -6.714844 C 2.945312 -6.671875 2.957031 -6.628906 2.957031 -6.582031 C 2.945312 -6.496094 2.933594 -6.394531 2.921875 -6.308594 C 2.921875 -6.296875 2.921875 -6.285156 2.921875 -6.285156 C 2.976562 -6.1875 2.964844 -6.097656 2.921875 -6 C 2.910156 -5.976562 2.921875 -5.941406 2.921875 -5.921875 C 2.945312 -5.832031 2.964844 -5.757812 2.890625 -5.691406 C 2.878906 -5.667969 2.867188 -5.644531 2.867188 -5.613281 C 2.855469 -5.511719 2.933594 -5.4375 2.910156 -5.335938 C 2.898438 -5.269531 2.933594 -5.203125 2.933594 -5.136719 C 2.910156 -4.984375 2.890625 -4.820312 2.867188 -4.664062 C 2.855469 -4.621094 2.832031 -4.585938 2.777344 -4.609375 C 2.679688 -4.632812 2.589844 -4.585938 2.492188 -4.609375 C 2.4375 -4.621094 2.371094 -4.574219 2.316406 -4.566406 C 2.25 -4.542969 2.171875 -4.519531 2.105469 -4.519531 C 2.027344 -4.53125 1.960938 -4.574219 1.886719 -4.597656 C 1.929688 -4.6875 1.863281 -4.773438 1.941406 -4.839844 C 1.941406 -4.839844 1.929688 -4.863281 1.929688 -4.875 C 1.929688 -4.90625 1.917969 -4.929688 1.917969 -4.960938 C 1.917969 -5.136719 1.917969 -5.324219 1.917969 -5.511719 C 1.917969 -5.523438 1.929688 -5.535156 1.929688 -5.546875 C 1.929688 -5.589844 1.929688 -5.625 1.941406 -5.65625 C 1.941406 -5.789062 1.863281 -5.921875 1.941406 -6.042969 C 1.941406 -6.054688 1.941406 -6.074219 1.929688 -6.085938 C 1.898438 -6.140625 1.90625 -6.1875 1.929688 -6.21875 C 1.90625 -6.351562 1.886719 -6.472656 1.863281 -6.59375 C 1.839844 -6.691406 1.820312 -6.804688 1.796875 -6.902344 C 1.71875 -6.925781 1.785156 -7.046875 1.699219 -7.066406 C 1.71875 -7.132812 1.621094 -7.144531 1.621094 -7.199219 C 1.609375 -7.253906 1.457031 -7.367188 1.398438 -7.367188 C 1.398438 -7.367188 1.390625 -7.367188 1.390625 -7.367188 C 1.324219 -7.300781 1.269531 -7.34375 1.203125 -7.367188 C 1.179688 -7.375 1.167969 -7.386719 1.148438 -7.375 C 1.035156 -7.355469 0.9375 -7.332031 0.839844 -7.300781 C 0.804688 -7.300781 0.78125 -7.289062 0.773438 -7.277344 C 0.707031 -7.179688 0.652344 -7.078125 0.671875 -6.945312 C 0.671875 -6.902344 0.683594 -6.859375 0.671875 -6.8125 C 0.660156 -6.769531 0.617188 -6.726562 0.617188 -6.683594 C 0.605469 -6.636719 0.617188 -6.582031 0.585938 -6.539062 C 0.574219 -6.527344 0.574219 -6.515625 0.574219 -6.503906 C 0.585938 -6.417969 0.585938 -6.328125 0.59375 -6.253906 C 0.59375 -6.21875 0.605469 -6.195312 0.59375 -6.175781 C 0.519531 -6.074219 0.574219 -5.976562 0.605469 -5.886719 C 0.539062 -5.777344 0.539062 -5.65625 0.519531 -5.546875 C 0.519531 -5.535156 0.527344 -5.523438 0.527344 -5.511719 C 0.574219 -5.46875 0.550781 -5.425781 0.527344 -5.390625 C 0.464844 -5.28125 0.472656 -5.160156 0.472656 -5.039062 C 0.472656 -4.90625 0.472656 -4.773438 0.453125 -4.640625 C 0.453125 -4.585938 0.40625 -4.554688 0.464844 -4.5 C 0.472656 -4.5 0.472656 -4.464844 0.464844 -4.453125 C 0.441406 -4.398438 0.417969 -4.34375 0.386719 -4.289062 C 0.441406 -4.199219 0.429688 -4.136719 0.386719 -4.070312 Z M 0.386719 -4.070312 "/></g></g></g><g fill="#ffffff" fill-opacity="1"><g transform="translate(22.257903, 23.904553)"><g><path d="M 3.515625 -2.214844 C 3.515625 -2.25 3.515625 -2.28125 3.515625 -2.316406 C 3.527344 -2.394531 3.574219 -2.457031 3.574219 -2.546875 C 3.574219 -2.625 3.617188 -2.710938 3.628906 -2.800781 C 3.640625 -2.867188 3.617188 -2.945312 3.671875 -3.011719 C 3.617188 -3.078125 3.660156 -3.140625 3.695312 -3.21875 C 3.695312 -3.230469 3.695312 -3.230469 3.695312 -3.242188 C 3.683594 -3.320312 3.695312 -3.375 3.683594 -3.441406 C 3.671875 -3.507812 3.695312 -3.527344 3.726562 -3.507812 C 3.726562 -3.5625 3.683594 -3.628906 3.703125 -3.671875 C 3.738281 -3.738281 3.726562 -3.792969 3.695312 -3.859375 C 3.683594 -3.882812 3.671875 -3.914062 3.671875 -3.9375 C 3.683594 -4.011719 3.695312 -4.089844 3.703125 -4.167969 C 3.714844 -4.179688 3.714844 -4.191406 3.703125 -4.199219 C 3.648438 -4.277344 3.671875 -4.367188 3.660156 -4.445312 C 3.648438 -4.542969 3.617188 -4.632812 3.582031 -4.71875 C 3.550781 -4.773438 3.617188 -4.851562 3.527344 -4.875 C 3.574219 -4.949219 3.574219 -4.972656 3.507812 -4.996094 C 3.460938 -5.015625 3.417969 -5.007812 3.363281 -5.007812 C 3.363281 -5.007812 3.363281 -5.015625 3.351562 -5.015625 C 3.394531 -5.039062 3.429688 -5.0625 3.484375 -5.082031 C 3.472656 -5.117188 3.453125 -5.160156 3.441406 -5.195312 C 3.417969 -5.316406 3.363281 -5.414062 3.265625 -5.492188 C 3.253906 -5.511719 3.242188 -5.535156 3.230469 -5.558594 C 3.199219 -5.625 3.152344 -5.691406 3.085938 -5.734375 C 3.042969 -5.757812 3 -5.789062 2.976562 -5.8125 C 3.011719 -5.878906 3.03125 -5.933594 3.066406 -5.964844 C 3.132812 -6 3.109375 -6.03125 3.097656 -6.085938 C 3.085938 -6.164062 3.085938 -6.242188 3.085938 -6.296875 C 3.066406 -6.328125 3.042969 -6.351562 3.03125 -6.382812 C 3.019531 -6.441406 2.921875 -6.527344 2.867188 -6.503906 C 2.789062 -6.496094 2.722656 -6.515625 2.703125 -6.5625 C 2.667969 -6.617188 2.601562 -6.628906 2.589844 -6.703125 C 2.589844 -6.75 2.558594 -6.804688 2.523438 -6.824219 C 2.480469 -6.847656 2.414062 -6.847656 2.371094 -6.835938 C 2.292969 -6.824219 2.261719 -6.859375 2.214844 -6.902344 C 2.160156 -6.847656 2.117188 -6.835938 2.0625 -6.859375 C 1.996094 -6.878906 1.917969 -6.902344 1.863281 -6.878906 C 1.765625 -6.835938 1.652344 -6.78125 1.566406 -6.714844 C 1.457031 -6.636719 1.34375 -6.550781 1.277344 -6.441406 C 1.234375 -6.351562 1.113281 -6.316406 1.125 -6.195312 C 1.015625 -6.175781 0.902344 -6.054688 0.902344 -5.953125 C 0.902344 -5.898438 0.902344 -5.84375 0.847656 -5.800781 C 0.828125 -5.765625 0.816406 -5.710938 0.804688 -5.667969 C 0.804688 -5.632812 0.816406 -5.589844 0.792969 -5.558594 C 0.761719 -5.492188 0.707031 -5.445312 0.671875 -5.382812 C 0.640625 -5.335938 0.617188 -5.292969 0.59375 -5.238281 C 0.585938 -5.226562 0.617188 -5.195312 0.628906 -5.160156 C 0.527344 -5.117188 0.585938 -5.027344 0.5625 -4.949219 C 0.539062 -4.875 0.519531 -4.808594 0.5625 -4.730469 C 0.527344 -4.71875 0.496094 -4.699219 0.472656 -4.6875 C 0.472656 -4.574219 0.507812 -4.488281 0.464844 -4.367188 C 0.441406 -4.300781 0.398438 -4.246094 0.429688 -4.167969 C 0.429688 -4.15625 0.40625 -4.136719 0.398438 -4.113281 C 0.375 -4.070312 0.332031 -4.011719 0.34375 -3.992188 C 0.375 -3.902344 0.34375 -3.847656 0.285156 -3.804688 C 0.242188 -3.761719 0.242188 -3.726562 0.285156 -3.695312 C 0.265625 -3.660156 0.230469 -3.628906 0.230469 -3.59375 C 0.230469 -3.539062 0.253906 -3.484375 0.253906 -3.429688 C 0.253906 -3.394531 0.265625 -3.363281 0.265625 -3.339844 C 0.253906 -3.273438 0.21875 -3.207031 0.242188 -3.152344 C 0.277344 -3.066406 0.253906 -2.988281 0.265625 -2.898438 C 0.277344 -2.855469 0.242188 -2.824219 0.253906 -2.777344 C 0.277344 -2.722656 0.265625 -2.691406 0.21875 -2.65625 C 0.253906 -2.636719 0.285156 -2.601562 0.320312 -2.570312 C 0.21875 -2.492188 0.296875 -2.371094 0.253906 -2.28125 C 0.308594 -2.261719 0.332031 -2.226562 0.308594 -2.171875 C 0.277344 -2.105469 0.296875 -2.050781 0.34375 -2.007812 C 0.398438 -1.953125 0.40625 -1.898438 0.417969 -1.820312 C 0.417969 -1.753906 0.417969 -1.664062 0.453125 -1.609375 C 0.496094 -1.542969 0.507812 -1.488281 0.527344 -1.421875 C 0.5625 -1.324219 0.605469 -1.214844 0.652344 -1.113281 C 0.683594 -1.027344 0.726562 -0.9375 0.773438 -0.859375 C 0.78125 -0.839844 0.78125 -0.816406 0.78125 -0.792969 C 0.804688 -0.792969 0.828125 -0.78125 0.839844 -0.78125 C 0.839844 -0.773438 0.839844 -0.773438 0.828125 -0.761719 C 0.847656 -0.726562 0.859375 -0.660156 0.882812 -0.660156 C 0.9375 -0.640625 0.949219 -0.605469 0.949219 -0.574219 C 0.96875 -0.484375 1.035156 -0.429688 1.113281 -0.386719 C 1.136719 -0.375 1.15625 -0.363281 1.167969 -0.34375 C 1.269531 -0.199219 1.34375 -0.15625 1.488281 -0.121094 C 1.511719 -0.109375 1.53125 -0.0976562 1.554688 -0.0898438 C 1.585938 -0.078125 1.609375 -0.0664062 1.644531 -0.0546875 C 1.6875 -0.0429688 1.742188 -0.03125 1.773438 -0.0117188 C 1.808594 0 1.839844 0.0234375 1.863281 0.03125 C 1.90625 -0.0234375 2.0625 -0.0898438 2.128906 -0.0898438 C 2.195312 -0.0976562 2.269531 -0.078125 2.335938 -0.15625 C 2.371094 -0.199219 2.414062 -0.230469 2.449219 -0.277344 C 2.457031 -0.308594 2.492188 -0.34375 2.535156 -0.351562 C 2.644531 -0.398438 2.703125 -0.496094 2.769531 -0.585938 C 2.824219 -0.660156 2.898438 -0.738281 2.933594 -0.847656 C 2.957031 -0.9375 3.011719 -1.015625 3.066406 -1.101562 C 3.132812 -1.191406 3.175781 -1.300781 3.21875 -1.410156 C 3.242188 -1.464844 3.273438 -1.523438 3.308594 -1.578125 C 3.351562 -1.644531 3.351562 -1.742188 3.375 -1.832031 C 3.40625 -1.929688 3.429688 -2.039062 3.472656 -2.140625 C 3.484375 -2.160156 3.507812 -2.195312 3.515625 -2.214844 Z M 1.445312 -2.832031 C 1.566406 -2.878906 1.488281 -2.988281 1.554688 -3.054688 C 1.53125 -3.066406 1.511719 -3.085938 1.5 -3.097656 C 1.5 -3.097656 1.5 -3.109375 1.5 -3.109375 C 1.609375 -3.175781 1.488281 -3.296875 1.542969 -3.386719 C 1.585938 -3.460938 1.585938 -3.582031 1.585938 -3.671875 C 1.597656 -3.835938 1.664062 -3.96875 1.6875 -4.125 C 1.699219 -4.222656 1.796875 -4.300781 1.753906 -4.398438 C 1.753906 -4.410156 1.753906 -4.421875 1.765625 -4.421875 C 1.832031 -4.488281 1.851562 -4.574219 1.863281 -4.675781 C 1.875 -4.773438 1.941406 -4.875 1.953125 -4.996094 C 1.960938 -5.050781 2.019531 -5.105469 2.050781 -5.171875 C 2.074219 -5.214844 2.09375 -5.257812 2.128906 -5.304688 C 2.160156 -5.359375 2.195312 -5.402344 2.238281 -5.445312 C 2.28125 -5.503906 2.328125 -5.546875 2.328125 -5.625 C 2.328125 -5.65625 2.347656 -5.691406 2.371094 -5.710938 C 2.382812 -5.746094 2.414062 -5.746094 2.425781 -5.710938 C 2.449219 -5.625 2.492188 -5.546875 2.46875 -5.445312 C 2.457031 -5.390625 2.503906 -5.316406 2.546875 -5.25 C 2.589844 -5.183594 2.601562 -5.117188 2.546875 -5.050781 C 2.535156 -5.027344 2.515625 -5.015625 2.503906 -5.007812 C 2.515625 -4.917969 2.558594 -4.828125 2.503906 -4.730469 C 2.535156 -4.71875 2.558594 -4.707031 2.601562 -4.675781 C 2.570312 -4.664062 2.535156 -4.652344 2.515625 -4.640625 C 2.523438 -4.609375 2.589844 -4.585938 2.546875 -4.542969 C 2.558594 -4.410156 2.503906 -4.300781 2.503906 -4.167969 C 2.515625 -4.144531 2.523438 -4.125 2.523438 -4.101562 C 2.515625 -4.070312 2.582031 -4.035156 2.515625 -4.011719 C 2.523438 -4.003906 2.535156 -3.980469 2.558594 -3.949219 C 2.523438 -3.957031 2.503906 -3.957031 2.480469 -3.96875 C 2.492188 -3.949219 2.503906 -3.925781 2.523438 -3.902344 C 2.425781 -3.859375 2.582031 -3.769531 2.457031 -3.714844 C 2.515625 -3.703125 2.546875 -3.695312 2.589844 -3.671875 C 2.558594 -3.640625 2.523438 -3.605469 2.492188 -3.5625 C 2.492188 -3.5625 2.492188 -3.527344 2.480469 -3.515625 C 2.414062 -3.472656 2.425781 -3.386719 2.414062 -3.339844 C 2.414062 -3.253906 2.394531 -3.1875 2.335938 -3.132812 C 2.382812 -3.121094 2.402344 -3.121094 2.449219 -3.109375 C 2.402344 -3.078125 2.371094 -3.066406 2.359375 -3.054688 C 2.316406 -2.898438 2.28125 -2.769531 2.238281 -2.625 C 2.25 -2.613281 2.269531 -2.589844 2.28125 -2.582031 C 2.269531 -2.558594 2.25 -2.546875 2.214844 -2.523438 C 2.25 -2.515625 2.28125 -2.515625 2.328125 -2.503906 C 2.25 -2.347656 2.171875 -2.207031 2.226562 -2.019531 C 2.207031 -2.027344 2.183594 -2.027344 2.160156 -2.027344 C 2.160156 -2.007812 2.171875 -1.996094 2.171875 -1.972656 C 2.105469 -2.007812 2.074219 -1.984375 2.074219 -1.917969 C 2.074219 -1.90625 2.085938 -1.898438 2.074219 -1.898438 C 1.996094 -1.832031 1.972656 -1.742188 1.953125 -1.644531 C 1.929688 -1.578125 1.90625 -1.511719 1.898438 -1.445312 C 1.898438 -1.34375 1.832031 -1.289062 1.753906 -1.257812 C 1.742188 -1.222656 1.742188 -1.191406 1.730469 -1.148438 C 1.632812 -1.214844 1.578125 -1.289062 1.597656 -1.410156 C 1.566406 -1.410156 1.542969 -1.421875 1.523438 -1.421875 C 1.523438 -1.433594 1.523438 -1.445312 1.523438 -1.457031 C 1.53125 -1.488281 1.566406 -1.53125 1.554688 -1.53125 C 1.5 -1.585938 1.542969 -1.632812 1.53125 -1.6875 C 1.53125 -1.742188 1.523438 -1.796875 1.523438 -1.851562 C 1.523438 -1.917969 1.554688 -1.984375 1.5 -2.039062 C 1.476562 -2.074219 1.5 -2.128906 1.5 -2.171875 C 1.523438 -2.292969 1.464844 -2.402344 1.511719 -2.523438 C 1.53125 -2.570312 1.488281 -2.644531 1.5 -2.691406 C 1.523438 -2.757812 1.5 -2.800781 1.445312 -2.832031 Z M 1.445312 -2.832031 "/></g></g></g><g fill="#ffffff" fill-opacity="1"><g transform="translate(26.205447, 23.904553)"><g><path d="M 1.554688 -5.324219 C 1.53125 -5.28125 1.523438 -5.238281 1.5 -5.214844 C 1.445312 -5.171875 1.378906 -5.136719 1.324219 -5.09375 C 1.277344 -5.0625 1.246094 -5.015625 1.246094 -4.960938 C 1.257812 -4.941406 1.246094 -4.917969 1.246094 -4.90625 C 1.203125 -4.894531 1.167969 -4.894531 1.148438 -4.886719 C 1.101562 -4.917969 1.070312 -4.941406 1.035156 -4.960938 C 0.980469 -4.984375 0.914062 -5.007812 0.859375 -5.039062 C 0.804688 -5.082031 0.738281 -5.070312 0.695312 -5.015625 C 0.671875 -4.996094 0.640625 -4.984375 0.617188 -4.960938 C 0.605469 -4.949219 0.574219 -4.929688 0.574219 -4.917969 C 0.550781 -4.863281 0.5625 -4.796875 0.527344 -4.753906 C 0.496094 -4.664062 0.519531 -4.574219 0.527344 -4.5 C 0.539062 -4.378906 0.519531 -4.257812 0.550781 -4.136719 C 0.550781 -4.125 0.539062 -4.113281 0.539062 -4.101562 C 0.527344 -3.980469 0.519531 -3.871094 0.507812 -3.761719 C 0.496094 -3.703125 0.496094 -3.660156 0.507812 -3.617188 C 0.539062 -3.5625 0.527344 -3.515625 0.484375 -3.484375 C 0.507812 -3.460938 0.527344 -3.453125 0.550781 -3.429688 C 0.519531 -3.40625 0.484375 -3.394531 0.453125 -3.386719 C 0.464844 -3.363281 0.464844 -3.339844 0.472656 -3.328125 C 0.539062 -3.253906 0.519531 -3.21875 0.464844 -3.140625 C 0.417969 -3.066406 0.40625 -2.957031 0.386719 -2.867188 C 0.375 -2.84375 0.40625 -2.8125 0.417969 -2.789062 C 0.417969 -2.769531 0.429688 -2.757812 0.417969 -2.734375 C 0.398438 -2.667969 0.386719 -2.582031 0.34375 -2.515625 C 0.320312 -2.457031 0.320312 -2.425781 0.351562 -2.371094 C 0.265625 -2.335938 0.296875 -2.269531 0.296875 -2.214844 C 0.285156 -2.183594 0.296875 -2.140625 0.277344 -2.128906 C 0.199219 -2.085938 0.21875 -1.996094 0.242188 -1.941406 C 0.265625 -1.820312 0.21875 -1.710938 0.253906 -1.585938 C 0.265625 -1.554688 0.265625 -1.511719 0.265625 -1.464844 C 0.265625 -1.367188 0.230469 -1.269531 0.265625 -1.167969 C 0.308594 -0.980469 0.265625 -0.792969 0.285156 -0.617188 C 0.285156 -0.59375 0.285156 -0.574219 0.296875 -0.5625 C 0.332031 -0.519531 0.320312 -0.472656 0.308594 -0.417969 C 0.296875 -0.320312 0.285156 -0.230469 0.398438 -0.164062 C 0.40625 -0.164062 0.40625 -0.15625 0.40625 -0.15625 C 0.40625 -0.121094 0.398438 -0.0976562 0.386719 -0.0664062 C 0.40625 -0.0664062 0.429688 -0.0664062 0.441406 -0.0664062 C 0.453125 -0.03125 0.453125 0 0.453125 0.0117188 C 0.496094 0.03125 0.527344 0.0429688 0.539062 0.0546875 C 0.59375 0.0976562 0.640625 0.15625 0.683594 0.15625 C 0.75 0.164062 0.792969 0.1875 0.816406 0.230469 C 0.9375 0.199219 1.058594 0.164062 1.179688 0.199219 C 1.203125 0.199219 1.234375 0.199219 1.246094 0.1875 C 1.324219 0.109375 1.410156 0.03125 1.488281 -0.0546875 C 1.5 -0.078125 1.5 -0.109375 1.5 -0.132812 C 1.476562 -0.175781 1.457031 -0.21875 1.445312 -0.253906 C 1.464844 -0.308594 1.488281 -0.351562 1.511719 -0.398438 C 1.421875 -0.472656 1.398438 -0.507812 1.398438 -0.640625 C 1.398438 -0.714844 1.410156 -0.792969 1.410156 -0.882812 C 1.410156 -0.960938 1.390625 -1.035156 1.410156 -1.125 C 1.433594 -1.257812 1.433594 -1.390625 1.398438 -1.523438 C 1.390625 -1.578125 1.367188 -1.644531 1.421875 -1.6875 C 1.433594 -1.699219 1.445312 -1.730469 1.433594 -1.742188 C 1.410156 -1.820312 1.464844 -1.898438 1.445312 -1.972656 C 1.433594 -1.984375 1.457031 -2.007812 1.457031 -2.019531 C 1.464844 -2.027344 1.476562 -2.050781 1.476562 -2.0625 C 1.445312 -2.117188 1.464844 -2.148438 1.488281 -2.195312 C 1.511719 -2.238281 1.511719 -2.292969 1.523438 -2.347656 C 1.554688 -2.4375 1.578125 -2.523438 1.609375 -2.625 C 1.632812 -2.667969 1.664062 -2.703125 1.664062 -2.757812 C 1.664062 -2.878906 1.753906 -2.976562 1.796875 -3.085938 C 1.796875 -3.121094 1.796875 -3.140625 1.808594 -3.164062 C 1.886719 -3.175781 1.875 -3.265625 1.90625 -3.320312 C 1.953125 -3.394531 1.960938 -3.496094 2.027344 -3.5625 C 2.039062 -3.582031 2.0625 -3.617188 2.074219 -3.640625 C 2.085938 -3.703125 2.09375 -3.761719 2.171875 -3.769531 C 2.171875 -3.769531 2.195312 -3.792969 2.183594 -3.792969 C 2.171875 -3.890625 2.25 -3.902344 2.304688 -3.949219 C 2.335938 -3.96875 2.359375 -3.992188 2.382812 -4.011719 C 2.425781 -4.070312 2.457031 -4.136719 2.535156 -4.15625 C 2.636719 -4.179688 2.722656 -4.234375 2.824219 -4.257812 C 2.855469 -4.257812 2.890625 -4.265625 2.921875 -4.265625 C 3.042969 -4.277344 3.152344 -4.277344 3.273438 -4.300781 C 3.375 -4.324219 3.472656 -4.355469 3.59375 -4.386719 C 3.574219 -4.476562 3.5625 -4.574219 3.539062 -4.675781 C 3.539062 -4.699219 3.527344 -4.71875 3.515625 -4.742188 C 3.460938 -4.796875 3.40625 -4.863281 3.320312 -4.875 C 3.296875 -4.875 3.273438 -4.894531 3.253906 -4.90625 C 3.21875 -4.941406 3.1875 -4.984375 3.132812 -4.996094 C 3.097656 -5.007812 3.078125 -5.0625 3.054688 -5.09375 C 3.042969 -5.09375 3.042969 -5.105469 3.042969 -5.117188 C 2.976562 -5.160156 2.898438 -5.203125 2.832031 -5.257812 C 2.878906 -5.316406 2.824219 -5.324219 2.789062 -5.335938 C 2.757812 -5.347656 2.710938 -5.335938 2.691406 -5.359375 C 2.625 -5.390625 2.546875 -5.382812 2.503906 -5.457031 C 2.503906 -5.46875 2.46875 -5.480469 2.449219 -5.46875 C 2.394531 -5.46875 2.347656 -5.457031 2.292969 -5.445312 C 2.292969 -5.523438 2.261719 -5.558594 2.183594 -5.535156 C 2.171875 -5.535156 2.160156 -5.535156 2.148438 -5.546875 C 2.09375 -5.589844 2.039062 -5.578125 1.984375 -5.546875 C 1.929688 -5.511719 1.875 -5.535156 1.832031 -5.546875 C 1.730469 -5.46875 1.699219 -5.335938 1.554688 -5.324219 Z M 1.554688 -5.324219 "/></g></g></g><g fill="#ffffff" fill-opacity="1"><g transform="translate(29.921419, 23.904553)"><g><path d="M 2.667969 -2.46875 C 2.65625 -2.46875 2.65625 -2.480469 2.644531 -2.480469 C 2.625 -2.457031 2.589844 -2.425781 2.558594 -2.402344 C 2.546875 -2.394531 2.535156 -2.371094 2.523438 -2.347656 C 2.503906 -2.292969 2.46875 -2.28125 2.414062 -2.328125 C 2.402344 -2.328125 2.394531 -2.335938 2.394531 -2.335938 C 2.335938 -2.304688 2.292969 -2.28125 2.261719 -2.238281 C 2.183594 -2.171875 2.117188 -2.09375 2.050781 -2.007812 C 2.007812 -1.941406 1.984375 -1.851562 1.898438 -1.820312 C 1.875 -1.808594 1.851562 -1.785156 1.839844 -1.765625 C 1.765625 -1.664062 1.699219 -1.542969 1.566406 -1.476562 C 1.542969 -1.476562 1.523438 -1.457031 1.488281 -1.445312 C 1.488281 -1.476562 1.464844 -1.5 1.464844 -1.523438 C 1.476562 -1.652344 1.378906 -1.765625 1.421875 -1.898438 C 1.433594 -1.90625 1.410156 -1.917969 1.410156 -1.929688 C 1.410156 -1.996094 1.421875 -2.050781 1.433594 -2.117188 C 1.433594 -2.128906 1.445312 -2.140625 1.445312 -2.160156 C 1.433594 -2.269531 1.433594 -2.382812 1.421875 -2.492188 C 1.421875 -2.523438 1.410156 -2.558594 1.421875 -2.582031 C 1.445312 -2.691406 1.457031 -2.789062 1.445312 -2.890625 C 1.433594 -2.933594 1.433594 -2.964844 1.433594 -3 C 1.433594 -3.121094 1.488281 -3.21875 1.445312 -3.328125 C 1.433594 -3.339844 1.445312 -3.363281 1.445312 -3.363281 C 1.523438 -3.441406 1.488281 -3.484375 1.421875 -3.527344 C 1.457031 -3.5625 1.488281 -3.574219 1.511719 -3.59375 C 1.476562 -3.640625 1.488281 -3.683594 1.523438 -3.695312 C 1.585938 -3.714844 1.664062 -3.738281 1.742188 -3.75 C 1.839844 -3.769531 1.953125 -3.769531 2.050781 -3.792969 C 2.074219 -3.804688 2.09375 -3.828125 2.117188 -3.828125 C 2.183594 -3.847656 2.25 -3.902344 2.328125 -3.902344 C 2.414062 -3.890625 2.503906 -3.902344 2.582031 -3.949219 C 2.667969 -4.003906 2.777344 -3.992188 2.867188 -4.035156 C 2.945312 -4.058594 3.019531 -4.089844 3.097656 -4.113281 C 3.164062 -4.144531 3.242188 -4.179688 3.308594 -4.191406 C 3.441406 -4.210938 3.574219 -4.246094 3.582031 -4.410156 C 3.582031 -4.421875 3.59375 -4.421875 3.605469 -4.433594 C 3.648438 -4.464844 3.617188 -4.5 3.59375 -4.519531 C 3.582031 -4.554688 3.550781 -4.574219 3.527344 -4.609375 C 3.496094 -4.652344 3.453125 -4.6875 3.386719 -4.699219 C 3.320312 -4.71875 3.242188 -4.742188 3.1875 -4.785156 C 3.109375 -4.839844 3.042969 -4.894531 2.945312 -4.894531 C 2.921875 -4.886719 2.898438 -4.90625 2.878906 -4.917969 C 2.789062 -4.949219 2.691406 -4.996094 2.582031 -4.972656 C 2.449219 -4.949219 2.316406 -4.972656 2.183594 -4.941406 C 2.09375 -4.929688 2.019531 -4.941406 1.941406 -4.941406 C 1.941406 -4.929688 1.941406 -4.929688 1.953125 -4.917969 C 1.90625 -4.886719 1.863281 -4.851562 1.820312 -4.820312 C 1.765625 -4.796875 1.632812 -4.808594 1.621094 -4.875 C 1.621094 -4.929688 1.566406 -4.996094 1.644531 -5.039062 C 1.644531 -5.050781 1.644531 -5.070312 1.644531 -5.09375 C 1.652344 -5.148438 1.664062 -5.214844 1.675781 -5.292969 C 1.675781 -5.292969 1.652344 -5.316406 1.621094 -5.347656 C 1.6875 -5.335938 1.730469 -5.335938 1.773438 -5.324219 C 1.773438 -5.335938 1.773438 -5.335938 1.773438 -5.347656 C 1.753906 -5.371094 1.730469 -5.390625 1.710938 -5.414062 C 1.710938 -5.445312 1.710938 -5.480469 1.71875 -5.503906 C 1.71875 -5.570312 1.71875 -5.632812 1.765625 -5.691406 C 1.796875 -5.746094 1.839844 -5.800781 1.773438 -5.867188 C 1.773438 -5.878906 1.785156 -5.910156 1.796875 -5.921875 C 1.875 -5.976562 1.832031 -6.074219 1.839844 -6.140625 C 1.851562 -6.230469 1.886719 -6.316406 1.960938 -6.351562 C 2.09375 -6.40625 2.214844 -6.429688 2.335938 -6.449219 C 2.414062 -6.472656 2.492188 -6.496094 2.558594 -6.539062 C 2.601562 -6.570312 2.65625 -6.582031 2.710938 -6.59375 C 2.777344 -6.605469 2.832031 -6.617188 2.890625 -6.636719 C 3.03125 -6.683594 3.164062 -6.726562 3.296875 -6.769531 C 3.363281 -6.792969 3.441406 -6.804688 3.515625 -6.792969 C 3.539062 -6.78125 3.574219 -6.824219 3.605469 -6.847656 C 3.605469 -6.847656 3.605469 -6.859375 3.605469 -6.871094 C 3.640625 -6.859375 3.683594 -6.847656 3.714844 -6.835938 C 3.75 -6.871094 3.769531 -6.914062 3.816406 -6.957031 C 3.769531 -7.035156 3.726562 -7.113281 3.683594 -7.199219 C 3.660156 -7.222656 3.640625 -7.246094 3.617188 -7.265625 C 3.550781 -7.332031 3.484375 -7.410156 3.363281 -7.386719 C 3.363281 -7.386719 3.363281 -7.398438 3.363281 -7.398438 C 3.273438 -7.476562 3.164062 -7.488281 3.054688 -7.519531 C 3.03125 -7.53125 2.988281 -7.554688 2.964844 -7.542969 C 2.898438 -7.507812 2.84375 -7.542969 2.789062 -7.574219 C 2.769531 -7.53125 2.746094 -7.488281 2.703125 -7.519531 C 2.691406 -7.488281 2.679688 -7.453125 2.667969 -7.421875 C 2.523438 -7.421875 2.394531 -7.433594 2.25 -7.433594 C 2.25 -7.421875 2.25 -7.398438 2.25 -7.375 C 2.195312 -7.386719 2.128906 -7.421875 2.085938 -7.398438 C 1.875 -7.332031 1.644531 -7.34375 1.457031 -7.199219 C 1.398438 -7.167969 1.34375 -7.125 1.289062 -7.101562 C 1.222656 -7.066406 1.179688 -7.035156 1.179688 -6.96875 C 1.148438 -6.957031 1.101562 -6.945312 1.070312 -6.9375 C 1.070312 -6.914062 1.082031 -6.890625 1.082031 -6.871094 C 1.058594 -6.878906 1.035156 -6.878906 1.015625 -6.890625 C 0.96875 -6.847656 0.914062 -6.792969 0.871094 -6.738281 C 0.847656 -6.714844 0.828125 -6.683594 0.816406 -6.648438 C 0.78125 -6.582031 0.761719 -6.515625 0.726562 -6.449219 C 0.714844 -6.417969 0.695312 -6.394531 0.695312 -6.363281 C 0.683594 -6.261719 0.660156 -6.175781 0.617188 -6.085938 C 0.59375 -6.054688 0.59375 -6.007812 0.574219 -5.976562 C 0.539062 -5.921875 0.507812 -5.867188 0.519531 -5.789062 C 0.519531 -5.746094 0.527344 -5.699219 0.507812 -5.65625 C 0.484375 -5.613281 0.484375 -5.570312 0.496094 -5.511719 C 0.496094 -5.46875 0.519531 -5.402344 0.496094 -5.371094 C 0.441406 -5.28125 0.453125 -5.203125 0.441406 -5.117188 C 0.429688 -5.007812 0.417969 -4.894531 0.417969 -4.796875 C 0.417969 -4.753906 0.441406 -4.699219 0.453125 -4.652344 C 0.398438 -4.632812 0.351562 -4.574219 0.351562 -4.488281 C 0.351562 -4.421875 0.363281 -4.355469 0.363281 -4.289062 C 0.351562 -4.179688 0.34375 -4.078125 0.320312 -3.96875 C 0.308594 -3.902344 0.277344 -3.835938 0.253906 -3.769531 C 0.265625 -3.75 0.285156 -3.714844 0.296875 -3.695312 C 0.285156 -3.648438 0.253906 -3.59375 0.265625 -3.574219 C 0.320312 -3.460938 0.210938 -3.363281 0.285156 -3.253906 C 0.308594 -3.207031 0.277344 -3.121094 0.265625 -3.042969 C 0.265625 -2.988281 0.230469 -2.933594 0.277344 -2.890625 C 0.285156 -2.878906 0.296875 -2.855469 0.285156 -2.855469 C 0.21875 -2.800781 0.265625 -2.734375 0.265625 -2.667969 C 0.253906 -2.582031 0.242188 -2.492188 0.242188 -2.394531 C 0.230469 -2.292969 0.210938 -2.195312 0.230469 -2.085938 C 0.242188 -2.027344 0.210938 -1.960938 0.253906 -1.90625 C 0.253906 -1.90625 0.242188 -1.898438 0.242188 -1.886719 C 0.265625 -1.773438 0.242188 -1.652344 0.265625 -1.542969 C 0.265625 -1.5 0.285156 -1.457031 0.296875 -1.410156 C 0.332031 -1.324219 0.351562 -1.234375 0.386719 -1.136719 C 0.34375 -1.082031 0.34375 -1.035156 0.40625 -0.992188 C 0.429688 -0.96875 0.453125 -0.9375 0.453125 -0.914062 C 0.429688 -0.792969 0.464844 -0.695312 0.484375 -0.585938 C 0.519531 -0.464844 0.605469 -0.417969 0.695312 -0.386719 C 0.78125 -0.351562 0.839844 -0.308594 0.882812 -0.21875 C 0.902344 -0.175781 0.949219 -0.164062 1.003906 -0.164062 C 1.058594 -0.164062 1.113281 -0.144531 1.15625 -0.121094 C 1.203125 -0.0898438 1.234375 -0.0546875 1.269531 -0.03125 C 1.324219 -0.03125 1.367188 -0.0234375 1.398438 -0.03125 C 1.410156 -0.03125 1.433594 -0.03125 1.433594 -0.0429688 C 1.488281 -0.078125 1.53125 -0.121094 1.578125 -0.164062 C 1.621094 -0.210938 1.664062 -0.230469 1.730469 -0.230469 C 1.773438 -0.21875 1.808594 -0.242188 1.820312 -0.296875 C 1.832031 -0.34375 1.863281 -0.398438 1.898438 -0.441406 C 2.027344 -0.550781 2.148438 -0.671875 2.214844 -0.828125 C 2.238281 -0.871094 2.261719 -0.9375 2.292969 -0.949219 C 2.382812 -0.980469 2.382812 -1.070312 2.425781 -1.136719 C 2.480469 -1.214844 2.503906 -1.3125 2.570312 -1.378906 C 2.625 -1.445312 2.644531 -1.511719 2.679688 -1.578125 C 2.746094 -1.6875 2.769531 -1.820312 2.84375 -1.929688 C 2.890625 -1.996094 2.84375 -2.117188 2.957031 -2.160156 C 2.957031 -2.226562 2.976562 -2.292969 3.03125 -2.335938 C 3.066406 -2.371094 3.085938 -2.414062 3.085938 -2.449219 C 3.085938 -2.558594 3.164062 -2.636719 3.175781 -2.746094 C 3.140625 -2.722656 3.109375 -2.703125 3.085938 -2.703125 C 2.964844 -2.710938 2.855469 -2.679688 2.746094 -2.601562 C 2.703125 -2.570312 2.65625 -2.535156 2.667969 -2.46875 Z M 2.667969 -2.46875 "/></g></g></g></svg>