<svg xmlns="http://www.w3.org/2000/svg" xmlns:xlink="http://www.w3.org/1999/xlink" width="140" zoomAndPan="magnify" viewBox="0 0 104.88 37.5" height="50" preserveAspectRatio="xMidYMid meet" version="1.0"><defs><g/><clipPath id="id1"><path d="M 0.628906 4 L 22 4 L 22 31 L 0.628906 31 Z M 0.628906 4 " clip-rule="nonzero"/></clipPath></defs><g clip-path="url(#id1)"><g fill="#000000" fill-opacity="1"><g transform="translate(4.345564, 24.82765)"><g><path d="M 16.671875 -3.5625 C 16.710938 -3.550781 16.75 -3.53125 16.78125 -3.5 C 16.8125 -3.476562 16.820312 -3.445312 16.8125 -3.40625 C 16.789062 -3.351562 16.765625 -3.304688 16.734375 -3.265625 C 16.722656 -3.265625 16.710938 -3.253906 16.703125 -3.234375 C 16.691406 -3.222656 16.679688 -3.210938 16.671875 -3.203125 C 16.660156 -3.203125 16.648438 -3.203125 16.640625 -3.203125 C 16.367188 -3.210938 16.191406 -3.140625 16.109375 -2.984375 C 16.035156 -2.828125 15.992188 -2.628906 15.984375 -2.390625 C 15.910156 -0.703125 15.828125 0.984375 15.734375 2.671875 C 15.703125 3.046875 15.679688 3.421875 15.671875 3.796875 C 15.648438 3.992188 15.617188 4.1875 15.578125 4.375 C 15.535156 4.53125 15.429688 4.613281 15.265625 4.625 C 15.222656 4.625 15.179688 4.617188 15.140625 4.609375 C 15.109375 4.597656 15.082031 4.566406 15.0625 4.515625 C 14.925781 4.222656 14.921875 2.875 15.046875 0.46875 C 15.148438 -1.65625 15.082031 -2.789062 14.84375 -2.9375 C 14.675781 -3.039062 14.273438 -3.070312 13.640625 -3.03125 L 2.953125 -2.28125 C 2.890625 -2.269531 2.820312 -2.265625 2.75 -2.265625 C 2.738281 -2.265625 2.734375 -2.265625 2.734375 -2.265625 C 2.503906 -2.273438 2.164062 -1.398438 1.71875 0.359375 C 1.269531 2.128906 0.972656 3.414062 0.828125 4.21875 C 0.691406 5.019531 0.472656 5.472656 0.171875 5.578125 C 0.117188 5.597656 0.0703125 5.613281 0.03125 5.625 C -0.0078125 5.632812 -0.0546875 5.628906 -0.109375 5.609375 C -0.160156 5.585938 -0.195312 5.550781 -0.21875 5.5 C -0.25 5.445312 -0.265625 5.398438 -0.265625 5.359375 C -0.265625 5.335938 -0.265625 5.3125 -0.265625 5.28125 C -0.253906 5.007812 -0.222656 4.738281 -0.171875 4.46875 C 0.179688 2.539062 0.671875 0.65625 1.296875 -1.1875 C 1.316406 -1.25 1.335938 -1.3125 1.359375 -1.375 C 1.421875 -1.539062 1.472656 -1.707031 1.515625 -1.875 C 1.566406 -2.0625 1.488281 -2.148438 1.28125 -2.140625 C 0.882812 -2.128906 0.488281 -2.109375 0.09375 -2.078125 C 0.0703125 -2.066406 0.0507812 -2.0625 0.03125 -2.0625 C -0.269531 -2.039062 -0.570312 -2.019531 -0.875 -2 C -1.4375 -1.945312 -1.992188 -1.90625 -2.546875 -1.875 C -2.554688 -1.875 -2.566406 -1.875 -2.578125 -1.875 C -2.910156 -1.832031 -3.25 -1.84375 -3.59375 -1.90625 C -3.632812 -1.914062 -3.671875 -1.929688 -3.703125 -1.953125 C -3.734375 -1.972656 -3.75 -2.003906 -3.75 -2.046875 C -3.738281 -2.128906 -3.710938 -2.191406 -3.671875 -2.234375 C -3.617188 -2.273438 -3.5625 -2.300781 -3.5 -2.3125 C -3.4375 -2.320312 -3.375 -2.328125 -3.3125 -2.328125 C -3.289062 -2.328125 -3.269531 -2.328125 -3.25 -2.328125 C -2.726562 -2.378906 -2.207031 -2.421875 -1.6875 -2.453125 C -0.707031 -2.535156 0.269531 -2.601562 1.25 -2.65625 C 1.644531 -2.675781 1.910156 -2.867188 2.046875 -3.234375 C 3.148438 -6.253906 4.445312 -9.179688 5.9375 -12.015625 C 6.425781 -12.941406 6.945312 -13.847656 7.5 -14.734375 C 8.0625 -15.628906 8.664062 -16.476562 9.3125 -17.28125 C 9.875 -18 10.5 -18.65625 11.1875 -19.25 C 11.5625 -19.570312 11.984375 -19.832031 12.453125 -20.03125 C 12.703125 -20.132812 12.960938 -20.1875 13.234375 -20.1875 C 13.734375 -20.207031 14.160156 -20.007812 14.515625 -19.59375 C 14.816406 -19.238281 15.046875 -18.859375 15.203125 -18.453125 C 15.492188 -17.660156 15.695312 -16.859375 15.8125 -16.046875 C 15.988281 -14.796875 16.097656 -13.539062 16.140625 -12.28125 C 16.171875 -10.976562 16.175781 -9.675781 16.15625 -8.375 C 16.144531 -7.070312 16.128906 -5.773438 16.109375 -4.484375 C 16.109375 -4.460938 16.109375 -4.4375 16.109375 -4.40625 C 16.097656 -4.34375 16.09375 -4.285156 16.09375 -4.234375 C 16.082031 -4.035156 16.09375 -3.851562 16.125 -3.6875 C 16.1875 -3.644531 16.242188 -3.617188 16.296875 -3.609375 C 16.347656 -3.597656 16.398438 -3.59375 16.453125 -3.59375 C 16.523438 -3.601562 16.597656 -3.59375 16.671875 -3.5625 Z M 15.140625 -5.65625 C 15.148438 -5.882812 15.15625 -6.113281 15.15625 -6.34375 C 15.15625 -7.53125 15.144531 -8.71875 15.125 -9.90625 C 15.113281 -11.09375 15.078125 -12.28125 15.015625 -13.46875 C 14.953125 -14.613281 14.8125 -15.757812 14.59375 -16.90625 C 14.488281 -17.445312 14.328125 -17.984375 14.109375 -18.515625 C 13.984375 -18.796875 13.816406 -19.050781 13.609375 -19.28125 C 13.316406 -19.601562 12.988281 -19.695312 12.625 -19.5625 C 12.320312 -19.445312 12.050781 -19.285156 11.8125 -19.078125 C 11.363281 -18.679688 10.945312 -18.25 10.5625 -17.78125 C 9.96875 -17.082031 9.421875 -16.347656 8.921875 -15.578125 C 8.421875 -14.816406 7.953125 -14.023438 7.515625 -13.203125 C 6.691406 -11.660156 5.921875 -10.082031 5.203125 -8.46875 C 4.492188 -6.851562 3.832031 -5.207031 3.21875 -3.53125 C 3.207031 -3.5 3.195312 -3.472656 3.1875 -3.453125 C 3.15625 -3.378906 3.132812 -3.285156 3.125 -3.171875 C 3.113281 -3.066406 3.179688 -3.019531 3.328125 -3.03125 C 10.304688 -3.425781 14.101562 -3.632812 14.71875 -3.65625 C 14.894531 -3.664062 15.007812 -3.695312 15.0625 -3.75 C 15.113281 -3.800781 15.140625 -3.914062 15.140625 -4.09375 C 15.148438 -4.519531 15.148438 -4.941406 15.140625 -5.359375 C 15.140625 -5.453125 15.140625 -5.550781 15.140625 -5.65625 Z M 15.140625 -5.65625 "/></g></g></g></g><g fill="#000000" fill-opacity="1"><g transform="translate(21.590832, 24.82765)"><g><path d="M 8.671875 -3.5625 C 8.835938 -3.644531 8.9375 -3.660156 8.96875 -3.609375 C 9 -3.503906 8.90625 -3.316406 8.6875 -3.046875 C 8.476562 -2.785156 8.1875 -2.519531 7.8125 -2.25 C 6.925781 -1.625 6.175781 -1.25 5.5625 -1.125 C 4.957031 -1.007812 4.460938 -1.050781 4.078125 -1.25 C 3.691406 -1.445312 3.40625 -1.71875 3.21875 -2.0625 C 3 -2.445312 2.863281 -2.832031 2.8125 -3.21875 C 2.726562 -3.632812 2.625 -3.867188 2.5 -3.921875 C 2.375 -3.972656 2.234375 -3.910156 2.078125 -3.734375 C 1.929688 -3.566406 1.789062 -3.34375 1.65625 -3.0625 C 1.519531 -2.78125 1.40625 -2.503906 1.3125 -2.234375 C 1.21875 -1.972656 1.171875 -1.773438 1.171875 -1.640625 C 1.140625 -1.566406 1.113281 -1.492188 1.09375 -1.421875 C 1.050781 -1.304688 1.007812 -1.195312 0.96875 -1.09375 C 0.851562 -0.800781 0.65625 -0.691406 0.375 -0.765625 C 0.21875 -0.796875 0.128906 -0.894531 0.109375 -1.0625 C 0.0976562 -1.164062 0.09375 -1.28125 0.09375 -1.40625 C 0.09375 -1.5 0.0859375 -1.597656 0.078125 -1.703125 C 0.0546875 -2.410156 0.0390625 -3.125 0.03125 -3.84375 C 0.03125 -3.925781 0.0664062 -3.984375 0.140625 -4.015625 C 0.222656 -4.054688 0.316406 -4.070312 0.421875 -4.0625 C 0.535156 -4.0625 0.632812 -4.046875 0.71875 -4.015625 C 0.800781 -3.984375 0.847656 -3.941406 0.859375 -3.890625 C 0.867188 -3.773438 0.875 -3.671875 0.875 -3.578125 C 0.875 -3.460938 0.878906 -3.375 0.890625 -3.3125 C 0.910156 -3.257812 0.945312 -3.257812 1 -3.3125 C 1.0625 -3.375 1.164062 -3.5 1.3125 -3.6875 C 1.519531 -4.03125 1.789062 -4.320312 2.125 -4.5625 C 2.269531 -4.675781 2.441406 -4.753906 2.640625 -4.796875 C 2.835938 -4.847656 3.03125 -4.859375 3.21875 -4.828125 C 3.40625 -4.773438 3.554688 -4.660156 3.671875 -4.484375 C 3.785156 -4.316406 3.867188 -4.117188 3.921875 -3.890625 C 3.984375 -3.671875 4.023438 -3.46875 4.046875 -3.28125 C 4.054688 -3.226562 4.066406 -3.1875 4.078125 -3.15625 C 4.117188 -2.90625 4.175781 -2.675781 4.25 -2.46875 C 4.320312 -2.257812 4.441406 -2.097656 4.609375 -1.984375 C 4.773438 -1.867188 5.015625 -1.820312 5.328125 -1.84375 C 6.015625 -1.894531 6.5625 -2.039062 6.96875 -2.28125 C 7.375 -2.519531 7.71875 -2.769531 8 -3.03125 C 8.039062 -3.070312 8.078125 -3.109375 8.109375 -3.140625 C 8.171875 -3.179688 8.222656 -3.222656 8.265625 -3.265625 C 8.367188 -3.378906 8.503906 -3.476562 8.671875 -3.5625 Z M 8.671875 -3.5625 "/></g></g></g><g fill="#000000" fill-opacity="1"><g transform="translate(29.775422, 24.82765)"><g><path d="M 0.578125 -0.53125 C 0.492188 -0.519531 0.40625 -0.570312 0.3125 -0.6875 C 0.21875 -0.800781 0.132812 -1.003906 0.0625 -1.296875 C -0.0078125 -1.585938 -0.0351562 -1.988281 -0.015625 -2.5 C -0.015625 -2.550781 -0.015625 -2.613281 -0.015625 -2.6875 C -0.015625 -2.882812 -0.00390625 -3.113281 0.015625 -3.375 C 0.0351562 -3.644531 0.0703125 -3.882812 0.125 -4.09375 C 0.1875 -4.300781 0.28125 -4.425781 0.40625 -4.46875 C 0.769531 -4.570312 0.96875 -4.441406 1 -4.078125 C 1 -3.972656 0.992188 -3.863281 0.984375 -3.75 C 0.972656 -3.695312 0.96875 -3.640625 0.96875 -3.578125 C 0.957031 -3.410156 0.953125 -3.25 0.953125 -3.09375 C 0.953125 -2.957031 0.941406 -2.828125 0.921875 -2.703125 C 0.921875 -2.617188 0.921875 -2.492188 0.921875 -2.328125 C 0.941406 -2.085938 0.945312 -1.832031 0.9375 -1.5625 C 0.925781 -1.289062 0.894531 -1.050781 0.84375 -0.84375 C 0.789062 -0.644531 0.703125 -0.539062 0.578125 -0.53125 Z M 0.921875 -5.6875 C 0.878906 -5.644531 0.816406 -5.617188 0.734375 -5.609375 C 0.660156 -5.597656 0.601562 -5.601562 0.5625 -5.625 C 0.519531 -5.664062 0.488281 -5.710938 0.46875 -5.765625 C 0.457031 -5.816406 0.453125 -5.878906 0.453125 -5.953125 C 0.460938 -5.972656 0.46875 -5.992188 0.46875 -6.015625 C 0.46875 -6.085938 0.484375 -6.15625 0.515625 -6.21875 C 0.597656 -6.414062 0.757812 -6.5 1 -6.46875 C 1.082031 -6.46875 1.144531 -6.4375 1.1875 -6.375 C 1.226562 -6.3125 1.242188 -6.242188 1.234375 -6.171875 C 1.171875 -5.984375 1.066406 -5.820312 0.921875 -5.6875 Z M 0.921875 -5.6875 "/></g></g></g><g fill="#000000" fill-opacity="1"><g transform="translate(31.374709, 24.82765)"><g><path d="M 3.75 -2.8125 C 3.820312 -2.96875 3.875 -3.039062 3.90625 -3.03125 C 3.9375 -3.019531 3.941406 -2.957031 3.921875 -2.84375 C 3.910156 -2.726562 3.890625 -2.601562 3.859375 -2.46875 C 3.804688 -2.25 3.71875 -1.992188 3.59375 -1.703125 C 3.46875 -1.421875 3.328125 -1.164062 3.171875 -0.9375 C 2.941406 -0.613281 2.660156 -0.367188 2.328125 -0.203125 C 1.992188 -0.046875 1.6875 -0.0078125 1.40625 -0.09375 C 1.132812 -0.175781 0.976562 -0.429688 0.9375 -0.859375 C 0.925781 -1.222656 0.957031 -1.617188 1.03125 -2.046875 C 1.0625 -2.234375 1.085938 -2.410156 1.109375 -2.578125 C 1.109375 -2.640625 1.09375 -2.6875 1.0625 -2.71875 C 1.03125 -2.757812 0.988281 -2.773438 0.9375 -2.765625 C 0.90625 -2.765625 0.867188 -2.765625 0.828125 -2.765625 C 0.609375 -2.734375 0.390625 -2.738281 0.171875 -2.78125 C -0.0976562 -2.851562 -0.253906 -2.984375 -0.296875 -3.171875 C -0.335938 -3.359375 -0.332031 -3.601562 -0.28125 -3.90625 C -0.257812 -4.125 -0.179688 -4.285156 -0.046875 -4.390625 C 0.0859375 -4.492188 0.242188 -4.539062 0.421875 -4.53125 C 0.671875 -4.5 0.789062 -4.398438 0.78125 -4.234375 C 0.78125 -4.066406 0.734375 -3.882812 0.640625 -3.6875 C 0.566406 -3.53125 0.523438 -3.394531 0.515625 -3.28125 C 0.515625 -3.175781 0.609375 -3.140625 0.796875 -3.171875 C 0.835938 -3.179688 0.882812 -3.195312 0.9375 -3.21875 C 1.007812 -3.25 1.085938 -3.273438 1.171875 -3.296875 C 1.265625 -3.316406 1.382812 -3.320312 1.53125 -3.3125 C 1.707031 -3.300781 1.820312 -3.21875 1.875 -3.0625 C 1.9375 -2.914062 1.960938 -2.726562 1.953125 -2.5 C 1.941406 -2.269531 1.921875 -2.039062 1.890625 -1.8125 C 1.847656 -1.507812 1.828125 -1.253906 1.828125 -1.046875 C 1.828125 -0.835938 1.882812 -0.71875 2 -0.6875 C 2.164062 -0.644531 2.40625 -0.789062 2.71875 -1.125 C 3.039062 -1.457031 3.382812 -2.019531 3.75 -2.8125 Z M 3.75 -2.8125 "/></g></g></g><g fill="#000000" fill-opacity="1"><g transform="translate(34.973107, 24.82765)"><g><path d="M 1.3125 -1.0625 C 0.96875 -1.070312 0.6875 -1.222656 0.46875 -1.515625 C 0.257812 -1.816406 0.125 -2.195312 0.0625 -2.65625 C 0.0078125 -3.125 0.0546875 -3.597656 0.203125 -4.078125 C 0.242188 -4.234375 0.34375 -4.34375 0.5 -4.40625 C 0.601562 -4.4375 0.710938 -4.425781 0.828125 -4.375 C 0.953125 -4.332031 1.019531 -4.253906 1.03125 -4.140625 C 1.03125 -4.046875 1.019531 -3.945312 1 -3.84375 C 0.976562 -3.757812 0.960938 -3.6875 0.953125 -3.625 C 0.929688 -3.332031 0.9375 -3.019531 0.96875 -2.6875 C 1.007812 -2.351562 1.097656 -2.0625 1.234375 -1.8125 C 1.390625 -1.625 1.554688 -1.601562 1.734375 -1.75 C 1.910156 -1.894531 2.070312 -2.117188 2.21875 -2.421875 C 2.320312 -2.660156 2.398438 -2.894531 2.453125 -3.125 C 2.515625 -3.363281 2.554688 -3.550781 2.578125 -3.6875 C 2.585938 -3.738281 2.59375 -3.769531 2.59375 -3.78125 C 2.625 -3.882812 2.648438 -3.988281 2.671875 -4.09375 C 2.710938 -4.238281 2.757812 -4.378906 2.8125 -4.515625 C 2.882812 -4.773438 3.070312 -4.882812 3.375 -4.84375 C 3.550781 -4.832031 3.648438 -4.742188 3.671875 -4.578125 C 3.691406 -4.347656 3.695312 -4.125 3.6875 -3.90625 C 3.675781 -3.8125 3.671875 -3.71875 3.671875 -3.625 C 3.648438 -3.226562 3.644531 -2.804688 3.65625 -2.359375 C 3.664062 -1.910156 3.738281 -1.539062 3.875 -1.25 C 3.882812 -1.21875 3.882812 -1.164062 3.875 -1.09375 C 3.875 -1.03125 3.851562 -0.960938 3.8125 -0.890625 C 3.78125 -0.828125 3.71875 -0.789062 3.625 -0.78125 C 3.539062 -0.769531 3.425781 -0.804688 3.28125 -0.890625 C 3.070312 -1.023438 2.9375 -1.210938 2.875 -1.453125 C 2.8125 -1.691406 2.78125 -1.921875 2.78125 -2.140625 C 2.769531 -2.265625 2.765625 -2.378906 2.765625 -2.484375 C 2.679688 -2.035156 2.5 -1.6875 2.21875 -1.4375 C 1.945312 -1.195312 1.644531 -1.070312 1.3125 -1.0625 Z M 1.3125 -1.0625 "/></g></g></g><g fill="#000000" fill-opacity="1"><g transform="translate(39.382907, 24.82765)"><g><path d="M 8.390625 -12.125 C 8.546875 -10.882812 8.519531 -9.726562 8.3125 -8.65625 C 8.101562 -7.59375 7.734375 -6.582031 7.203125 -5.625 C 6.671875 -4.675781 6 -3.753906 5.1875 -2.859375 C 5.113281 -2.773438 5.078125 -2.707031 5.078125 -2.65625 C 5.078125 -2.601562 5.113281 -2.53125 5.1875 -2.4375 C 5.351562 -2.21875 5.53125 -2.003906 5.71875 -1.796875 C 5.90625 -1.597656 6.125 -1.425781 6.375 -1.28125 C 6.570312 -1.070312 6.601562 -0.929688 6.46875 -0.859375 C 6.34375 -0.796875 6.101562 -0.835938 5.75 -0.984375 C 5.40625 -1.140625 5.003906 -1.460938 4.546875 -1.953125 C 4.453125 -2.054688 4.351562 -2.066406 4.25 -1.984375 C 4.125 -1.898438 4 -1.816406 3.875 -1.734375 C 3.769531 -1.660156 3.664062 -1.585938 3.5625 -1.515625 C 3.195312 -1.265625 2.804688 -1.050781 2.390625 -0.875 C 1.960938 -0.6875 1.507812 -0.613281 1.03125 -0.65625 C 0.300781 -0.738281 -0.0703125 -1.144531 -0.09375 -1.875 C -0.113281 -2.394531 -0.0078125 -2.859375 0.21875 -3.265625 C 0.445312 -3.679688 0.765625 -3.984375 1.171875 -4.171875 C 1.578125 -4.367188 2.050781 -4.410156 2.59375 -4.296875 C 2.65625 -4.285156 2.734375 -4.265625 2.828125 -4.234375 C 2.890625 -4.234375 2.960938 -4.21875 3.046875 -4.1875 C 2.992188 -4.3125 2.945312 -4.421875 2.90625 -4.515625 C 2.832031 -4.679688 2.765625 -4.820312 2.703125 -4.9375 C 2.347656 -5.675781 2.054688 -6.519531 1.828125 -7.46875 C 1.609375 -8.414062 1.5 -9.378906 1.5 -10.359375 C 1.5 -11.347656 1.664062 -12.269531 2 -13.125 C 2.332031 -13.976562 2.878906 -14.679688 3.640625 -15.234375 C 4.109375 -15.566406 4.601562 -15.742188 5.125 -15.765625 C 5.644531 -15.796875 6.128906 -15.6875 6.578125 -15.4375 C 7.035156 -15.1875 7.410156 -14.8125 7.703125 -14.3125 C 8.078125 -13.625 8.304688 -12.894531 8.390625 -12.125 Z M 3.46875 -2.359375 C 3.582031 -2.441406 3.59375 -2.539062 3.5 -2.65625 C 3.445312 -2.707031 3.394531 -2.769531 3.34375 -2.84375 C 3.207031 -3.007812 3.046875 -3.179688 2.859375 -3.359375 C 2.679688 -3.546875 2.492188 -3.6875 2.296875 -3.78125 C 2.097656 -3.882812 1.90625 -3.894531 1.71875 -3.8125 C 1.445312 -3.6875 1.222656 -3.457031 1.046875 -3.125 C 0.867188 -2.800781 0.757812 -2.460938 0.71875 -2.109375 C 0.6875 -1.765625 0.753906 -1.503906 0.921875 -1.328125 C 1.085938 -1.148438 1.375 -1.132812 1.78125 -1.28125 C 2.382812 -1.550781 2.945312 -1.910156 3.46875 -2.359375 Z M 4.78125 -3.640625 C 5.613281 -4.609375 6.234375 -5.5625 6.640625 -6.5 C 7.046875 -7.445312 7.328125 -8.554688 7.484375 -9.828125 C 7.515625 -10.140625 7.53125 -10.546875 7.53125 -11.046875 C 7.53125 -11.554688 7.484375 -12.082031 7.390625 -12.625 C 7.304688 -13.164062 7.148438 -13.660156 6.921875 -14.109375 C 6.703125 -14.554688 6.390625 -14.878906 5.984375 -15.078125 C 5.578125 -15.273438 5.066406 -15.273438 4.453125 -15.078125 C 3.753906 -14.679688 3.238281 -14.144531 2.90625 -13.46875 C 2.582031 -12.800781 2.394531 -12.054688 2.34375 -11.234375 C 2.300781 -10.421875 2.359375 -9.585938 2.515625 -8.734375 C 2.671875 -7.878906 2.882812 -7.066406 3.15625 -6.296875 C 3.4375 -5.523438 3.734375 -4.859375 4.046875 -4.296875 C 4.085938 -4.222656 4.125 -4.148438 4.15625 -4.078125 C 4.25 -3.859375 4.390625 -3.65625 4.578125 -3.46875 C 4.597656 -3.476562 4.617188 -3.492188 4.640625 -3.515625 C 4.691406 -3.546875 4.738281 -3.585938 4.78125 -3.640625 Z M 4.78125 -3.640625 "/></g></g></g><g fill="#000000" fill-opacity="1"><g transform="translate(46.585589, 24.82765)"><g><path d="M 8.078125 -3.265625 C 8.128906 -3.328125 8.171875 -3.34375 8.203125 -3.3125 C 8.242188 -3.28125 8.253906 -3.226562 8.234375 -3.15625 C 8.140625 -2.65625 7.582031 -2.226562 6.5625 -1.875 C 5.914062 -1.625 5.335938 -1.507812 4.828125 -1.53125 C 4.316406 -1.5625 3.90625 -1.757812 3.59375 -2.125 C 3.289062 -2.5 3.125 -3.082031 3.09375 -3.875 C 3.070312 -4.226562 3 -4.375 2.875 -4.3125 C 2.75 -4.257812 2.597656 -4.082031 2.421875 -3.78125 C 2.253906 -3.476562 2.082031 -3.132812 1.90625 -2.75 C 1.738281 -2.375 1.59375 -2.039062 1.46875 -1.75 C 1.351562 -1.457031 1.289062 -1.296875 1.28125 -1.265625 C 1.257812 -1.203125 1.238281 -1.140625 1.21875 -1.078125 C 1.164062 -0.910156 1.101562 -0.742188 1.03125 -0.578125 C 0.957031 -0.441406 0.847656 -0.347656 0.703125 -0.296875 C 0.566406 -0.253906 0.421875 -0.265625 0.265625 -0.328125 C 0.171875 -0.378906 0.101562 -0.453125 0.0625 -0.546875 C 0.0078125 -0.710938 0 -0.875 0.03125 -1.03125 C 0.03125 -1.050781 0.03125 -1.066406 0.03125 -1.078125 C 0.0820312 -1.847656 0.101562 -2.988281 0.09375 -4.5 C 0.09375 -5.46875 0.0976562 -6.492188 0.109375 -7.578125 C 0.117188 -8.671875 0.148438 -9.742188 0.203125 -10.796875 C 0.265625 -11.941406 0.378906 -12.988281 0.546875 -13.9375 C 0.710938 -14.894531 0.972656 -15.671875 1.328125 -16.265625 C 1.691406 -16.859375 2.191406 -17.191406 2.828125 -17.265625 C 3.109375 -17.285156 3.390625 -17.253906 3.671875 -17.171875 C 3.953125 -17.085938 4.21875 -16.921875 4.46875 -16.671875 C 5 -16.160156 5.382812 -15.453125 5.625 -14.546875 C 5.875 -13.640625 5.898438 -12.59375 5.703125 -11.40625 C 5.515625 -10.226562 5.046875 -8.972656 4.296875 -7.640625 C 3.554688 -6.304688 2.46875 -4.953125 1.03125 -3.578125 C 1.019531 -3.546875 1.015625 -3.519531 1.015625 -3.5 C 1.003906 -3.476562 1 -3.460938 1 -3.453125 C 1 -3.453125 1 -3.445312 1 -3.4375 C 1 -3.4375 1 -3.429688 1 -3.421875 C 1.007812 -3.421875 1.015625 -3.414062 1.015625 -3.40625 C 1.015625 -3.40625 1.015625 -3.398438 1.015625 -3.390625 C 1.023438 -3.378906 1.03125 -3.363281 1.03125 -3.34375 C 1.03125 -3.320312 1.03125 -3.296875 1.03125 -3.265625 C 1.03125 -3.234375 1.03125 -3.195312 1.03125 -3.15625 C 1.03125 -3.113281 1.023438 -3.0625 1.015625 -3 C 1.015625 -2.945312 1.015625 -2.882812 1.015625 -2.8125 C 1.097656 -2.957031 1.179688 -3.109375 1.265625 -3.265625 C 1.460938 -3.648438 1.691406 -4.003906 1.953125 -4.328125 C 2.222656 -4.660156 2.578125 -4.863281 3.015625 -4.9375 C 3.203125 -4.957031 3.398438 -4.941406 3.609375 -4.890625 C 3.816406 -4.835938 3.957031 -4.691406 4.03125 -4.453125 C 4.070312 -4.171875 4.085938 -3.878906 4.078125 -3.578125 C 4.054688 -3.367188 4.054688 -3.164062 4.078125 -2.96875 C 4.109375 -2.78125 4.175781 -2.617188 4.28125 -2.484375 C 4.382812 -2.347656 4.570312 -2.257812 4.84375 -2.21875 C 5.195312 -2.164062 5.59375 -2.175781 6.03125 -2.25 C 6.46875 -2.332031 6.875 -2.457031 7.25 -2.625 C 7.625 -2.800781 7.898438 -3.015625 8.078125 -3.265625 Z M 2 -15.703125 C 1.769531 -15.109375 1.582031 -14.25 1.4375 -13.125 C 1.300781 -12.007812 1.195312 -10.828125 1.125 -9.578125 C 1.0625 -8.328125 1.019531 -7.21875 1 -6.25 C 0.988281 -5.28125 0.984375 -4.644531 0.984375 -4.34375 C 1.515625 -4.769531 2.078125 -5.429688 2.671875 -6.328125 C 3.273438 -7.234375 3.804688 -8.222656 4.265625 -9.296875 C 4.722656 -10.378906 5 -11.40625 5.09375 -12.375 C 5.144531 -13.21875 5.023438 -14.046875 4.734375 -14.859375 C 4.441406 -15.671875 4.078125 -16.253906 3.640625 -16.609375 C 3.328125 -16.828125 3.019531 -16.847656 2.71875 -16.671875 C 2.425781 -16.503906 2.1875 -16.179688 2 -15.703125 Z M 2 -15.703125 "/></g></g></g><g fill="#000000" fill-opacity="1"><g transform="translate(54.335078, 24.82765)"><g><path d="M 8.6875 -3.40625 C 8.757812 -3.5 8.832031 -3.566406 8.90625 -3.609375 C 8.988281 -3.648438 9.035156 -3.648438 9.046875 -3.609375 C 9.066406 -3.566406 9.023438 -3.460938 8.921875 -3.296875 C 8.691406 -2.953125 8.351562 -2.625 7.90625 -2.3125 C 7.457031 -2 6.960938 -1.734375 6.421875 -1.515625 C 5.878906 -1.296875 5.347656 -1.148438 4.828125 -1.078125 C 4.304688 -1.003906 3.863281 -1.035156 3.5 -1.171875 C 3.144531 -1.316406 2.925781 -1.59375 2.84375 -2 C 2.539062 -1.507812 2.179688 -1.125 1.765625 -0.84375 C 1.359375 -0.570312 0.96875 -0.457031 0.59375 -0.5 C 0.164062 -0.5625 -0.113281 -0.71875 -0.25 -0.96875 C -0.394531 -1.226562 -0.441406 -1.523438 -0.390625 -1.859375 C -0.347656 -2.203125 -0.25 -2.523438 -0.09375 -2.828125 C 0.03125 -3.054688 0.195312 -3.269531 0.40625 -3.46875 C 0.625 -3.675781 0.851562 -3.832031 1.09375 -3.9375 C 1.382812 -4.09375 1.675781 -4.160156 1.96875 -4.140625 C 2.269531 -4.128906 2.585938 -4.035156 2.921875 -3.859375 C 2.921875 -3.859375 2.925781 -3.863281 2.9375 -3.875 C 2.9375 -3.90625 2.941406 -3.945312 2.953125 -4 C 2.960938 -4.050781 2.992188 -4.09375 3.046875 -4.125 C 3.097656 -4.164062 3.171875 -4.195312 3.265625 -4.21875 C 3.359375 -4.25 3.445312 -4.253906 3.53125 -4.234375 C 3.664062 -4.210938 3.75 -4.144531 3.78125 -4.03125 C 3.820312 -3.914062 3.832031 -3.789062 3.8125 -3.65625 C 3.789062 -3.53125 3.765625 -3.421875 3.734375 -3.328125 C 3.734375 -3.304688 3.734375 -3.285156 3.734375 -3.265625 C 3.585938 -2.703125 3.632812 -2.304688 3.875 -2.078125 C 4.125 -1.847656 4.476562 -1.738281 4.9375 -1.75 C 5.394531 -1.769531 5.882812 -1.867188 6.40625 -2.046875 C 6.925781 -2.222656 7.394531 -2.429688 7.8125 -2.671875 C 8.238281 -2.921875 8.53125 -3.164062 8.6875 -3.40625 Z M 0.765625 -1.265625 C 0.941406 -1.140625 1.132812 -1.148438 1.34375 -1.296875 C 1.550781 -1.453125 1.753906 -1.664062 1.953125 -1.9375 C 2.148438 -2.21875 2.3125 -2.492188 2.4375 -2.765625 C 2.570312 -3.035156 2.648438 -3.242188 2.671875 -3.390625 C 2.253906 -3.609375 1.898438 -3.644531 1.609375 -3.5 C 1.316406 -3.363281 1.085938 -3.140625 0.921875 -2.828125 C 0.753906 -2.515625 0.65625 -2.203125 0.625 -1.890625 C 0.601562 -1.578125 0.648438 -1.367188 0.765625 -1.265625 Z M 0.765625 -1.265625 "/></g></g></g><g fill="#000000" fill-opacity="1"><g transform="translate(62.743098, 24.82765)"><g/></g></g><g fill="#000000" fill-opacity="1"><g transform="translate(65.730003, 24.82765)"><g><path d="M 12.59375 -23.421875 C 13.5 -22.972656 14.226562 -22.394531 14.78125 -21.6875 C 15.34375 -20.988281 15.734375 -20.175781 15.953125 -19.25 C 15.992188 -19.050781 16.015625 -18.847656 16.015625 -18.640625 C 16.015625 -18.585938 16.015625 -18.539062 16.015625 -18.5 C 16.015625 -18.332031 15.925781 -18.21875 15.75 -18.15625 C 15.664062 -18.113281 15.585938 -18.101562 15.515625 -18.125 C 15.441406 -18.144531 15.390625 -18.191406 15.359375 -18.265625 C 15.316406 -18.421875 15.28125 -18.578125 15.25 -18.734375 C 15.238281 -18.765625 15.226562 -18.804688 15.21875 -18.859375 C 14.925781 -20.035156 14.3125 -21.046875 13.375 -21.890625 C 12.144531 -23.023438 10.671875 -23.46875 8.953125 -23.21875 C 7.472656 -23.007812 6.113281 -22.503906 4.875 -21.703125 C 3.207031 -20.648438 1.828125 -19.332031 0.734375 -17.75 C 0.410156 -17.28125 0.132812 -16.796875 -0.09375 -16.296875 C -0.851562 -14.617188 -0.894531 -12.9375 -0.21875 -11.25 C 0 -10.695312 0.265625 -10.175781 0.578125 -9.6875 C 0.890625 -9.195312 1.234375 -8.722656 1.609375 -8.265625 C 2.429688 -7.234375 3.316406 -6.257812 4.265625 -5.34375 C 4.773438 -4.84375 5.285156 -4.351562 5.796875 -3.875 C 6.523438 -3.175781 7.242188 -2.472656 7.953125 -1.765625 C 8.859375 -0.890625 9.675781 0.0390625 10.40625 1.03125 C 10.644531 1.34375 10.859375 1.671875 11.046875 2.015625 C 11.242188 2.359375 11.394531 2.71875 11.5 3.09375 C 11.820312 4.125 11.5 4.914062 10.53125 5.46875 C 10.019531 5.789062 9.46875 5.976562 8.875 6.03125 C 6.238281 6.238281 4.140625 5.351562 2.578125 3.375 C 2.179688 2.863281 1.929688 2.316406 1.828125 1.734375 C 1.722656 1.148438 1.726562 0.550781 1.84375 -0.0625 C 2.082031 -1.445312 2.675781 -2.6875 3.625 -3.78125 C 3.71875 -3.894531 3.8125 -4.003906 3.90625 -4.109375 C 3.9375 -4.160156 3.972656 -4.207031 4.015625 -4.25 C 3.921875 -4.425781 3.804688 -4.570312 3.671875 -4.6875 C 3.617188 -4.726562 3.578125 -4.765625 3.546875 -4.796875 C 2.546875 -5.773438 1.609375 -6.804688 0.734375 -7.890625 C 0.128906 -8.628906 -0.378906 -9.421875 -0.796875 -10.265625 C -1.878906 -12.421875 -1.851562 -14.570312 -0.71875 -16.71875 C -0.09375 -17.84375 0.660156 -18.851562 1.546875 -19.75 C 2.441406 -20.644531 3.453125 -21.445312 4.578125 -22.15625 C 5.679688 -22.84375 6.882812 -23.34375 8.1875 -23.65625 C 8.71875 -23.78125 9.253906 -23.859375 9.796875 -23.890625 C 10.347656 -23.929688 10.898438 -23.898438 11.453125 -23.796875 C 11.847656 -23.710938 12.226562 -23.585938 12.59375 -23.421875 Z M 4.28125 -3.765625 C 4.21875 -3.691406 4.15625 -3.613281 4.09375 -3.53125 C 3.675781 -2.976562 3.351562 -2.390625 3.125 -1.765625 C 2.90625 -1.140625 2.757812 -0.492188 2.6875 0.171875 C 2.53125 1.523438 2.972656 2.679688 4.015625 3.640625 C 5.003906 4.578125 6.195312 5.15625 7.59375 5.375 C 8.238281 5.5 8.878906 5.484375 9.515625 5.328125 C 10.484375 5.078125 10.859375 4.488281 10.640625 3.5625 C 10.523438 3.132812 10.347656 2.722656 10.109375 2.328125 C 9.742188 1.710938 9.328125 1.128906 8.859375 0.578125 C 8.273438 -0.109375 7.660156 -0.773438 7.015625 -1.421875 C 6.378906 -2.066406 5.726562 -2.703125 5.0625 -3.328125 C 4.914062 -3.460938 4.769531 -3.597656 4.625 -3.734375 C 4.59375 -3.765625 4.550781 -3.789062 4.5 -3.8125 C 4.476562 -3.832031 4.453125 -3.847656 4.421875 -3.859375 C 4.410156 -3.847656 4.394531 -3.835938 4.375 -3.828125 C 4.34375 -3.804688 4.3125 -3.785156 4.28125 -3.765625 Z M 4.28125 -3.765625 "/></g></g></g><g fill="#000000" fill-opacity="1"><g transform="translate(76.507563, 24.82765)"><g><path d="M 0.578125 -0.53125 C 0.492188 -0.519531 0.40625 -0.570312 0.3125 -0.6875 C 0.21875 -0.800781 0.132812 -1.003906 0.0625 -1.296875 C -0.0078125 -1.585938 -0.0351562 -1.988281 -0.015625 -2.5 C -0.015625 -2.550781 -0.015625 -2.613281 -0.015625 -2.6875 C -0.015625 -2.882812 -0.00390625 -3.113281 0.015625 -3.375 C 0.0351562 -3.644531 0.0703125 -3.882812 0.125 -4.09375 C 0.1875 -4.300781 0.28125 -4.425781 0.40625 -4.46875 C 0.769531 -4.570312 0.96875 -4.441406 1 -4.078125 C 1 -3.972656 0.992188 -3.863281 0.984375 -3.75 C 0.972656 -3.695312 0.96875 -3.640625 0.96875 -3.578125 C 0.957031 -3.410156 0.953125 -3.25 0.953125 -3.09375 C 0.953125 -2.957031 0.941406 -2.828125 0.921875 -2.703125 C 0.921875 -2.617188 0.921875 -2.492188 0.921875 -2.328125 C 0.941406 -2.085938 0.945312 -1.832031 0.9375 -1.5625 C 0.925781 -1.289062 0.894531 -1.050781 0.84375 -0.84375 C 0.789062 -0.644531 0.703125 -0.539062 0.578125 -0.53125 Z M 0.921875 -5.6875 C 0.878906 -5.644531 0.816406 -5.617188 0.734375 -5.609375 C 0.660156 -5.597656 0.601562 -5.601562 0.5625 -5.625 C 0.519531 -5.664062 0.488281 -5.710938 0.46875 -5.765625 C 0.457031 -5.816406 0.453125 -5.878906 0.453125 -5.953125 C 0.460938 -5.972656 0.46875 -5.992188 0.46875 -6.015625 C 0.46875 -6.085938 0.484375 -6.15625 0.515625 -6.21875 C 0.597656 -6.414062 0.757812 -6.5 1 -6.46875 C 1.082031 -6.46875 1.144531 -6.4375 1.1875 -6.375 C 1.226562 -6.3125 1.242188 -6.242188 1.234375 -6.171875 C 1.171875 -5.984375 1.066406 -5.820312 0.921875 -5.6875 Z M 0.921875 -5.6875 "/></g></g></g><g fill="#000000" fill-opacity="1"><g transform="translate(78.106851, 24.82765)"><g><path d="M 8.671875 -3.5625 C 8.835938 -3.644531 8.9375 -3.660156 8.96875 -3.609375 C 9 -3.503906 8.90625 -3.316406 8.6875 -3.046875 C 8.476562 -2.785156 8.1875 -2.519531 7.8125 -2.25 C 6.925781 -1.625 6.175781 -1.25 5.5625 -1.125 C 4.957031 -1.007812 4.460938 -1.050781 4.078125 -1.25 C 3.691406 -1.445312 3.40625 -1.71875 3.21875 -2.0625 C 3 -2.445312 2.863281 -2.832031 2.8125 -3.21875 C 2.726562 -3.632812 2.625 -3.867188 2.5 -3.921875 C 2.375 -3.972656 2.234375 -3.910156 2.078125 -3.734375 C 1.929688 -3.566406 1.789062 -3.34375 1.65625 -3.0625 C 1.519531 -2.78125 1.40625 -2.503906 1.3125 -2.234375 C 1.21875 -1.972656 1.171875 -1.773438 1.171875 -1.640625 C 1.140625 -1.566406 1.113281 -1.492188 1.09375 -1.421875 C 1.050781 -1.304688 1.007812 -1.195312 0.96875 -1.09375 C 0.851562 -0.800781 0.65625 -0.691406 0.375 -0.765625 C 0.21875 -0.796875 0.128906 -0.894531 0.109375 -1.0625 C 0.0976562 -1.164062 0.09375 -1.28125 0.09375 -1.40625 C 0.09375 -1.5 0.0859375 -1.597656 0.078125 -1.703125 C 0.0546875 -2.410156 0.0390625 -3.125 0.03125 -3.84375 C 0.03125 -3.925781 0.0664062 -3.984375 0.140625 -4.015625 C 0.222656 -4.054688 0.316406 -4.070312 0.421875 -4.0625 C 0.535156 -4.0625 0.632812 -4.046875 0.71875 -4.015625 C 0.800781 -3.984375 0.847656 -3.941406 0.859375 -3.890625 C 0.867188 -3.773438 0.875 -3.671875 0.875 -3.578125 C 0.875 -3.460938 0.878906 -3.375 0.890625 -3.3125 C 0.910156 -3.257812 0.945312 -3.257812 1 -3.3125 C 1.0625 -3.375 1.164062 -3.5 1.3125 -3.6875 C 1.519531 -4.03125 1.789062 -4.320312 2.125 -4.5625 C 2.269531 -4.675781 2.441406 -4.753906 2.640625 -4.796875 C 2.835938 -4.847656 3.03125 -4.859375 3.21875 -4.828125 C 3.40625 -4.773438 3.554688 -4.660156 3.671875 -4.484375 C 3.785156 -4.316406 3.867188 -4.117188 3.921875 -3.890625 C 3.984375 -3.671875 4.023438 -3.46875 4.046875 -3.28125 C 4.054688 -3.226562 4.066406 -3.1875 4.078125 -3.15625 C 4.117188 -2.90625 4.175781 -2.675781 4.25 -2.46875 C 4.320312 -2.257812 4.441406 -2.097656 4.609375 -1.984375 C 4.773438 -1.867188 5.015625 -1.820312 5.328125 -1.84375 C 6.015625 -1.894531 6.5625 -2.039062 6.96875 -2.28125 C 7.375 -2.519531 7.71875 -2.769531 8 -3.03125 C 8.039062 -3.070312 8.078125 -3.109375 8.109375 -3.140625 C 8.171875 -3.179688 8.222656 -3.222656 8.265625 -3.265625 C 8.367188 -3.378906 8.503906 -3.476562 8.671875 -3.5625 Z M 8.671875 -3.5625 "/></g></g></g><g fill="#000000" fill-opacity="1"><g transform="translate(86.291441, 24.82765)"><g><path d="M 4.046875 -4.03125 C 4.140625 -4.039062 4.222656 -4.035156 4.296875 -4.015625 C 4.367188 -4.003906 4.40625 -3.972656 4.40625 -3.921875 C 4.4375 -3.378906 4.421875 -2.695312 4.359375 -1.875 C 4.296875 -1.0625 4.164062 -0.179688 3.96875 0.765625 C 3.769531 1.722656 3.488281 2.675781 3.125 3.625 C 2.769531 4.582031 2.3125 5.46875 1.75 6.28125 C 1.1875 7.09375 0.507812 7.765625 -0.28125 8.296875 C -1.070312 8.828125 -2 9.148438 -3.0625 9.265625 C -3.863281 9.328125 -4.523438 9.210938 -5.046875 8.921875 C -5.566406 8.628906 -5.847656 8.171875 -5.890625 7.546875 C -5.929688 6.921875 -5.632812 6.140625 -5 5.203125 C -4.363281 4.273438 -3.296875 3.203125 -1.796875 1.984375 C -1.003906 1.359375 -0.226562 0.804688 0.53125 0.328125 C 1.300781 -0.148438 1.957031 -0.550781 2.5 -0.875 C 2.644531 -0.957031 2.78125 -1.035156 2.90625 -1.109375 C 3.269531 -1.316406 3.441406 -1.617188 3.421875 -2.015625 C 3.421875 -2.054688 3.421875 -2.113281 3.421875 -2.1875 C 3.410156 -2.300781 3.40625 -2.429688 3.40625 -2.578125 C 3.1875 -2.222656 2.875 -1.898438 2.46875 -1.609375 C 2.0625 -1.316406 1.644531 -1.109375 1.21875 -0.984375 C 0.789062 -0.859375 0.425781 -0.863281 0.125 -1 C -0.175781 -1.144531 -0.332031 -1.46875 -0.34375 -1.96875 C -0.332031 -2.226562 -0.257812 -2.460938 -0.125 -2.671875 C 0.195312 -3.253906 0.648438 -3.707031 1.234375 -4.03125 C 1.441406 -4.15625 1.695312 -4.242188 2 -4.296875 C 2.3125 -4.347656 2.609375 -4.34375 2.890625 -4.28125 C 3.179688 -4.21875 3.414062 -4.082031 3.59375 -3.875 C 3.632812 -3.9375 3.691406 -3.976562 3.765625 -4 C 3.847656 -4.019531 3.925781 -4.03125 4 -4.03125 C 4.019531 -4.03125 4.035156 -4.03125 4.046875 -4.03125 Z M 2.640625 -2.640625 C 3.003906 -3.003906 3.203125 -3.285156 3.234375 -3.484375 C 3.148438 -3.640625 3.015625 -3.734375 2.828125 -3.765625 C 2.648438 -3.804688 2.46875 -3.804688 2.28125 -3.765625 C 2.09375 -3.734375 1.929688 -3.675781 1.796875 -3.59375 C 1.441406 -3.375 1.179688 -3.101562 1.015625 -2.78125 C 0.847656 -2.457031 0.785156 -2.179688 0.828125 -1.953125 C 0.867188 -1.734375 1.035156 -1.65625 1.328125 -1.71875 C 1.628906 -1.789062 2.066406 -2.097656 2.640625 -2.640625 Z M 3.140625 -0.078125 C 3.140625 -0.0859375 3.140625 -0.09375 3.140625 -0.09375 C 3.148438 -0.144531 3.160156 -0.210938 3.171875 -0.296875 C 3.179688 -0.378906 3.175781 -0.441406 3.15625 -0.484375 C 3.144531 -0.535156 3.117188 -0.546875 3.078125 -0.515625 C 3.003906 -0.472656 2.925781 -0.425781 2.84375 -0.375 C 2.320312 -0.03125 1.632812 0.441406 0.78125 1.046875 C -0.0703125 1.648438 -0.941406 2.328125 -1.828125 3.078125 C -1.992188 3.234375 -2.238281 3.460938 -2.5625 3.765625 C -2.882812 4.078125 -3.222656 4.425781 -3.578125 4.8125 C -3.941406 5.207031 -4.265625 5.613281 -4.546875 6.03125 C -4.828125 6.457031 -5.007812 6.851562 -5.09375 7.21875 C -5.1875 7.59375 -5.128906 7.914062 -4.921875 8.1875 C -4.648438 8.507812 -4.226562 8.644531 -3.65625 8.59375 C -3.082031 8.550781 -2.4375 8.335938 -1.71875 7.953125 C -1 7.566406 -0.296875 7.007812 0.390625 6.28125 C 1.078125 5.550781 1.664062 4.65625 2.15625 3.59375 C 2.65625 2.53125 2.984375 1.304688 3.140625 -0.078125 Z M 3.140625 -0.078125 "/></g></g></g><g fill="#000000" fill-opacity="1"><g transform="translate(91.530291, 24.82765)"><g><path d="M 8.078125 -3.265625 C 8.128906 -3.328125 8.171875 -3.34375 8.203125 -3.3125 C 8.242188 -3.28125 8.253906 -3.226562 8.234375 -3.15625 C 8.140625 -2.65625 7.582031 -2.226562 6.5625 -1.875 C 5.914062 -1.625 5.335938 -1.507812 4.828125 -1.53125 C 4.316406 -1.5625 3.90625 -1.757812 3.59375 -2.125 C 3.289062 -2.5 3.125 -3.082031 3.09375 -3.875 C 3.070312 -4.226562 3 -4.375 2.875 -4.3125 C 2.75 -4.257812 2.597656 -4.082031 2.421875 -3.78125 C 2.253906 -3.476562 2.082031 -3.132812 1.90625 -2.75 C 1.738281 -2.375 1.59375 -2.039062 1.46875 -1.75 C 1.351562 -1.457031 1.289062 -1.296875 1.28125 -1.265625 C 1.257812 -1.203125 1.238281 -1.140625 1.21875 -1.078125 C 1.164062 -0.910156 1.101562 -0.742188 1.03125 -0.578125 C 0.957031 -0.441406 0.847656 -0.347656 0.703125 -0.296875 C 0.566406 -0.253906 0.421875 -0.265625 0.265625 -0.328125 C 0.171875 -0.378906 0.101562 -0.453125 0.0625 -0.546875 C 0.0078125 -0.710938 0 -0.875 0.03125 -1.03125 C 0.03125 -1.050781 0.03125 -1.066406 0.03125 -1.078125 C 0.0820312 -1.847656 0.101562 -2.988281 0.09375 -4.5 C 0.09375 -5.46875 0.0976562 -6.492188 0.109375 -7.578125 C 0.117188 -8.671875 0.148438 -9.742188 0.203125 -10.796875 C 0.265625 -11.941406 0.378906 -12.988281 0.546875 -13.9375 C 0.710938 -14.894531 0.972656 -15.671875 1.328125 -16.265625 C 1.691406 -16.859375 2.191406 -17.191406 2.828125 -17.265625 C 3.109375 -17.285156 3.390625 -17.253906 3.671875 -17.171875 C 3.953125 -17.085938 4.21875 -16.921875 4.46875 -16.671875 C 5 -16.160156 5.382812 -15.453125 5.625 -14.546875 C 5.875 -13.640625 5.898438 -12.59375 5.703125 -11.40625 C 5.515625 -10.226562 5.046875 -8.972656 4.296875 -7.640625 C 3.554688 -6.304688 2.46875 -4.953125 1.03125 -3.578125 C 1.019531 -3.546875 1.015625 -3.519531 1.015625 -3.5 C 1.003906 -3.476562 1 -3.460938 1 -3.453125 C 1 -3.453125 1 -3.445312 1 -3.4375 C 1 -3.4375 1 -3.429688 1 -3.421875 C 1.007812 -3.421875 1.015625 -3.414062 1.015625 -3.40625 C 1.015625 -3.40625 1.015625 -3.398438 1.015625 -3.390625 C 1.023438 -3.378906 1.03125 -3.363281 1.03125 -3.34375 C 1.03125 -3.320312 1.03125 -3.296875 1.03125 -3.265625 C 1.03125 -3.234375 1.03125 -3.195312 1.03125 -3.15625 C 1.03125 -3.113281 1.023438 -3.0625 1.015625 -3 C 1.015625 -2.945312 1.015625 -2.882812 1.015625 -2.8125 C 1.097656 -2.957031 1.179688 -3.109375 1.265625 -3.265625 C 1.460938 -3.648438 1.691406 -4.003906 1.953125 -4.328125 C 2.222656 -4.660156 2.578125 -4.863281 3.015625 -4.9375 C 3.203125 -4.957031 3.398438 -4.941406 3.609375 -4.890625 C 3.816406 -4.835938 3.957031 -4.691406 4.03125 -4.453125 C 4.070312 -4.171875 4.085938 -3.878906 4.078125 -3.578125 C 4.054688 -3.367188 4.054688 -3.164062 4.078125 -2.96875 C 4.109375 -2.78125 4.175781 -2.617188 4.28125 -2.484375 C 4.382812 -2.347656 4.570312 -2.257812 4.84375 -2.21875 C 5.195312 -2.164062 5.59375 -2.175781 6.03125 -2.25 C 6.46875 -2.332031 6.875 -2.457031 7.25 -2.625 C 7.625 -2.800781 7.898438 -3.015625 8.078125 -3.265625 Z M 2 -15.703125 C 1.769531 -15.109375 1.582031 -14.25 1.4375 -13.125 C 1.300781 -12.007812 1.195312 -10.828125 1.125 -9.578125 C 1.0625 -8.328125 1.019531 -7.21875 1 -6.25 C 0.988281 -5.28125 0.984375 -4.644531 0.984375 -4.34375 C 1.515625 -4.769531 2.078125 -5.429688 2.671875 -6.328125 C 3.273438 -7.234375 3.804688 -8.222656 4.265625 -9.296875 C 4.722656 -10.378906 5 -11.40625 5.09375 -12.375 C 5.144531 -13.21875 5.023438 -14.046875 4.734375 -14.859375 C 4.441406 -15.671875 4.078125 -16.253906 3.640625 -16.609375 C 3.328125 -16.828125 3.019531 -16.847656 2.71875 -16.671875 C 2.425781 -16.503906 2.1875 -16.179688 2 -15.703125 Z M 2 -15.703125 "/></g></g></g><g fill="#000000" fill-opacity="1"><g transform="translate(21.383019, 28.726647)"><g><path d="M 0.4375 0 L 0.140625 -0.0625 L 0.140625 -1.390625 L 0.140625 -1.375 L 0.140625 -1.390625 C 0.203125 -1.398438 0.328125 -1.40625 0.515625 -1.40625 C 0.703125 -1.414062 0.820312 -1.40625 0.875 -1.375 C 1.019531 -1.269531 1.210938 -1.085938 1.453125 -0.828125 C 1.460938 -0.804688 1.472656 -0.769531 1.484375 -0.71875 C 1.492188 -0.675781 1.492188 -0.617188 1.484375 -0.546875 C 1.472656 -0.484375 1.453125 -0.414062 1.421875 -0.34375 C 1.398438 -0.28125 1.359375 -0.21875 1.296875 -0.15625 C 1.234375 -0.09375 1.160156 -0.046875 1.078125 -0.015625 C 0.992188 0.015625 0.890625 0.03125 0.765625 0.03125 C 0.648438 0.03125 0.539062 0.0195312 0.4375 0 Z M 1.0625 -1.046875 C 1.007812 -1.085938 0.957031 -1.117188 0.90625 -1.140625 C 0.851562 -1.160156 0.796875 -1.171875 0.734375 -1.171875 C 0.671875 -1.179688 0.617188 -1.1875 0.578125 -1.1875 C 0.546875 -1.1875 0.5 -1.179688 0.4375 -1.171875 L 0.4375 -0.125 C 0.53125 -0.113281 0.617188 -0.117188 0.703125 -0.140625 C 0.796875 -0.171875 0.875 -0.210938 0.9375 -0.265625 C 1 -0.316406 1.050781 -0.378906 1.09375 -0.453125 C 1.132812 -0.523438 1.160156 -0.597656 1.171875 -0.671875 C 1.191406 -0.742188 1.191406 -0.8125 1.171875 -0.875 C 1.148438 -0.945312 1.113281 -1.003906 1.0625 -1.046875 Z M 1.0625 -1.046875 "/></g></g></g><g fill="#000000" fill-opacity="1"><g transform="translate(22.980629, 28.726647)"><g><path d="M 0.34375 -0.40625 L 0.8125 -0.734375 C 0.71875 -0.796875 0.632812 -0.816406 0.5625 -0.796875 C 0.488281 -0.785156 0.429688 -0.742188 0.390625 -0.671875 C 0.359375 -0.609375 0.34375 -0.519531 0.34375 -0.40625 Z M 0.390625 -0.21875 C 0.429688 -0.164062 0.472656 -0.132812 0.515625 -0.125 C 0.566406 -0.113281 0.617188 -0.117188 0.671875 -0.140625 C 0.722656 -0.171875 0.765625 -0.195312 0.796875 -0.21875 C 0.835938 -0.238281 0.882812 -0.269531 0.9375 -0.3125 L 0.984375 -0.28125 C 1.003906 -0.25 1.03125 -0.21875 1.0625 -0.1875 L 1.09375 -0.140625 C 0.976562 -0.0546875 0.878906 0 0.796875 0.03125 C 0.710938 0.0625 0.628906 0.0625 0.546875 0.03125 C 0.421875 -0.0078125 0.304688 -0.0859375 0.203125 -0.203125 C 0.140625 -0.273438 0.101562 -0.359375 0.09375 -0.453125 C 0.0820312 -0.546875 0.09375 -0.632812 0.125 -0.71875 C 0.164062 -0.800781 0.222656 -0.867188 0.296875 -0.921875 C 0.367188 -0.984375 0.445312 -1.015625 0.53125 -1.015625 C 0.582031 -1.015625 0.660156 -0.976562 0.765625 -0.90625 C 0.878906 -0.832031 0.972656 -0.765625 1.046875 -0.703125 C 1.046875 -0.691406 0.988281 -0.644531 0.875 -0.5625 C 0.769531 -0.488281 0.660156 -0.410156 0.546875 -0.328125 Z M 0.390625 -0.21875 "/></g></g></g><g fill="#000000" fill-opacity="1"><g transform="translate(24.133995, 28.726647)"><g><path d="M 0.734375 -0.265625 C 0.773438 -0.304688 0.804688 -0.351562 0.828125 -0.40625 C 0.847656 -0.46875 0.859375 -0.519531 0.859375 -0.5625 C 0.859375 -0.613281 0.851562 -0.660156 0.84375 -0.703125 C 0.832031 -0.742188 0.8125 -0.78125 0.78125 -0.8125 C 0.75 -0.84375 0.710938 -0.863281 0.671875 -0.875 C 0.640625 -0.882812 0.597656 -0.878906 0.546875 -0.859375 C 0.492188 -0.835938 0.4375 -0.804688 0.375 -0.765625 L 0.359375 -0.171875 C 0.390625 -0.148438 0.421875 -0.132812 0.453125 -0.125 C 0.492188 -0.125 0.539062 -0.132812 0.59375 -0.15625 C 0.644531 -0.175781 0.691406 -0.210938 0.734375 -0.265625 Z M 0.59375 0.046875 C 0.5625 0.046875 0.519531 0.03125 0.46875 0 C 0.425781 -0.03125 0.394531 -0.0507812 0.375 -0.0625 L 0.375 0.53125 L 0.109375 0.46875 C 0.109375 -0.445312 0.109375 -0.914062 0.109375 -0.9375 C 0.191406 -0.96875 0.257812 -0.988281 0.3125 -1 C 0.363281 -1.007812 0.421875 -1.015625 0.484375 -1.015625 C 0.554688 -1.015625 0.625 -1.003906 0.6875 -0.984375 C 0.75 -0.960938 0.8125 -0.929688 0.875 -0.890625 C 0.957031 -0.835938 1.015625 -0.773438 1.046875 -0.703125 C 1.085938 -0.628906 1.101562 -0.554688 1.09375 -0.484375 C 1.09375 -0.410156 1.078125 -0.335938 1.046875 -0.265625 C 1.015625 -0.191406 0.972656 -0.128906 0.921875 -0.078125 C 0.867188 -0.0234375 0.8125 0.0078125 0.75 0.03125 C 0.695312 0.0625 0.644531 0.0664062 0.59375 0.046875 Z M 0.59375 0.046875 "/></g></g></g><g fill="#000000" fill-opacity="1"><g transform="translate(25.339503, 28.726647)"><g><path d="M 0.828125 -0.984375 L 1.09375 -0.9375 L 1.09375 0.0625 L 0.828125 0 L 0.828125 -0.09375 C 0.710938 0.0195312 0.609375 0.0703125 0.515625 0.0625 C 0.472656 0.0625 0.394531 0.0078125 0.28125 -0.09375 C 0.164062 -0.195312 0.109375 -0.265625 0.109375 -0.296875 C 0.0976562 -0.335938 0.09375 -0.566406 0.09375 -0.984375 L 0.359375 -0.9375 C 0.347656 -0.457031 0.347656 -0.203125 0.359375 -0.171875 C 0.390625 -0.128906 0.429688 -0.113281 0.484375 -0.125 C 0.546875 -0.144531 0.609375 -0.1875 0.671875 -0.25 C 0.742188 -0.320312 0.796875 -0.394531 0.828125 -0.46875 Z M 0.828125 -0.984375 "/></g></g></g><g fill="#000000" fill-opacity="1"><g transform="translate(26.563782, 28.726647)"><g><path d="M 0.078125 -0.84375 L 0.015625 -1 L 0.1875 -1 L 0.1875 -1.21875 L 0.453125 -1.15625 L 0.453125 -1 L 0.703125 -1 L 0.765625 -0.84375 L 0.453125 -0.84375 L 0.453125 -0.578125 C 0.453125 -0.566406 0.453125 -0.546875 0.453125 -0.515625 C 0.453125 -0.472656 0.445312 -0.429688 0.4375 -0.390625 C 0.4375 -0.359375 0.4375 -0.328125 0.4375 -0.296875 C 0.445312 -0.265625 0.457031 -0.234375 0.46875 -0.203125 C 0.476562 -0.179688 0.488281 -0.160156 0.5 -0.140625 C 0.519531 -0.117188 0.539062 -0.101562 0.5625 -0.09375 C 0.582031 -0.09375 0.609375 -0.0976562 0.640625 -0.109375 C 0.679688 -0.128906 0.726562 -0.15625 0.78125 -0.1875 L 0.84375 -0.125 C 0.757812 -0.0507812 0.691406 0 0.640625 0.03125 C 0.597656 0.0625 0.539062 0.0625 0.46875 0.03125 C 0.394531 0 0.328125 -0.0390625 0.265625 -0.09375 C 0.210938 -0.15625 0.1875 -0.207031 0.1875 -0.25 L 0.1875 -0.84375 Z M 0.078125 -0.84375 "/></g></g></g><g fill="#000000" fill-opacity="1"><g transform="translate(27.446013, 28.726647)"><g><path d="M 0.765625 -1 L 1.03125 -0.9375 L 1.03125 0.125 C 1.03125 0.207031 0.992188 0.285156 0.921875 0.359375 C 0.847656 0.429688 0.769531 0.476562 0.6875 0.5 C 0.601562 0.53125 0.535156 0.535156 0.484375 0.515625 C 0.472656 0.515625 0.445312 0.503906 0.40625 0.484375 C 0.363281 0.460938 0.316406 0.429688 0.265625 0.390625 C 0.210938 0.359375 0.171875 0.335938 0.140625 0.328125 L 0.203125 0.25 C 0.285156 0.289062 0.335938 0.320312 0.359375 0.34375 C 0.460938 0.382812 0.554688 0.378906 0.640625 0.328125 C 0.722656 0.273438 0.765625 0.164062 0.765625 0 L 0.765625 -0.078125 C 0.671875 0.015625 0.582031 0.0625 0.5 0.0625 C 0.457031 0.0625 0.382812 0.015625 0.28125 -0.078125 C 0.1875 -0.179688 0.140625 -0.253906 0.140625 -0.296875 C 0.128906 -0.359375 0.125 -0.59375 0.125 -1 L 0.375 -0.9375 C 0.363281 -0.457031 0.367188 -0.207031 0.390625 -0.1875 C 0.429688 -0.132812 0.488281 -0.128906 0.5625 -0.171875 C 0.644531 -0.222656 0.710938 -0.296875 0.765625 -0.390625 Z M 0.765625 -1 "/></g></g></g><g fill="#000000" fill-opacity="1"><g transform="translate(28.601464, 28.726647)"><g/></g></g><g fill="#000000" fill-opacity="1"><g transform="translate(29.331442, 28.726647)"><g><path d="M 0.859375 -0.921875 L 0.84375 -0.8125 C 0.707031 -0.84375 0.617188 -0.851562 0.578125 -0.84375 C 0.503906 -0.84375 0.445312 -0.8125 0.40625 -0.75 C 0.375 -0.695312 0.363281 -0.644531 0.375 -0.59375 C 0.375 -0.570312 0.40625 -0.566406 0.46875 -0.578125 C 0.53125 -0.597656 0.597656 -0.613281 0.671875 -0.625 C 0.742188 -0.644531 0.789062 -0.648438 0.8125 -0.640625 C 0.90625 -0.585938 0.96875 -0.519531 1 -0.4375 C 1.03125 -0.363281 1.03125 -0.289062 1 -0.21875 C 0.976562 -0.144531 0.925781 -0.078125 0.84375 -0.015625 C 0.769531 0.0351562 0.679688 0.0625 0.578125 0.0625 C 0.484375 0.0625 0.394531 0.0351562 0.3125 -0.015625 C 0.238281 -0.0664062 0.148438 -0.144531 0.046875 -0.25 L 0.078125 -0.3125 C 0.171875 -0.238281 0.269531 -0.191406 0.375 -0.171875 C 0.476562 -0.148438 0.578125 -0.160156 0.671875 -0.203125 C 0.765625 -0.242188 0.828125 -0.320312 0.859375 -0.4375 C 0.859375 -0.4375 0.847656 -0.4375 0.828125 -0.4375 C 0.816406 -0.4375 0.78125 -0.429688 0.71875 -0.421875 C 0.53125 -0.367188 0.410156 -0.351562 0.359375 -0.375 L 0.328125 -0.375 C 0.253906 -0.4375 0.195312 -0.503906 0.15625 -0.578125 C 0.113281 -0.617188 0.09375 -0.664062 0.09375 -0.71875 C 0.101562 -0.769531 0.125 -0.816406 0.15625 -0.859375 C 0.1875 -0.910156 0.226562 -0.945312 0.28125 -0.96875 C 0.34375 -1 0.410156 -1.015625 0.484375 -1.015625 C 0.503906 -1.015625 0.53125 -1.007812 0.5625 -1 C 0.601562 -0.988281 0.660156 -0.972656 0.734375 -0.953125 C 0.804688 -0.941406 0.847656 -0.929688 0.859375 -0.921875 Z M 0.859375 -0.921875 "/></g></g></g><g fill="#000000" fill-opacity="1"><g transform="translate(30.415983, 28.726647)"><g><path d="M 0.828125 -0.984375 L 1.09375 -0.9375 L 1.09375 0.0625 L 0.828125 0 L 0.828125 -0.09375 C 0.710938 0.0195312 0.609375 0.0703125 0.515625 0.0625 C 0.472656 0.0625 0.394531 0.0078125 0.28125 -0.09375 C 0.164062 -0.195312 0.109375 -0.265625 0.109375 -0.296875 C 0.0976562 -0.335938 0.09375 -0.566406 0.09375 -0.984375 L 0.359375 -0.9375 C 0.347656 -0.457031 0.347656 -0.203125 0.359375 -0.171875 C 0.390625 -0.128906 0.429688 -0.113281 0.484375 -0.125 C 0.546875 -0.144531 0.609375 -0.1875 0.671875 -0.25 C 0.742188 -0.320312 0.796875 -0.394531 0.828125 -0.46875 Z M 0.828125 -0.984375 "/></g></g></g><g fill="#000000" fill-opacity="1"><g transform="translate(31.640262, 28.726647)"><g><path d="M 0.734375 -0.265625 C 0.773438 -0.304688 0.804688 -0.351562 0.828125 -0.40625 C 0.847656 -0.46875 0.859375 -0.519531 0.859375 -0.5625 C 0.859375 -0.613281 0.851562 -0.660156 0.84375 -0.703125 C 0.832031 -0.742188 0.8125 -0.78125 0.78125 -0.8125 C 0.75 -0.84375 0.710938 -0.863281 0.671875 -0.875 C 0.640625 -0.882812 0.597656 -0.878906 0.546875 -0.859375 C 0.492188 -0.835938 0.4375 -0.804688 0.375 -0.765625 L 0.359375 -0.171875 C 0.390625 -0.148438 0.421875 -0.132812 0.453125 -0.125 C 0.492188 -0.125 0.539062 -0.132812 0.59375 -0.15625 C 0.644531 -0.175781 0.691406 -0.210938 0.734375 -0.265625 Z M 0.59375 0.046875 C 0.5625 0.046875 0.519531 0.03125 0.46875 0 C 0.425781 -0.03125 0.394531 -0.0507812 0.375 -0.0625 L 0.375 0.53125 L 0.109375 0.46875 C 0.109375 -0.445312 0.109375 -0.914062 0.109375 -0.9375 C 0.191406 -0.96875 0.257812 -0.988281 0.3125 -1 C 0.363281 -1.007812 0.421875 -1.015625 0.484375 -1.015625 C 0.554688 -1.015625 0.625 -1.003906 0.6875 -0.984375 C 0.75 -0.960938 0.8125 -0.929688 0.875 -0.890625 C 0.957031 -0.835938 1.015625 -0.773438 1.046875 -0.703125 C 1.085938 -0.628906 1.101562 -0.554688 1.09375 -0.484375 C 1.09375 -0.410156 1.078125 -0.335938 1.046875 -0.265625 C 1.015625 -0.191406 0.972656 -0.128906 0.921875 -0.078125 C 0.867188 -0.0234375 0.8125 0.0078125 0.75 0.03125 C 0.695312 0.0625 0.644531 0.0664062 0.59375 0.046875 Z M 0.59375 0.046875 "/></g></g></g><g fill="#000000" fill-opacity="1"><g transform="translate(32.84577, 28.726647)"><g><path d="M 0.34375 -0.40625 L 0.8125 -0.734375 C 0.71875 -0.796875 0.632812 -0.816406 0.5625 -0.796875 C 0.488281 -0.785156 0.429688 -0.742188 0.390625 -0.671875 C 0.359375 -0.609375 0.34375 -0.519531 0.34375 -0.40625 Z M 0.390625 -0.21875 C 0.429688 -0.164062 0.472656 -0.132812 0.515625 -0.125 C 0.566406 -0.113281 0.617188 -0.117188 0.671875 -0.140625 C 0.722656 -0.171875 0.765625 -0.195312 0.796875 -0.21875 C 0.835938 -0.238281 0.882812 -0.269531 0.9375 -0.3125 L 0.984375 -0.28125 C 1.003906 -0.25 1.03125 -0.21875 1.0625 -0.1875 L 1.09375 -0.140625 C 0.976562 -0.0546875 0.878906 0 0.796875 0.03125 C 0.710938 0.0625 0.628906 0.0625 0.546875 0.03125 C 0.421875 -0.0078125 0.304688 -0.0859375 0.203125 -0.203125 C 0.140625 -0.273438 0.101562 -0.359375 0.09375 -0.453125 C 0.0820312 -0.546875 0.09375 -0.632812 0.125 -0.71875 C 0.164062 -0.800781 0.222656 -0.867188 0.296875 -0.921875 C 0.367188 -0.984375 0.445312 -1.015625 0.53125 -1.015625 C 0.582031 -1.015625 0.660156 -0.976562 0.765625 -0.90625 C 0.878906 -0.832031 0.972656 -0.765625 1.046875 -0.703125 C 1.046875 -0.691406 0.988281 -0.644531 0.875 -0.5625 C 0.769531 -0.488281 0.660156 -0.410156 0.546875 -0.328125 Z M 0.390625 -0.21875 "/></g></g></g><g fill="#000000" fill-opacity="1"><g transform="translate(33.999136, 28.726647)"><g><path d="M 0.390625 -0.9375 L 0.390625 -0.78125 C 0.492188 -0.9375 0.582031 -1.015625 0.65625 -1.015625 C 0.6875 -1.015625 0.742188 -1 0.828125 -0.96875 C 0.910156 -0.9375 0.976562 -0.898438 1.03125 -0.859375 L 0.890625 -0.65625 C 0.804688 -0.71875 0.726562 -0.75 0.65625 -0.75 C 0.59375 -0.757812 0.539062 -0.75 0.5 -0.71875 C 0.46875 -0.6875 0.429688 -0.632812 0.390625 -0.5625 L 0.390625 0.0625 L 0.140625 0 L 0.140625 -1 Z M 0.390625 -0.9375 "/></g></g></g><g fill="#000000" fill-opacity="1"><g transform="translate(35.027364, 28.726647)"><g><path d="M 0.28125 -1.125 C 0.21875 -1.15625 0.164062 -1.203125 0.125 -1.265625 C 0.132812 -1.296875 0.15625 -1.328125 0.1875 -1.359375 C 0.226562 -1.390625 0.257812 -1.410156 0.28125 -1.421875 C 0.351562 -1.390625 0.40625 -1.335938 0.4375 -1.265625 C 0.414062 -1.210938 0.363281 -1.164062 0.28125 -1.125 Z M 0.40625 -0.9375 L 0.40625 0.0625 L 0.15625 0 L 0.15625 -1 Z M 0.40625 -0.9375 "/></g></g></g><g fill="#000000" fill-opacity="1"><g transform="translate(35.603005, 28.726647)"><g><path d="M 0.40625 -0.9375 L 0.40625 -0.84375 C 0.53125 -0.957031 0.632812 -1.015625 0.71875 -1.015625 C 0.769531 -1.015625 0.847656 -0.957031 0.953125 -0.84375 C 1.066406 -0.738281 1.128906 -0.664062 1.140625 -0.625 C 1.140625 -0.59375 1.140625 -0.363281 1.140625 0.0625 L 0.890625 0 C 0.898438 -0.46875 0.894531 -0.71875 0.875 -0.75 C 0.851562 -0.800781 0.8125 -0.816406 0.75 -0.796875 C 0.695312 -0.773438 0.640625 -0.738281 0.578125 -0.6875 C 0.515625 -0.644531 0.457031 -0.59375 0.40625 -0.53125 L 0.40625 0.0625 L 0.125 0 L 0.125 -1 Z M 0.40625 -0.9375 "/></g></g></g><g fill="#000000" fill-opacity="1"><g transform="translate(36.848139, 28.726647)"><g><path d="M 0.078125 -0.84375 L 0.015625 -1 L 0.1875 -1 L 0.1875 -1.21875 L 0.453125 -1.15625 L 0.453125 -1 L 0.703125 -1 L 0.765625 -0.84375 L 0.453125 -0.84375 L 0.453125 -0.578125 C 0.453125 -0.566406 0.453125 -0.546875 0.453125 -0.515625 C 0.453125 -0.472656 0.445312 -0.429688 0.4375 -0.390625 C 0.4375 -0.359375 0.4375 -0.328125 0.4375 -0.296875 C 0.445312 -0.265625 0.457031 -0.234375 0.46875 -0.203125 C 0.476562 -0.179688 0.488281 -0.160156 0.5 -0.140625 C 0.519531 -0.117188 0.539062 -0.101562 0.5625 -0.09375 C 0.582031 -0.09375 0.609375 -0.0976562 0.640625 -0.109375 C 0.679688 -0.128906 0.726562 -0.15625 0.78125 -0.1875 L 0.84375 -0.125 C 0.757812 -0.0507812 0.691406 0 0.640625 0.03125 C 0.597656 0.0625 0.539062 0.0625 0.46875 0.03125 C 0.394531 0 0.328125 -0.0390625 0.265625 -0.09375 C 0.210938 -0.15625 0.1875 -0.207031 0.1875 -0.25 L 0.1875 -0.84375 Z M 0.078125 -0.84375 "/></g></g></g><g fill="#000000" fill-opacity="1"><g transform="translate(37.73037, 28.726647)"><g><path d="M 0.34375 -0.40625 L 0.8125 -0.734375 C 0.71875 -0.796875 0.632812 -0.816406 0.5625 -0.796875 C 0.488281 -0.785156 0.429688 -0.742188 0.390625 -0.671875 C 0.359375 -0.609375 0.34375 -0.519531 0.34375 -0.40625 Z M 0.390625 -0.21875 C 0.429688 -0.164062 0.472656 -0.132812 0.515625 -0.125 C 0.566406 -0.113281 0.617188 -0.117188 0.671875 -0.140625 C 0.722656 -0.171875 0.765625 -0.195312 0.796875 -0.21875 C 0.835938 -0.238281 0.882812 -0.269531 0.9375 -0.3125 L 0.984375 -0.28125 C 1.003906 -0.25 1.03125 -0.21875 1.0625 -0.1875 L 1.09375 -0.140625 C 0.976562 -0.0546875 0.878906 0 0.796875 0.03125 C 0.710938 0.0625 0.628906 0.0625 0.546875 0.03125 C 0.421875 -0.0078125 0.304688 -0.0859375 0.203125 -0.203125 C 0.140625 -0.273438 0.101562 -0.359375 0.09375 -0.453125 C 0.0820312 -0.546875 0.09375 -0.632812 0.125 -0.71875 C 0.164062 -0.800781 0.222656 -0.867188 0.296875 -0.921875 C 0.367188 -0.984375 0.445312 -1.015625 0.53125 -1.015625 C 0.582031 -1.015625 0.660156 -0.976562 0.765625 -0.90625 C 0.878906 -0.832031 0.972656 -0.765625 1.046875 -0.703125 C 1.046875 -0.691406 0.988281 -0.644531 0.875 -0.5625 C 0.769531 -0.488281 0.660156 -0.410156 0.546875 -0.328125 Z M 0.390625 -0.21875 "/></g></g></g><g fill="#000000" fill-opacity="1"><g transform="translate(38.883737, 28.726647)"><g><path d="M 0.40625 -0.9375 L 0.40625 -0.84375 C 0.53125 -0.957031 0.632812 -1.015625 0.71875 -1.015625 C 0.769531 -1.015625 0.847656 -0.957031 0.953125 -0.84375 C 1.066406 -0.738281 1.128906 -0.664062 1.140625 -0.625 C 1.140625 -0.59375 1.140625 -0.363281 1.140625 0.0625 L 0.890625 0 C 0.898438 -0.46875 0.894531 -0.71875 0.875 -0.75 C 0.851562 -0.800781 0.8125 -0.816406 0.75 -0.796875 C 0.695312 -0.773438 0.640625 -0.738281 0.578125 -0.6875 C 0.515625 -0.644531 0.457031 -0.59375 0.40625 -0.53125 L 0.40625 0.0625 L 0.125 0 L 0.125 -1 Z M 0.40625 -0.9375 "/></g></g></g><g fill="#000000" fill-opacity="1"><g transform="translate(40.128871, 28.726647)"><g><path d="M 0.421875 -0.109375 C 0.535156 -0.046875 0.671875 -0.0703125 0.828125 -0.1875 L 0.828125 -0.765625 C 0.785156 -0.796875 0.726562 -0.8125 0.65625 -0.8125 C 0.59375 -0.820312 0.535156 -0.796875 0.484375 -0.734375 C 0.429688 -0.671875 0.390625 -0.597656 0.359375 -0.515625 C 0.335938 -0.429688 0.328125 -0.347656 0.328125 -0.265625 C 0.335938 -0.179688 0.367188 -0.128906 0.421875 -0.109375 Z M 0.828125 -1.46875 L 1.078125 -1.421875 C 1.085938 -0.484375 1.085938 -0.0078125 1.078125 0 C 1.078125 0 1.039062 0.00390625 0.96875 0.015625 C 0.90625 0.0351562 0.863281 0.046875 0.84375 0.046875 C 0.832031 0.046875 0.796875 0.046875 0.734375 0.046875 C 0.679688 0.0546875 0.640625 0.0546875 0.609375 0.046875 C 0.578125 0.046875 0.535156 0.0390625 0.484375 0.03125 C 0.429688 0.0195312 0.382812 0 0.34375 -0.03125 C 0.269531 -0.0703125 0.207031 -0.125 0.15625 -0.1875 C 0.113281 -0.25 0.09375 -0.3125 0.09375 -0.375 C 0.09375 -0.4375 0.0976562 -0.5 0.109375 -0.5625 C 0.128906 -0.632812 0.160156 -0.695312 0.203125 -0.75 C 0.242188 -0.8125 0.285156 -0.863281 0.328125 -0.90625 C 0.378906 -0.945312 0.425781 -0.976562 0.46875 -1 C 0.519531 -1.019531 0.566406 -1.023438 0.609375 -1.015625 C 0.628906 -1.003906 0.644531 -0.992188 0.65625 -0.984375 C 0.675781 -0.972656 0.691406 -0.960938 0.703125 -0.953125 C 0.722656 -0.941406 0.742188 -0.925781 0.765625 -0.90625 C 0.796875 -0.894531 0.816406 -0.890625 0.828125 -0.890625 Z M 0.828125 -1.46875 "/></g></g></g><g fill="#000000" fill-opacity="1"><g transform="translate(41.35315, 28.726647)"><g><path d="M 0.34375 -0.40625 L 0.8125 -0.734375 C 0.71875 -0.796875 0.632812 -0.816406 0.5625 -0.796875 C 0.488281 -0.785156 0.429688 -0.742188 0.390625 -0.671875 C 0.359375 -0.609375 0.34375 -0.519531 0.34375 -0.40625 Z M 0.390625 -0.21875 C 0.429688 -0.164062 0.472656 -0.132812 0.515625 -0.125 C 0.566406 -0.113281 0.617188 -0.117188 0.671875 -0.140625 C 0.722656 -0.171875 0.765625 -0.195312 0.796875 -0.21875 C 0.835938 -0.238281 0.882812 -0.269531 0.9375 -0.3125 L 0.984375 -0.28125 C 1.003906 -0.25 1.03125 -0.21875 1.0625 -0.1875 L 1.09375 -0.140625 C 0.976562 -0.0546875 0.878906 0 0.796875 0.03125 C 0.710938 0.0625 0.628906 0.0625 0.546875 0.03125 C 0.421875 -0.0078125 0.304688 -0.0859375 0.203125 -0.203125 C 0.140625 -0.273438 0.101562 -0.359375 0.09375 -0.453125 C 0.0820312 -0.546875 0.09375 -0.632812 0.125 -0.71875 C 0.164062 -0.800781 0.222656 -0.867188 0.296875 -0.921875 C 0.367188 -0.984375 0.445312 -1.015625 0.53125 -1.015625 C 0.582031 -1.015625 0.660156 -0.976562 0.765625 -0.90625 C 0.878906 -0.832031 0.972656 -0.765625 1.046875 -0.703125 C 1.046875 -0.691406 0.988281 -0.644531 0.875 -0.5625 C 0.769531 -0.488281 0.660156 -0.410156 0.546875 -0.328125 Z M 0.390625 -0.21875 "/></g></g></g><g fill="#000000" fill-opacity="1"><g transform="translate(42.506516, 28.726647)"><g><path d="M 0.40625 -0.9375 L 0.40625 -0.84375 C 0.53125 -0.957031 0.632812 -1.015625 0.71875 -1.015625 C 0.769531 -1.015625 0.847656 -0.957031 0.953125 -0.84375 C 1.066406 -0.738281 1.128906 -0.664062 1.140625 -0.625 C 1.140625 -0.59375 1.140625 -0.363281 1.140625 0.0625 L 0.890625 0 C 0.898438 -0.46875 0.894531 -0.71875 0.875 -0.75 C 0.851562 -0.800781 0.8125 -0.816406 0.75 -0.796875 C 0.695312 -0.773438 0.640625 -0.738281 0.578125 -0.6875 C 0.515625 -0.644531 0.457031 -0.59375 0.40625 -0.53125 L 0.40625 0.0625 L 0.125 0 L 0.125 -1 Z M 0.40625 -0.9375 "/></g></g></g><g fill="#000000" fill-opacity="1"><g transform="translate(43.751651, 28.726647)"><g><path d="M 0.078125 -0.84375 L 0.015625 -1 L 0.1875 -1 L 0.1875 -1.21875 L 0.453125 -1.15625 L 0.453125 -1 L 0.703125 -1 L 0.765625 -0.84375 L 0.453125 -0.84375 L 0.453125 -0.578125 C 0.453125 -0.566406 0.453125 -0.546875 0.453125 -0.515625 C 0.453125 -0.472656 0.445312 -0.429688 0.4375 -0.390625 C 0.4375 -0.359375 0.4375 -0.328125 0.4375 -0.296875 C 0.445312 -0.265625 0.457031 -0.234375 0.46875 -0.203125 C 0.476562 -0.179688 0.488281 -0.160156 0.5 -0.140625 C 0.519531 -0.117188 0.539062 -0.101562 0.5625 -0.09375 C 0.582031 -0.09375 0.609375 -0.0976562 0.640625 -0.109375 C 0.679688 -0.128906 0.726562 -0.15625 0.78125 -0.1875 L 0.84375 -0.125 C 0.757812 -0.0507812 0.691406 0 0.640625 0.03125 C 0.597656 0.0625 0.539062 0.0625 0.46875 0.03125 C 0.394531 0 0.328125 -0.0390625 0.265625 -0.09375 C 0.210938 -0.15625 0.1875 -0.207031 0.1875 -0.25 L 0.1875 -0.84375 Z M 0.078125 -0.84375 "/></g></g></g><g fill="#000000" fill-opacity="1"><g transform="translate(44.633882, 28.726647)"><g/></g></g><g fill="#000000" fill-opacity="1"><g transform="translate(45.36386, 28.726647)"><g><path d="M 0.796875 -0.78125 C 0.703125 -0.84375 0.601562 -0.832031 0.5 -0.75 C 0.425781 -0.6875 0.375 -0.597656 0.34375 -0.484375 C 0.3125 -0.347656 0.332031 -0.25 0.40625 -0.1875 C 0.414062 -0.175781 0.425781 -0.164062 0.4375 -0.15625 C 0.5 -0.125 0.554688 -0.113281 0.609375 -0.125 C 0.671875 -0.144531 0.722656 -0.179688 0.765625 -0.234375 C 0.804688 -0.296875 0.835938 -0.359375 0.859375 -0.421875 C 0.890625 -0.492188 0.898438 -0.5625 0.890625 -0.625 C 0.878906 -0.695312 0.847656 -0.75 0.796875 -0.78125 Z M 1 -0.765625 C 1.039062 -0.734375 1.070312 -0.691406 1.09375 -0.640625 C 1.113281 -0.585938 1.125 -0.535156 1.125 -0.484375 C 1.132812 -0.429688 1.128906 -0.375 1.109375 -0.3125 C 1.097656 -0.257812 1.078125 -0.207031 1.046875 -0.15625 C 1.023438 -0.113281 0.992188 -0.0703125 0.953125 -0.03125 C 0.921875 0 0.878906 0.0195312 0.828125 0.03125 C 0.785156 0.0507812 0.734375 0.0546875 0.671875 0.046875 C 0.617188 0.046875 0.5625 0.03125 0.5 0 C 0.414062 -0.0390625 0.335938 -0.09375 0.265625 -0.15625 C 0.203125 -0.207031 0.15625 -0.265625 0.125 -0.328125 C 0.101562 -0.390625 0.09375 -0.453125 0.09375 -0.515625 C 0.09375 -0.578125 0.101562 -0.632812 0.125 -0.6875 C 0.144531 -0.75 0.175781 -0.800781 0.21875 -0.84375 C 0.257812 -0.894531 0.304688 -0.9375 0.359375 -0.96875 C 0.410156 -1 0.460938 -1.015625 0.515625 -1.015625 C 0.566406 -1.015625 0.617188 -1.003906 0.671875 -0.984375 C 0.804688 -0.910156 0.914062 -0.835938 1 -0.765625 Z M 1 -0.765625 "/></g></g></g><g fill="#000000" fill-opacity="1"><g transform="translate(46.594395, 28.726647)"><g><path d="M 0.109375 -0.84375 L 0.046875 -1 L 0.265625 -1 L 0.265625 -1.171875 C 0.265625 -1.210938 0.289062 -1.257812 0.34375 -1.3125 C 0.394531 -1.375 0.457031 -1.421875 0.53125 -1.453125 C 0.601562 -1.484375 0.660156 -1.488281 0.703125 -1.46875 C 0.785156 -1.414062 0.863281 -1.359375 0.9375 -1.296875 L 0.890625 -1.25 C 0.816406 -1.28125 0.753906 -1.296875 0.703125 -1.296875 C 0.660156 -1.304688 0.625 -1.289062 0.59375 -1.25 C 0.570312 -1.21875 0.550781 -1.179688 0.53125 -1.140625 C 0.519531 -1.097656 0.515625 -1.050781 0.515625 -1 L 0.734375 -1 L 0.796875 -0.84375 L 0.515625 -0.84375 L 0.53125 0.0625 L 0.265625 0 C 0.265625 -0.238281 0.265625 -0.519531 0.265625 -0.84375 Z M 0.109375 -0.84375 "/></g></g></g><g fill="#000000" fill-opacity="1"><g transform="translate(47.424485, 28.726647)"><g/></g></g><g fill="#000000" fill-opacity="1"><g transform="translate(48.154463, 28.726647)"><g><path d="M 0.734375 -0.265625 C 0.773438 -0.304688 0.804688 -0.351562 0.828125 -0.40625 C 0.847656 -0.46875 0.859375 -0.519531 0.859375 -0.5625 C 0.859375 -0.613281 0.851562 -0.660156 0.84375 -0.703125 C 0.832031 -0.742188 0.8125 -0.78125 0.78125 -0.8125 C 0.75 -0.84375 0.710938 -0.863281 0.671875 -0.875 C 0.640625 -0.882812 0.597656 -0.878906 0.546875 -0.859375 C 0.492188 -0.835938 0.4375 -0.804688 0.375 -0.765625 L 0.359375 -0.171875 C 0.390625 -0.148438 0.421875 -0.132812 0.453125 -0.125 C 0.492188 -0.125 0.539062 -0.132812 0.59375 -0.15625 C 0.644531 -0.175781 0.691406 -0.210938 0.734375 -0.265625 Z M 0.59375 0.046875 C 0.5625 0.046875 0.519531 0.03125 0.46875 0 C 0.425781 -0.03125 0.394531 -0.0507812 0.375 -0.0625 L 0.375 0.53125 L 0.109375 0.46875 C 0.109375 -0.445312 0.109375 -0.914062 0.109375 -0.9375 C 0.191406 -0.96875 0.257812 -0.988281 0.3125 -1 C 0.363281 -1.007812 0.421875 -1.015625 0.484375 -1.015625 C 0.554688 -1.015625 0.625 -1.003906 0.6875 -0.984375 C 0.75 -0.960938 0.8125 -0.929688 0.875 -0.890625 C 0.957031 -0.835938 1.015625 -0.773438 1.046875 -0.703125 C 1.085938 -0.628906 1.101562 -0.554688 1.09375 -0.484375 C 1.09375 -0.410156 1.078125 -0.335938 1.046875 -0.265625 C 1.015625 -0.191406 0.972656 -0.128906 0.921875 -0.078125 C 0.867188 -0.0234375 0.8125 0.0078125 0.75 0.03125 C 0.695312 0.0625 0.644531 0.0664062 0.59375 0.046875 Z M 0.59375 0.046875 "/></g></g></g><g fill="#000000" fill-opacity="1"><g transform="translate(49.359971, 28.726647)"><g><path d="M 0.796875 -0.78125 C 0.703125 -0.84375 0.601562 -0.832031 0.5 -0.75 C 0.425781 -0.6875 0.375 -0.597656 0.34375 -0.484375 C 0.3125 -0.347656 0.332031 -0.25 0.40625 -0.1875 C 0.414062 -0.175781 0.425781 -0.164062 0.4375 -0.15625 C 0.5 -0.125 0.554688 -0.113281 0.609375 -0.125 C 0.671875 -0.144531 0.722656 -0.179688 0.765625 -0.234375 C 0.804688 -0.296875 0.835938 -0.359375 0.859375 -0.421875 C 0.890625 -0.492188 0.898438 -0.5625 0.890625 -0.625 C 0.878906 -0.695312 0.847656 -0.75 0.796875 -0.78125 Z M 1 -0.765625 C 1.039062 -0.734375 1.070312 -0.691406 1.09375 -0.640625 C 1.113281 -0.585938 1.125 -0.535156 1.125 -0.484375 C 1.132812 -0.429688 1.128906 -0.375 1.109375 -0.3125 C 1.097656 -0.257812 1.078125 -0.207031 1.046875 -0.15625 C 1.023438 -0.113281 0.992188 -0.0703125 0.953125 -0.03125 C 0.921875 0 0.878906 0.0195312 0.828125 0.03125 C 0.785156 0.0507812 0.734375 0.0546875 0.671875 0.046875 C 0.617188 0.046875 0.5625 0.03125 0.5 0 C 0.414062 -0.0390625 0.335938 -0.09375 0.265625 -0.15625 C 0.203125 -0.207031 0.15625 -0.265625 0.125 -0.328125 C 0.101562 -0.390625 0.09375 -0.453125 0.09375 -0.515625 C 0.09375 -0.578125 0.101562 -0.632812 0.125 -0.6875 C 0.144531 -0.75 0.175781 -0.800781 0.21875 -0.84375 C 0.257812 -0.894531 0.304688 -0.9375 0.359375 -0.96875 C 0.410156 -1 0.460938 -1.015625 0.515625 -1.015625 C 0.566406 -1.015625 0.617188 -1.003906 0.671875 -0.984375 C 0.804688 -0.910156 0.914062 -0.835938 1 -0.765625 Z M 1 -0.765625 "/></g></g></g><g fill="#000000" fill-opacity="1"><g transform="translate(50.590506, 28.726647)"><g><path d="M 0.390625 -1.421875 L 0.390625 0.0625 L 0.125 0 L 0.125 -1.46875 Z M 0.390625 -1.421875 "/></g></g></g><g fill="#000000" fill-opacity="1"><g transform="translate(51.093147, 28.726647)"><g><path d="M 0.28125 -1.125 C 0.21875 -1.15625 0.164062 -1.203125 0.125 -1.265625 C 0.132812 -1.296875 0.15625 -1.328125 0.1875 -1.359375 C 0.226562 -1.390625 0.257812 -1.410156 0.28125 -1.421875 C 0.351562 -1.390625 0.40625 -1.335938 0.4375 -1.265625 C 0.414062 -1.210938 0.363281 -1.164062 0.28125 -1.125 Z M 0.40625 -0.9375 L 0.40625 0.0625 L 0.15625 0 L 0.15625 -1 Z M 0.40625 -0.9375 "/></g></g></g><g fill="#000000" fill-opacity="1"><g transform="translate(51.668788, 28.726647)"><g><path d="M 0.984375 -0.859375 L 0.921875 -0.75 C 0.898438 -0.75 0.875 -0.753906 0.84375 -0.765625 C 0.8125 -0.773438 0.785156 -0.78125 0.765625 -0.78125 C 0.753906 -0.789062 0.738281 -0.796875 0.71875 -0.796875 C 0.707031 -0.804688 0.695312 -0.8125 0.6875 -0.8125 C 0.675781 -0.820312 0.664062 -0.828125 0.65625 -0.828125 C 0.5625 -0.816406 0.484375 -0.753906 0.421875 -0.640625 C 0.359375 -0.535156 0.335938 -0.429688 0.359375 -0.328125 C 0.367188 -0.210938 0.414062 -0.148438 0.5 -0.140625 C 0.59375 -0.128906 0.722656 -0.1875 0.890625 -0.3125 L 0.9375 -0.265625 C 0.96875 -0.234375 0.992188 -0.203125 1.015625 -0.171875 L 1.0625 -0.125 C 1 -0.0820312 0.945312 -0.046875 0.90625 -0.015625 C 0.875 0.00390625 0.832031 0.0195312 0.78125 0.03125 C 0.738281 0.0507812 0.695312 0.0625 0.65625 0.0625 C 0.613281 0.0625 0.570312 0.0507812 0.53125 0.03125 C 0.414062 -0.0078125 0.304688 -0.0859375 0.203125 -0.203125 C 0.140625 -0.273438 0.101562 -0.359375 0.09375 -0.453125 C 0.09375 -0.546875 0.109375 -0.632812 0.140625 -0.71875 C 0.179688 -0.800781 0.238281 -0.867188 0.3125 -0.921875 C 0.394531 -0.984375 0.484375 -1.015625 0.578125 -1.015625 C 0.617188 -1.015625 0.753906 -0.960938 0.984375 -0.859375 Z M 0.984375 -0.859375 "/></g></g></g><g fill="#000000" fill-opacity="1"><g transform="translate(52.784612, 28.726647)"><g><path d="M 0.34375 -0.40625 L 0.8125 -0.734375 C 0.71875 -0.796875 0.632812 -0.816406 0.5625 -0.796875 C 0.488281 -0.785156 0.429688 -0.742188 0.390625 -0.671875 C 0.359375 -0.609375 0.34375 -0.519531 0.34375 -0.40625 Z M 0.390625 -0.21875 C 0.429688 -0.164062 0.472656 -0.132812 0.515625 -0.125 C 0.566406 -0.113281 0.617188 -0.117188 0.671875 -0.140625 C 0.722656 -0.171875 0.765625 -0.195312 0.796875 -0.21875 C 0.835938 -0.238281 0.882812 -0.269531 0.9375 -0.3125 L 0.984375 -0.28125 C 1.003906 -0.25 1.03125 -0.21875 1.0625 -0.1875 L 1.09375 -0.140625 C 0.976562 -0.0546875 0.878906 0 0.796875 0.03125 C 0.710938 0.0625 0.628906 0.0625 0.546875 0.03125 C 0.421875 -0.0078125 0.304688 -0.0859375 0.203125 -0.203125 C 0.140625 -0.273438 0.101562 -0.359375 0.09375 -0.453125 C 0.0820312 -0.546875 0.09375 -0.632812 0.125 -0.71875 C 0.164062 -0.800781 0.222656 -0.867188 0.296875 -0.921875 C 0.367188 -0.984375 0.445312 -1.015625 0.53125 -1.015625 C 0.582031 -1.015625 0.660156 -0.976562 0.765625 -0.90625 C 0.878906 -0.832031 0.972656 -0.765625 1.046875 -0.703125 C 1.046875 -0.691406 0.988281 -0.644531 0.875 -0.5625 C 0.769531 -0.488281 0.660156 -0.410156 0.546875 -0.328125 Z M 0.390625 -0.21875 "/></g></g></g><g fill="#000000" fill-opacity="1"><g transform="translate(53.937979, 28.726647)"><g/></g></g><g fill="#000000" fill-opacity="1"><g transform="translate(54.667957, 28.726647)"><g><path d="M 0.21875 -0.734375 L 0.109375 -0.921875 C 0.203125 -0.941406 0.304688 -0.960938 0.421875 -0.984375 C 0.546875 -1.003906 0.625 -1.015625 0.65625 -1.015625 C 0.6875 -1.015625 0.742188 -0.96875 0.828125 -0.875 C 0.921875 -0.789062 0.984375 -0.722656 1.015625 -0.671875 C 1.023438 -0.660156 1.03125 -0.609375 1.03125 -0.515625 C 1.03125 -0.421875 1.03125 -0.3125 1.03125 -0.1875 C 1.03125 -0.0625 1.03125 0.0195312 1.03125 0.0625 L 0.765625 0 L 0.78125 -0.109375 C 0.664062 0.00390625 0.570312 0.0625 0.5 0.0625 C 0.4375 0.0625 0.351562 0 0.25 -0.125 C 0.144531 -0.25 0.09375 -0.335938 0.09375 -0.390625 C 0.09375 -0.429688 0.117188 -0.46875 0.171875 -0.5 C 0.234375 -0.539062 0.304688 -0.570312 0.390625 -0.59375 C 0.472656 -0.613281 0.546875 -0.628906 0.609375 -0.640625 C 0.679688 -0.648438 0.738281 -0.660156 0.78125 -0.671875 L 0.78125 -0.71875 C 0.78125 -0.789062 0.742188 -0.828125 0.671875 -0.828125 C 0.609375 -0.835938 0.472656 -0.804688 0.265625 -0.734375 Z M 0.328125 -0.203125 C 0.335938 -0.179688 0.359375 -0.164062 0.390625 -0.15625 C 0.429688 -0.15625 0.484375 -0.164062 0.546875 -0.1875 C 0.617188 -0.21875 0.695312 -0.265625 0.78125 -0.328125 L 0.78125 -0.515625 C 0.414062 -0.398438 0.265625 -0.296875 0.328125 -0.203125 Z M 0.328125 -0.203125 "/></g></g></g><g fill="#000000" fill-opacity="1"><g transform="translate(55.827579, 28.726647)"><g><path d="M 0.078125 -0.84375 L 0.015625 -1 L 0.1875 -1 L 0.1875 -1.21875 L 0.453125 -1.15625 L 0.453125 -1 L 0.703125 -1 L 0.765625 -0.84375 L 0.453125 -0.84375 L 0.453125 -0.578125 C 0.453125 -0.566406 0.453125 -0.546875 0.453125 -0.515625 C 0.453125 -0.472656 0.445312 -0.429688 0.4375 -0.390625 C 0.4375 -0.359375 0.4375 -0.328125 0.4375 -0.296875 C 0.445312 -0.265625 0.457031 -0.234375 0.46875 -0.203125 C 0.476562 -0.179688 0.488281 -0.160156 0.5 -0.140625 C 0.519531 -0.117188 0.539062 -0.101562 0.5625 -0.09375 C 0.582031 -0.09375 0.609375 -0.0976562 0.640625 -0.109375 C 0.679688 -0.128906 0.726562 -0.15625 0.78125 -0.1875 L 0.84375 -0.125 C 0.757812 -0.0507812 0.691406 0 0.640625 0.03125 C 0.597656 0.0625 0.539062 0.0625 0.46875 0.03125 C 0.394531 0 0.328125 -0.0390625 0.265625 -0.09375 C 0.210938 -0.15625 0.1875 -0.207031 0.1875 -0.25 L 0.1875 -0.84375 Z M 0.078125 -0.84375 "/></g></g></g><g fill="#000000" fill-opacity="1"><g transform="translate(56.709811, 28.726647)"><g/></g></g><g fill="#000000" fill-opacity="1"><g transform="translate(57.439789, 28.726647)"><g><path d="M 1.0625 -1.390625 L 1.359375 -1.296875 L 1.359375 -0.328125 C 1.359375 -0.242188 1.296875 -0.15625 1.171875 -0.0625 C 1.046875 0.0195312 0.914062 0.0625 0.78125 0.0625 C 0.695312 0.0625 0.59375 0.0195312 0.46875 -0.0625 C 0.351562 -0.144531 0.242188 -0.242188 0.140625 -0.359375 C 0.140625 -0.359375 0.140625 -0.367188 0.140625 -0.390625 C 0.140625 -0.410156 0.140625 -0.4375 0.140625 -0.46875 C 0.140625 -0.5 0.140625 -0.535156 0.140625 -0.578125 C 0.140625 -0.628906 0.140625 -0.675781 0.140625 -0.71875 C 0.140625 -0.769531 0.140625 -0.820312 0.140625 -0.875 C 0.140625 -0.925781 0.140625 -0.972656 0.140625 -1.015625 C 0.140625 -1.066406 0.140625 -1.113281 0.140625 -1.15625 C 0.140625 -1.207031 0.140625 -1.25 0.140625 -1.28125 C 0.140625 -1.3125 0.140625 -1.335938 0.140625 -1.359375 L 0.140625 -1.390625 C 0.140625 -1.390625 0.160156 -1.378906 0.203125 -1.359375 C 0.253906 -1.347656 0.304688 -1.335938 0.359375 -1.328125 L 0.421875 -1.296875 C 0.421875 -0.597656 0.421875 -0.25 0.421875 -0.25 C 0.484375 -0.1875 0.554688 -0.148438 0.640625 -0.140625 C 0.734375 -0.140625 0.816406 -0.164062 0.890625 -0.21875 C 0.972656 -0.269531 1.03125 -0.332031 1.0625 -0.40625 Z M 1.0625 -1.390625 "/></g></g></g><g fill="#000000" fill-opacity="1"><g transform="translate(58.943544, 28.726647)"><g><path d="M 0.140625 0 L 0.140625 -1.390625 C 0.265625 -1.421875 0.40625 -1.441406 0.5625 -1.453125 C 0.71875 -1.460938 0.816406 -1.457031 0.859375 -1.4375 C 0.898438 -1.394531 0.960938 -1.328125 1.046875 -1.234375 C 1.140625 -1.148438 1.207031 -1.085938 1.25 -1.046875 C 1.269531 -1.023438 1.273438 -0.984375 1.265625 -0.921875 C 1.253906 -0.867188 1.226562 -0.804688 1.1875 -0.734375 C 1.144531 -0.671875 1.085938 -0.613281 1.015625 -0.5625 C 0.953125 -0.507812 0.867188 -0.472656 0.765625 -0.453125 C 0.671875 -0.429688 0.5625 -0.441406 0.4375 -0.484375 L 0.4375 0.0625 Z M 0.953125 -1.203125 C 0.878906 -1.285156 0.707031 -1.300781 0.4375 -1.25 L 0.4375 -0.578125 C 0.53125 -0.566406 0.613281 -0.578125 0.6875 -0.609375 C 0.769531 -0.640625 0.832031 -0.679688 0.875 -0.734375 C 0.914062 -0.796875 0.945312 -0.851562 0.96875 -0.90625 C 0.988281 -0.96875 0.992188 -1.023438 0.984375 -1.078125 C 0.984375 -1.128906 0.972656 -1.171875 0.953125 -1.203125 Z M 0.953125 -1.203125 "/></g></g></g><g fill="#000000" fill-opacity="1"><g transform="translate(60.297133, 28.726647)"><g/></g></g><g fill="#000000" fill-opacity="1"><g transform="translate(61.027111, 28.726647)"><g><path d="M 0.140625 0 L 0.140625 -1.390625 C 0.265625 -1.421875 0.40625 -1.441406 0.5625 -1.453125 C 0.71875 -1.460938 0.816406 -1.457031 0.859375 -1.4375 C 0.898438 -1.394531 0.960938 -1.328125 1.046875 -1.234375 C 1.140625 -1.148438 1.207031 -1.085938 1.25 -1.046875 C 1.269531 -1.023438 1.273438 -0.984375 1.265625 -0.921875 C 1.253906 -0.867188 1.226562 -0.804688 1.1875 -0.734375 C 1.144531 -0.671875 1.085938 -0.613281 1.015625 -0.5625 C 0.953125 -0.507812 0.867188 -0.472656 0.765625 -0.453125 C 0.671875 -0.429688 0.5625 -0.441406 0.4375 -0.484375 L 0.4375 0.0625 Z M 0.953125 -1.203125 C 0.878906 -1.285156 0.707031 -1.300781 0.4375 -1.25 L 0.4375 -0.578125 C 0.53125 -0.566406 0.613281 -0.578125 0.6875 -0.609375 C 0.769531 -0.640625 0.832031 -0.679688 0.875 -0.734375 C 0.914062 -0.796875 0.945312 -0.851562 0.96875 -0.90625 C 0.988281 -0.96875 0.992188 -1.023438 0.984375 -1.078125 C 0.984375 -1.128906 0.972656 -1.171875 0.953125 -1.203125 Z M 0.953125 -1.203125 "/></g></g></g><g fill="#000000" fill-opacity="1"><g transform="translate(62.3807, 28.726647)"><g><path d="M 0.796875 -0.78125 C 0.703125 -0.84375 0.601562 -0.832031 0.5 -0.75 C 0.425781 -0.6875 0.375 -0.597656 0.34375 -0.484375 C 0.3125 -0.347656 0.332031 -0.25 0.40625 -0.1875 C 0.414062 -0.175781 0.425781 -0.164062 0.4375 -0.15625 C 0.5 -0.125 0.554688 -0.113281 0.609375 -0.125 C 0.671875 -0.144531 0.722656 -0.179688 0.765625 -0.234375 C 0.804688 -0.296875 0.835938 -0.359375 0.859375 -0.421875 C 0.890625 -0.492188 0.898438 -0.5625 0.890625 -0.625 C 0.878906 -0.695312 0.847656 -0.75 0.796875 -0.78125 Z M 1 -0.765625 C 1.039062 -0.734375 1.070312 -0.691406 1.09375 -0.640625 C 1.113281 -0.585938 1.125 -0.535156 1.125 -0.484375 C 1.132812 -0.429688 1.128906 -0.375 1.109375 -0.3125 C 1.097656 -0.257812 1.078125 -0.207031 1.046875 -0.15625 C 1.023438 -0.113281 0.992188 -0.0703125 0.953125 -0.03125 C 0.921875 0 0.878906 0.0195312 0.828125 0.03125 C 0.785156 0.0507812 0.734375 0.0546875 0.671875 0.046875 C 0.617188 0.046875 0.5625 0.03125 0.5 0 C 0.414062 -0.0390625 0.335938 -0.09375 0.265625 -0.15625 C 0.203125 -0.207031 0.15625 -0.265625 0.125 -0.328125 C 0.101562 -0.390625 0.09375 -0.453125 0.09375 -0.515625 C 0.09375 -0.578125 0.101562 -0.632812 0.125 -0.6875 C 0.144531 -0.75 0.175781 -0.800781 0.21875 -0.84375 C 0.257812 -0.894531 0.304688 -0.9375 0.359375 -0.96875 C 0.410156 -1 0.460938 -1.015625 0.515625 -1.015625 C 0.566406 -1.015625 0.617188 -1.003906 0.671875 -0.984375 C 0.804688 -0.910156 0.914062 -0.835938 1 -0.765625 Z M 1 -0.765625 "/></g></g></g><g fill="#000000" fill-opacity="1"><g transform="translate(63.611235, 28.726647)"><g><path d="M 0.390625 -1.421875 L 0.390625 0.0625 L 0.125 0 L 0.125 -1.46875 Z M 0.390625 -1.421875 "/></g></g></g><g fill="#000000" fill-opacity="1"><g transform="translate(64.113876, 28.726647)"><g><path d="M 0.28125 -1.125 C 0.21875 -1.15625 0.164062 -1.203125 0.125 -1.265625 C 0.132812 -1.296875 0.15625 -1.328125 0.1875 -1.359375 C 0.226562 -1.390625 0.257812 -1.410156 0.28125 -1.421875 C 0.351562 -1.390625 0.40625 -1.335938 0.4375 -1.265625 C 0.414062 -1.210938 0.363281 -1.164062 0.28125 -1.125 Z M 0.40625 -0.9375 L 0.40625 0.0625 L 0.15625 0 L 0.15625 -1 Z M 0.40625 -0.9375 "/></g></g></g><g fill="#000000" fill-opacity="1"><g transform="translate(64.689517, 28.726647)"><g><path d="M 0.984375 -0.859375 L 0.921875 -0.75 C 0.898438 -0.75 0.875 -0.753906 0.84375 -0.765625 C 0.8125 -0.773438 0.785156 -0.78125 0.765625 -0.78125 C 0.753906 -0.789062 0.738281 -0.796875 0.71875 -0.796875 C 0.707031 -0.804688 0.695312 -0.8125 0.6875 -0.8125 C 0.675781 -0.820312 0.664062 -0.828125 0.65625 -0.828125 C 0.5625 -0.816406 0.484375 -0.753906 0.421875 -0.640625 C 0.359375 -0.535156 0.335938 -0.429688 0.359375 -0.328125 C 0.367188 -0.210938 0.414062 -0.148438 0.5 -0.140625 C 0.59375 -0.128906 0.722656 -0.1875 0.890625 -0.3125 L 0.9375 -0.265625 C 0.96875 -0.234375 0.992188 -0.203125 1.015625 -0.171875 L 1.0625 -0.125 C 1 -0.0820312 0.945312 -0.046875 0.90625 -0.015625 C 0.875 0.00390625 0.832031 0.0195312 0.78125 0.03125 C 0.738281 0.0507812 0.695312 0.0625 0.65625 0.0625 C 0.613281 0.0625 0.570312 0.0507812 0.53125 0.03125 C 0.414062 -0.0078125 0.304688 -0.0859375 0.203125 -0.203125 C 0.140625 -0.273438 0.101562 -0.359375 0.09375 -0.453125 C 0.09375 -0.546875 0.109375 -0.632812 0.140625 -0.71875 C 0.179688 -0.800781 0.238281 -0.867188 0.3125 -0.921875 C 0.394531 -0.984375 0.484375 -1.015625 0.578125 -1.015625 C 0.617188 -1.015625 0.753906 -0.960938 0.984375 -0.859375 Z M 0.984375 -0.859375 "/></g></g></g><g fill="#000000" fill-opacity="1"><g transform="translate(65.805341, 28.726647)"><g><path d="M 0.34375 -0.40625 L 0.8125 -0.734375 C 0.71875 -0.796875 0.632812 -0.816406 0.5625 -0.796875 C 0.488281 -0.785156 0.429688 -0.742188 0.390625 -0.671875 C 0.359375 -0.609375 0.34375 -0.519531 0.34375 -0.40625 Z M 0.390625 -0.21875 C 0.429688 -0.164062 0.472656 -0.132812 0.515625 -0.125 C 0.566406 -0.113281 0.617188 -0.117188 0.671875 -0.140625 C 0.722656 -0.171875 0.765625 -0.195312 0.796875 -0.21875 C 0.835938 -0.238281 0.882812 -0.269531 0.9375 -0.3125 L 0.984375 -0.28125 C 1.003906 -0.25 1.03125 -0.21875 1.0625 -0.1875 L 1.09375 -0.140625 C 0.976562 -0.0546875 0.878906 0 0.796875 0.03125 C 0.710938 0.0625 0.628906 0.0625 0.546875 0.03125 C 0.421875 -0.0078125 0.304688 -0.0859375 0.203125 -0.203125 C 0.140625 -0.273438 0.101562 -0.359375 0.09375 -0.453125 C 0.0820312 -0.546875 0.09375 -0.632812 0.125 -0.71875 C 0.164062 -0.800781 0.222656 -0.867188 0.296875 -0.921875 C 0.367188 -0.984375 0.445312 -1.015625 0.53125 -1.015625 C 0.582031 -1.015625 0.660156 -0.976562 0.765625 -0.90625 C 0.878906 -0.832031 0.972656 -0.765625 1.046875 -0.703125 C 1.046875 -0.691406 0.988281 -0.644531 0.875 -0.5625 C 0.769531 -0.488281 0.660156 -0.410156 0.546875 -0.328125 Z M 0.390625 -0.21875 "/></g></g></g></svg>