<svg xmlns="http://www.w3.org/2000/svg" xmlns:xlink="http://www.w3.org/1999/xlink" width="140" zoomAndPan="magnify" viewBox="0 0 104.88 37.5" height="50" preserveAspectRatio="xMidYMid meet" version="1.0"><defs><g/><clipPath id="id1"><path d="M 3.046875 3.699219 L 32.652344 3.699219 L 32.652344 32.566406 L 3.046875 32.566406 Z M 3.046875 3.699219 " clip-rule="nonzero"/></clipPath></defs><g clip-path="url(#id1)"><path fill="#000000" d="M 32.625 5.007812 C 32.628906 5.011719 32.632812 5.019531 32.640625 5.03125 C 32.550781 5.132812 32.457031 5.230469 32.371094 5.335938 C 31.675781 6.140625 31.191406 7.046875 30.976562 8.089844 C 30.882812 8.539062 30.871094 8.996094 30.898438 9.453125 C 30.914062 9.691406 30.921875 9.933594 30.9375 10.171875 C 30.957031 10.558594 30.988281 10.941406 31.007812 11.328125 C 31.035156 11.867188 31.0625 12.402344 31.03125 12.941406 C 30.988281 13.742188 30.832031 14.519531 30.566406 15.277344 C 30.203125 16.304688 29.679688 17.242188 28.960938 18.070312 C 28.6875 18.386719 28.378906 18.675781 28.085938 18.976562 C 28.066406 18.992188 28.046875 19.011719 28.023438 19.035156 C 28.125 19.117188 28.222656 19.195312 28.320312 19.28125 C 28.78125 19.6875 29.152344 20.15625 29.355469 20.746094 C 29.496094 21.164062 29.460938 21.570312 29.300781 21.96875 C 29.296875 21.980469 29.289062 21.988281 29.277344 22.003906 C 29.246094 21.984375 29.214844 21.964844 29.1875 21.945312 C 29.042969 21.855469 28.902344 21.765625 28.757812 21.671875 C 28.507812 21.507812 28.238281 21.492188 27.949219 21.554688 C 27.40625 21.675781 26.9375 21.941406 26.507812 22.28125 C 26.222656 22.503906 25.945312 22.746094 25.644531 22.949219 C 25.050781 23.347656 24.386719 23.589844 23.671875 23.644531 C 23.09375 23.6875 22.519531 23.660156 21.960938 23.484375 C 21.859375 23.453125 21.765625 23.402344 21.667969 23.367188 C 21.625 23.351562 21.570312 23.339844 21.527344 23.347656 C 20.921875 23.472656 20.394531 23.738281 19.960938 24.183594 C 19.546875 24.609375 19.289062 25.105469 19.226562 25.699219 C 19.210938 25.839844 19.210938 25.984375 19.207031 26.128906 C 19.195312 26.578125 19.199219 27.03125 19.171875 27.480469 C 19.121094 28.390625 19.023438 29.296875 18.789062 30.183594 C 18.664062 30.671875 18.496094 31.148438 18.210938 31.574219 C 18.179688 31.621094 18.140625 31.667969 18.105469 31.714844 C 18.066406 31.773438 18.082031 31.820312 18.152344 31.832031 C 18.183594 31.839844 18.21875 31.839844 18.253906 31.839844 C 18.527344 31.839844 18.804688 31.839844 19.082031 31.839844 C 19.238281 31.84375 19.398438 31.859375 19.558594 31.851562 C 20.066406 31.835938 20.574219 31.808594 21.085938 31.796875 C 21.378906 31.792969 21.671875 31.800781 21.964844 31.808594 C 22.046875 31.8125 22.132812 31.839844 22.183594 31.921875 C 22.265625 32.0625 22.195312 32.246094 22.015625 32.308594 C 21.878906 32.351562 21.738281 32.382812 21.597656 32.394531 C 21.328125 32.414062 21.054688 32.421875 20.78125 32.421875 C 20.445312 32.425781 20.109375 32.414062 19.769531 32.414062 C 19.699219 32.414062 19.628906 32.4375 19.558594 32.445312 C 19.429688 32.460938 19.296875 32.484375 19.167969 32.484375 C 18.914062 32.484375 18.660156 32.480469 18.40625 32.460938 C 18.210938 32.445312 18.019531 32.414062 17.824219 32.386719 C 17.730469 32.375 17.65625 32.332031 17.597656 32.257812 C 17.511719 32.152344 17.414062 32.054688 17.335938 31.945312 C 17.261719 31.839844 17.253906 31.734375 17.351562 31.625 C 17.640625 31.292969 17.757812 30.882812 17.902344 30.480469 C 18.09375 29.9375 18.195312 29.371094 18.257812 28.800781 C 18.304688 28.34375 18.339844 27.878906 18.367188 27.417969 C 18.386719 27.070312 18.390625 26.722656 18.398438 26.375 C 18.402344 26.171875 18.339844 26.085938 18.152344 26.011719 C 17.964844 25.933594 17.9375 25.949219 17.9375 26.152344 C 17.9375 26.550781 17.945312 26.949219 17.9375 27.347656 C 17.921875 28.035156 17.878906 28.71875 17.753906 29.398438 C 17.644531 29.984375 17.488281 30.554688 17.203125 31.085938 C 16.878906 31.695312 16.417969 32.167969 15.769531 32.433594 C 15.609375 32.496094 15.421875 32.527344 15.25 32.53125 C 14.589844 32.550781 13.933594 32.554688 13.273438 32.5625 C 13.148438 32.566406 13.019531 32.558594 12.894531 32.546875 C 12.75 32.535156 12.625 32.472656 12.535156 32.359375 C 12.5 32.3125 12.484375 32.242188 12.484375 32.183594 C 12.484375 32.042969 12.542969 31.917969 12.640625 31.824219 C 12.679688 31.785156 12.75 31.769531 12.808594 31.765625 C 13.007812 31.75 13.203125 31.738281 13.402344 31.734375 C 13.640625 31.726562 13.875 31.71875 14.113281 31.71875 C 14.234375 31.722656 14.355469 31.753906 14.476562 31.746094 C 14.824219 31.722656 15.171875 31.695312 15.519531 31.660156 C 15.640625 31.648438 15.757812 31.625 15.878906 31.601562 C 15.957031 31.585938 16.019531 31.539062 16.070312 31.472656 C 16.527344 30.867188 16.824219 30.1875 17.019531 29.460938 C 17.152344 28.976562 17.230469 28.488281 17.261719 27.984375 C 17.300781 27.257812 17.273438 26.539062 17.070312 25.832031 C 16.9375 25.363281 16.742188 24.921875 16.425781 24.539062 C 16.214844 24.289062 15.949219 24.113281 15.671875 23.949219 C 15.261719 23.707031 14.859375 23.453125 14.453125 23.203125 C 14.429688 23.1875 14.378906 23.1875 14.351562 23.199219 C 14.070312 23.347656 13.777344 23.445312 13.464844 23.472656 C 13.230469 23.488281 12.992188 23.492188 12.753906 23.476562 C 12.265625 23.441406 11.792969 23.316406 11.339844 23.125 C 10.941406 22.960938 10.578125 22.742188 10.230469 22.488281 C 9.757812 22.148438 9.25 21.878906 8.675781 21.742188 C 8.175781 21.625 7.703125 21.667969 7.273438 21.972656 C 7.214844 22.011719 7.199219 21.984375 7.171875 21.933594 C 6.972656 21.570312 7.039062 21.207031 7.183594 20.847656 C 7.378906 20.375 7.695312 19.992188 8.082031 19.667969 C 8.339844 19.453125 8.621094 19.269531 8.894531 19.070312 C 8.90625 19.0625 8.917969 19.050781 8.929688 19.042969 C 8.742188 18.949219 8.558594 18.867188 8.382812 18.773438 C 8.078125 18.609375 7.800781 18.40625 7.542969 18.171875 C 6.832031 17.53125 6.335938 16.734375 5.9375 15.875 C 5.589844 15.117188 5.34375 14.328125 5.199219 13.507812 C 5.121094 13.058594 5.0625 12.597656 5.019531 12.140625 C 4.984375 11.734375 4.980469 11.328125 4.972656 10.921875 C 4.957031 10.03125 4.867188 9.152344 4.644531 8.289062 C 4.386719 7.304688 3.988281 6.378906 3.414062 5.53125 C 3.3125 5.382812 3.203125 5.238281 3.09375 5.097656 C 3.050781 5.042969 3.054688 5.007812 3.113281 4.96875 C 3.332031 4.8125 3.582031 4.734375 3.847656 4.707031 C 4.476562 4.648438 5.089844 4.726562 5.699219 4.886719 C 6.769531 5.167969 7.710938 5.699219 8.558594 6.40625 C 9.1875 6.933594 9.722656 7.546875 10.1875 8.21875 C 10.203125 8.242188 10.222656 8.265625 10.257812 8.285156 C 10.296875 8.074219 10.34375 7.867188 10.375 7.65625 C 10.453125 7.140625 10.335938 6.65625 10.136719 6.1875 C 9.898438 5.609375 9.554688 5.09375 9.171875 4.601562 C 9.160156 4.585938 9.152344 4.574219 9.140625 4.558594 C 9.136719 4.550781 9.136719 4.542969 9.132812 4.527344 C 9.246094 4.453125 9.378906 4.417969 9.511719 4.386719 C 9.730469 4.335938 9.953125 4.355469 10.171875 4.375 C 10.628906 4.410156 11.074219 4.507812 11.503906 4.664062 C 12.121094 4.886719 12.683594 5.207031 13.210938 5.597656 C 13.546875 5.847656 13.859375 6.121094 14.152344 6.425781 C 14.660156 6.949219 15.085938 7.535156 15.449219 8.167969 C 15.472656 8.207031 15.496094 8.242188 15.519531 8.289062 C 15.535156 8.265625 15.550781 8.253906 15.558594 8.238281 C 15.957031 7.363281 16.429688 6.519531 16.941406 5.703125 C 17.347656 5.054688 17.773438 4.414062 18.191406 3.773438 C 18.242188 3.699219 18.25 3.699219 18.308594 3.769531 C 18.695312 4.261719 19.035156 4.785156 19.328125 5.335938 C 19.640625 5.90625 19.925781 6.492188 20.222656 7.070312 C 20.296875 7.222656 20.363281 7.378906 20.433594 7.53125 C 20.449219 7.5625 20.464844 7.59375 20.484375 7.632812 C 20.515625 7.59375 20.542969 7.566406 20.566406 7.53125 C 20.914062 7.027344 21.304688 6.558594 21.742188 6.128906 C 22.355469 5.535156 23.03125 5.027344 23.808594 4.664062 C 24.257812 4.453125 24.726562 4.292969 25.214844 4.210938 C 25.351562 4.1875 25.5 4.199219 25.636719 4.222656 C 25.828125 4.253906 26.011719 4.304688 26.199219 4.347656 C 26.210938 4.351562 26.222656 4.359375 26.242188 4.367188 C 26.226562 4.398438 26.214844 4.429688 26.199219 4.460938 C 25.9375 4.953125 25.71875 5.460938 25.582031 6.003906 C 25.46875 6.457031 25.429688 6.910156 25.457031 7.375 C 25.480469 7.71875 25.511719 8.058594 25.589844 8.394531 C 25.589844 8.410156 25.597656 8.421875 25.605469 8.457031 C 25.628906 8.414062 25.648438 8.390625 25.664062 8.363281 C 26.0625 7.679688 26.546875 7.0625 27.125 6.523438 C 27.597656 6.085938 28.121094 5.707031 28.695312 5.40625 C 29.238281 5.117188 29.808594 4.910156 30.414062 4.792969 C 30.835938 4.710938 31.265625 4.671875 31.695312 4.695312 C 32.011719 4.710938 32.3125 4.78125 32.574219 4.96875 C 32.59375 4.980469 32.609375 4.992188 32.625 5.007812 Z M 31.320312 5.535156 C 31.296875 5.53125 31.289062 5.527344 31.277344 5.53125 C 31.214844 5.535156 31.148438 5.539062 31.085938 5.542969 C 30.492188 5.570312 29.925781 5.71875 29.390625 5.96875 C 28.5 6.378906 27.761719 6.984375 27.132812 7.726562 C 26.660156 8.285156 26.277344 8.902344 25.964844 9.566406 C 25.941406 9.621094 25.933594 9.667969 25.949219 9.726562 C 26.167969 10.578125 26.347656 11.4375 26.457031 12.3125 C 26.53125 12.890625 26.585938 13.46875 26.5625 14.054688 C 26.546875 14.414062 26.527344 14.777344 26.480469 15.132812 C 26.390625 15.855469 26.179688 16.546875 25.867188 17.203125 C 25.546875 17.878906 25.125 18.476562 24.5625 18.976562 C 24.546875 18.992188 24.53125 19.007812 24.515625 19.027344 C 24.53125 19.035156 24.539062 19.042969 24.546875 19.046875 C 25.132812 19.226562 25.722656 19.246094 26.308594 19.054688 C 26.859375 18.875 27.324219 18.558594 27.734375 18.160156 C 28.167969 17.75 28.523438 17.28125 28.84375 16.777344 C 29.242188 16.152344 29.550781 15.488281 29.761719 14.777344 C 29.902344 14.300781 30.003906 13.8125 30.03125 13.316406 C 30.054688 12.914062 30.066406 12.511719 30.058594 12.109375 C 30.046875 11.679688 30.011719 11.253906 29.988281 10.824219 C 29.96875 10.539062 29.953125 10.257812 29.9375 9.972656 C 29.910156 9.46875 29.886719 8.964844 29.953125 8.460938 C 30.074219 7.542969 30.402344 6.703125 30.964844 5.964844 C 31.074219 5.820312 31.195312 5.683594 31.320312 5.535156 Z M 28.296875 20.832031 C 28.28125 20.785156 28.273438 20.75 28.257812 20.714844 C 28.222656 20.644531 28.1875 20.570312 28.148438 20.5 C 28 20.222656 27.792969 19.992188 27.515625 19.835938 C 27.324219 19.726562 27.117188 19.671875 26.886719 19.742188 C 26.5625 19.839844 26.234375 19.921875 25.902344 20 C 25.578125 20.074219 25.253906 20.15625 24.925781 20.1875 C 24.527344 20.222656 24.121094 20.195312 23.726562 20.125 C 23.59375 20.101562 23.464844 20.046875 23.335938 20.042969 C 22.921875 20.027344 22.53125 20.128906 22.160156 20.320312 C 22.113281 20.34375 22.113281 20.367188 22.136719 20.414062 C 22.210938 20.550781 22.296875 20.6875 22.335938 20.835938 C 22.464844 21.289062 22.425781 21.75 22.300781 22.199219 C 22.257812 22.355469 22.179688 22.5 22.117188 22.660156 C 22.152344 22.667969 22.195312 22.683594 22.234375 22.691406 C 22.527344 22.730469 22.816406 22.777344 23.105469 22.804688 C 23.398438 22.832031 23.6875 22.828125 23.976562 22.773438 C 24.59375 22.65625 25.125 22.367188 25.597656 21.960938 C 26.042969 21.582031 26.511719 21.246094 27.058594 21.023438 C 27.402344 20.882812 27.761719 20.792969 28.140625 20.816406 C 28.1875 20.820312 28.234375 20.828125 28.296875 20.832031 Z M 25.75 14.523438 C 25.75 13.972656 25.726562 13.421875 25.6875 12.875 C 25.65625 12.429688 25.59375 11.988281 25.515625 11.550781 C 25.453125 11.21875 25.335938 10.898438 25.257812 10.570312 C 25.113281 9.972656 24.964844 9.375 24.835938 8.773438 C 24.71875 8.238281 24.617188 7.695312 24.636719 7.140625 C 24.65625 6.714844 24.730469 6.304688 24.875 5.90625 C 24.9375 5.730469 25.015625 5.5625 25.089844 5.378906 C 25.050781 5.378906 25.015625 5.375 24.984375 5.378906 C 24.289062 5.464844 23.660156 5.730469 23.085938 6.125 C 22.632812 6.4375 22.230469 6.800781 21.875 7.210938 C 21.542969 7.589844 21.257812 7.996094 21.011719 8.429688 C 20.992188 8.460938 20.992188 8.515625 21.007812 8.546875 C 21.1875 8.914062 21.378906 9.273438 21.550781 9.644531 C 21.902344 10.40625 22.195312 11.191406 22.402344 12.007812 C 22.628906 12.890625 22.695312 13.800781 22.726562 14.707031 C 22.75 15.410156 22.722656 16.113281 22.621094 16.808594 C 22.585938 17.042969 22.546875 17.285156 22.460938 17.511719 C 22.179688 18.25 21.789062 18.9375 21.359375 19.601562 C 21.34375 19.621094 21.332031 19.644531 21.308594 19.683594 C 21.375 19.675781 21.417969 19.671875 21.460938 19.667969 C 22.09375 19.59375 22.683594 19.398438 23.230469 19.066406 C 24.074219 18.550781 24.707031 17.835938 25.160156 16.964844 C 25.5625 16.203125 25.746094 15.378906 25.75 14.523438 Z M 21.734375 16.875 C 21.871094 16.34375 21.917969 15.808594 21.910156 15.261719 C 21.902344 14.75 21.863281 14.238281 21.789062 13.730469 C 21.664062 12.84375 21.449219 11.976562 21.167969 11.128906 C 20.792969 9.996094 20.308594 8.910156 19.75 7.855469 C 19.308594 7.03125 18.828125 6.234375 18.304688 5.460938 C 18.289062 5.4375 18.269531 5.417969 18.246094 5.382812 C 18.21875 5.421875 18.199219 5.445312 18.183594 5.46875 C 17.996094 5.753906 17.804688 6.035156 17.625 6.320312 C 17.097656 7.136719 16.605469 7.980469 16.160156 8.847656 C 15.761719 9.628906 15.398438 10.425781 15.09375 11.25 C 14.714844 12.273438 14.417969 13.316406 14.304688 14.402344 C 14.25 14.941406 14.238281 15.480469 14.304688 16.019531 C 14.410156 16.851562 14.691406 17.613281 15.179688 18.300781 C 15.542969 18.8125 15.976562 19.253906 16.527344 19.566406 C 17.300781 20.003906 18.125 20.125 18.988281 19.929688 C 19.644531 19.777344 20.175781 19.414062 20.625 18.921875 C 21.164062 18.332031 21.535156 17.648438 21.734375 16.875 Z M 20.917969 22.703125 C 21.460938 22.316406 21.726562 21.738281 21.53125 21.074219 C 21.457031 20.816406 21.316406 20.597656 21.097656 20.4375 C 21.019531 20.382812 20.941406 20.351562 20.847656 20.40625 C 20.78125 20.4375 20.707031 20.453125 20.636719 20.476562 C 20.019531 20.6875 19.390625 20.816406 18.742188 20.847656 C 18.320312 20.871094 17.898438 20.855469 17.476562 20.8125 C 16.832031 20.742188 16.203125 20.609375 15.589844 20.386719 C 15.554688 20.375 15.496094 20.378906 15.46875 20.398438 C 15.375 20.472656 15.277344 20.546875 15.203125 20.640625 C 14.976562 20.9375 14.90625 21.285156 14.894531 21.6875 C 14.898438 21.734375 14.902344 21.820312 14.921875 21.902344 C 15.019531 22.382812 15.316406 22.726562 15.710938 22.996094 C 16.027344 23.207031 16.347656 23.410156 16.65625 23.636719 C 16.929688 23.835938 17.167969 24.078125 17.339844 24.378906 C 17.46875 24.605469 17.652344 24.785156 17.898438 24.886719 C 18.121094 24.976562 18.339844 25.003906 18.539062 24.835938 C 18.679688 24.71875 18.800781 24.585938 18.886719 24.425781 C 18.960938 24.289062 19.019531 24.144531 19.089844 24.007812 C 19.207031 23.78125 19.378906 23.597656 19.570312 23.441406 C 19.8125 23.242188 20.074219 23.078125 20.363281 22.96875 C 20.558594 22.898438 20.75 22.824219 20.917969 22.703125 Z M 14.828125 9.4375 C 14.859375 9.351562 14.878906 9.28125 14.816406 9.203125 C 14.773438 9.148438 14.746094 9.085938 14.710938 9.023438 C 14.121094 8.039062 13.441406 7.125 12.582031 6.359375 C 12.148438 5.972656 11.679688 5.640625 11.140625 5.417969 C 10.925781 5.332031 10.695312 5.269531 10.472656 5.195312 C 10.46875 5.207031 10.460938 5.214844 10.457031 5.226562 C 10.46875 5.242188 10.480469 5.257812 10.488281 5.269531 C 10.75 5.570312 10.917969 5.921875 11.03125 6.296875 C 11.253906 7.050781 11.273438 7.8125 11.128906 8.578125 C 11.046875 9.011719 10.9375 9.441406 10.824219 9.871094 C 10.65625 10.519531 10.609375 11.183594 10.585938 11.847656 C 10.574219 12.234375 10.589844 12.621094 10.597656 13.007812 C 10.609375 13.441406 10.667969 13.875 10.753906 14.300781 C 11.027344 15.628906 11.574219 16.824219 12.480469 17.847656 C 13.015625 18.449219 13.65625 18.902344 14.40625 19.199219 C 14.546875 19.253906 14.691406 19.296875 14.855469 19.355469 C 14.835938 19.324219 14.832031 19.316406 14.828125 19.308594 C 14.269531 18.601562 13.914062 17.800781 13.699219 16.9375 C 13.492188 16.105469 13.402344 15.265625 13.453125 14.410156 C 13.46875 14.117188 13.496094 13.820312 13.539062 13.53125 C 13.648438 12.761719 13.847656 12.015625 14.109375 11.285156 C 14.328125 10.660156 14.582031 10.050781 14.828125 9.4375 Z M 14.328125 20.328125 C 14.390625 20.230469 14.46875 20.136719 14.542969 20.035156 C 14.359375 19.984375 14.1875 19.945312 14.019531 19.894531 C 13.503906 19.734375 13.019531 19.507812 12.550781 19.246094 C 12.519531 19.230469 12.46875 19.21875 12.4375 19.230469 C 12.003906 19.382812 11.558594 19.488281 11.101562 19.523438 C 10.980469 19.535156 10.855469 19.550781 10.738281 19.535156 C 10.496094 19.496094 10.253906 19.4375 10.011719 19.390625 C 9.964844 19.382812 9.90625 19.390625 9.867188 19.410156 C 9.519531 19.578125 9.195312 19.78125 8.902344 20.03125 C 8.632812 20.261719 8.394531 20.519531 8.246094 20.84375 C 8.222656 20.890625 8.207031 20.9375 8.1875 20.996094 C 8.230469 20.984375 8.257812 20.976562 8.28125 20.96875 C 8.46875 20.914062 8.660156 20.894531 8.851562 20.914062 C 9.285156 20.960938 9.6875 21.097656 10.050781 21.332031 C 10.296875 21.488281 10.523438 21.679688 10.761719 21.847656 C 11.53125 22.390625 12.382812 22.695312 13.335938 22.640625 C 13.5625 22.628906 13.785156 22.558594 14.007812 22.511719 C 14.058594 22.503906 14.074219 22.472656 14.054688 22.421875 C 14.035156 22.359375 14.015625 22.296875 14.007812 22.230469 C 13.976562 21.917969 13.945312 21.609375 13.917969 21.300781 C 13.902344 21.125 13.949219 20.960938 14.03125 20.8125 C 14.125 20.644531 14.222656 20.484375 14.328125 20.328125 Z M 11.480469 18.433594 C 11.542969 18.417969 11.601562 18.394531 11.671875 18.375 C 11.582031 18.273438 11.5 18.1875 11.421875 18.09375 C 10.96875 17.550781 10.628906 16.941406 10.367188 16.289062 C 9.867188 15.039062 9.648438 13.734375 9.605469 12.394531 C 9.597656 12.105469 9.605469 11.8125 9.621094 11.519531 C 9.636719 11.214844 9.664062 10.90625 9.703125 10.601562 C 9.765625 10.140625 9.839844 9.679688 9.90625 9.21875 C 9.914062 9.179688 9.902344 9.128906 9.882812 9.097656 C 9.574219 8.648438 9.226562 8.230469 8.84375 7.839844 C 8.449219 7.429688 8.011719 7.066406 7.539062 6.75 C 7.097656 6.453125 6.628906 6.203125 6.125 6.019531 C 5.695312 5.859375 5.253906 5.757812 4.796875 5.714844 C 4.65625 5.703125 4.515625 5.699219 4.355469 5.691406 C 4.453125 5.832031 4.539062 5.945312 4.617188 6.066406 C 4.984375 6.640625 5.234375 7.265625 5.421875 7.914062 C 5.695312 8.839844 5.832031 9.789062 5.894531 10.75 C 5.925781 11.210938 5.925781 11.675781 5.945312 12.140625 C 5.960938 12.453125 5.972656 12.773438 6.011719 13.085938 C 6.125 14.007812 6.433594 14.863281 6.890625 15.667969 C 7.183594 16.179688 7.527344 16.65625 7.921875 17.09375 C 8.34375 17.558594 8.816406 17.960938 9.394531 18.230469 C 10.066406 18.542969 10.761719 18.617188 11.480469 18.433594 Z M 11.480469 18.433594 " fill-opacity="1" fill-rule="nonzero"/></g><path fill="#ff6600" d="M 31.277344 5.53125 C 31.289062 5.527344 31.296875 5.53125 31.320312 5.535156 C 31.195312 5.683594 31.074219 5.816406 30.964844 5.960938 C 30.398438 6.703125 30.070312 7.539062 29.953125 8.460938 C 29.886719 8.964844 29.910156 9.46875 29.9375 9.972656 C 29.953125 10.253906 29.96875 10.539062 29.984375 10.820312 C 30.011719 11.25 30.046875 11.679688 30.054688 12.109375 C 30.066406 12.511719 30.054688 12.914062 30.03125 13.316406 C 30.003906 13.8125 29.898438 14.296875 29.761719 14.777344 C 29.550781 15.488281 29.242188 16.152344 28.84375 16.777344 C 28.523438 17.277344 28.167969 17.75 27.734375 18.160156 C 27.320312 18.554688 26.859375 18.875 26.308594 19.054688 C 25.71875 19.246094 25.132812 19.226562 24.546875 19.046875 C 24.539062 19.042969 24.53125 19.035156 24.515625 19.027344 C 24.53125 19.007812 24.546875 18.988281 24.5625 18.976562 C 25.121094 18.476562 25.546875 17.875 25.867188 17.203125 C 26.179688 16.542969 26.390625 15.855469 26.480469 15.132812 C 26.527344 14.773438 26.546875 14.414062 26.558594 14.054688 C 26.582031 13.46875 26.53125 12.890625 26.457031 12.308594 C 26.347656 11.4375 26.167969 10.578125 25.949219 9.726562 C 25.933594 9.667969 25.941406 9.621094 25.964844 9.5625 C 26.277344 8.902344 26.660156 8.285156 27.132812 7.722656 C 27.761719 6.984375 28.5 6.378906 29.390625 5.964844 C 29.925781 5.71875 30.492188 5.570312 31.085938 5.539062 C 31.152344 5.539062 31.214844 5.53125 31.277344 5.53125 Z M 31.277344 5.53125 " fill-opacity="1" fill-rule="nonzero"/><path fill="#057501" d="M 28.257812 20.714844 C 28.273438 20.746094 28.28125 20.785156 28.296875 20.832031 C 28.234375 20.828125 28.1875 20.820312 28.140625 20.816406 C 27.761719 20.796875 27.402344 20.882812 27.058594 21.023438 C 26.511719 21.246094 26.042969 21.582031 25.601562 21.964844 C 25.128906 22.367188 24.59375 22.65625 23.976562 22.773438 C 23.6875 22.832031 23.398438 22.832031 23.105469 22.804688 C 22.816406 22.777344 22.527344 22.730469 22.234375 22.691406 C 22.195312 22.6875 22.152344 22.671875 22.117188 22.660156 C 22.183594 22.503906 22.257812 22.355469 22.300781 22.199219 C 22.425781 21.75 22.464844 21.292969 22.339844 20.835938 C 22.296875 20.691406 22.210938 20.554688 22.136719 20.417969 C 22.113281 20.367188 22.113281 20.347656 22.160156 20.320312 C 22.53125 20.132812 22.921875 20.027344 23.335938 20.042969 C 23.464844 20.046875 23.59375 20.101562 23.726562 20.125 C 24.125 20.195312 24.527344 20.226562 24.925781 20.1875 C 25.253906 20.15625 25.582031 20.074219 25.902344 20 C 26.234375 19.925781 26.5625 19.84375 26.890625 19.746094 C 27.121094 19.675781 27.324219 19.726562 27.515625 19.835938 C 27.796875 19.992188 28 20.226562 28.152344 20.503906 C 28.1875 20.570312 28.222656 20.644531 28.257812 20.714844 Z M 28.257812 20.714844 " fill-opacity="1" fill-rule="nonzero"/><path fill="#ff6600" d="M 25.6875 12.875 C 25.726562 13.421875 25.75 13.972656 25.75 14.523438 C 25.746094 15.378906 25.5625 16.203125 25.160156 16.964844 C 24.707031 17.835938 24.074219 18.550781 23.230469 19.066406 C 22.683594 19.394531 22.09375 19.59375 21.460938 19.667969 C 21.417969 19.671875 21.375 19.675781 21.308594 19.683594 C 21.332031 19.644531 21.34375 19.621094 21.359375 19.597656 C 21.789062 18.9375 22.179688 18.25 22.460938 17.507812 C 22.546875 17.285156 22.585938 17.042969 22.621094 16.804688 C 22.722656 16.109375 22.75 15.410156 22.726562 14.707031 C 22.695312 13.796875 22.628906 12.890625 22.402344 12.003906 C 22.195312 11.191406 21.902344 10.40625 21.550781 9.644531 C 21.378906 9.273438 21.1875 8.914062 21.007812 8.546875 C 20.992188 8.515625 20.992188 8.457031 21.011719 8.425781 C 21.257812 7.996094 21.542969 7.589844 21.875 7.210938 C 22.230469 6.796875 22.632812 6.433594 23.085938 6.125 C 23.660156 5.730469 24.289062 5.464844 24.984375 5.378906 C 25.015625 5.375 25.050781 5.375 25.089844 5.375 C 25.011719 5.558594 24.9375 5.730469 24.875 5.90625 C 24.730469 6.304688 24.65625 6.714844 24.636719 7.136719 C 24.617188 7.695312 24.71875 8.234375 24.835938 8.773438 C 24.964844 9.375 25.113281 9.972656 25.257812 10.570312 C 25.335938 10.898438 25.453125 11.21875 25.515625 11.550781 C 25.59375 11.988281 25.652344 12.429688 25.6875 12.875 Z M 25.6875 12.875 " fill-opacity="1" fill-rule="nonzero"/><path fill="#ff6600" d="M 21.910156 15.261719 C 21.917969 15.808594 21.871094 16.34375 21.734375 16.875 C 21.535156 17.648438 21.164062 18.332031 20.625 18.921875 C 20.175781 19.414062 19.644531 19.777344 18.988281 19.925781 C 18.125 20.125 17.300781 20.003906 16.527344 19.566406 C 15.972656 19.253906 15.542969 18.8125 15.179688 18.300781 C 14.691406 17.613281 14.40625 16.851562 14.304688 16.019531 C 14.238281 15.480469 14.25 14.941406 14.304688 14.402344 C 14.417969 13.3125 14.714844 12.269531 15.089844 11.25 C 15.398438 10.425781 15.757812 9.628906 16.160156 8.847656 C 16.605469 7.980469 17.097656 7.136719 17.621094 6.316406 C 17.804688 6.03125 17.996094 5.75 18.179688 5.46875 C 18.199219 5.445312 18.214844 5.417969 18.246094 5.382812 C 18.269531 5.414062 18.285156 5.4375 18.300781 5.460938 C 18.824219 6.234375 19.308594 7.03125 19.75 7.855469 C 20.308594 8.910156 20.792969 9.996094 21.167969 11.125 C 21.449219 11.976562 21.664062 12.84375 21.789062 13.730469 C 21.863281 14.238281 21.902344 14.75 21.910156 15.261719 Z M 21.910156 15.261719 " fill-opacity="1" fill-rule="nonzero"/><path fill="#057501" d="M 21.53125 21.074219 C 21.726562 21.738281 21.460938 22.316406 20.917969 22.707031 C 20.75 22.824219 20.558594 22.902344 20.363281 22.972656 C 20.074219 23.082031 19.8125 23.246094 19.574219 23.441406 C 19.378906 23.601562 19.207031 23.78125 19.09375 24.007812 C 19.019531 24.144531 18.960938 24.289062 18.886719 24.425781 C 18.800781 24.585938 18.679688 24.71875 18.539062 24.835938 C 18.339844 25.003906 18.121094 24.980469 17.902344 24.890625 C 17.65625 24.785156 17.46875 24.605469 17.339844 24.378906 C 17.167969 24.078125 16.929688 23.839844 16.65625 23.636719 C 16.347656 23.414062 16.027344 23.210938 15.714844 22.996094 C 15.316406 22.726562 15.019531 22.386719 14.921875 21.90625 C 14.902344 21.824219 14.898438 21.738281 14.894531 21.6875 C 14.910156 21.289062 14.976562 20.9375 15.203125 20.640625 C 15.277344 20.550781 15.375 20.476562 15.472656 20.402344 C 15.5 20.378906 15.554688 20.378906 15.589844 20.390625 C 16.203125 20.609375 16.832031 20.746094 17.476562 20.8125 C 17.898438 20.855469 18.320312 20.871094 18.742188 20.851562 C 19.390625 20.820312 20.023438 20.6875 20.636719 20.480469 C 20.707031 20.457031 20.785156 20.441406 20.847656 20.40625 C 20.945312 20.355469 21.019531 20.386719 21.097656 20.441406 C 21.316406 20.601562 21.457031 20.816406 21.53125 21.074219 Z M 21.53125 21.074219 " fill-opacity="1" fill-rule="nonzero"/><path fill="#ff6600" d="M 14.816406 9.203125 C 14.878906 9.28125 14.859375 9.351562 14.828125 9.4375 C 14.582031 10.050781 14.328125 10.660156 14.105469 11.28125 C 13.847656 12.011719 13.648438 12.761719 13.539062 13.53125 C 13.496094 13.820312 13.46875 14.113281 13.453125 14.40625 C 13.402344 15.261719 13.492188 16.105469 13.699219 16.933594 C 13.914062 17.800781 14.269531 18.601562 14.828125 19.304688 C 14.832031 19.3125 14.835938 19.320312 14.855469 19.351562 C 14.691406 19.296875 14.546875 19.25 14.40625 19.195312 C 13.652344 18.902344 13.011719 18.449219 12.480469 17.84375 C 11.574219 16.824219 11.023438 15.628906 10.753906 14.296875 C 10.667969 13.871094 10.609375 13.441406 10.597656 13.003906 C 10.589844 12.617188 10.574219 12.230469 10.585938 11.84375 C 10.605469 11.179688 10.65625 10.515625 10.824219 9.867188 C 10.9375 9.4375 11.046875 9.007812 11.128906 8.574219 C 11.273438 7.808594 11.25 7.046875 11.027344 6.292969 C 10.917969 5.917969 10.75 5.566406 10.488281 5.269531 C 10.476562 5.253906 10.46875 5.238281 10.457031 5.222656 C 10.460938 5.214844 10.464844 5.203125 10.46875 5.195312 C 10.695312 5.269531 10.921875 5.328125 11.140625 5.417969 C 11.679688 5.636719 12.148438 5.96875 12.582031 6.355469 C 13.441406 7.125 14.121094 8.039062 14.710938 9.023438 C 14.746094 9.085938 14.773438 9.148438 14.816406 9.203125 Z M 14.816406 9.203125 " fill-opacity="1" fill-rule="nonzero"/><path fill="#057501" d="M 14.542969 20.039062 C 14.46875 20.136719 14.390625 20.230469 14.328125 20.328125 C 14.222656 20.484375 14.125 20.648438 14.03125 20.8125 C 13.949219 20.960938 13.902344 21.125 13.917969 21.300781 C 13.945312 21.609375 13.976562 21.917969 14.007812 22.230469 C 14.015625 22.296875 14.035156 22.359375 14.054688 22.421875 C 14.074219 22.472656 14.058594 22.503906 14.007812 22.511719 C 13.785156 22.558594 13.5625 22.628906 13.335938 22.640625 C 12.382812 22.695312 11.53125 22.394531 10.761719 21.847656 C 10.523438 21.679688 10.296875 21.488281 10.050781 21.332031 C 9.6875 21.097656 9.285156 20.960938 8.851562 20.914062 C 8.660156 20.894531 8.46875 20.914062 8.28125 20.96875 C 8.257812 20.976562 8.230469 20.984375 8.1875 20.996094 C 8.207031 20.9375 8.226562 20.890625 8.246094 20.84375 C 8.394531 20.519531 8.632812 20.261719 8.902344 20.03125 C 9.195312 19.78125 9.519531 19.578125 9.867188 19.410156 C 9.910156 19.390625 9.964844 19.382812 10.011719 19.390625 C 10.253906 19.4375 10.496094 19.496094 10.738281 19.535156 C 10.855469 19.550781 10.980469 19.535156 11.101562 19.523438 C 11.558594 19.488281 12.003906 19.382812 12.4375 19.230469 C 12.46875 19.21875 12.519531 19.230469 12.550781 19.246094 C 13.019531 19.507812 13.503906 19.734375 14.019531 19.894531 C 14.1875 19.945312 14.359375 19.988281 14.542969 20.039062 Z M 14.542969 20.039062 " fill-opacity="1" fill-rule="nonzero"/><path fill="#ff6600" d="M 11.671875 18.375 C 11.601562 18.394531 11.542969 18.417969 11.480469 18.433594 C 10.761719 18.617188 10.066406 18.542969 9.394531 18.230469 C 8.820312 17.960938 8.34375 17.5625 7.921875 17.09375 C 7.527344 16.65625 7.183594 16.179688 6.890625 15.667969 C 6.433594 14.863281 6.125 14.007812 6.011719 13.089844 C 5.972656 12.773438 5.960938 12.457031 5.945312 12.140625 C 5.925781 11.675781 5.925781 11.210938 5.898438 10.75 C 5.832031 9.789062 5.695312 8.84375 5.421875 7.914062 C 5.234375 7.265625 4.984375 6.640625 4.617188 6.070312 C 4.539062 5.949219 4.453125 5.832031 4.355469 5.691406 C 4.519531 5.703125 4.660156 5.703125 4.796875 5.71875 C 5.253906 5.761719 5.695312 5.863281 6.125 6.019531 C 6.628906 6.203125 7.097656 6.453125 7.539062 6.753906 C 8.015625 7.070312 8.449219 7.433594 8.847656 7.839844 C 9.226562 8.230469 9.574219 8.648438 9.882812 9.097656 C 9.902344 9.132812 9.914062 9.183594 9.90625 9.222656 C 9.839844 9.683594 9.765625 10.140625 9.707031 10.605469 C 9.664062 10.90625 9.636719 11.214844 9.621094 11.519531 C 9.605469 11.8125 9.597656 12.105469 9.609375 12.394531 C 9.652344 13.734375 9.867188 15.039062 10.367188 16.289062 C 10.628906 16.941406 10.96875 17.550781 11.421875 18.09375 C 11.5 18.1875 11.582031 18.273438 11.671875 18.375 Z M 11.671875 18.375 " fill-opacity="1" fill-rule="nonzero"/><g fill="#000000" fill-opacity="1"><g transform="translate(39.741288, 13.374726)"><g><path d="M 0.140625 1.625 L 0.1875 1.46875 C 0.5625 1.195312 0.84375 0.925781 1.03125 0.65625 C 1.21875 0.394531 1.347656 0.0820312 1.421875 -0.28125 C 1.503906 -0.65625 1.546875 -1.148438 1.546875 -1.765625 L 1.5625 -7.53125 C 1.5625 -7.832031 1.523438 -8.03125 1.453125 -8.125 C 1.390625 -8.226562 1.257812 -8.28125 1.0625 -8.28125 C 0.945312 -8.28125 0.828125 -8.269531 0.703125 -8.25 C 0.585938 -8.238281 0.503906 -8.234375 0.453125 -8.234375 L 0.390625 -8.359375 L 0.484375 -9.203125 L 2.25 -9.203125 C 2.644531 -9.203125 3.066406 -9.21875 3.515625 -9.25 C 3.960938 -9.28125 4.253906 -9.300781 4.390625 -9.3125 L 4.3125 -8.359375 C 4 -8.304688 3.796875 -8.234375 3.703125 -8.140625 C 3.617188 -8.046875 3.566406 -7.859375 3.546875 -7.578125 C 3.515625 -6.929688 3.476562 -5.941406 3.4375 -4.609375 C 3.394531 -3.273438 3.367188 -2.226562 3.359375 -1.46875 C 3.359375 -0.519531 3.132812 0.242188 2.6875 0.828125 C 2.238281 1.410156 1.523438 1.863281 0.546875 2.1875 Z M 0.140625 1.625 "/></g></g></g><g fill="#000000" fill-opacity="1"><g transform="translate(44.496314, 13.374726)"><g><path d="M 3.484375 0.171875 C 2.878906 0.171875 2.347656 0.0351562 1.890625 -0.234375 C 1.429688 -0.503906 1.078125 -0.890625 0.828125 -1.390625 C 0.578125 -1.890625 0.453125 -2.460938 0.453125 -3.109375 C 0.453125 -3.828125 0.597656 -4.460938 0.890625 -5.015625 C 1.179688 -5.566406 1.585938 -6 2.109375 -6.3125 C 2.628906 -6.625 3.226562 -6.78125 3.90625 -6.78125 C 4.832031 -6.78125 5.566406 -6.484375 6.109375 -5.890625 C 6.648438 -5.304688 6.921875 -4.515625 6.921875 -3.515625 C 6.921875 -2.796875 6.773438 -2.15625 6.484375 -1.59375 C 6.203125 -1.039062 5.800781 -0.609375 5.28125 -0.296875 C 4.757812 0.015625 4.160156 0.171875 3.484375 0.171875 Z M 3.765625 -0.90625 C 4.179688 -0.90625 4.492188 -1.066406 4.703125 -1.390625 C 4.921875 -1.722656 5.03125 -2.207031 5.03125 -2.84375 C 5.03125 -3.75 4.90625 -4.429688 4.65625 -4.890625 C 4.40625 -5.347656 4.046875 -5.578125 3.578125 -5.578125 C 3.171875 -5.578125 2.859375 -5.410156 2.640625 -5.078125 C 2.429688 -4.742188 2.328125 -4.257812 2.328125 -3.625 C 2.328125 -2.726562 2.445312 -2.050781 2.6875 -1.59375 C 2.9375 -1.132812 3.296875 -0.90625 3.765625 -0.90625 Z M 3.765625 -0.90625 "/></g></g></g><g fill="#000000" fill-opacity="1"><g transform="translate(51.88665, 13.374726)"><g><path d="M 7.03125 -5.953125 C 6.53125 -5.910156 6.175781 -5.882812 5.96875 -5.875 L 5.921875 -5.78125 C 6.296875 -5.375 6.484375 -4.90625 6.484375 -4.375 C 6.484375 -3.894531 6.347656 -3.457031 6.078125 -3.0625 C 5.816406 -2.675781 5.453125 -2.367188 4.984375 -2.140625 C 4.515625 -1.921875 3.988281 -1.8125 3.40625 -1.8125 C 3.09375 -1.8125 2.785156 -1.851562 2.484375 -1.9375 C 2.359375 -1.832031 2.269531 -1.742188 2.21875 -1.671875 C 2.164062 -1.597656 2.140625 -1.523438 2.140625 -1.453125 C 2.140625 -1.265625 2.273438 -1.132812 2.546875 -1.0625 C 2.828125 -0.988281 3.269531 -0.914062 3.875 -0.84375 C 4.507812 -0.78125 5.03125 -0.703125 5.4375 -0.609375 C 5.851562 -0.523438 6.210938 -0.367188 6.515625 -0.140625 C 6.816406 0.078125 6.96875 0.390625 6.96875 0.796875 C 6.96875 1.242188 6.785156 1.671875 6.421875 2.078125 C 6.054688 2.492188 5.582031 2.828125 5 3.078125 C 4.414062 3.335938 3.804688 3.46875 3.171875 3.46875 C 2.398438 3.46875 1.785156 3.28125 1.328125 2.90625 C 0.867188 2.539062 0.640625 2.054688 0.640625 1.453125 C 0.890625 1.191406 1.367188 0.84375 2.078125 0.40625 L 2.078125 0.296875 C 1.617188 0.222656 1.257812 0.0625 1 -0.1875 C 0.75 -0.445312 0.617188 -0.769531 0.609375 -1.15625 C 0.953125 -1.507812 1.34375 -1.832031 1.78125 -2.125 L 1.78125 -2.203125 C 1.4375 -2.398438 1.164062 -2.664062 0.96875 -3 C 0.78125 -3.34375 0.6875 -3.722656 0.6875 -4.140625 C 0.6875 -4.640625 0.816406 -5.09375 1.078125 -5.5 C 1.335938 -5.90625 1.691406 -6.222656 2.140625 -6.453125 C 2.585938 -6.679688 3.09375 -6.796875 3.65625 -6.796875 C 3.894531 -6.796875 4.175781 -6.765625 4.5 -6.703125 C 4.800781 -6.660156 5.007812 -6.640625 5.125 -6.640625 C 5.46875 -6.660156 6.140625 -6.820312 7.140625 -7.125 L 7.21875 -7.0625 Z M 3.671875 -2.765625 C 4.015625 -2.765625 4.28125 -2.882812 4.46875 -3.125 C 4.65625 -3.363281 4.75 -3.707031 4.75 -4.15625 C 4.75 -4.632812 4.640625 -5.015625 4.421875 -5.296875 C 4.203125 -5.585938 3.898438 -5.734375 3.515625 -5.734375 C 3.179688 -5.734375 2.921875 -5.613281 2.734375 -5.375 C 2.546875 -5.144531 2.453125 -4.796875 2.453125 -4.328125 C 2.453125 -3.859375 2.554688 -3.476562 2.765625 -3.1875 C 2.984375 -2.90625 3.285156 -2.765625 3.671875 -2.765625 Z M 2.96875 0.484375 C 2.789062 0.628906 2.65625 0.789062 2.5625 0.96875 C 2.46875 1.15625 2.421875 1.335938 2.421875 1.515625 C 2.421875 1.796875 2.53125 2.015625 2.75 2.171875 C 2.976562 2.328125 3.300781 2.40625 3.71875 2.40625 C 4.175781 2.40625 4.566406 2.300781 4.890625 2.09375 C 5.210938 1.894531 5.375 1.644531 5.375 1.34375 C 5.375 1.195312 5.316406 1.078125 5.203125 0.984375 C 5.085938 0.890625 4.863281 0.804688 4.53125 0.734375 C 4.207031 0.660156 3.6875 0.578125 2.96875 0.484375 Z M 2.96875 0.484375 "/></g></g></g><g fill="#000000" fill-opacity="1"><g transform="translate(59.191058, 13.374726)"><g><path d="M 5.46875 0.171875 C 5.050781 0.171875 4.71875 0.078125 4.46875 -0.109375 C 4.226562 -0.296875 4.085938 -0.570312 4.046875 -0.9375 L 3.921875 -0.96875 C 3.617188 -0.65625 3.320312 -0.394531 3.03125 -0.1875 C 2.75 0.0078125 2.519531 0.109375 2.34375 0.109375 C 1.78125 0.109375 1.3125 -0.0859375 0.9375 -0.484375 C 0.570312 -0.878906 0.390625 -1.375 0.390625 -1.96875 C 0.390625 -2.257812 0.460938 -2.507812 0.609375 -2.71875 C 0.765625 -2.9375 0.96875 -3.082031 1.21875 -3.15625 L 3.984375 -3.796875 L 4 -4.140625 C 4 -4.546875 3.890625 -4.863281 3.671875 -5.09375 C 3.453125 -5.320312 3.148438 -5.4375 2.765625 -5.4375 C 2.503906 -5.4375 2.222656 -5.375 1.921875 -5.25 C 1.617188 -5.125 1.34375 -4.960938 1.09375 -4.765625 L 0.953125 -4.828125 L 0.71875 -5.6875 C 1.195312 -5.957031 1.695312 -6.207031 2.21875 -6.4375 C 2.75 -6.664062 3.125 -6.78125 3.34375 -6.78125 C 4.132812 -6.78125 4.726562 -6.597656 5.125 -6.234375 C 5.519531 -5.878906 5.71875 -5.410156 5.71875 -4.828125 C 5.71875 -4.617188 5.675781 -4.191406 5.59375 -3.546875 C 5.488281 -2.617188 5.4375 -2.0625 5.4375 -1.875 C 5.4375 -1.695312 5.484375 -1.554688 5.578125 -1.453125 C 5.671875 -1.347656 5.796875 -1.296875 5.953125 -1.296875 C 6.066406 -1.296875 6.1875 -1.320312 6.3125 -1.375 C 6.4375 -1.425781 6.546875 -1.476562 6.640625 -1.53125 L 6.84375 -1.234375 C 6.675781 -0.929688 6.460938 -0.632812 6.203125 -0.34375 C 5.953125 -0.0625 5.707031 0.109375 5.46875 0.171875 Z M 2.875 -1.25 C 3.019531 -1.25 3.191406 -1.285156 3.390625 -1.359375 C 3.585938 -1.429688 3.757812 -1.53125 3.90625 -1.65625 L 3.953125 -3.015625 L 2.421875 -2.59375 C 2.191406 -2.53125 2.078125 -2.375 2.078125 -2.125 C 2.078125 -1.875 2.148438 -1.664062 2.296875 -1.5 C 2.441406 -1.332031 2.632812 -1.25 2.875 -1.25 Z M 2.875 -1.25 "/></g></g></g><g fill="#000000" fill-opacity="1"><g transform="translate(66.108756, 13.374726)"><g><path d="M 0.625 -0.8125 C 0.914062 -0.832031 1.109375 -0.910156 1.203125 -1.046875 C 1.304688 -1.179688 1.359375 -1.4375 1.359375 -1.8125 L 1.359375 -4.65625 C 1.359375 -4.976562 1.316406 -5.195312 1.234375 -5.3125 C 1.148438 -5.4375 0.988281 -5.5 0.75 -5.5 L 0.46875 -5.484375 L 0.40625 -5.59375 L 0.484375 -6.296875 C 0.992188 -6.390625 1.515625 -6.488281 2.046875 -6.59375 C 2.578125 -6.695312 2.914062 -6.765625 3.0625 -6.796875 L 3.1875 -6.65625 C 3.175781 -6.570312 3.148438 -6.390625 3.109375 -6.109375 C 3.078125 -5.835938 3.054688 -5.570312 3.046875 -5.3125 L 3.140625 -5.265625 C 3.429688 -5.710938 3.753906 -6.054688 4.109375 -6.296875 C 4.472656 -6.546875 4.816406 -6.671875 5.140625 -6.671875 C 5.273438 -6.671875 5.382812 -6.664062 5.46875 -6.65625 C 5.5625 -6.644531 5.617188 -6.640625 5.640625 -6.640625 L 5.703125 -6.515625 C 5.671875 -6.359375 5.617188 -6.007812 5.546875 -5.46875 C 5.484375 -4.925781 5.441406 -4.410156 5.421875 -3.921875 L 4.5 -3.875 C 4.5 -4.332031 4.472656 -4.632812 4.421875 -4.78125 C 4.367188 -4.925781 4.257812 -5 4.09375 -5 C 3.945312 -5 3.785156 -4.941406 3.609375 -4.828125 C 3.441406 -4.710938 3.28125 -4.554688 3.125 -4.359375 C 3.113281 -4.085938 3.09375 -3.648438 3.0625 -3.046875 C 3.03125 -2.441406 3.007812 -1.957031 3 -1.59375 C 3 -1.34375 3.035156 -1.171875 3.109375 -1.078125 C 3.191406 -0.984375 3.335938 -0.9375 3.546875 -0.9375 C 3.691406 -0.9375 3.835938 -0.9375 3.984375 -0.9375 C 4.128906 -0.945312 4.222656 -0.957031 4.265625 -0.96875 L 4.3125 -0.890625 L 4.15625 0.0625 C 4.019531 0.0507812 3.769531 0.0351562 3.40625 0.015625 C 3.050781 0.00390625 2.6875 0 2.3125 0 C 1.945312 0 1.582031 0.00390625 1.21875 0.015625 C 0.851562 0.0351562 0.617188 0.0507812 0.515625 0.0625 Z M 0.625 -0.8125 "/></g></g></g><g fill="#000000" fill-opacity="1"><g transform="translate(71.995254, 13.374726)"><g><path d="M 5.46875 0.171875 C 5.050781 0.171875 4.71875 0.078125 4.46875 -0.109375 C 4.226562 -0.296875 4.085938 -0.570312 4.046875 -0.9375 L 3.921875 -0.96875 C 3.617188 -0.65625 3.320312 -0.394531 3.03125 -0.1875 C 2.75 0.0078125 2.519531 0.109375 2.34375 0.109375 C 1.78125 0.109375 1.3125 -0.0859375 0.9375 -0.484375 C 0.570312 -0.878906 0.390625 -1.375 0.390625 -1.96875 C 0.390625 -2.257812 0.460938 -2.507812 0.609375 -2.71875 C 0.765625 -2.9375 0.96875 -3.082031 1.21875 -3.15625 L 3.984375 -3.796875 L 4 -4.140625 C 4 -4.546875 3.890625 -4.863281 3.671875 -5.09375 C 3.453125 -5.320312 3.148438 -5.4375 2.765625 -5.4375 C 2.503906 -5.4375 2.222656 -5.375 1.921875 -5.25 C 1.617188 -5.125 1.34375 -4.960938 1.09375 -4.765625 L 0.953125 -4.828125 L 0.71875 -5.6875 C 1.195312 -5.957031 1.695312 -6.207031 2.21875 -6.4375 C 2.75 -6.664062 3.125 -6.78125 3.34375 -6.78125 C 4.132812 -6.78125 4.726562 -6.597656 5.125 -6.234375 C 5.519531 -5.878906 5.71875 -5.410156 5.71875 -4.828125 C 5.71875 -4.617188 5.675781 -4.191406 5.59375 -3.546875 C 5.488281 -2.617188 5.4375 -2.0625 5.4375 -1.875 C 5.4375 -1.695312 5.484375 -1.554688 5.578125 -1.453125 C 5.671875 -1.347656 5.796875 -1.296875 5.953125 -1.296875 C 6.066406 -1.296875 6.1875 -1.320312 6.3125 -1.375 C 6.4375 -1.425781 6.546875 -1.476562 6.640625 -1.53125 L 6.84375 -1.234375 C 6.675781 -0.929688 6.460938 -0.632812 6.203125 -0.34375 C 5.953125 -0.0625 5.707031 0.109375 5.46875 0.171875 Z M 2.875 -1.25 C 3.019531 -1.25 3.191406 -1.285156 3.390625 -1.359375 C 3.585938 -1.429688 3.757812 -1.53125 3.90625 -1.65625 L 3.953125 -3.015625 L 2.421875 -2.59375 C 2.191406 -2.53125 2.078125 -2.375 2.078125 -2.125 C 2.078125 -1.875 2.148438 -1.664062 2.296875 -1.5 C 2.441406 -1.332031 2.632812 -1.25 2.875 -1.25 Z M 2.875 -1.25 "/></g></g></g><g fill="#000000" fill-opacity="1"><g transform="translate(78.912952, 13.374726)"><g><path d="M 4.578125 -0.78125 C 4.804688 -0.820312 4.96875 -0.90625 5.0625 -1.03125 C 5.164062 -1.15625 5.222656 -1.335938 5.234375 -1.578125 L 5.265625 -4.0625 C 5.265625 -4.476562 5.1875 -4.785156 5.03125 -4.984375 C 4.882812 -5.191406 4.65625 -5.296875 4.34375 -5.296875 C 3.976562 -5.296875 3.554688 -5.113281 3.078125 -4.75 C 2.984375 -3.03125 2.9375 -1.957031 2.9375 -1.53125 C 2.9375 -1.28125 2.96875 -1.109375 3.03125 -1.015625 C 3.09375 -0.929688 3.203125 -0.890625 3.359375 -0.890625 L 3.75 -0.90625 L 3.78125 -0.84375 L 3.640625 0.046875 C 3.535156 0.0351562 3.335938 0.0234375 3.046875 0.015625 C 2.753906 0.00390625 2.453125 0 2.140625 0 C 1.742188 0 1.382812 0.00390625 1.0625 0.015625 C 0.75 0.0234375 0.539062 0.0351562 0.4375 0.046875 L 0.5625 -0.828125 C 0.832031 -0.847656 1.019531 -0.914062 1.125 -1.03125 C 1.238281 -1.144531 1.296875 -1.335938 1.296875 -1.609375 L 1.296875 -4.640625 C 1.296875 -4.972656 1.242188 -5.195312 1.140625 -5.3125 C 1.046875 -5.4375 0.867188 -5.5 0.609375 -5.5 L 0.421875 -5.5 L 0.359375 -5.578125 L 0.4375 -6.3125 C 0.96875 -6.394531 1.5 -6.488281 2.03125 -6.59375 C 2.570312 -6.695312 2.914062 -6.765625 3.0625 -6.796875 L 3.1875 -6.640625 C 3.164062 -6.585938 3.132812 -6.457031 3.09375 -6.25 C 3.050781 -6.050781 3.023438 -5.851562 3.015625 -5.65625 L 3.0625 -5.609375 C 3.394531 -5.878906 3.75 -6.140625 4.125 -6.390625 C 4.507812 -6.648438 4.78125 -6.78125 4.9375 -6.78125 C 5.476562 -6.78125 5.914062 -6.675781 6.25 -6.46875 C 6.59375 -6.269531 6.832031 -5.976562 6.96875 -5.59375 C 7.226562 -5.832031 7.566406 -6.085938 7.984375 -6.359375 C 8.398438 -6.640625 8.695312 -6.78125 8.875 -6.78125 C 9.550781 -6.78125 10.078125 -6.613281 10.453125 -6.28125 C 10.835938 -5.957031 11.03125 -5.503906 11.03125 -4.921875 C 11.03125 -4.691406 10.988281 -4.191406 10.90625 -3.421875 C 10.8125 -2.453125 10.765625 -1.828125 10.765625 -1.546875 C 10.765625 -1.296875 10.796875 -1.117188 10.859375 -1.015625 C 10.929688 -0.910156 11.050781 -0.859375 11.21875 -0.859375 C 11.300781 -0.859375 11.390625 -0.863281 11.484375 -0.875 C 11.578125 -0.882812 11.632812 -0.890625 11.65625 -0.890625 L 11.6875 -0.828125 L 11.546875 0.046875 C 11.429688 0.0351562 11.21875 0.0234375 10.90625 0.015625 C 10.601562 0.00390625 10.296875 0 9.984375 0 C 9.753906 0 9.460938 0.0078125 9.109375 0.03125 C 8.765625 0.0507812 8.539062 0.0664062 8.4375 0.078125 L 8.546875 -0.8125 C 8.765625 -0.84375 8.914062 -0.914062 9 -1.03125 C 9.09375 -1.144531 9.144531 -1.328125 9.15625 -1.578125 L 9.203125 -4.0625 C 9.210938 -4.882812 8.898438 -5.296875 8.265625 -5.296875 C 7.898438 -5.296875 7.488281 -5.117188 7.03125 -4.765625 L 6.84375 -1.546875 C 6.84375 -1.296875 6.878906 -1.117188 6.953125 -1.015625 C 7.023438 -0.910156 7.140625 -0.859375 7.296875 -0.859375 C 7.378906 -0.859375 7.457031 -0.863281 7.53125 -0.875 C 7.613281 -0.882812 7.664062 -0.890625 7.6875 -0.890625 L 7.71875 -0.828125 L 7.578125 0.046875 C 7.472656 0.0351562 7.269531 0.0234375 6.96875 0.015625 C 6.675781 0.00390625 6.378906 0 6.078125 0 C 5.847656 0 5.550781 0.015625 5.1875 0.046875 C 4.820312 0.078125 4.582031 0.0976562 4.46875 0.109375 Z M 4.578125 -0.78125 "/></g></g></g><g fill="#000000" fill-opacity="1"><g transform="translate(48.930521, 33.067937)"><g/></g></g><g fill="#000000" fill-opacity="1"><g transform="translate(51.420146, 33.067937)"><g><path d="M 0.703125 -0.828125 C 1.097656 -0.898438 1.359375 -1.015625 1.484375 -1.171875 C 1.617188 -1.335938 1.6875 -1.625 1.6875 -2.03125 L 1.6875 -7.515625 C 1.6875 -7.816406 1.65625 -8.019531 1.59375 -8.125 C 1.53125 -8.226562 1.410156 -8.28125 1.234375 -8.28125 C 1.128906 -8.28125 1.023438 -8.273438 0.921875 -8.265625 C 0.828125 -8.253906 0.769531 -8.25 0.75 -8.25 L 0.65625 -8.375 L 0.78125 -9.21875 L 2.578125 -9.203125 C 2.941406 -9.203125 3.34375 -9.207031 3.78125 -9.21875 C 4.226562 -9.226562 4.546875 -9.238281 4.734375 -9.25 C 5.953125 -9.25 6.828125 -8.988281 7.359375 -8.46875 C 7.898438 -7.957031 8.171875 -7.304688 8.171875 -6.515625 C 8.171875 -5.953125 8.007812 -5.421875 7.6875 -4.921875 C 7.363281 -4.421875 6.9375 -4.019531 6.40625 -3.71875 C 5.882812 -3.414062 5.332031 -3.265625 4.75 -3.265625 L 3.546875 -3.265625 L 3.515625 -2.171875 C 3.515625 -1.804688 3.53125 -1.535156 3.5625 -1.359375 C 3.59375 -1.191406 3.65625 -1.078125 3.75 -1.015625 C 3.84375 -0.953125 3.988281 -0.921875 4.1875 -0.921875 C 4.320312 -0.921875 4.445312 -0.925781 4.5625 -0.9375 C 4.6875 -0.945312 4.773438 -0.953125 4.828125 -0.953125 L 4.875 -0.875 L 4.75 0.046875 C 4.613281 0.046875 4.363281 0.0351562 4 0.015625 C 3.644531 0.00390625 3.300781 0 2.96875 0 C 2.644531 0 2.210938 0.015625 1.671875 0.046875 C 1.128906 0.078125 0.769531 0.0976562 0.59375 0.109375 Z M 4.84375 -4.34375 C 5.726562 -4.53125 6.171875 -5.179688 6.171875 -6.296875 C 6.171875 -6.910156 6 -7.359375 5.65625 -7.640625 C 5.3125 -7.921875 4.769531 -8.0625 4.03125 -8.0625 C 3.894531 -8.0625 3.804688 -8.050781 3.765625 -8.03125 C 3.734375 -8.007812 3.71875 -7.941406 3.71875 -7.828125 C 3.65625 -6.960938 3.601562 -5.863281 3.5625 -4.53125 Z M 4.84375 -4.34375 "/></g></g></g><g fill="#000000" fill-opacity="1"><g transform="translate(59.669828, 33.067937)"><g><path d="M 5.46875 0.171875 C 5.050781 0.171875 4.71875 0.078125 4.46875 -0.109375 C 4.226562 -0.296875 4.085938 -0.570312 4.046875 -0.9375 L 3.921875 -0.96875 C 3.617188 -0.65625 3.320312 -0.394531 3.03125 -0.1875 C 2.75 0.0078125 2.519531 0.109375 2.34375 0.109375 C 1.78125 0.109375 1.3125 -0.0859375 0.9375 -0.484375 C 0.570312 -0.878906 0.390625 -1.375 0.390625 -1.96875 C 0.390625 -2.257812 0.460938 -2.507812 0.609375 -2.71875 C 0.765625 -2.9375 0.96875 -3.082031 1.21875 -3.15625 L 3.984375 -3.796875 L 4 -4.140625 C 4 -4.546875 3.890625 -4.863281 3.671875 -5.09375 C 3.453125 -5.320312 3.148438 -5.4375 2.765625 -5.4375 C 2.503906 -5.4375 2.222656 -5.375 1.921875 -5.25 C 1.617188 -5.125 1.34375 -4.960938 1.09375 -4.765625 L 0.953125 -4.828125 L 0.71875 -5.6875 C 1.195312 -5.957031 1.695312 -6.207031 2.21875 -6.4375 C 2.75 -6.664062 3.125 -6.78125 3.34375 -6.78125 C 4.132812 -6.78125 4.726562 -6.597656 5.125 -6.234375 C 5.519531 -5.878906 5.71875 -5.410156 5.71875 -4.828125 C 5.71875 -4.617188 5.675781 -4.191406 5.59375 -3.546875 C 5.488281 -2.617188 5.4375 -2.0625 5.4375 -1.875 C 5.4375 -1.695312 5.484375 -1.554688 5.578125 -1.453125 C 5.671875 -1.347656 5.796875 -1.296875 5.953125 -1.296875 C 6.066406 -1.296875 6.1875 -1.320312 6.3125 -1.375 C 6.4375 -1.425781 6.546875 -1.476562 6.640625 -1.53125 L 6.84375 -1.234375 C 6.675781 -0.929688 6.460938 -0.632812 6.203125 -0.34375 C 5.953125 -0.0625 5.707031 0.109375 5.46875 0.171875 Z M 2.875 -1.25 C 3.019531 -1.25 3.191406 -1.285156 3.390625 -1.359375 C 3.585938 -1.429688 3.757812 -1.53125 3.90625 -1.65625 L 3.953125 -3.015625 L 2.421875 -2.59375 C 2.191406 -2.53125 2.078125 -2.375 2.078125 -2.125 C 2.078125 -1.875 2.148438 -1.664062 2.296875 -1.5 C 2.441406 -1.332031 2.632812 -1.25 2.875 -1.25 Z M 2.875 -1.25 "/></g></g></g><g fill="#000000" fill-opacity="1"><g transform="translate(66.587526, 33.067937)"><g><path d="M 2.953125 0.171875 C 2.273438 0.171875 1.773438 0.03125 1.453125 -0.25 C 1.140625 -0.53125 0.984375 -0.976562 0.984375 -1.59375 L 0.984375 -4.78125 C 0.984375 -5.09375 0.929688 -5.296875 0.828125 -5.390625 C 0.722656 -5.492188 0.519531 -5.550781 0.21875 -5.5625 L 0.078125 -5.65625 L 0.171875 -6.359375 C 0.535156 -6.535156 0.894531 -6.734375 1.25 -6.953125 C 1.601562 -7.179688 1.894531 -7.378906 2.125 -7.546875 C 2.363281 -7.722656 2.507812 -7.832031 2.5625 -7.875 L 2.96875 -7.6875 C 2.957031 -7.625 2.929688 -7.484375 2.890625 -7.265625 C 2.859375 -7.046875 2.832031 -6.773438 2.8125 -6.453125 L 4.5 -6.484375 L 4.5625 -6.421875 L 4.40625 -5.453125 L 2.71875 -5.5 C 2.664062 -4.664062 2.640625 -3.625 2.640625 -2.375 C 2.640625 -1.96875 2.707031 -1.671875 2.84375 -1.484375 C 2.988281 -1.304688 3.222656 -1.21875 3.546875 -1.21875 C 3.722656 -1.21875 3.898438 -1.242188 4.078125 -1.296875 C 4.253906 -1.359375 4.363281 -1.398438 4.40625 -1.421875 L 4.59375 -0.953125 C 4.539062 -0.898438 4.40625 -0.78125 4.1875 -0.59375 C 3.976562 -0.414062 3.75 -0.242188 3.5 -0.078125 C 3.257812 0.0859375 3.078125 0.171875 2.953125 0.171875 Z M 2.953125 0.171875 "/></g></g></g><g fill="#000000" fill-opacity="1"><g transform="translate(71.342552, 33.067937)"><g><path d="M 3.609375 0.171875 C 2.609375 0.171875 1.816406 -0.117188 1.234375 -0.703125 C 0.660156 -1.296875 0.375 -2.101562 0.375 -3.125 C 0.375 -3.8125 0.519531 -4.429688 0.8125 -4.984375 C 1.113281 -5.535156 1.519531 -5.972656 2.03125 -6.296875 C 2.550781 -6.617188 3.125 -6.78125 3.75 -6.78125 C 5.351562 -6.78125 6.15625 -5.96875 6.15625 -4.34375 C 6.15625 -4.050781 6.125 -3.785156 6.0625 -3.546875 L 5.890625 -3.359375 L 2.171875 -3.359375 C 2.179688 -2.671875 2.347656 -2.140625 2.671875 -1.765625 C 2.992188 -1.398438 3.441406 -1.21875 4.015625 -1.21875 C 4.503906 -1.21875 5.070312 -1.359375 5.71875 -1.640625 L 5.8125 -1.59375 L 6.046875 -0.890625 C 5.691406 -0.617188 5.28125 -0.375 4.8125 -0.15625 C 4.351562 0.0625 3.953125 0.171875 3.609375 0.171875 Z M 4.140625 -4.265625 C 4.253906 -4.273438 4.328125 -4.300781 4.359375 -4.34375 C 4.390625 -4.382812 4.40625 -4.46875 4.40625 -4.59375 C 4.40625 -5.300781 4.109375 -5.65625 3.515625 -5.65625 C 3.140625 -5.65625 2.832031 -5.523438 2.59375 -5.265625 C 2.363281 -5.015625 2.222656 -4.644531 2.171875 -4.15625 Z M 4.140625 -4.265625 "/></g></g></g><g fill="#000000" fill-opacity="1"><g transform="translate(77.959483, 33.067937)"><g><path d="M 0.328125 -0.75 C 0.546875 -0.789062 0.703125 -0.859375 0.796875 -0.953125 C 0.898438 -1.046875 0.96875 -1.160156 1 -1.296875 C 1.03125 -1.429688 1.046875 -1.640625 1.046875 -1.921875 L 1.046875 -8.5625 C 1.046875 -8.820312 1.023438 -9.003906 0.984375 -9.109375 C 0.941406 -9.222656 0.859375 -9.296875 0.734375 -9.328125 C 0.609375 -9.367188 0.398438 -9.378906 0.109375 -9.359375 L 0.0625 -9.40625 L 0.140625 -10.171875 C 1.296875 -10.328125 2.257812 -10.476562 3.03125 -10.625 L 3.140625 -10.359375 C 3.003906 -10.046875 2.894531 -9.070312 2.8125 -7.4375 C 2.726562 -5.800781 2.6875 -3.820312 2.6875 -1.5 C 2.6875 -1.257812 2.71875 -1.09375 2.78125 -1 C 2.851562 -0.90625 2.96875 -0.859375 3.125 -0.859375 L 3.59375 -0.890625 L 3.640625 -0.796875 L 3.484375 0.046875 L 3.015625 0.03125 C 2.472656 0.0078125 2.085938 0 1.859375 0 C 1.492188 0 0.953125 0.0390625 0.234375 0.125 Z M 0.328125 -0.75 "/></g></g></g></svg>