<svg xmlns="http://www.w3.org/2000/svg" xmlns:xlink="http://www.w3.org/1999/xlink" width="140" zoomAndPan="magnify" viewBox="0 0 104.88 37.5" height="50" preserveAspectRatio="xMidYMid meet" version="1.0"><defs><g/><clipPath id="id1"><path d="M 20 12 L 24.664062 12 L 24.664062 22 L 20 22 Z M 20 12 " clip-rule="nonzero"/></clipPath><clipPath id="id2"><path d="M 13 12 L 24.664062 12 L 24.664062 25 L 13 25 Z M 13 12 " clip-rule="nonzero"/></clipPath><clipPath id="id3"><path d="M 6.898438 2 L 21 2 L 21 32 L 6.898438 32 Z M 6.898438 2 " clip-rule="nonzero"/></clipPath></defs><g fill="#000000" fill-opacity="1"><g transform="translate(32.607965, 13.618421)"><g><path d="M 4.832031 -4.878906 L 1.492188 -8.597656 L 0.949219 -8.597656 L 0.949219 0 L 2.664062 0 L 2.664062 -4.726562 L 4.832031 -2.453125 L 7 -4.726562 L 6.988281 0 L 8.703125 0 L 8.703125 -8.597656 L 8.171875 -8.597656 Z M 4.832031 -4.878906 "/></g></g></g><g fill="#000000" fill-opacity="1"><g transform="translate(42.271145, 13.618421)"><g><path d="M 0.191406 0 L 2.109375 0 L 2.441406 -0.910156 L 5.246094 -0.910156 L 5.589844 0 L 7.496094 0 L 3.929688 -8.773438 L 3.753906 -8.773438 Z M 3.054688 -2.5 L 3.847656 -4.703125 L 4.617188 -2.5 Z M 3.054688 -2.5 "/></g></g></g><g fill="#000000" fill-opacity="1"><g transform="translate(50.004061, 13.618421)"><g><path d="M 6.867188 0 L 6.867188 -8.46875 L 5.175781 -8.46875 L 5.175781 -5.082031 L 2.640625 -5.082031 L 2.640625 -8.46875 L 0.949219 -8.46875 L 0.949219 0 L 2.640625 0 L 2.640625 -3.386719 L 5.175781 -3.386719 L 5.175781 0 Z M 6.867188 0 "/></g></g></g><g fill="#000000" fill-opacity="1"><g transform="translate(57.831706, 13.618421)"><g><path d="M 5.328125 0 L 5.328125 -1.695312 L 2.640625 -1.695312 L 2.640625 -3.386719 L 4.867188 -3.386719 L 4.867188 -5.082031 L 2.640625 -5.082031 L 2.640625 -6.773438 L 5.1875 -6.773438 L 5.1875 -8.46875 L 0.949219 -8.46875 L 0.949219 0 Z M 5.328125 0 "/></g></g></g><g fill="#000000" fill-opacity="1"><g transform="translate(63.800135, 13.618421)"><g><path d="M 2.640625 -4.605469 L 6.925781 0.175781 L 7.378906 0.175781 L 7.378906 -8.457031 L 5.671875 -8.457031 L 5.671875 -3.671875 L 1.398438 -8.644531 L 0.949219 -8.644531 L 0.949219 0 L 2.640625 0 Z M 2.640625 -4.605469 "/></g></g></g><g fill="#000000" fill-opacity="1"><g transform="translate(72.136993, 13.618421)"><g><path d="M 3.46875 -8.46875 L 0.949219 -8.46875 L 0.949219 0 L 3.46875 0 C 9.105469 0 9.105469 -8.46875 3.46875 -8.46875 Z M 3.46875 -6.773438 C 6.761719 -6.773438 6.761719 -1.695312 3.46875 -1.695312 L 2.640625 -1.695312 L 2.640625 -6.773438 Z M 3.46875 -6.773438 "/></g></g></g><g fill="#000000" fill-opacity="1"><g transform="translate(80.473852, 13.618421)"><g><path d="M 5.164062 0 L 7.082031 0 L 5.117188 -3.492188 C 7.601562 -4.214844 7.304688 -8.46875 4.285156 -8.46875 L 0.949219 -8.46875 L 0.949219 0 L 2.640625 0 L 2.640625 -3.234375 L 3.457031 -3.234375 Z M 2.640625 -4.878906 L 2.640625 -6.773438 L 4.132812 -6.773438 C 5.28125 -6.773438 5.28125 -4.878906 4.132812 -4.878906 Z M 2.640625 -4.878906 "/></g></g></g><g fill="#000000" fill-opacity="1"><g transform="translate(87.733073, 13.618421)"><g><path d="M 0.191406 0 L 2.109375 0 L 2.441406 -0.910156 L 5.246094 -0.910156 L 5.589844 0 L 7.496094 0 L 3.929688 -8.773438 L 3.753906 -8.773438 Z M 3.054688 -2.5 L 3.847656 -4.703125 L 4.617188 -2.5 Z M 3.054688 -2.5 "/></g></g></g><g fill="#000000" fill-opacity="1"><g transform="translate(95.461324, 13.618421)"><g/></g></g><g fill="#000000" fill-opacity="1"><g transform="translate(38.852825, 29.901316)"><g><path d="M 0.949219 0 L 4.296875 0 C 5.671875 0 6.796875 -1.125 6.796875 -2.546875 C 6.796875 -3.210938 6.476562 -3.859375 5.921875 -4.238281 C 6.453125 -4.605469 6.679688 -5.269531 6.703125 -5.910156 C 6.738281 -7.402344 5.800781 -8.480469 4.296875 -8.480469 L 0.949219 -8.480469 Z M 2.652344 -6.785156 L 4.15625 -6.785156 C 4.640625 -6.785156 4.9375 -6.40625 4.9375 -5.933594 C 4.9375 -5.472656 4.640625 -5.082031 4.15625 -5.082031 L 2.652344 -5.082031 Z M 2.652344 -3.386719 L 4.15625 -3.386719 C 4.640625 -3.386719 5.007812 -3.019531 5.007812 -2.546875 C 5.007812 -2.074219 4.640625 -1.695312 4.15625 -1.695312 L 2.652344 -1.695312 Z M 2.652344 -3.386719 "/></g></g></g><g fill="#000000" fill-opacity="1"><g transform="translate(46.206787, 29.901316)"><g><path d="M 2.640625 0 L 2.640625 -8.46875 L 0.949219 -8.46875 L 0.949219 0 Z M 2.640625 0 "/></g></g></g><g fill="#000000" fill-opacity="1"><g transform="translate(49.806797, 29.901316)"><g><path d="M 0.554688 -0.542969 C 1.707031 0.046875 2.757812 0.105469 3.234375 0.0703125 C 4.820312 -0.0117188 5.789062 -1.089844 5.789062 -2.5 C 5.789062 -3.847656 4.652344 -4.605469 3.339844 -5.09375 C 2.855469 -5.257812 2.441406 -5.472656 2.390625 -5.945312 C 2.355469 -6.417969 2.628906 -6.855469 3.234375 -6.890625 C 3.492188 -6.902344 4.027344 -6.914062 4.960938 -6.535156 L 5.175781 -8.171875 C 4.085938 -8.550781 3.503906 -8.550781 3.066406 -8.527344 C 1.65625 -8.457031 0.675781 -7.367188 0.675781 -5.945312 C 0.675781 -4.523438 1.859375 -3.847656 3.183594 -3.363281 C 3.660156 -3.199219 4.027344 -2.984375 4.0625 -2.5 C 4.109375 -2.035156 3.683594 -1.679688 3.183594 -1.644531 C 2.792969 -1.609375 1.742188 -1.632812 0.769531 -2.320312 Z M 0.554688 -0.542969 "/></g></g></g><g fill="#000000" fill-opacity="1"><g transform="translate(56.071285, 29.901316)"><g><path d="M 6.867188 0 L 6.867188 -8.46875 L 5.175781 -8.46875 L 5.175781 -5.082031 L 2.640625 -5.082031 L 2.640625 -8.46875 L 0.949219 -8.46875 L 0.949219 0 L 2.640625 0 L 2.640625 -3.386719 L 5.175781 -3.386719 L 5.175781 0 Z M 6.867188 0 "/></g></g></g><g fill="#000000" fill-opacity="1"><g transform="translate(63.89893, 29.901316)"><g><path d="M 2.640625 -4.605469 L 6.925781 0.175781 L 7.378906 0.175781 L 7.378906 -8.457031 L 5.671875 -8.457031 L 5.671875 -3.671875 L 1.398438 -8.644531 L 0.949219 -8.644531 L 0.949219 0 L 2.640625 0 Z M 2.640625 -4.605469 "/></g></g></g><g fill="#000000" fill-opacity="1"><g transform="translate(72.235789, 29.901316)"><g><path d="M 5.019531 0.117188 C 10.847656 0.117188 10.847656 -8.609375 5.019531 -8.609375 C -0.804688 -8.609375 -0.804688 0.117188 5.019531 0.117188 Z M 5.019531 -1.632812 C 1.632812 -1.632812 1.632812 -6.867188 5.019531 -6.867188 C 8.40625 -6.867188 8.40625 -1.632812 5.019531 -1.632812 Z M 5.019531 -1.632812 "/></g></g></g><g fill="#000000" fill-opacity="1"><g transform="translate(82.266076, 29.901316)"><g><path d="M 2.640625 0 L 2.640625 -8.46875 L 0.949219 -8.46875 L 0.949219 0 Z M 2.640625 0 "/></g></g></g><g fill="#000000" fill-opacity="1"><g transform="translate(85.862743, 29.901316)"><g/></g></g><g clip-path="url(#id1)"><path fill="#000000" d="M 23.746094 12.925781 C 23.582031 12.777344 23.363281 12.703125 23.105469 12.683594 C 22.660156 12.65625 22.292969 12.832031 21.984375 13.136719 C 21.792969 13.324219 21.625 13.542969 21.460938 13.757812 C 21.421875 13.808594 21.382812 13.859375 21.347656 13.910156 L 20.828125 14.125 C 21.027344 13.792969 21.238281 13.460938 21.476562 13.160156 C 21.878906 12.648438 22.417969 12.394531 23.070312 12.398438 C 23.253906 12.402344 23.441406 12.394531 23.628906 12.402344 C 24.226562 12.429688 24.648438 12.835938 24.65625 13.449219 C 24.660156 13.8125 24.628906 14.183594 24.554688 14.539062 C 24.160156 16.414062 24.003906 18.324219 23.828125 20.226562 C 23.796875 20.554688 23.761719 20.882812 23.714844 21.203125 L 23.597656 21.1875 L 23.355469 21.273438 C 23.40625 20.835938 23.421875 20.390625 23.472656 19.949219 C 23.585938 18.996094 23.714844 18.039062 23.832031 17.085938 C 23.953125 16.121094 24.085938 15.160156 24.171875 14.195312 C 24.195312 13.921875 24.101562 13.625 24.015625 13.355469 C 23.957031 13.171875 23.867188 13.03125 23.746094 12.925781 Z M 23.746094 12.925781 " fill-opacity="1" fill-rule="nonzero"/></g><g clip-path="url(#id2)"><path fill="#fafcfa" d="M 24.015625 13.355469 C 24.101562 13.625 24.195312 13.921875 24.171875 14.195312 C 24.085938 15.160156 23.953125 16.121094 23.832031 17.085938 C 23.714844 18.039062 23.585938 18.996094 23.472656 19.949219 C 23.421875 20.390625 23.40625 20.835938 23.355469 21.273438 L 13.25 24.878906 C 13.460938 24.515625 13.675781 24.152344 13.875 23.78125 C 14.308594 22.96875 14.789062 22.183594 15.429688 21.527344 C 15.664062 21.285156 15.859375 20.984375 16.109375 20.753906 C 16.257812 20.613281 16.429688 20.496094 16.640625 20.429688 C 16.6875 20.417969 16.71875 20.371094 16.761719 20.347656 C 17.015625 20.195312 17.265625 20.035156 17.527344 19.894531 C 17.59375 19.863281 17.722656 19.863281 17.765625 19.90625 C 17.808594 19.949219 17.808594 20.078125 17.78125 20.152344 C 17.613281 20.65625 17.429688 21.160156 17.253906 21.664062 C 17.234375 21.714844 17.226562 21.773438 17.214844 21.828125 C 17.234375 21.835938 17.25 21.84375 17.265625 21.851562 C 17.316406 21.78125 17.371094 21.710938 17.410156 21.636719 C 17.621094 21.253906 17.824219 20.871094 18.03125 20.492188 C 18.09375 20.375 18.160156 20.203125 18.3125 20.28125 C 18.394531 20.324219 18.429688 20.492188 18.457031 20.609375 C 18.484375 20.726562 18.476562 20.851562 18.480469 20.972656 C 18.550781 20.933594 18.582031 20.886719 18.601562 20.839844 C 18.855469 20.292969 19.089844 19.734375 19.363281 19.195312 C 19.539062 18.84375 19.765625 18.511719 19.984375 18.179688 C 20.03125 18.113281 20.144531 18.058594 20.226562 18.0625 C 20.265625 18.0625 20.320312 18.191406 20.347656 18.269531 C 20.398438 18.425781 20.441406 18.589844 20.652344 18.578125 C 20.824219 18.566406 20.929688 18.421875 20.917969 18.191406 C 20.914062 18.085938 20.898438 17.980469 20.871094 17.878906 C 20.808594 17.636719 20.734375 17.394531 20.671875 17.148438 C 20.519531 16.535156 20.515625 15.925781 20.726562 15.320312 C 20.8125 15.070312 20.867188 14.808594 20.933594 14.550781 C 20.949219 14.507812 20.964844 14.457031 20.992188 14.417969 C 21.109375 14.25 21.226562 14.078125 21.347656 13.910156 L 23.75 12.925781 C 23.867188 13.03125 23.957031 13.171875 24.015625 13.355469 Z M 23.492188 15.007812 C 23.53125 14.949219 23.609375 14.886719 23.597656 14.839844 C 23.582031 14.765625 23.511719 14.699219 23.460938 14.632812 C 23.417969 14.671875 23.375 14.710938 23.304688 14.773438 C 23.382812 14.867188 23.4375 14.9375 23.492188 15.007812 Z M 23.492188 15.007812 " fill-opacity="1" fill-rule="nonzero"/></g><path fill="#f4870f" d="M 23.746094 12.925781 L 21.347656 13.910156 C 21.382812 13.859375 21.421875 13.808594 21.460938 13.757812 C 21.625 13.542969 21.792969 13.324219 21.984375 13.136719 C 22.292969 12.832031 22.660156 12.65625 23.105469 12.683594 C 23.363281 12.699219 23.582031 12.777344 23.746094 12.925781 Z M 23.746094 12.925781 " fill-opacity="1" fill-rule="nonzero"/><path fill="#000000" d="M 23.597656 21.1875 L 23.714844 21.203125 C 23.589844 22.070312 23.390625 22.921875 23.050781 23.730469 C 22.742188 24.464844 22.320312 25.148438 21.8125 25.765625 C 21.5 26.144531 21.207031 26.535156 20.90625 26.917969 C 20.851562 26.984375 20.785156 27.035156 20.730469 27.097656 C 20.222656 27.75 19.625 28.351562 19.421875 29.1875 C 19.324219 29.578125 19.367188 30 19.316406 30.402344 C 19.273438 30.726562 19.1875 31.050781 19.113281 31.371094 C 19.09375 31.457031 19.046875 31.542969 18.992188 31.609375 C 18.949219 31.664062 18.863281 31.730469 18.816406 31.71875 C 18.765625 31.707031 18.714844 31.613281 18.699219 31.542969 C 18.601562 31.148438 18.519531 30.75 18.421875 30.355469 C 18.355469 30.089844 18.253906 30.019531 17.988281 30.054688 C 17.804688 30.078125 17.679688 30.0625 17.582031 29.867188 C 17.484375 29.667969 17.269531 29.703125 17.082031 29.707031 C 17 29.707031 16.914062 29.71875 16.828125 29.726562 C 16.824219 29.710938 16.816406 29.691406 16.808594 29.671875 C 16.867188 29.632812 16.925781 29.589844 16.984375 29.558594 C 17.242188 29.425781 17.507812 29.296875 17.761719 29.15625 C 17.867188 29.097656 17.972656 29.019531 18.054688 28.929688 C 18.253906 28.710938 18.21875 28.570312 17.953125 28.46875 C 17.96875 28.453125 17.984375 28.433594 18 28.429688 C 18.730469 28.265625 19.230469 27.726562 19.785156 27.28125 C 20.796875 26.472656 21.679688 25.53125 22.285156 24.359375 C 22.757812 23.441406 23.179688 22.5 23.332031 21.460938 C 23.339844 21.398438 23.347656 21.335938 23.355469 21.273438 Z M 23.597656 21.1875 " fill-opacity="1" fill-rule="nonzero"/><path fill="#000000" d="M 23.597656 14.839844 C 23.609375 14.886719 23.53125 14.949219 23.492188 15.007812 C 23.4375 14.9375 23.382812 14.867188 23.304688 14.769531 C 23.375 14.707031 23.417969 14.671875 23.460938 14.632812 C 23.507812 14.699219 23.582031 14.765625 23.597656 14.839844 Z M 23.597656 14.839844 " fill-opacity="1" fill-rule="nonzero"/><path fill="#1ff708" d="M 13.25 24.878906 L 23.355469 21.273438 C 23.347656 21.335938 23.339844 21.398438 23.328125 21.460938 C 23.179688 22.5 22.757812 23.445312 22.285156 24.359375 C 21.679688 25.53125 20.796875 26.472656 19.785156 27.285156 C 19.230469 27.726562 18.730469 28.265625 18 28.429688 C 17.980469 28.433594 17.96875 28.453125 17.953125 28.46875 C 18.21875 28.574219 18.253906 28.710938 18.054688 28.929688 C 17.972656 29.019531 17.867188 29.097656 17.761719 29.15625 C 17.507812 29.296875 17.242188 29.425781 16.984375 29.558594 C 16.921875 29.59375 16.867188 29.636719 16.808594 29.671875 C 16.816406 29.691406 16.820312 29.710938 16.828125 29.726562 C 16.914062 29.722656 16.996094 29.707031 17.082031 29.707031 C 17.269531 29.703125 17.484375 29.667969 17.582031 29.867188 C 17.679688 30.0625 17.804688 30.078125 17.988281 30.054688 C 18.253906 30.019531 18.355469 30.09375 18.421875 30.355469 C 18.519531 30.75 18.601562 31.148438 18.699219 31.542969 C 14.746094 35.195312 8.867188 32.589844 8.867188 31.308594 C 9.058594 31.300781 9.054688 31.078125 9.082031 30.921875 C 9.175781 30.375 9.222656 29.820312 9.488281 29.316406 C 9.523438 29.25 9.519531 29.152344 9.503906 29.074219 C 9.425781 28.621094 9.429688 28.613281 9.863281 28.625 C 9.875 28.625 9.882812 28.613281 9.921875 28.589844 C 9.867188 28.527344 9.8125 28.464844 9.765625 28.402344 C 9.464844 28.027344 9.136719 27.671875 8.871094 27.273438 C 8.726562 27.050781 8.597656 26.820312 8.484375 26.582031 L 13.042969 24.957031 C 13.03125 25 13.023438 25.046875 13.015625 25.089844 C 13.035156 25.097656 13.054688 25.105469 13.074219 25.113281 C 13.105469 25.082031 13.148438 25.058594 13.167969 25.023438 C 13.195312 24.976562 13.222656 24.925781 13.25 24.878906 Z M 17.027344 28.667969 C 17.265625 28.429688 17.230469 28.273438 16.910156 28.183594 C 16.363281 28.027344 15.804688 28.054688 15.246094 28.085938 C 15.171875 28.089844 15.097656 28.136719 15.027344 28.167969 C 15.019531 28.191406 15.011719 28.214844 15.007812 28.242188 C 15.042969 28.261719 15.078125 28.285156 15.113281 28.308594 C 15.402344 28.484375 15.683594 28.679688 15.980469 28.839844 C 16.34375 29.035156 16.730469 28.960938 17.027344 28.667969 Z M 13.703125 27.996094 C 13.753906 27.933594 13.8125 27.800781 13.789062 27.769531 C 13.738281 27.703125 13.621094 27.644531 13.546875 27.660156 C 13.289062 27.699219 13.03125 27.746094 12.785156 27.835938 C 12.261719 28.027344 11.777344 28.324219 11.207031 28.390625 C 11.027344 28.410156 10.992188 28.539062 11.105469 28.699219 C 11.285156 28.949219 11.558594 28.996094 11.847656 29.027344 C 11.90625 29.019531 11.976562 29.015625 12.042969 29 C 12.695312 28.839844 13.257812 28.515625 13.703125 27.996094 Z M 13.3125 29.429688 C 13.304688 29.390625 13.296875 29.351562 13.285156 29.308594 C 13 29.34375 12.710938 29.351562 12.433594 29.410156 C 11.777344 29.550781 11.136719 29.582031 10.511719 29.269531 C 10.429688 29.230469 10.269531 29.226562 10.21875 29.28125 C 10.164062 29.339844 10.152344 29.503906 10.191406 29.582031 C 10.363281 29.90625 10.460938 30.234375 10.441406 30.609375 C 10.429688 30.851562 10.675781 30.953125 10.871094 30.8125 C 10.921875 30.773438 10.964844 30.726562 11 30.675781 C 11.144531 30.480469 11.335938 30.367188 11.566406 30.316406 C 11.742188 30.277344 11.921875 30.242188 12.085938 30.175781 C 12.167969 30.144531 12.273438 30.050781 12.285156 29.972656 C 12.328125 29.65625 12.320312 29.671875 12.632812 29.617188 C 12.863281 29.582031 13.085938 29.496094 13.3125 29.429688 Z M 13.3125 29.429688 " fill-opacity="1" fill-rule="nonzero"/><path fill="#000000" d="M 20.828125 14.125 L 21.347656 13.910156 C 21.226562 14.078125 21.109375 14.25 20.992188 14.421875 C 20.964844 14.457031 20.945312 14.507812 20.933594 14.554688 C 20.863281 14.808594 20.8125 15.070312 20.726562 15.320312 C 20.515625 15.925781 20.515625 16.535156 20.671875 17.148438 C 20.734375 17.394531 20.808594 17.636719 20.871094 17.878906 C 20.898438 17.980469 20.914062 18.085938 20.917969 18.191406 C 20.929688 18.421875 20.824219 18.566406 20.652344 18.578125 C 20.441406 18.589844 20.398438 18.425781 20.347656 18.269531 C 20.320312 18.191406 20.265625 18.0625 20.222656 18.0625 C 20.144531 18.058594 20.027344 18.113281 19.984375 18.179688 C 19.765625 18.511719 19.539062 18.84375 19.359375 19.199219 C 19.089844 19.734375 18.855469 20.292969 18.601562 20.839844 C 18.582031 20.886719 18.550781 20.933594 18.480469 20.972656 C 18.472656 20.851562 18.484375 20.726562 18.457031 20.609375 C 18.429688 20.492188 18.394531 20.324219 18.308594 20.28125 C 18.15625 20.203125 18.09375 20.378906 18.03125 20.492188 C 17.820312 20.871094 17.617188 21.253906 17.410156 21.636719 C 17.371094 21.710938 17.316406 21.78125 17.265625 21.851562 C 17.25 21.84375 17.234375 21.835938 17.214844 21.828125 C 17.226562 21.773438 17.234375 21.714844 17.25 21.664062 C 17.425781 21.160156 17.609375 20.65625 17.78125 20.152344 C 17.804688 20.078125 17.808594 19.953125 17.765625 19.90625 C 17.722656 19.863281 17.59375 19.863281 17.527344 19.894531 C 17.265625 20.035156 17.015625 20.195312 16.757812 20.347656 C 16.71875 20.371094 16.683594 20.417969 16.640625 20.433594 C 16.429688 20.496094 16.257812 20.613281 16.109375 20.753906 L 16.023438 20.675781 C 16.636719 20.125 17.308594 19.664062 18.097656 19.378906 C 18.410156 19.265625 18.707031 19.113281 19.003906 18.96875 C 19.054688 18.945312 19.105469 18.890625 19.125 18.835938 C 19.363281 18.175781 19.667969 17.542969 19.722656 16.824219 C 19.769531 16.183594 19.726562 15.554688 19.605469 14.933594 C 19.585938 14.835938 19.5625 14.746094 19.527344 14.660156 L 20.078125 14.433594 C 20.085938 14.554688 20.09375 14.671875 20.101562 14.792969 C 20.105469 14.84375 20.105469 14.898438 20.128906 14.9375 C 20.160156 14.996094 20.210938 15.085938 20.25 15.082031 C 20.308594 15.074219 20.386719 15.019531 20.417969 14.960938 C 20.527344 14.742188 20.597656 14.5 20.722656 14.292969 C 20.757812 14.234375 20.792969 14.179688 20.828125 14.125 Z M 20.828125 14.125 " fill-opacity="1" fill-rule="nonzero"/><g clip-path="url(#id3)"><path fill="#000000" d="M 8.484375 26.582031 C 8.597656 26.816406 8.726562 27.050781 8.871094 27.273438 C 9.136719 27.671875 9.464844 28.027344 9.765625 28.402344 C 9.8125 28.464844 9.867188 28.523438 9.921875 28.589844 C 9.882812 28.609375 9.875 28.625 9.863281 28.625 C 9.429688 28.613281 9.425781 28.621094 9.503906 29.070312 C 9.519531 29.148438 9.523438 29.25 9.488281 29.316406 C 9.222656 29.816406 9.175781 30.375 9.082031 30.921875 C 9.054688 31.078125 9.058594 31.300781 8.867188 31.308594 C 8.660156 31.316406 8.644531 31.082031 8.625 30.925781 C 8.574219 30.5625 8.542969 30.199219 8.523438 29.832031 C 8.496094 29.335938 8.53125 28.828125 8.457031 28.339844 C 8.375 27.773438 8.214844 27.214844 8.058594 26.664062 C 7.863281 25.972656 7.589844 25.304688 7.433594 24.609375 C 7.257812 23.796875 7.160156 22.964844 7.046875 22.140625 C 6.902344 21.109375 6.917969 20.078125 6.996094 19.042969 C 7.0625 18.171875 7.21875 17.3125 7.460938 16.472656 C 7.46875 16.449219 7.472656 16.414062 7.488281 16.394531 C 7.789062 16.058594 7.707031 15.640625 7.699219 15.25 C 7.671875 13.726562 7.730469 12.207031 7.925781 10.699219 C 8.078125 9.492188 8.269531 8.292969 8.476562 7.09375 C 8.640625 6.160156 9.234375 5.578125 10.097656 5.292969 C 10.472656 5.164062 10.742188 4.972656 10.929688 4.601562 C 11.085938 4.296875 11.332031 4.035156 11.550781 3.765625 C 11.703125 3.585938 11.910156 3.511719 12.140625 3.5 C 12.4375 3.484375 12.734375 3.460938 13.03125 3.453125 C 13.339844 3.449219 13.5625 3.335938 13.722656 3.046875 C 13.851562 2.808594 14.035156 2.601562 14.207031 2.394531 C 14.359375 2.210938 14.574219 2.160156 14.800781 2.152344 C 14.851562 2.148438 14.898438 2.15625 14.945312 2.148438 C 15.492188 2.035156 15.695312 2.097656 16.1875 2.367188 C 16.199219 2.355469 16.210938 2.339844 16.222656 2.328125 C 16.101562 2.222656 15.980469 2.121094 15.84375 2.003906 C 15.886719 2.007812 15.925781 2 15.945312 2.015625 C 16.296875 2.261719 16.617188 2.53125 16.75 2.972656 C 16.832031 3.253906 16.9375 3.308594 17.210938 3.207031 C 17.324219 3.160156 17.4375 3.105469 17.554688 3.058594 C 17.945312 2.90625 18.285156 2.984375 18.570312 3.296875 C 18.847656 3.601562 19.066406 3.953125 19.140625 4.359375 C 19.289062 5.210938 19.441406 6.0625 19.515625 6.925781 C 19.703125 9.136719 19.855469 11.355469 20.019531 13.574219 C 20.039062 13.859375 20.058594 14.144531 20.078125 14.429688 L 19.527344 14.65625 C 19.34375 14.199219 18.949219 13.890625 18.421875 13.824219 C 17.621094 13.722656 16.824219 13.769531 16.054688 14.050781 C 15.871094 14.117188 15.773438 14.097656 15.679688 13.90625 C 15.625 13.800781 15.480469 13.703125 15.363281 13.683594 C 14.839844 13.597656 14.351562 13.738281 13.921875 14.03125 C 13.507812 14.316406 13.136719 14.664062 12.742188 14.980469 C 12.550781 15.132812 12.351562 15.273438 12.15625 15.417969 C 12.136719 15.398438 12.121094 15.378906 12.101562 15.355469 C 12.144531 15.292969 12.179688 15.21875 12.226562 15.160156 C 12.40625 14.9375 12.59375 14.722656 12.765625 14.492188 C 12.816406 14.425781 12.863281 14.28125 12.832031 14.238281 C 12.78125 14.175781 12.65625 14.128906 12.566406 14.136719 C 12.039062 14.179688 11.566406 14.386719 11.117188 14.664062 C 10.996094 14.738281 10.839844 14.761719 10.703125 14.816406 C 10.636719 14.84375 10.574219 14.886719 10.511719 14.929688 C 10.144531 15.171875 9.773438 15.417969 9.40625 15.660156 C 9.378906 15.675781 9.34375 15.683594 9.308594 15.691406 C 9.289062 15.695312 9.269531 15.683594 9.191406 15.664062 C 9.28125 15.558594 9.359375 15.484375 9.417969 15.394531 C 9.472656 15.316406 9.5625 15.1875 9.535156 15.148438 C 9.453125 15.019531 9.324219 15.058594 9.207031 15.132812 C 9.160156 15.160156 9.105469 15.179688 9.054688 15.203125 C 9.042969 15.179688 9.027344 15.15625 9.015625 15.132812 C 9.101562 15.078125 9.183594 15.019531 9.273438 14.976562 C 9.582031 14.816406 9.894531 14.667969 10.203125 14.511719 C 10.523438 14.34375 10.648438 14.089844 10.644531 13.707031 C 10.621094 11.921875 10.636719 10.132812 10.621094 8.34375 C 10.617188 7.671875 10.585938 6.996094 10.546875 6.320312 C 10.511719 5.722656 10.308594 5.597656 9.75 5.789062 C 9.480469 5.882812 9.28125 6.054688 9.148438 6.304688 C 8.804688 6.957031 8.621094 7.664062 8.460938 8.378906 C 8.234375 9.40625 8.175781 10.453125 8.140625 11.5 C 8.097656 12.722656 8.101562 13.949219 8.101562 15.171875 C 8.101562 15.363281 8.152344 15.5625 8.222656 15.738281 C 8.296875 15.933594 8.289062 16.109375 8.179688 16.257812 C 7.609375 17.019531 7.519531 17.933594 7.402344 18.832031 C 7.367188 19.109375 7.339844 19.386719 7.320312 19.667969 C 7.269531 20.402344 7.28125 21.144531 7.339844 21.886719 C 7.421875 22.882812 7.609375 23.863281 7.871094 24.828125 C 8.035156 25.429688 8.222656 26.023438 8.484375 26.582031 Z M 19.175781 13.113281 C 19.390625 13.089844 19.476562 12.972656 19.472656 12.761719 C 19.460938 11.535156 19.488281 10.300781 19.425781 9.074219 C 19.359375 7.792969 19.203125 6.511719 19.085938 5.234375 C 19.039062 4.722656 18.949219 4.226562 18.640625 3.804688 C 18.078125 3.035156 17.078125 3.410156 16.875 4 C 16.765625 4.316406 16.71875 4.671875 16.714844 5.007812 C 16.699219 6.667969 16.707031 8.328125 16.707031 9.988281 C 16.722656 9.988281 16.734375 9.988281 16.746094 9.988281 C 16.746094 10.621094 16.734375 11.253906 16.75 11.886719 C 16.757812 12.121094 16.808594 12.359375 16.855469 12.589844 C 16.890625 12.761719 17.003906 12.863281 17.1875 12.832031 C 17.324219 12.808594 17.335938 12.875 17.363281 12.992188 C 17.386719 13.101562 17.472656 13.257812 17.554688 13.273438 C 17.996094 13.359375 18.453125 13.546875 18.886719 13.21875 C 18.964844 13.15625 19.078125 13.128906 19.175781 13.113281 Z M 16.46875 12.683594 C 16.484375 12.023438 16.503906 11.363281 16.488281 10.703125 C 16.457031 9.71875 16.359375 8.738281 16.363281 7.753906 C 16.363281 6.582031 16.441406 5.40625 16.488281 4.132812 C 16.476562 3.855469 16.472656 3.472656 16.433594 3.097656 C 16.402344 2.746094 16.21875 2.46875 15.910156 2.308594 C 15.105469 1.890625 14.054688 2.394531 13.875 3.292969 C 13.800781 3.65625 13.742188 4.027344 13.730469 4.398438 C 13.699219 5.777344 13.671875 7.152344 13.679688 8.53125 C 13.683594 9.753906 13.734375 10.976562 13.765625 12.203125 C 13.773438 12.492188 13.847656 12.574219 14.125 12.617188 C 14.175781 12.625 14.222656 12.628906 14.269531 12.640625 C 14.4375 12.691406 14.453125 12.75 14.347656 12.890625 C 14.285156 12.972656 14.214844 13.054688 14.175781 13.148438 C 14.097656 13.328125 14.164062 13.449219 14.351562 13.457031 C 14.945312 13.480469 15.523438 13.40625 16.078125 13.183594 C 16.296875 13.09375 16.460938 12.9375 16.46875 12.683594 Z M 13.414062 12.96875 C 13.480469 12.402344 13.585938 11.832031 13.554688 11.269531 C 13.472656 9.632812 13.449219 7.996094 13.457031 6.359375 C 13.460938 6.113281 13.472656 5.863281 13.445312 5.621094 C 13.402344 5.238281 13.363281 4.851562 13.257812 4.484375 C 13.058594 3.769531 12.316406 3.527344 11.71875 3.945312 C 11.332031 4.214844 11.167969 4.613281 11.117188 5.054688 C 11.054688 5.628906 11.003906 6.203125 10.996094 6.78125 C 10.980469 8.363281 10.992188 9.945312 10.992188 11.523438 C 11.003906 11.523438 11.015625 11.523438 11.027344 11.523438 C 11.027344 12.15625 11.027344 12.789062 11.027344 13.421875 C 11.027344 13.550781 11.035156 13.675781 11.054688 13.800781 C 11.117188 14.214844 11.378906 14.320312 11.710938 14.0625 C 11.761719 14.027344 11.804688 13.980469 11.847656 13.933594 C 12.117188 13.621094 12.460938 13.472656 12.867188 13.460938 C 13.1875 13.453125 13.375 13.296875 13.414062 12.96875 Z M 13.414062 12.96875 " fill-opacity="1" fill-rule="nonzero"/></g><path fill="#fafcfa" d="M 19.605469 14.933594 C 19.726562 15.554688 19.769531 16.183594 19.722656 16.824219 C 19.667969 17.542969 19.363281 18.175781 19.128906 18.835938 C 19.109375 18.886719 19.054688 18.945312 19.003906 18.96875 C 18.707031 19.113281 18.410156 19.265625 18.101562 19.375 C 17.308594 19.660156 16.636719 20.125 16.023438 20.671875 C 15.820312 20.855469 15.621094 21.046875 15.429688 21.246094 C 14.675781 22.019531 13.941406 22.8125 13.199219 23.597656 C 12.820312 24.007812 12.382812 24.371094 12.207031 24.9375 C 12.550781 24.503906 12.894531 24.066406 13.238281 23.632812 C 13.269531 23.605469 13.300781 23.574219 13.339844 23.5625 C 13.398438 23.542969 13.488281 23.515625 13.515625 23.542969 C 13.554688 23.578125 13.550781 23.664062 13.550781 23.730469 C 13.550781 23.761719 13.527344 23.792969 13.511719 23.824219 C 13.367188 24.152344 13.222656 24.480469 13.082031 24.808594 C 13.0625 24.855469 13.050781 24.902344 13.042969 24.953125 L 8.484375 26.582031 C 8.222656 26.023438 8.039062 25.429688 7.871094 24.828125 C 7.609375 23.863281 7.421875 22.886719 7.339844 21.886719 C 7.28125 21.144531 7.269531 20.40625 7.320312 19.667969 L 19.527344 14.65625 C 19.5625 14.746094 19.589844 14.835938 19.605469 14.933594 Z M 17.351562 18.449219 C 17.339844 18.433594 17.328125 18.417969 17.316406 18.40625 C 17.269531 18.421875 17.214844 18.429688 17.171875 18.457031 C 16.777344 18.703125 16.371094 18.933594 15.996094 19.207031 C 15.109375 19.851562 14.230469 20.507812 13.367188 21.183594 C 13.085938 21.410156 12.863281 21.714844 12.613281 21.984375 C 12.375 22.027344 12.152344 22.09375 11.957031 22.261719 C 11.183594 22.914062 10.476562 23.632812 9.816406 24.398438 C 9.773438 24.445312 9.742188 24.503906 9.707031 24.554688 C 9.722656 24.570312 9.738281 24.589844 9.753906 24.605469 C 9.855469 24.535156 9.96875 24.472656 10.054688 24.382812 C 10.695312 23.738281 11.332031 23.085938 11.96875 22.433594 C 12.011719 22.394531 12.070312 22.332031 12.117188 22.335938 C 12.367188 22.347656 12.507812 22.183594 12.65625 22.027344 C 12.777344 21.945312 12.90625 21.875 13.015625 21.78125 C 13.289062 21.546875 13.535156 21.273438 13.828125 21.0625 C 14.339844 20.6875 14.886719 20.359375 15.40625 19.988281 C 15.992188 19.566406 16.5625 19.125 17.136719 18.683594 C 17.21875 18.621094 17.277344 18.527344 17.351562 18.449219 Z M 10.546875 19.367188 C 12.683594 18.390625 14.886719 17.558594 16.902344 16.324219 C 14.675781 17.101562 12.476562 17.941406 10.546875 19.367188 Z M 8.890625 20.15625 C 8.878906 20.136719 8.871094 20.113281 8.859375 20.09375 C 8.511719 20.054688 8.203125 20.167969 7.945312 20.410156 C 7.898438 20.453125 7.898438 20.542969 7.875 20.609375 C 7.941406 20.613281 8.015625 20.644531 8.066406 20.617188 C 8.34375 20.472656 8.617188 20.3125 8.890625 20.15625 Z M 8.890625 20.15625 " fill-opacity="1" fill-rule="nonzero"/><path fill="#f4870f" d="M 19.527344 14.65625 L 7.320312 19.667969 C 7.339844 19.386719 7.367188 19.109375 7.402344 18.832031 C 7.519531 17.933594 7.609375 17.019531 8.179688 16.257812 C 8.289062 16.109375 8.296875 15.933594 8.222656 15.738281 C 8.152344 15.5625 8.101562 15.363281 8.101562 15.175781 C 8.101562 13.949219 8.097656 12.726562 8.140625 11.5 C 8.175781 10.457031 8.234375 9.40625 8.460938 8.378906 C 8.621094 7.664062 8.804688 6.957031 9.148438 6.308594 C 9.28125 6.054688 9.480469 5.882812 9.75 5.789062 C 10.308594 5.597656 10.511719 5.722656 10.546875 6.320312 C 10.585938 6.996094 10.617188 7.671875 10.621094 8.347656 C 10.636719 10.132812 10.621094 11.921875 10.644531 13.707031 C 10.648438 14.089844 10.523438 14.34375 10.203125 14.511719 C 9.894531 14.667969 9.582031 14.820312 9.273438 14.976562 C 9.183594 15.023438 9.101562 15.082031 9.015625 15.132812 C 9.027344 15.15625 9.042969 15.179688 9.054688 15.203125 C 9.105469 15.179688 9.160156 15.160156 9.207031 15.132812 C 9.324219 15.0625 9.453125 15.019531 9.535156 15.148438 C 9.5625 15.191406 9.472656 15.320312 9.417969 15.398438 C 9.359375 15.484375 9.28125 15.5625 9.191406 15.664062 C 9.269531 15.683594 9.289062 15.695312 9.308594 15.691406 C 9.34375 15.6875 9.378906 15.679688 9.40625 15.660156 C 9.773438 15.417969 10.144531 15.171875 10.511719 14.929688 C 10.574219 14.886719 10.636719 14.84375 10.703125 14.816406 C 10.839844 14.761719 10.996094 14.742188 11.117188 14.664062 C 11.566406 14.386719 12.039062 14.179688 12.566406 14.136719 C 12.65625 14.132812 12.777344 14.175781 12.832031 14.242188 C 12.863281 14.28125 12.816406 14.425781 12.765625 14.492188 C 12.59375 14.722656 12.40625 14.9375 12.226562 15.160156 C 12.179688 15.222656 12.144531 15.292969 12.101562 15.359375 C 12.121094 15.378906 12.136719 15.398438 12.15625 15.417969 C 12.351562 15.273438 12.550781 15.136719 12.742188 14.984375 C 13.136719 14.667969 13.507812 14.316406 13.921875 14.03125 C 14.351562 13.738281 14.839844 13.597656 15.363281 13.683594 C 15.480469 13.703125 15.625 13.800781 15.679688 13.90625 C 15.773438 14.097656 15.871094 14.121094 16.054688 14.050781 C 16.824219 13.773438 17.621094 13.726562 18.421875 13.824219 C 18.949219 13.890625 19.34375 14.199219 19.527344 14.65625 Z M 10.003906 9.453125 C 9.992188 9.425781 9.976562 9.398438 9.960938 9.375 C 9.851562 9.433594 9.742188 9.492188 9.632812 9.550781 C 9.648438 9.578125 9.664062 9.609375 9.679688 9.640625 C 9.789062 9.578125 9.898438 9.515625 10.003906 9.453125 Z M 9.96875 9.09375 C 9.953125 9.0625 9.933594 9.03125 9.917969 9 C 9.785156 9.074219 9.652344 9.148438 9.519531 9.21875 C 9.535156 9.25 9.550781 9.28125 9.570312 9.3125 C 9.703125 9.238281 9.835938 9.167969 9.96875 9.09375 Z M 9.515625 11.761719 C 9.503906 11.734375 9.496094 11.710938 9.484375 11.683594 C 9.394531 11.710938 9.304688 11.738281 9.214844 11.765625 C 9.222656 11.792969 9.234375 11.824219 9.242188 11.851562 C 9.332031 11.824219 9.421875 11.792969 9.515625 11.761719 Z M 9.515625 11.761719 " fill-opacity="1" fill-rule="nonzero"/><path fill="#f4870f" d="M 19.472656 12.761719 C 19.476562 12.972656 19.390625 13.089844 19.175781 13.113281 C 19.078125 13.128906 18.964844 13.15625 18.886719 13.214844 C 18.453125 13.546875 17.996094 13.359375 17.554688 13.273438 C 17.472656 13.257812 17.386719 13.097656 17.363281 12.992188 C 17.335938 12.875 17.324219 12.808594 17.1875 12.832031 C 17.003906 12.863281 16.890625 12.761719 16.855469 12.589844 C 16.808594 12.355469 16.757812 12.121094 16.75 11.882812 C 16.734375 11.25 16.746094 10.617188 16.746094 9.984375 C 16.734375 9.984375 16.722656 9.984375 16.707031 9.984375 C 16.707031 8.324219 16.699219 6.667969 16.714844 5.007812 C 16.71875 4.667969 16.765625 4.316406 16.875 4 C 17.078125 3.410156 18.078125 3.035156 18.640625 3.804688 C 18.949219 4.226562 19.039062 4.722656 19.085938 5.230469 C 19.203125 6.511719 19.359375 7.789062 19.425781 9.074219 C 19.488281 10.300781 19.460938 11.535156 19.472656 12.761719 Z M 18.140625 10.238281 C 18.140625 10.21875 18.136719 10.195312 18.136719 10.175781 C 17.957031 10.085938 17.84375 10.101562 17.707031 10.277344 C 17.878906 10.261719 18.011719 10.25 18.140625 10.238281 Z M 18.109375 9.867188 C 18.105469 9.835938 18.101562 9.800781 18.09375 9.769531 C 18.011719 9.78125 17.929688 9.792969 17.847656 9.804688 C 17.851562 9.835938 17.855469 9.871094 17.859375 9.902344 C 17.941406 9.890625 18.027344 9.878906 18.109375 9.867188 Z M 18.09375 6.792969 C 17.878906 6.765625 17.726562 6.859375 17.679688 7.058594 C 17.863281 7.105469 18.019531 7.003906 18.09375 6.792969 Z M 18.027344 6.417969 C 18.011719 6.390625 17.996094 6.363281 17.984375 6.335938 C 17.863281 6.402344 17.742188 6.46875 17.621094 6.535156 C 17.636719 6.5625 17.652344 6.585938 17.664062 6.613281 C 17.785156 6.546875 17.90625 6.484375 18.027344 6.417969 Z M 18.027344 6.417969 " fill-opacity="1" fill-rule="nonzero"/><path fill="#000000" d="M 18.136719 10.175781 C 18.136719 10.195312 18.140625 10.21875 18.140625 10.238281 C 18.011719 10.25 17.878906 10.261719 17.707031 10.277344 C 17.84375 10.101562 17.957031 10.085938 18.136719 10.175781 Z M 18.136719 10.175781 " fill-opacity="1" fill-rule="nonzero"/><path fill="#000000" d="M 18.09375 9.769531 C 18.101562 9.800781 18.105469 9.835938 18.109375 9.867188 C 18.027344 9.878906 17.941406 9.890625 17.859375 9.902344 C 17.855469 9.871094 17.851562 9.835938 17.847656 9.800781 C 17.929688 9.792969 18.011719 9.78125 18.09375 9.769531 Z M 18.09375 9.769531 " fill-opacity="1" fill-rule="nonzero"/><path fill="#000000" d="M 17.679688 7.058594 C 17.726562 6.859375 17.878906 6.765625 18.09375 6.792969 C 18.019531 7.003906 17.863281 7.105469 17.679688 7.058594 Z M 17.679688 7.058594 " fill-opacity="1" fill-rule="nonzero"/><path fill="#000000" d="M 17.984375 6.335938 C 18 6.363281 18.011719 6.390625 18.027344 6.417969 C 17.90625 6.484375 17.785156 6.546875 17.664062 6.613281 C 17.652344 6.589844 17.636719 6.5625 17.621094 6.535156 C 17.742188 6.46875 17.863281 6.402344 17.984375 6.335938 Z M 17.984375 6.335938 " fill-opacity="1" fill-rule="nonzero"/><path fill="#000000" d="M 17.316406 18.40625 C 17.328125 18.417969 17.339844 18.433594 17.351562 18.449219 C 17.277344 18.527344 17.21875 18.621094 17.136719 18.683594 C 16.5625 19.125 15.992188 19.566406 15.40625 19.988281 C 14.890625 20.359375 14.34375 20.6875 13.828125 21.0625 C 13.535156 21.273438 13.289062 21.546875 13.015625 21.78125 C 12.90625 21.875 12.777344 21.945312 12.65625 22.027344 C 12.644531 22.011719 12.628906 22 12.613281 21.984375 C 12.863281 21.714844 13.085938 21.410156 13.367188 21.1875 C 14.230469 20.507812 15.113281 19.851562 15.996094 19.207031 C 16.371094 18.933594 16.777344 18.703125 17.171875 18.457031 C 17.214844 18.429688 17.269531 18.421875 17.316406 18.40625 Z M 17.316406 18.40625 " fill-opacity="1" fill-rule="nonzero"/><path fill="#000000" d="M 16.910156 28.183594 C 17.230469 28.273438 17.265625 28.429688 17.027344 28.667969 C 16.730469 28.960938 16.34375 29.035156 15.980469 28.839844 C 15.683594 28.679688 15.402344 28.484375 15.113281 28.308594 C 15.078125 28.285156 15.042969 28.261719 15.007812 28.242188 C 15.011719 28.214844 15.019531 28.191406 15.027344 28.167969 C 15.097656 28.136719 15.171875 28.089844 15.246094 28.085938 C 15.804688 28.054688 16.363281 28.027344 16.910156 28.183594 Z M 16.910156 28.183594 " fill-opacity="1" fill-rule="nonzero"/><path fill="#f4870f" d="M 16.488281 10.703125 C 16.503906 11.363281 16.484375 12.023438 16.46875 12.683594 C 16.460938 12.9375 16.296875 13.09375 16.078125 13.183594 C 15.523438 13.40625 14.945312 13.480469 14.351562 13.457031 C 14.164062 13.449219 14.097656 13.328125 14.175781 13.152344 C 14.214844 13.058594 14.285156 12.972656 14.347656 12.890625 C 14.453125 12.75 14.4375 12.691406 14.269531 12.640625 C 14.222656 12.628906 14.175781 12.625 14.125 12.621094 C 13.847656 12.574219 13.773438 12.492188 13.765625 12.203125 C 13.734375 10.980469 13.683594 9.753906 13.679688 8.53125 C 13.671875 7.15625 13.699219 5.777344 13.730469 4.398438 C 13.742188 4.027344 13.800781 3.65625 13.875 3.292969 C 14.054688 2.394531 15.105469 1.890625 15.910156 2.308594 C 16.21875 2.46875 16.402344 2.746094 16.433594 3.097656 C 16.472656 3.472656 16.476562 3.855469 16.488281 4.132812 C 16.441406 5.40625 16.363281 6.582031 16.363281 7.753906 C 16.359375 8.738281 16.457031 9.71875 16.488281 10.703125 Z M 15.425781 7.152344 C 15.417969 7.125 15.414062 7.101562 15.40625 7.078125 C 15.289062 7.105469 15.175781 7.136719 15.058594 7.167969 C 15.066406 7.191406 15.074219 7.21875 15.078125 7.246094 C 15.195312 7.214844 15.308594 7.183594 15.425781 7.152344 Z M 14.980469 10.632812 C 15.09375 10.574219 15.210938 10.515625 15.324219 10.453125 C 15.167969 10.433594 15.023438 10.433594 14.941406 10.558594 C 14.957031 10.585938 14.96875 10.609375 14.980469 10.632812 Z M 15.464844 6.542969 C 15.234375 6.570312 15.007812 6.617188 14.875 6.851562 C 15.125 6.859375 15.296875 6.710938 15.464844 6.542969 Z M 15.464844 6.542969 " fill-opacity="1" fill-rule="nonzero"/><path fill="#000000" d="M 16.023438 20.671875 L 16.109375 20.753906 C 15.859375 20.984375 15.664062 21.285156 15.429688 21.527344 C 14.785156 22.183594 14.308594 22.96875 13.875 23.78125 C 13.675781 24.152344 13.460938 24.515625 13.25 24.878906 L 13.042969 24.953125 C 13.050781 24.90625 13.0625 24.855469 13.082031 24.808594 C 13.222656 24.480469 13.367188 24.152344 13.511719 23.828125 C 13.527344 23.792969 13.550781 23.761719 13.550781 23.730469 C 13.550781 23.664062 13.554688 23.578125 13.515625 23.542969 C 13.488281 23.515625 13.398438 23.542969 13.339844 23.5625 C 13.300781 23.574219 13.269531 23.609375 13.238281 23.632812 C 13.222656 23.621094 13.210938 23.609375 13.199219 23.597656 C 13.941406 22.8125 14.675781 22.019531 15.429688 21.246094 C 15.621094 21.046875 15.820312 20.855469 16.023438 20.671875 Z M 16.023438 20.671875 " fill-opacity="1" fill-rule="nonzero"/><path fill="#000000" d="M 15.40625 7.078125 C 15.414062 7.101562 15.417969 7.128906 15.425781 7.152344 C 15.308594 7.183594 15.195312 7.214844 15.078125 7.246094 C 15.070312 7.21875 15.066406 7.195312 15.058594 7.167969 C 15.175781 7.136719 15.289062 7.105469 15.40625 7.078125 Z M 15.40625 7.078125 " fill-opacity="1" fill-rule="nonzero"/><path fill="#000000" d="M 15.324219 10.453125 C 15.210938 10.515625 15.09375 10.574219 14.980469 10.632812 C 14.96875 10.609375 14.957031 10.585938 14.941406 10.558594 C 15.023438 10.433594 15.167969 10.433594 15.324219 10.453125 Z M 15.324219 10.453125 " fill-opacity="1" fill-rule="nonzero"/><path fill="#000000" d="M 14.875 6.851562 C 15.007812 6.617188 15.234375 6.570312 15.464844 6.542969 C 15.296875 6.710938 15.125 6.859375 14.875 6.851562 Z M 14.875 6.851562 " fill-opacity="1" fill-rule="nonzero"/><path fill="#000000" d="M 16.902344 16.324219 C 14.886719 17.558594 12.683594 18.390625 10.546875 19.367188 C 12.476562 17.941406 14.675781 17.101562 16.902344 16.324219 Z M 16.902344 16.324219 " fill-opacity="1" fill-rule="nonzero"/><path fill="#000000" d="M 13.789062 27.769531 C 13.8125 27.800781 13.753906 27.933594 13.703125 27.996094 C 13.261719 28.515625 12.695312 28.839844 12.042969 29 C 11.976562 29.019531 11.90625 29.019531 11.847656 29.027344 C 11.558594 28.996094 11.285156 28.953125 11.105469 28.699219 C 10.992188 28.539062 11.027344 28.410156 11.210938 28.390625 C 11.777344 28.328125 12.261719 28.027344 12.785156 27.835938 C 13.03125 27.746094 13.289062 27.699219 13.546875 27.660156 C 13.621094 27.644531 13.738281 27.703125 13.789062 27.769531 Z M 13.789062 27.769531 " fill-opacity="1" fill-rule="nonzero"/><path fill="#f4870f" d="M 13.554688 11.269531 C 13.585938 11.832031 13.480469 12.402344 13.414062 12.96875 C 13.375 13.296875 13.1875 13.453125 12.867188 13.460938 C 12.460938 13.472656 12.117188 13.621094 11.84375 13.933594 C 11.804688 13.980469 11.761719 14.027344 11.710938 14.0625 C 11.378906 14.320312 11.117188 14.214844 11.050781 13.800781 C 11.035156 13.675781 11.027344 13.550781 11.027344 13.421875 C 11.027344 12.789062 11.027344 12.15625 11.027344 11.523438 C 11.015625 11.523438 11.003906 11.523438 10.992188 11.523438 C 10.992188 9.941406 10.980469 8.359375 10.996094 6.777344 C 11.003906 6.203125 11.054688 5.628906 11.117188 5.054688 C 11.167969 4.613281 11.332031 4.214844 11.714844 3.945312 C 12.3125 3.527344 13.058594 3.769531 13.257812 4.480469 C 13.363281 4.851562 13.402344 5.238281 13.445312 5.621094 C 13.472656 5.863281 13.457031 6.113281 13.457031 6.359375 C 13.449219 7.996094 13.472656 9.632812 13.554688 11.269531 Z M 12.078125 11.304688 C 12.183594 11.527344 12.292969 11.542969 12.472656 11.378906 C 12.34375 11.355469 12.226562 11.332031 12.078125 11.304688 Z M 12.078125 11.304688 " fill-opacity="1" fill-rule="nonzero"/><path fill="#000000" d="M 13.285156 29.308594 C 13.296875 29.351562 13.304688 29.390625 13.3125 29.429688 C 13.085938 29.496094 12.863281 29.582031 12.628906 29.621094 C 12.320312 29.671875 12.328125 29.660156 12.285156 29.972656 C 12.273438 30.050781 12.167969 30.144531 12.085938 30.175781 C 11.921875 30.246094 11.742188 30.28125 11.566406 30.316406 C 11.335938 30.367188 11.144531 30.480469 11 30.679688 C 10.964844 30.726562 10.921875 30.777344 10.871094 30.8125 C 10.675781 30.953125 10.429688 30.851562 10.441406 30.613281 C 10.460938 30.234375 10.363281 29.90625 10.191406 29.585938 C 10.152344 29.503906 10.164062 29.339844 10.21875 29.28125 C 10.269531 29.230469 10.429688 29.230469 10.511719 29.273438 C 11.136719 29.585938 11.777344 29.550781 12.433594 29.410156 C 12.710938 29.351562 13 29.34375 13.285156 29.308594 Z M 13.285156 29.308594 " fill-opacity="1" fill-rule="nonzero"/><path fill="#000000" d="M 13.25 24.878906 C 13.222656 24.925781 13.195312 24.976562 13.167969 25.019531 C 13.148438 25.058594 13.105469 25.082031 13.074219 25.113281 C 13.054688 25.105469 13.035156 25.097656 13.015625 25.089844 C 13.023438 25.042969 13.03125 25 13.042969 24.953125 Z M 13.25 24.878906 " fill-opacity="1" fill-rule="nonzero"/><path fill="#000000" d="M 13.238281 23.632812 C 12.894531 24.066406 12.550781 24.503906 12.207031 24.9375 C 12.382812 24.371094 12.820312 24.007812 13.199219 23.597656 C 13.210938 23.609375 13.222656 23.621094 13.238281 23.632812 Z M 13.238281 23.632812 " fill-opacity="1" fill-rule="nonzero"/><path fill="#000000" d="M 12.613281 21.984375 C 12.628906 21.996094 12.640625 22.011719 12.65625 22.027344 C 12.507812 22.183594 12.367188 22.347656 12.117188 22.335938 C 12.070312 22.332031 12.011719 22.394531 11.96875 22.433594 C 11.332031 23.085938 10.695312 23.738281 10.054688 24.382812 C 9.96875 24.472656 9.855469 24.535156 9.753906 24.605469 C 9.738281 24.589844 9.722656 24.570312 9.707031 24.554688 C 9.742188 24.503906 9.773438 24.445312 9.816406 24.398438 C 10.476562 23.632812 11.183594 22.914062 11.957031 22.261719 C 12.152344 22.09375 12.375 22.027344 12.613281 21.984375 Z M 12.613281 21.984375 " fill-opacity="1" fill-rule="nonzero"/><path fill="#000000" d="M 12.472656 11.378906 C 12.292969 11.542969 12.183594 11.527344 12.078125 11.304688 C 12.226562 11.332031 12.34375 11.355469 12.472656 11.378906 Z M 12.472656 11.378906 " fill-opacity="1" fill-rule="nonzero"/><path fill="#000000" d="M 9.960938 9.375 C 9.976562 9.398438 9.992188 9.425781 10.003906 9.453125 C 9.898438 9.515625 9.789062 9.578125 9.679688 9.640625 C 9.664062 9.609375 9.648438 9.578125 9.632812 9.550781 C 9.742188 9.492188 9.851562 9.433594 9.960938 9.375 Z M 9.960938 9.375 " fill-opacity="1" fill-rule="nonzero"/><path fill="#000000" d="M 9.917969 9 C 9.933594 9.03125 9.953125 9.0625 9.96875 9.09375 C 9.835938 9.167969 9.703125 9.238281 9.570312 9.3125 C 9.550781 9.28125 9.535156 9.25 9.519531 9.21875 C 9.652344 9.148438 9.785156 9.074219 9.917969 9 Z M 9.917969 9 " fill-opacity="1" fill-rule="nonzero"/><path fill="#000000" d="M 9.484375 11.683594 C 9.496094 11.710938 9.503906 11.734375 9.515625 11.761719 C 9.421875 11.792969 9.332031 11.824219 9.242188 11.851562 C 9.234375 11.824219 9.222656 11.792969 9.214844 11.765625 C 9.304688 11.738281 9.394531 11.710938 9.484375 11.683594 Z M 9.484375 11.683594 " fill-opacity="1" fill-rule="nonzero"/><path fill="#000000" d="M 8.859375 20.09375 C 8.871094 20.113281 8.878906 20.136719 8.890625 20.15625 C 8.617188 20.3125 8.34375 20.472656 8.066406 20.621094 C 8.015625 20.644531 7.941406 20.613281 7.875 20.609375 C 7.898438 20.542969 7.898438 20.453125 7.945312 20.410156 C 8.203125 20.167969 8.511719 20.054688 8.859375 20.09375 Z M 8.859375 20.09375 " fill-opacity="1" fill-rule="nonzero"/></svg>