<svg xmlns="http://www.w3.org/2000/svg" xmlns:xlink="http://www.w3.org/1999/xlink" width="140" zoomAndPan="magnify" viewBox="0 0 104.88 37.5" height="50" preserveAspectRatio="xMidYMid meet" version="1.0"><defs><g/><clipPath id="id1"><path d="M 4.332031 6.480469 L 28.015625 6.480469 L 28.015625 30.164062 L 4.332031 30.164062 Z M 4.332031 6.480469 " clip-rule="nonzero"/></clipPath><clipPath id="id2"><path d="M 4.332031 6.480469 L 28 6.480469 L 28 30 L 4.332031 30 Z M 4.332031 6.480469 " clip-rule="nonzero"/></clipPath><clipPath id="id3"><path d="M 67 29 L 75 29 L 75 37.007812 L 67 37.007812 Z M 67 29 " clip-rule="nonzero"/></clipPath></defs><g clip-path="url(#id1)"><path fill="#020202" d="M 28.015625 18.320312 C 28.015625 19.097656 27.941406 19.871094 27.789062 20.632812 C 27.636719 21.394531 27.414062 22.136719 27.113281 22.851562 C 26.816406 23.570312 26.453125 24.253906 26.019531 24.902344 C 25.589844 25.546875 25.097656 26.144531 24.546875 26.695312 C 24 27.246094 23.398438 27.734375 22.753906 28.167969 C 22.105469 28.601562 21.425781 28.964844 20.707031 29.261719 C 19.988281 29.558594 19.246094 29.785156 18.484375 29.9375 C 17.722656 30.089844 16.953125 30.164062 16.175781 30.164062 C 15.394531 30.164062 14.625 30.089844 13.863281 29.9375 C 13.101562 29.785156 12.359375 29.558594 11.640625 29.261719 C 10.921875 28.964844 10.242188 28.601562 9.59375 28.167969 C 8.949219 27.734375 8.351562 27.246094 7.800781 26.695312 C 7.25 26.144531 6.757812 25.546875 6.328125 24.902344 C 5.894531 24.253906 5.53125 23.570312 5.234375 22.851562 C 4.933594 22.136719 4.710938 21.394531 4.558594 20.632812 C 4.40625 19.871094 4.332031 19.097656 4.332031 18.320312 C 4.332031 17.542969 4.40625 16.773438 4.558594 16.011719 C 4.710938 15.25 4.933594 14.507812 5.234375 13.789062 C 5.53125 13.070312 5.894531 12.386719 6.328125 11.742188 C 6.757812 11.09375 7.25 10.496094 7.800781 9.949219 C 8.351562 9.398438 8.949219 8.90625 9.59375 8.476562 C 10.242188 8.042969 10.921875 7.679688 11.640625 7.378906 C 12.359375 7.082031 13.101562 6.859375 13.863281 6.707031 C 14.625 6.554688 15.394531 6.480469 16.175781 6.480469 C 16.953125 6.480469 17.722656 6.554688 18.484375 6.707031 C 19.246094 6.859375 19.988281 7.082031 20.707031 7.378906 C 21.425781 7.679688 22.105469 8.042969 22.753906 8.476562 C 23.398438 8.90625 24 9.398438 24.546875 9.949219 C 25.097656 10.496094 25.589844 11.09375 26.019531 11.742188 C 26.453125 12.386719 26.816406 13.070312 27.113281 13.789062 C 27.414062 14.507812 27.636719 15.25 27.789062 16.011719 C 27.941406 16.773438 28.015625 17.542969 28.015625 18.320312 Z M 28.015625 18.320312 " fill-opacity="1" fill-rule="nonzero"/></g><g clip-path="url(#id2)"><path fill="#f25e0c" d="M 27.6875 18.320312 C 27.6875 19.078125 27.613281 19.828125 27.464844 20.566406 C 27.320312 21.308594 27.101562 22.027344 26.8125 22.726562 C 26.523438 23.425781 26.167969 24.089844 25.746094 24.71875 C 25.328125 25.347656 24.851562 25.929688 24.316406 26.464844 C 23.78125 26.996094 23.199219 27.476562 22.570312 27.894531 C 21.941406 28.316406 21.277344 28.667969 20.582031 28.960938 C 19.882812 29.25 19.160156 29.464844 18.421875 29.613281 C 17.679688 29.761719 16.929688 29.835938 16.175781 29.835938 C 15.417969 29.835938 14.667969 29.761719 13.929688 29.613281 C 13.1875 29.464844 12.464844 29.25 11.769531 28.960938 C 11.070312 28.667969 10.40625 28.316406 9.777344 27.894531 C 9.148438 27.476562 8.566406 26.996094 8.03125 26.464844 C 7.496094 25.929688 7.019531 25.347656 6.601562 24.71875 C 6.179688 24.089844 5.824219 23.425781 5.535156 22.726562 C 5.246094 22.027344 5.027344 21.308594 4.882812 20.566406 C 4.734375 19.828125 4.660156 19.078125 4.660156 18.320312 C 4.660156 17.566406 4.734375 16.816406 4.882812 16.074219 C 5.027344 15.332031 5.246094 14.613281 5.535156 13.914062 C 5.824219 13.21875 6.179688 12.554688 6.601562 11.925781 C 7.019531 11.296875 7.496094 10.714844 8.03125 10.179688 C 8.566406 9.644531 9.148438 9.167969 9.777344 8.746094 C 10.40625 8.328125 11.070312 7.972656 11.769531 7.683594 C 12.464844 7.394531 13.1875 7.175781 13.929688 7.027344 C 14.667969 6.882812 15.417969 6.808594 16.175781 6.808594 C 16.929688 6.808594 17.679688 6.882812 18.421875 7.027344 C 19.160156 7.175781 19.882812 7.394531 20.582031 7.683594 C 21.277344 7.972656 21.941406 8.328125 22.570312 8.746094 C 23.199219 9.167969 23.78125 9.644531 24.316406 10.179688 C 24.851562 10.714844 25.328125 11.296875 25.746094 11.925781 C 26.167969 12.554688 26.523438 13.21875 26.8125 13.914062 C 27.101562 14.613281 27.320312 15.332031 27.464844 16.074219 C 27.613281 16.816406 27.6875 17.566406 27.6875 18.320312 Z M 27.6875 18.320312 " fill-opacity="1" fill-rule="nonzero"/></g><path fill="#f9f6f4" d="M 27.070312 18.320312 C 27.070312 19.035156 27 19.746094 26.863281 20.449219 C 26.722656 21.148438 26.515625 21.832031 26.242188 22.492188 C 25.96875 23.152344 25.632812 23.78125 25.234375 24.375 C 24.835938 24.96875 24.386719 25.519531 23.878906 26.027344 C 23.375 26.53125 22.824219 26.984375 22.226562 27.382812 C 21.632812 27.78125 21.003906 28.117188 20.34375 28.390625 C 19.683594 28.664062 19 28.871094 18.300781 29.007812 C 17.597656 29.148438 16.890625 29.21875 16.175781 29.21875 C 15.457031 29.21875 14.75 29.148438 14.046875 29.007812 C 13.347656 28.871094 12.664062 28.664062 12.003906 28.390625 C 11.34375 28.117188 10.714844 27.78125 10.121094 27.382812 C 9.523438 26.984375 8.976562 26.53125 8.46875 26.027344 C 7.960938 25.519531 7.511719 24.96875 7.113281 24.375 C 6.714844 23.78125 6.378906 23.152344 6.105469 22.492188 C 5.832031 21.832031 5.625 21.148438 5.488281 20.449219 C 5.347656 19.746094 5.277344 19.035156 5.277344 18.320312 C 5.277344 17.605469 5.347656 16.898438 5.488281 16.195312 C 5.625 15.492188 5.832031 14.8125 6.105469 14.152344 C 6.378906 13.492188 6.714844 12.863281 7.113281 12.265625 C 7.511719 11.671875 7.960938 11.121094 8.46875 10.617188 C 8.976562 10.109375 9.523438 9.660156 10.121094 9.261719 C 10.714844 8.863281 11.34375 8.527344 12.003906 8.253906 C 12.664062 7.980469 13.347656 7.773438 14.046875 7.632812 C 14.75 7.496094 15.457031 7.425781 16.175781 7.425781 C 16.890625 7.425781 17.597656 7.496094 18.300781 7.632812 C 19 7.773438 19.683594 7.980469 20.34375 8.253906 C 21.003906 8.527344 21.632812 8.863281 22.226562 9.261719 C 22.824219 9.660156 23.375 10.109375 23.878906 10.617188 C 24.386719 11.121094 24.835938 11.671875 25.234375 12.265625 C 25.632812 12.863281 25.96875 13.492188 26.242188 14.152344 C 26.515625 14.8125 26.722656 15.492188 26.863281 16.195312 C 27 16.898438 27.070312 17.605469 27.070312 18.320312 Z M 27.070312 18.320312 " fill-opacity="1" fill-rule="nonzero"/><path fill="#10a005" d="M 26.453125 18.320312 C 26.453125 18.996094 26.386719 19.664062 26.257812 20.328125 C 26.125 20.988281 25.929688 21.632812 25.671875 22.253906 C 25.414062 22.878906 25.097656 23.472656 24.722656 24.03125 C 24.347656 24.59375 23.921875 25.113281 23.441406 25.589844 C 22.964844 26.066406 22.445312 26.496094 21.886719 26.871094 C 21.324219 27.246094 20.730469 27.5625 20.109375 27.820312 C 19.484375 28.078125 18.839844 28.273438 18.179688 28.402344 C 17.519531 28.535156 16.847656 28.601562 16.175781 28.601562 C 15.5 28.601562 14.832031 28.535156 14.167969 28.402344 C 13.507812 28.273438 12.863281 28.078125 12.238281 27.820312 C 11.617188 27.5625 11.023438 27.246094 10.460938 26.871094 C 9.902344 26.496094 9.382812 26.066406 8.90625 25.589844 C 8.425781 25.113281 8 24.59375 7.625 24.03125 C 7.25 23.472656 6.933594 22.878906 6.675781 22.253906 C 6.417969 21.632812 6.222656 20.988281 6.089844 20.328125 C 5.960938 19.664062 5.894531 18.996094 5.894531 18.320312 C 5.894531 17.648438 5.960938 16.976562 6.089844 16.316406 C 6.222656 15.652344 6.417969 15.011719 6.675781 14.386719 C 6.933594 13.765625 7.25 13.171875 7.625 12.609375 C 8 12.050781 8.425781 11.53125 8.90625 11.050781 C 9.382812 10.574219 9.902344 10.148438 10.460938 9.773438 C 11.023438 9.398438 11.617188 9.082031 12.238281 8.824219 C 12.863281 8.566406 13.507812 8.371094 14.167969 8.238281 C 14.832031 8.105469 15.5 8.042969 16.175781 8.042969 C 16.847656 8.042969 17.519531 8.105469 18.179688 8.238281 C 18.839844 8.371094 19.484375 8.566406 20.109375 8.824219 C 20.730469 9.082031 21.324219 9.398438 21.886719 9.773438 C 22.445312 10.148438 22.964844 10.574219 23.441406 11.050781 C 23.921875 11.53125 24.347656 12.050781 24.722656 12.609375 C 25.097656 13.171875 25.414062 13.765625 25.671875 14.386719 C 25.929688 15.011719 26.125 15.652344 26.257812 16.316406 C 26.386719 16.976562 26.453125 17.648438 26.453125 18.320312 Z M 26.453125 18.320312 " fill-opacity="1" fill-rule="nonzero"/><path fill="#f7f9f7" d="M 25.835938 18.320312 C 25.835938 18.957031 25.777344 19.585938 25.652344 20.207031 C 25.527344 20.828125 25.34375 21.433594 25.101562 22.019531 C 24.859375 22.605469 24.5625 23.164062 24.207031 23.691406 C 23.855469 24.21875 23.457031 24.707031 23.007812 25.15625 C 22.558594 25.601562 22.070312 26.003906 21.542969 26.355469 C 21.015625 26.707031 20.457031 27.007812 19.871094 27.25 C 19.285156 27.492188 18.679688 27.675781 18.058594 27.800781 C 17.4375 27.921875 16.808594 27.984375 16.175781 27.984375 C 15.539062 27.984375 14.910156 27.921875 14.289062 27.800781 C 13.667969 27.675781 13.0625 27.492188 12.476562 27.25 C 11.890625 27.007812 11.332031 26.707031 10.804688 26.355469 C 10.277344 26.003906 9.789062 25.601562 9.339844 25.15625 C 8.890625 24.707031 8.492188 24.21875 8.140625 23.691406 C 7.785156 23.164062 7.488281 22.605469 7.246094 22.019531 C 7.003906 21.433594 6.820312 20.828125 6.695312 20.207031 C 6.574219 19.585938 6.511719 18.957031 6.511719 18.320312 C 6.511719 17.6875 6.574219 17.058594 6.695312 16.4375 C 6.820312 15.8125 7.003906 15.210938 7.246094 14.625 C 7.488281 14.039062 7.785156 13.480469 8.140625 12.953125 C 8.492188 12.425781 8.890625 11.9375 9.339844 11.488281 C 9.789062 11.039062 10.277344 10.640625 10.804688 10.285156 C 11.332031 9.933594 11.890625 9.636719 12.476562 9.394531 C 13.0625 9.152344 13.667969 8.96875 14.289062 8.84375 C 14.910156 8.71875 15.539062 8.660156 16.175781 8.660156 C 16.808594 8.660156 17.4375 8.71875 18.058594 8.84375 C 18.679688 8.96875 19.285156 9.152344 19.871094 9.394531 C 20.457031 9.636719 21.015625 9.933594 21.542969 10.285156 C 22.070312 10.640625 22.558594 11.039062 23.007812 11.488281 C 23.457031 11.9375 23.855469 12.425781 24.207031 12.953125 C 24.5625 13.480469 24.859375 14.039062 25.101562 14.625 C 25.34375 15.210938 25.527344 15.8125 25.652344 16.4375 C 25.777344 17.058594 25.835938 17.6875 25.835938 18.320312 Z M 25.835938 18.320312 " fill-opacity="1" fill-rule="nonzero"/><path fill="#000000" d="M 22.96875 13.117188 C 22.972656 13.121094 22.972656 13.125 22.976562 13.128906 C 22.933594 13.175781 22.894531 13.222656 22.851562 13.269531 C 22.535156 13.644531 22.308594 14.0625 22.210938 14.542969 C 22.167969 14.753906 22.164062 14.964844 22.175781 15.175781 C 22.183594 15.285156 22.1875 15.398438 22.191406 15.507812 C 22.203125 15.6875 22.21875 15.863281 22.226562 16.042969 C 22.238281 16.289062 22.25 16.539062 22.238281 16.789062 C 22.214844 17.15625 22.144531 17.519531 22.023438 17.867188 C 21.855469 18.34375 21.613281 18.777344 21.285156 19.160156 C 21.15625 19.304688 21.015625 19.4375 20.878906 19.578125 C 20.871094 19.585938 20.863281 19.59375 20.851562 19.605469 C 20.898438 19.644531 20.945312 19.679688 20.988281 19.71875 C 21.199219 19.910156 21.375 20.125 21.464844 20.398438 C 21.53125 20.589844 21.515625 20.777344 21.441406 20.964844 C 21.4375 20.96875 21.433594 20.972656 21.429688 20.980469 C 21.414062 20.96875 21.402344 20.960938 21.386719 20.953125 C 21.320312 20.910156 21.257812 20.867188 21.191406 20.824219 C 21.074219 20.75 20.953125 20.742188 20.820312 20.773438 C 20.570312 20.828125 20.355469 20.949219 20.15625 21.105469 C 20.023438 21.210938 19.898438 21.324219 19.757812 21.417969 C 19.484375 21.601562 19.179688 21.710938 18.851562 21.738281 C 18.585938 21.757812 18.320312 21.746094 18.0625 21.664062 C 18.015625 21.648438 17.972656 21.625 17.929688 21.609375 C 17.90625 21.601562 17.882812 21.597656 17.863281 21.601562 C 17.585938 21.660156 17.34375 21.78125 17.144531 21.988281 C 16.953125 22.183594 16.832031 22.414062 16.804688 22.6875 C 16.800781 22.753906 16.800781 22.820312 16.796875 22.886719 C 16.792969 23.09375 16.792969 23.304688 16.78125 23.511719 C 16.757812 23.933594 16.710938 24.351562 16.605469 24.761719 C 16.546875 24.988281 16.46875 25.207031 16.339844 25.402344 C 16.324219 25.425781 16.304688 25.449219 16.289062 25.46875 C 16.273438 25.496094 16.28125 25.519531 16.3125 25.523438 C 16.328125 25.527344 16.34375 25.527344 16.359375 25.527344 C 16.484375 25.527344 16.613281 25.527344 16.738281 25.527344 C 16.8125 25.527344 16.886719 25.535156 16.957031 25.53125 C 17.191406 25.527344 17.425781 25.511719 17.660156 25.507812 C 17.796875 25.503906 17.929688 25.507812 18.066406 25.511719 C 18.105469 25.515625 18.144531 25.527344 18.164062 25.566406 C 18.203125 25.628906 18.171875 25.714844 18.089844 25.742188 C 18.027344 25.765625 17.960938 25.777344 17.898438 25.78125 C 17.773438 25.792969 17.648438 25.796875 17.523438 25.796875 C 17.367188 25.796875 17.210938 25.792969 17.054688 25.792969 C 17.023438 25.792969 16.992188 25.804688 16.960938 25.808594 C 16.898438 25.8125 16.839844 25.824219 16.78125 25.824219 C 16.664062 25.824219 16.546875 25.820312 16.429688 25.8125 C 16.339844 25.808594 16.25 25.792969 16.160156 25.78125 C 16.117188 25.773438 16.085938 25.753906 16.054688 25.71875 C 16.019531 25.671875 15.972656 25.625 15.9375 25.574219 C 15.902344 25.527344 15.898438 25.476562 15.941406 25.425781 C 16.074219 25.273438 16.128906 25.082031 16.195312 24.898438 C 16.285156 24.648438 16.332031 24.386719 16.359375 24.121094 C 16.382812 23.910156 16.398438 23.695312 16.410156 23.480469 C 16.421875 23.320312 16.421875 23.160156 16.425781 23 C 16.425781 22.90625 16.398438 22.867188 16.3125 22.832031 C 16.226562 22.796875 16.214844 22.804688 16.214844 22.898438 C 16.214844 23.082031 16.214844 23.265625 16.210938 23.449219 C 16.207031 23.769531 16.1875 24.085938 16.128906 24.398438 C 16.078125 24.667969 16.007812 24.933594 15.875 25.179688 C 15.726562 25.460938 15.515625 25.679688 15.214844 25.800781 C 15.140625 25.832031 15.054688 25.84375 14.976562 25.847656 C 14.671875 25.855469 14.371094 25.859375 14.066406 25.863281 C 14.007812 25.863281 13.949219 25.859375 13.894531 25.855469 C 13.828125 25.847656 13.769531 25.820312 13.726562 25.769531 C 13.710938 25.746094 13.703125 25.714844 13.703125 25.683594 C 13.703125 25.621094 13.730469 25.5625 13.777344 25.519531 C 13.792969 25.503906 13.828125 25.496094 13.851562 25.492188 C 13.945312 25.484375 14.035156 25.480469 14.125 25.476562 C 14.234375 25.472656 14.34375 25.46875 14.453125 25.472656 C 14.507812 25.472656 14.5625 25.484375 14.617188 25.484375 C 14.777344 25.472656 14.9375 25.460938 15.097656 25.445312 C 15.152344 25.4375 15.207031 25.425781 15.265625 25.417969 C 15.300781 25.410156 15.328125 25.386719 15.351562 25.355469 C 15.5625 25.078125 15.699219 24.761719 15.789062 24.425781 C 15.851562 24.203125 15.886719 23.976562 15.898438 23.742188 C 15.917969 23.40625 15.90625 23.074219 15.8125 22.746094 C 15.75 22.53125 15.660156 22.328125 15.515625 22.152344 C 15.417969 22.035156 15.296875 21.953125 15.167969 21.878906 C 14.980469 21.765625 14.796875 21.648438 14.609375 21.535156 C 14.597656 21.527344 14.574219 21.523438 14.5625 21.53125 C 14.433594 21.597656 14.296875 21.644531 14.152344 21.65625 C 14.046875 21.664062 13.9375 21.667969 13.828125 21.660156 C 13.601562 21.640625 13.382812 21.585938 13.175781 21.496094 C 12.992188 21.421875 12.824219 21.320312 12.664062 21.203125 C 12.449219 21.046875 12.214844 20.921875 11.949219 20.855469 C 11.71875 20.800781 11.503906 20.824219 11.304688 20.964844 C 11.277344 20.984375 11.269531 20.96875 11.257812 20.945312 C 11.167969 20.777344 11.199219 20.609375 11.265625 20.441406 C 11.355469 20.226562 11.5 20.046875 11.679688 19.898438 C 11.796875 19.796875 11.925781 19.714844 12.050781 19.621094 C 12.058594 19.617188 12.0625 19.613281 12.066406 19.609375 C 11.980469 19.566406 11.898438 19.527344 11.816406 19.484375 C 11.675781 19.40625 11.546875 19.3125 11.429688 19.207031 C 11.101562 18.910156 10.875 18.542969 10.691406 18.144531 C 10.53125 17.792969 10.417969 17.429688 10.351562 17.050781 C 10.316406 16.839844 10.289062 16.628906 10.269531 16.417969 C 10.253906 16.230469 10.25 16.042969 10.246094 15.851562 C 10.238281 15.441406 10.199219 15.035156 10.097656 14.636719 C 9.980469 14.179688 9.796875 13.75 9.53125 13.359375 C 9.488281 13.289062 9.4375 13.226562 9.386719 13.160156 C 9.367188 13.132812 9.367188 13.117188 9.394531 13.097656 C 9.496094 13.027344 9.609375 12.992188 9.730469 12.980469 C 10.019531 12.953125 10.304688 12.988281 10.582031 13.0625 C 11.078125 13.191406 11.507812 13.4375 11.898438 13.765625 C 12.1875 14.007812 12.433594 14.292969 12.648438 14.601562 C 12.65625 14.613281 12.664062 14.625 12.679688 14.632812 C 12.699219 14.535156 12.71875 14.4375 12.734375 14.339844 C 12.769531 14.105469 12.714844 13.878906 12.625 13.664062 C 12.515625 13.394531 12.355469 13.15625 12.179688 12.929688 C 12.175781 12.921875 12.171875 12.917969 12.167969 12.910156 C 12.164062 12.90625 12.164062 12.902344 12.164062 12.894531 C 12.214844 12.859375 12.273438 12.84375 12.335938 12.828125 C 12.4375 12.804688 12.539062 12.816406 12.640625 12.824219 C 12.851562 12.84375 13.054688 12.886719 13.253906 12.957031 C 13.535156 13.0625 13.796875 13.210938 14.039062 13.390625 C 14.191406 13.503906 14.335938 13.632812 14.46875 13.773438 C 14.703125 14.015625 14.898438 14.285156 15.066406 14.578125 C 15.078125 14.597656 15.089844 14.613281 15.101562 14.632812 C 15.109375 14.625 15.113281 14.617188 15.117188 14.613281 C 15.300781 14.207031 15.519531 13.816406 15.753906 13.4375 C 15.941406 13.136719 16.136719 12.84375 16.328125 12.546875 C 16.351562 12.511719 16.355469 12.511719 16.382812 12.546875 C 16.5625 12.773438 16.714844 13.015625 16.851562 13.269531 C 16.996094 13.53125 17.128906 13.804688 17.261719 14.070312 C 17.296875 14.140625 17.328125 14.214844 17.359375 14.285156 C 17.367188 14.300781 17.375 14.3125 17.382812 14.332031 C 17.398438 14.3125 17.410156 14.300781 17.421875 14.285156 C 17.582031 14.050781 17.757812 13.835938 17.960938 13.636719 C 18.242188 13.363281 18.554688 13.128906 18.910156 12.957031 C 19.117188 12.859375 19.332031 12.785156 19.558594 12.75 C 19.621094 12.738281 19.691406 12.746094 19.753906 12.753906 C 19.839844 12.765625 19.925781 12.792969 20.011719 12.8125 C 20.019531 12.8125 20.023438 12.816406 20.03125 12.820312 C 20.027344 12.835938 20.019531 12.851562 20.011719 12.863281 C 19.894531 13.089844 19.792969 13.328125 19.730469 13.578125 C 19.675781 13.785156 19.660156 13.996094 19.671875 14.210938 C 19.683594 14.371094 19.695312 14.527344 19.730469 14.683594 C 19.734375 14.691406 19.734375 14.695312 19.738281 14.710938 C 19.75 14.695312 19.757812 14.683594 19.765625 14.667969 C 19.949219 14.355469 20.171875 14.070312 20.4375 13.820312 C 20.65625 13.617188 20.898438 13.441406 21.160156 13.300781 C 21.410156 13.167969 21.675781 13.074219 21.953125 13.019531 C 22.148438 12.980469 22.34375 12.964844 22.542969 12.972656 C 22.6875 12.980469 22.824219 13.011719 22.945312 13.101562 C 22.957031 13.105469 22.960938 13.113281 22.96875 13.117188 Z M 22.371094 13.363281 C 22.359375 13.359375 22.355469 13.359375 22.351562 13.359375 C 22.320312 13.363281 22.292969 13.363281 22.261719 13.367188 C 21.988281 13.378906 21.730469 13.445312 21.480469 13.5625 C 21.074219 13.753906 20.734375 14.03125 20.445312 14.375 C 20.226562 14.632812 20.050781 14.917969 19.90625 15.226562 C 19.894531 15.25 19.890625 15.273438 19.898438 15.300781 C 20 15.695312 20.082031 16.089844 20.132812 16.496094 C 20.167969 16.761719 20.191406 17.03125 20.179688 17.300781 C 20.175781 17.46875 20.164062 17.636719 20.144531 17.800781 C 20.101562 18.132812 20.003906 18.453125 19.863281 18.757812 C 19.714844 19.070312 19.519531 19.347656 19.261719 19.578125 C 19.253906 19.585938 19.246094 19.59375 19.238281 19.601562 C 19.246094 19.605469 19.25 19.609375 19.253906 19.609375 C 19.523438 19.695312 19.792969 19.703125 20.066406 19.613281 C 20.316406 19.53125 20.53125 19.382812 20.722656 19.203125 C 20.917969 19.011719 21.082031 18.792969 21.230469 18.5625 C 21.414062 18.273438 21.554688 17.964844 21.652344 17.636719 C 21.71875 17.414062 21.765625 17.191406 21.777344 16.960938 C 21.789062 16.773438 21.792969 16.589844 21.789062 16.402344 C 21.785156 16.203125 21.769531 16.007812 21.757812 15.808594 C 21.75 15.675781 21.742188 15.546875 21.734375 15.414062 C 21.722656 15.183594 21.710938 14.949219 21.742188 14.714844 C 21.796875 14.289062 21.949219 13.902344 22.207031 13.558594 C 22.257812 13.492188 22.3125 13.429688 22.371094 13.363281 Z M 20.980469 20.4375 C 20.972656 20.414062 20.96875 20.398438 20.960938 20.382812 C 20.945312 20.347656 20.929688 20.316406 20.910156 20.285156 C 20.84375 20.15625 20.75 20.046875 20.621094 19.976562 C 20.53125 19.925781 20.4375 19.898438 20.332031 19.933594 C 20.183594 19.976562 20.03125 20.015625 19.878906 20.050781 C 19.730469 20.085938 19.578125 20.125 19.429688 20.136719 C 19.246094 20.15625 19.058594 20.140625 18.878906 20.109375 C 18.816406 20.097656 18.757812 20.074219 18.695312 20.070312 C 18.507812 20.066406 18.328125 20.113281 18.15625 20.199219 C 18.136719 20.210938 18.132812 20.222656 18.144531 20.242188 C 18.179688 20.308594 18.21875 20.371094 18.238281 20.4375 C 18.296875 20.648438 18.277344 20.863281 18.222656 21.070312 C 18.203125 21.140625 18.167969 21.210938 18.136719 21.28125 C 18.152344 21.285156 18.171875 21.292969 18.191406 21.296875 C 18.324219 21.316406 18.457031 21.335938 18.589844 21.347656 C 18.722656 21.363281 18.859375 21.359375 18.992188 21.335938 C 19.277344 21.28125 19.519531 21.148438 19.738281 20.960938 C 19.941406 20.785156 20.15625 20.628906 20.410156 20.527344 C 20.566406 20.460938 20.730469 20.421875 20.90625 20.429688 C 20.929688 20.429688 20.949219 20.433594 20.980469 20.4375 Z M 19.804688 17.519531 C 19.808594 17.265625 19.796875 17.011719 19.777344 16.757812 C 19.761719 16.550781 19.734375 16.347656 19.699219 16.144531 C 19.671875 15.992188 19.617188 15.84375 19.582031 15.691406 C 19.515625 15.414062 19.445312 15.136719 19.386719 14.859375 C 19.332031 14.613281 19.285156 14.363281 19.296875 14.105469 C 19.304688 13.910156 19.339844 13.71875 19.40625 13.535156 C 19.433594 13.453125 19.46875 13.375 19.503906 13.289062 C 19.484375 13.289062 19.46875 13.289062 19.457031 13.289062 C 19.136719 13.332031 18.847656 13.453125 18.582031 13.636719 C 18.375 13.78125 18.191406 13.949219 18.023438 14.136719 C 17.871094 14.3125 17.742188 14.5 17.628906 14.699219 C 17.621094 14.714844 17.621094 14.742188 17.625 14.753906 C 17.707031 14.925781 17.796875 15.089844 17.875 15.261719 C 18.039062 15.613281 18.171875 15.976562 18.269531 16.355469 C 18.371094 16.761719 18.402344 17.183594 18.417969 17.601562 C 18.425781 17.929688 18.414062 18.253906 18.367188 18.574219 C 18.351562 18.683594 18.332031 18.796875 18.296875 18.898438 C 18.164062 19.242188 17.984375 19.558594 17.785156 19.867188 C 17.78125 19.875 17.773438 19.886719 17.765625 19.90625 C 17.792969 19.902344 17.8125 19.898438 17.835938 19.898438 C 18.125 19.863281 18.398438 19.769531 18.648438 19.617188 C 19.035156 19.378906 19.328125 19.050781 19.535156 18.648438 C 19.722656 18.296875 19.804688 17.914062 19.804688 17.519531 Z M 17.960938 18.605469 C 18.023438 18.363281 18.046875 18.113281 18.039062 17.859375 C 18.039062 17.625 18.019531 17.386719 17.984375 17.152344 C 17.929688 16.742188 17.828125 16.339844 17.699219 15.949219 C 17.527344 15.425781 17.304688 14.921875 17.046875 14.4375 C 16.84375 14.054688 16.621094 13.6875 16.382812 13.328125 C 16.375 13.316406 16.367188 13.308594 16.355469 13.292969 C 16.34375 13.308594 16.332031 13.320312 16.324219 13.332031 C 16.242188 13.460938 16.152344 13.59375 16.070312 13.722656 C 15.828125 14.101562 15.601562 14.492188 15.394531 14.894531 C 15.210938 15.253906 15.042969 15.625 14.90625 16.003906 C 14.730469 16.476562 14.59375 16.960938 14.542969 17.464844 C 14.515625 17.710938 14.511719 17.960938 14.542969 18.210938 C 14.589844 18.59375 14.722656 18.949219 14.945312 19.265625 C 15.109375 19.503906 15.308594 19.707031 15.5625 19.851562 C 15.917969 20.054688 16.300781 20.109375 16.695312 20.019531 C 17 19.949219 17.242188 19.78125 17.449219 19.554688 C 17.699219 19.28125 17.867188 18.964844 17.960938 18.605469 Z M 17.585938 21.300781 C 17.835938 21.121094 17.957031 20.855469 17.867188 20.546875 C 17.832031 20.429688 17.769531 20.328125 17.667969 20.253906 C 17.628906 20.230469 17.597656 20.214844 17.550781 20.238281 C 17.523438 20.253906 17.488281 20.261719 17.457031 20.273438 C 17.171875 20.371094 16.882812 20.429688 16.582031 20.445312 C 16.390625 20.453125 16.195312 20.445312 16 20.425781 C 15.703125 20.394531 15.414062 20.332031 15.132812 20.230469 C 15.117188 20.226562 15.089844 20.226562 15.078125 20.238281 C 15.035156 20.269531 14.988281 20.304688 14.957031 20.347656 C 14.851562 20.484375 14.820312 20.644531 14.8125 20.832031 C 14.816406 20.855469 14.816406 20.894531 14.824219 20.933594 C 14.871094 21.15625 15.007812 21.3125 15.191406 21.4375 C 15.335938 21.535156 15.484375 21.628906 15.625 21.734375 C 15.75 21.824219 15.859375 21.9375 15.9375 22.078125 C 16 22.179688 16.082031 22.265625 16.195312 22.3125 C 16.296875 22.355469 16.398438 22.367188 16.492188 22.289062 C 16.554688 22.234375 16.609375 22.171875 16.648438 22.097656 C 16.683594 22.035156 16.710938 21.96875 16.746094 21.90625 C 16.796875 21.800781 16.875 21.714844 16.964844 21.640625 C 17.074219 21.550781 17.195312 21.476562 17.328125 21.425781 C 17.417969 21.394531 17.507812 21.359375 17.585938 21.300781 Z M 14.78125 15.167969 C 14.796875 15.128906 14.804688 15.09375 14.777344 15.058594 C 14.757812 15.035156 14.746094 15.003906 14.730469 14.976562 C 14.457031 14.519531 14.144531 14.097656 13.75 13.742188 C 13.550781 13.566406 13.335938 13.410156 13.085938 13.308594 C 12.988281 13.269531 12.882812 13.242188 12.777344 13.207031 C 12.777344 13.210938 12.773438 13.214844 12.773438 13.21875 C 12.777344 13.226562 12.78125 13.234375 12.789062 13.238281 C 12.90625 13.378906 12.984375 13.539062 13.035156 13.714844 C 13.136719 14.0625 13.148438 14.414062 13.082031 14.769531 C 13.042969 14.96875 12.992188 15.167969 12.941406 15.367188 C 12.863281 15.667969 12.839844 15.972656 12.832031 16.28125 C 12.828125 16.460938 12.832031 16.640625 12.835938 16.816406 C 12.84375 17.019531 12.871094 17.21875 12.910156 17.417969 C 13.035156 18.03125 13.285156 18.582031 13.703125 19.054688 C 13.949219 19.335938 14.242188 19.546875 14.589844 19.679688 C 14.652344 19.707031 14.71875 19.726562 14.796875 19.753906 C 14.785156 19.738281 14.785156 19.734375 14.78125 19.730469 C 14.527344 19.40625 14.363281 19.035156 14.261719 18.636719 C 14.167969 18.25 14.128906 17.863281 14.148438 17.46875 C 14.15625 17.332031 14.171875 17.195312 14.1875 17.0625 C 14.242188 16.707031 14.332031 16.359375 14.453125 16.023438 C 14.554688 15.734375 14.667969 15.449219 14.78125 15.167969 Z M 14.554688 20.203125 C 14.582031 20.15625 14.617188 20.117188 14.652344 20.070312 C 14.566406 20.046875 14.488281 20.027344 14.410156 20.003906 C 14.171875 19.929688 13.953125 19.824219 13.734375 19.703125 C 13.722656 19.695312 13.699219 19.691406 13.683594 19.695312 C 13.484375 19.765625 13.28125 19.816406 13.070312 19.832031 C 13.011719 19.835938 12.957031 19.84375 12.902344 19.835938 C 12.789062 19.820312 12.679688 19.792969 12.566406 19.769531 C 12.546875 19.765625 12.519531 19.769531 12.5 19.78125 C 12.339844 19.859375 12.191406 19.953125 12.054688 20.066406 C 11.933594 20.171875 11.824219 20.292969 11.753906 20.441406 C 11.746094 20.464844 11.738281 20.484375 11.726562 20.511719 C 11.746094 20.507812 11.757812 20.503906 11.769531 20.5 C 11.855469 20.472656 11.945312 20.464844 12.035156 20.476562 C 12.234375 20.496094 12.417969 20.558594 12.585938 20.667969 C 12.699219 20.742188 12.800781 20.828125 12.914062 20.90625 C 13.265625 21.15625 13.65625 21.296875 14.097656 21.273438 C 14.199219 21.265625 14.304688 21.234375 14.40625 21.214844 C 14.429688 21.210938 14.4375 21.195312 14.429688 21.171875 C 14.417969 21.144531 14.410156 21.113281 14.40625 21.082031 C 14.390625 20.9375 14.378906 20.796875 14.363281 20.652344 C 14.355469 20.570312 14.378906 20.496094 14.417969 20.425781 C 14.460938 20.351562 14.507812 20.277344 14.554688 20.203125 Z M 13.242188 19.328125 C 13.273438 19.320312 13.296875 19.308594 13.332031 19.300781 C 13.289062 19.253906 13.253906 19.214844 13.214844 19.171875 C 13.007812 18.917969 12.851562 18.636719 12.730469 18.335938 C 12.5 17.757812 12.402344 17.152344 12.382812 16.535156 C 12.378906 16.402344 12.378906 16.265625 12.386719 16.128906 C 12.394531 15.988281 12.40625 15.847656 12.425781 15.707031 C 12.453125 15.492188 12.488281 15.28125 12.519531 15.066406 C 12.523438 15.046875 12.519531 15.023438 12.507812 15.011719 C 12.367188 14.804688 12.207031 14.609375 12.03125 14.429688 C 11.847656 14.238281 11.648438 14.070312 11.429688 13.925781 C 11.226562 13.785156 11.011719 13.671875 10.78125 13.585938 C 10.582031 13.515625 10.378906 13.464844 10.167969 13.445312 C 10.105469 13.441406 10.039062 13.4375 9.964844 13.433594 C 10.011719 13.5 10.050781 13.554688 10.085938 13.609375 C 10.253906 13.875 10.371094 14.164062 10.457031 14.464844 C 10.582031 14.890625 10.644531 15.332031 10.675781 15.773438 C 10.6875 15.988281 10.6875 16.203125 10.699219 16.417969 C 10.703125 16.5625 10.710938 16.710938 10.726562 16.855469 C 10.78125 17.28125 10.921875 17.675781 11.132812 18.046875 C 11.265625 18.285156 11.425781 18.503906 11.605469 18.707031 C 11.800781 18.921875 12.019531 19.109375 12.285156 19.234375 C 12.59375 19.378906 12.914062 19.414062 13.242188 19.328125 Z M 13.242188 19.328125 " fill-opacity="1" fill-rule="nonzero"/><path fill="#ff6600" d="M 22.351562 13.359375 C 22.355469 13.359375 22.359375 13.363281 22.371094 13.363281 C 22.3125 13.429688 22.257812 13.496094 22.207031 13.5625 C 21.945312 13.902344 21.796875 14.292969 21.742188 14.71875 C 21.710938 14.949219 21.71875 15.183594 21.734375 15.414062 C 21.742188 15.546875 21.75 15.679688 21.757812 15.808594 C 21.769531 16.007812 21.785156 16.207031 21.789062 16.402344 C 21.792969 16.589844 21.789062 16.773438 21.777344 16.960938 C 21.765625 17.191406 21.71875 17.414062 21.652344 17.636719 C 21.554688 17.964844 21.414062 18.273438 21.230469 18.5625 C 21.082031 18.792969 20.917969 19.011719 20.71875 19.203125 C 20.53125 19.382812 20.316406 19.53125 20.066406 19.613281 C 19.792969 19.703125 19.523438 19.695312 19.253906 19.609375 C 19.25 19.609375 19.246094 19.605469 19.238281 19.601562 C 19.246094 19.59375 19.253906 19.585938 19.261719 19.578125 C 19.519531 19.347656 19.714844 19.070312 19.859375 18.757812 C 20.003906 18.453125 20.101562 18.132812 20.144531 17.800781 C 20.164062 17.636719 20.171875 17.46875 20.179688 17.300781 C 20.191406 17.03125 20.167969 16.761719 20.132812 16.496094 C 20.082031 16.09375 20 15.695312 19.898438 15.300781 C 19.890625 15.273438 19.894531 15.25 19.90625 15.226562 C 20.050781 14.921875 20.226562 14.632812 20.441406 14.375 C 20.730469 14.03125 21.070312 13.753906 21.480469 13.5625 C 21.726562 13.445312 21.988281 13.378906 22.261719 13.367188 C 22.292969 13.363281 22.320312 13.363281 22.351562 13.359375 Z M 22.351562 13.359375 " fill-opacity="1" fill-rule="nonzero"/><path fill="#057501" d="M 20.960938 20.382812 C 20.96875 20.398438 20.972656 20.414062 20.980469 20.4375 C 20.949219 20.433594 20.929688 20.429688 20.90625 20.429688 C 20.734375 20.417969 20.570312 20.460938 20.410156 20.523438 C 20.15625 20.628906 19.941406 20.785156 19.738281 20.960938 C 19.519531 21.148438 19.277344 21.28125 18.992188 21.335938 C 18.859375 21.359375 18.726562 21.363281 18.589844 21.347656 C 18.457031 21.335938 18.324219 21.3125 18.191406 21.296875 C 18.171875 21.292969 18.152344 21.285156 18.136719 21.28125 C 18.167969 21.207031 18.203125 21.140625 18.222656 21.070312 C 18.277344 20.859375 18.296875 20.648438 18.238281 20.4375 C 18.21875 20.371094 18.179688 20.308594 18.148438 20.242188 C 18.132812 20.222656 18.136719 20.210938 18.15625 20.199219 C 18.328125 20.113281 18.507812 20.0625 18.695312 20.070312 C 18.757812 20.074219 18.816406 20.097656 18.878906 20.109375 C 19.058594 20.140625 19.246094 20.152344 19.429688 20.136719 C 19.582031 20.121094 19.730469 20.085938 19.878906 20.050781 C 20.03125 20.015625 20.183594 19.976562 20.332031 19.933594 C 20.4375 19.898438 20.53125 19.925781 20.621094 19.976562 C 20.75 20.046875 20.84375 20.15625 20.910156 20.28125 C 20.929688 20.316406 20.945312 20.347656 20.960938 20.382812 Z M 20.960938 20.382812 " fill-opacity="1" fill-rule="nonzero"/><path fill="#ff6600" d="M 19.777344 16.757812 C 19.796875 17.011719 19.804688 17.265625 19.804688 17.519531 C 19.804688 17.914062 19.722656 18.296875 19.535156 18.648438 C 19.328125 19.050781 19.035156 19.378906 18.648438 19.621094 C 18.398438 19.773438 18.125 19.863281 17.832031 19.898438 C 17.8125 19.898438 17.792969 19.902344 17.765625 19.90625 C 17.773438 19.886719 17.78125 19.878906 17.785156 19.867188 C 17.984375 19.5625 18.164062 19.242188 18.292969 18.902344 C 18.332031 18.796875 18.351562 18.6875 18.367188 18.574219 C 18.414062 18.253906 18.425781 17.929688 18.417969 17.605469 C 18.402344 17.183594 18.371094 16.765625 18.265625 16.355469 C 18.171875 15.980469 18.039062 15.617188 17.875 15.265625 C 17.796875 15.09375 17.707031 14.925781 17.625 14.757812 C 17.617188 14.742188 17.617188 14.714844 17.625 14.703125 C 17.742188 14.503906 17.871094 14.3125 18.023438 14.140625 C 18.1875 13.949219 18.375 13.78125 18.582031 13.636719 C 18.847656 13.457031 19.136719 13.332031 19.457031 13.292969 C 19.46875 13.289062 19.484375 13.292969 19.503906 13.292969 C 19.46875 13.375 19.433594 13.457031 19.40625 13.535156 C 19.339844 13.71875 19.304688 13.910156 19.296875 14.105469 C 19.285156 14.363281 19.332031 14.613281 19.386719 14.863281 C 19.445312 15.140625 19.511719 15.417969 19.582031 15.691406 C 19.617188 15.84375 19.671875 15.992188 19.699219 16.144531 C 19.734375 16.347656 19.761719 16.550781 19.777344 16.757812 Z M 19.777344 16.757812 " fill-opacity="1" fill-rule="nonzero"/><path fill="#ff6600" d="M 18.039062 17.859375 C 18.046875 18.113281 18.023438 18.363281 17.960938 18.605469 C 17.867188 18.964844 17.699219 19.28125 17.449219 19.554688 C 17.242188 19.78125 17 19.949219 16.695312 20.019531 C 16.300781 20.109375 15.917969 20.054688 15.5625 19.851562 C 15.308594 19.707031 15.109375 19.503906 14.945312 19.265625 C 14.722656 18.949219 14.589844 18.597656 14.542969 18.210938 C 14.511719 17.960938 14.515625 17.714844 14.542969 17.464844 C 14.59375 16.960938 14.730469 16.476562 14.90625 16.003906 C 15.046875 15.625 15.210938 15.253906 15.394531 14.894531 C 15.601562 14.492188 15.828125 14.105469 16.070312 13.726562 C 16.152344 13.59375 16.242188 13.460938 16.324219 13.332031 C 16.332031 13.320312 16.34375 13.308594 16.355469 13.292969 C 16.367188 13.308594 16.375 13.316406 16.382812 13.328125 C 16.621094 13.6875 16.84375 14.054688 17.046875 14.4375 C 17.304688 14.921875 17.527344 15.425781 17.699219 15.949219 C 17.828125 16.34375 17.929688 16.742188 17.984375 17.152344 C 18.019531 17.386719 18.039062 17.625 18.039062 17.859375 Z M 18.039062 17.859375 " fill-opacity="1" fill-rule="nonzero"/><path fill="#057501" d="M 17.867188 20.550781 C 17.957031 20.855469 17.835938 21.125 17.585938 21.304688 C 17.507812 21.359375 17.417969 21.394531 17.332031 21.425781 C 17.195312 21.476562 17.074219 21.550781 16.964844 21.644531 C 16.875 21.71875 16.796875 21.800781 16.746094 21.90625 C 16.710938 21.96875 16.683594 22.035156 16.648438 22.101562 C 16.609375 22.171875 16.554688 22.234375 16.492188 22.289062 C 16.398438 22.367188 16.296875 22.355469 16.195312 22.3125 C 16.082031 22.265625 16 22.183594 15.9375 22.078125 C 15.859375 21.9375 15.75 21.828125 15.625 21.734375 C 15.484375 21.628906 15.335938 21.535156 15.191406 21.4375 C 15.007812 21.3125 14.871094 21.15625 14.824219 20.933594 C 14.816406 20.894531 14.816406 20.855469 14.8125 20.832031 C 14.820312 20.648438 14.851562 20.484375 14.957031 20.347656 C 14.988281 20.304688 15.035156 20.269531 15.078125 20.238281 C 15.089844 20.226562 15.117188 20.226562 15.132812 20.230469 C 15.414062 20.332031 15.703125 20.398438 16.003906 20.429688 C 16.195312 20.449219 16.390625 20.457031 16.582031 20.445312 C 16.882812 20.429688 17.171875 20.371094 17.457031 20.273438 C 17.488281 20.261719 17.523438 20.253906 17.554688 20.238281 C 17.597656 20.214844 17.632812 20.230469 17.667969 20.253906 C 17.769531 20.328125 17.832031 20.429688 17.867188 20.550781 Z M 17.867188 20.550781 " fill-opacity="1" fill-rule="nonzero"/><path fill="#ff6600" d="M 14.777344 15.058594 C 14.804688 15.09375 14.796875 15.128906 14.78125 15.167969 C 14.667969 15.453125 14.554688 15.734375 14.453125 16.019531 C 14.332031 16.359375 14.242188 16.703125 14.1875 17.058594 C 14.171875 17.195312 14.15625 17.332031 14.148438 17.464844 C 14.128906 17.863281 14.167969 18.25 14.261719 18.636719 C 14.363281 19.035156 14.527344 19.40625 14.78125 19.730469 C 14.785156 19.734375 14.785156 19.738281 14.796875 19.753906 C 14.71875 19.726562 14.652344 19.707031 14.589844 19.679688 C 14.242188 19.542969 13.949219 19.335938 13.703125 19.054688 C 13.285156 18.582031 13.035156 18.03125 12.910156 17.414062 C 12.871094 17.21875 12.84375 17.019531 12.835938 16.816406 C 12.832031 16.640625 12.828125 16.460938 12.832031 16.28125 C 12.84375 15.972656 12.863281 15.667969 12.941406 15.367188 C 12.992188 15.167969 13.042969 14.96875 13.082031 14.769531 C 13.148438 14.414062 13.136719 14.0625 13.035156 13.714844 C 12.984375 13.539062 12.90625 13.378906 12.789062 13.238281 C 12.78125 13.234375 12.777344 13.226562 12.773438 13.21875 C 12.777344 13.214844 12.777344 13.210938 12.777344 13.207031 C 12.882812 13.238281 12.988281 13.269531 13.085938 13.308594 C 13.335938 13.410156 13.550781 13.5625 13.75 13.742188 C 14.144531 14.097656 14.457031 14.519531 14.730469 14.976562 C 14.746094 15.003906 14.757812 15.035156 14.777344 15.058594 Z M 14.777344 15.058594 " fill-opacity="1" fill-rule="nonzero"/><path fill="#057501" d="M 14.652344 20.070312 C 14.617188 20.117188 14.582031 20.15625 14.554688 20.203125 C 14.507812 20.277344 14.460938 20.351562 14.417969 20.425781 C 14.378906 20.496094 14.355469 20.570312 14.363281 20.652344 C 14.378906 20.796875 14.390625 20.9375 14.40625 21.082031 C 14.410156 21.113281 14.417969 21.144531 14.429688 21.171875 C 14.4375 21.195312 14.429688 21.210938 14.40625 21.214844 C 14.304688 21.234375 14.199219 21.265625 14.097656 21.273438 C 13.65625 21.296875 13.269531 21.15625 12.914062 20.90625 C 12.804688 20.828125 12.699219 20.742188 12.585938 20.667969 C 12.417969 20.558594 12.234375 20.496094 12.035156 20.476562 C 11.945312 20.464844 11.855469 20.472656 11.769531 20.5 C 11.757812 20.503906 11.75 20.507812 11.726562 20.511719 C 11.738281 20.484375 11.746094 20.464844 11.753906 20.441406 C 11.824219 20.292969 11.933594 20.171875 12.054688 20.066406 C 12.191406 19.953125 12.339844 19.859375 12.5 19.78125 C 12.519531 19.769531 12.546875 19.765625 12.566406 19.769531 C 12.679688 19.792969 12.789062 19.820312 12.902344 19.835938 C 12.957031 19.84375 13.011719 19.835938 13.070312 19.832031 C 13.28125 19.816406 13.484375 19.765625 13.683594 19.695312 C 13.699219 19.691406 13.71875 19.695312 13.734375 19.703125 C 13.953125 19.824219 14.171875 19.929688 14.410156 20.003906 C 14.488281 20.027344 14.566406 20.046875 14.652344 20.070312 Z M 14.652344 20.070312 " fill-opacity="1" fill-rule="nonzero"/><path fill="#ff6600" d="M 13.332031 19.300781 C 13.296875 19.308594 13.269531 19.320312 13.242188 19.328125 C 12.914062 19.414062 12.59375 19.378906 12.285156 19.234375 C 12.019531 19.109375 11.800781 18.925781 11.605469 18.707031 C 11.425781 18.507812 11.269531 18.285156 11.132812 18.050781 C 10.921875 17.675781 10.78125 17.28125 10.726562 16.855469 C 10.710938 16.710938 10.703125 16.5625 10.699219 16.417969 C 10.6875 16.203125 10.6875 15.988281 10.675781 15.773438 C 10.648438 15.332031 10.582031 14.894531 10.457031 14.464844 C 10.371094 14.164062 10.257812 13.875 10.085938 13.609375 C 10.050781 13.554688 10.011719 13.5 9.96875 13.4375 C 10.042969 13.441406 10.105469 13.441406 10.171875 13.449219 C 10.378906 13.46875 10.582031 13.515625 10.78125 13.585938 C 11.011719 13.671875 11.226562 13.789062 11.433594 13.925781 C 11.648438 14.074219 11.847656 14.242188 12.03125 14.429688 C 12.207031 14.609375 12.367188 14.804688 12.507812 15.011719 C 12.519531 15.027344 12.523438 15.050781 12.519531 15.066406 C 12.488281 15.28125 12.453125 15.492188 12.425781 15.707031 C 12.410156 15.847656 12.394531 15.988281 12.386719 16.132812 C 12.382812 16.265625 12.378906 16.402344 12.382812 16.535156 C 12.402344 17.15625 12.5 17.757812 12.730469 18.335938 C 12.851562 18.636719 13.007812 18.921875 13.21875 19.171875 C 13.253906 19.214844 13.289062 19.253906 13.332031 19.300781 Z M 13.332031 19.300781 " fill-opacity="1" fill-rule="nonzero"/><g fill="#000000" fill-opacity="1"><g transform="translate(24.679562, 13.782577)"><g><path d="M 11.296875 0.984375 C 11.023438 0.984375 10.8125 0.875 10.65625 0.65625 C 10.507812 0.4375 10.4375 0.175781 10.4375 -0.125 C 10.4375 -0.695312 10.703125 -1.484375 11.234375 -2.484375 C 10.859375 -2.453125 10.488281 -2.4375 10.125 -2.4375 C 9.851562 -2.4375 9.34375 -2.453125 8.59375 -2.484375 L 6.6875 -2.546875 C 5.988281 -1.429688 5.421875 -0.410156 4.984375 0.515625 C 4.847656 0.773438 4.671875 0.90625 4.453125 0.90625 C 4.304688 0.90625 4.234375 0.835938 4.234375 0.703125 C 4.234375 0.597656 4.265625 0.488281 4.328125 0.375 C 4.492188 0.0078125 4.710938 -0.414062 4.984375 -0.90625 C 5.253906 -1.394531 5.578125 -1.945312 5.953125 -2.5625 C 5.128906 -2.5625 4.585938 -2.523438 4.328125 -2.453125 C 3.878906 -2.335938 3.539062 -2.113281 3.3125 -1.78125 C 3.238281 -1.664062 3.175781 -1.601562 3.125 -1.59375 C 3.0625 -1.582031 3.03125 -1.609375 3.03125 -1.671875 C 3.03125 -1.722656 3.050781 -1.769531 3.09375 -1.8125 C 3.46875 -2.320312 3.851562 -2.675781 4.25 -2.875 C 4.644531 -3.082031 5.335938 -3.171875 6.328125 -3.140625 C 6.941406 -4.066406 7.789062 -5.441406 8.875 -7.265625 C 9.289062 -8.035156 9.5 -8.660156 9.5 -9.140625 C 9.5 -9.910156 8.972656 -10.296875 7.921875 -10.296875 C 6.648438 -10.296875 5.460938 -9.960938 4.359375 -9.296875 C 3.785156 -8.941406 3.242188 -8.488281 2.734375 -7.9375 C 2.222656 -7.394531 1.8125 -6.816406 1.5 -6.203125 C 1.195312 -5.597656 1.046875 -5 1.046875 -4.40625 C 1.046875 -3.476562 1.476562 -3.015625 2.34375 -3.015625 C 2.738281 -3.015625 3.082031 -3.109375 3.375 -3.296875 C 3.675781 -3.484375 3.941406 -3.71875 4.171875 -4 C 4.617188 -4.5625 4.84375 -5.117188 4.84375 -5.671875 C 4.84375 -5.972656 4.765625 -6.226562 4.609375 -6.4375 C 4.585938 -6.445312 4.578125 -6.46875 4.578125 -6.5 C 4.578125 -6.570312 4.613281 -6.609375 4.6875 -6.609375 C 4.738281 -6.609375 4.769531 -6.59375 4.78125 -6.5625 C 4.976562 -6.300781 5.078125 -5.992188 5.078125 -5.640625 C 5.078125 -5.023438 4.832031 -4.398438 4.34375 -3.765625 C 4.03125 -3.390625 3.710938 -3.113281 3.390625 -2.9375 C 3.066406 -2.757812 2.691406 -2.671875 2.265625 -2.671875 C 1.640625 -2.671875 1.148438 -2.867188 0.796875 -3.265625 C 0.453125 -3.660156 0.28125 -4.164062 0.28125 -4.78125 C 0.28125 -5.625 0.53125 -6.414062 1.03125 -7.15625 C 1.539062 -7.90625 2.179688 -8.550781 2.953125 -9.09375 C 4.460938 -10.15625 6.148438 -10.660156 8.015625 -10.609375 C 8.410156 -10.609375 8.78125 -10.539062 9.125 -10.40625 C 9.476562 -10.269531 9.757812 -10.070312 9.96875 -9.8125 C 10.1875 -9.5625 10.296875 -9.25 10.296875 -8.875 C 10.296875 -8.394531 10.113281 -7.859375 9.75 -7.265625 L 7.046875 -3.109375 C 7.242188 -3.097656 7.5 -3.078125 7.8125 -3.046875 C 8.132812 -3.023438 8.515625 -2.992188 8.953125 -2.953125 C 9.328125 -2.910156 9.640625 -2.878906 9.890625 -2.859375 C 10.140625 -2.847656 10.328125 -2.84375 10.453125 -2.84375 C 10.679688 -2.84375 10.878906 -2.84375 11.046875 -2.84375 C 11.210938 -2.84375 11.34375 -2.847656 11.4375 -2.859375 L 12 -3.796875 C 12.5 -4.628906 13.019531 -5.414062 13.5625 -6.15625 C 14.113281 -6.894531 14.679688 -7.59375 15.265625 -8.25 C 16.597656 -9.726562 17.738281 -10.632812 18.6875 -10.96875 C 18.71875 -10.976562 18.753906 -10.984375 18.796875 -10.984375 C 18.859375 -10.984375 18.890625 -10.945312 18.890625 -10.875 C 18.890625 -10.84375 18.875 -10.816406 18.84375 -10.796875 C 18.53125 -10.628906 18.148438 -10.332031 17.703125 -9.90625 C 17.265625 -9.476562 16.753906 -8.925781 16.171875 -8.25 C 14.929688 -6.820312 13.878906 -5.382812 13.015625 -3.9375 L 12.421875 -2.953125 C 12.878906 -3.003906 13.207031 -3.117188 13.40625 -3.296875 C 13.445312 -3.316406 13.484375 -3.300781 13.515625 -3.25 C 13.546875 -3.175781 13.539062 -3.125 13.5 -3.09375 C 13.195312 -2.863281 12.773438 -2.703125 12.234375 -2.609375 C 11.535156 -1.304688 11.1875 -0.390625 11.1875 0.140625 C 11.1875 0.472656 11.332031 0.640625 11.625 0.640625 C 11.820312 0.640625 12.050781 0.570312 12.3125 0.4375 C 12.570312 0.300781 12.785156 0.148438 12.953125 -0.015625 C 12.972656 -0.0351562 12.988281 -0.046875 13 -0.046875 C 13.03125 -0.046875 13.046875 -0.015625 13.046875 0.046875 C 13.035156 0.117188 13.007812 0.171875 12.96875 0.203125 C 12.84375 0.328125 12.679688 0.445312 12.484375 0.5625 C 12.285156 0.6875 12.078125 0.785156 11.859375 0.859375 C 11.648438 0.941406 11.460938 0.984375 11.296875 0.984375 Z M 11.296875 0.984375 "/></g></g></g><g fill="#000000" fill-opacity="1"><g transform="translate(38.904578, 13.782577)"><g><path d="M 1 0.078125 C 0.757812 0.078125 0.519531 -0.00390625 0.28125 -0.171875 C 0.0390625 -0.347656 -0.09375 -0.550781 -0.125 -0.78125 C -0.21875 -1.539062 0.265625 -2.453125 1.328125 -3.515625 C 2.390625 -4.566406 3.34375 -5.09375 4.1875 -5.09375 C 4.414062 -5.09375 4.59375 -5.039062 4.71875 -4.9375 C 4.789062 -4.863281 4.84375 -4.765625 4.875 -4.640625 C 4.914062 -4.523438 4.945312 -4.46875 4.96875 -4.46875 C 5.007812 -4.46875 5.039062 -4.472656 5.0625 -4.484375 C 5.09375 -4.503906 5.128906 -4.515625 5.171875 -4.515625 C 5.296875 -4.515625 5.398438 -4.46875 5.484375 -4.375 C 5.578125 -4.289062 5.628906 -4.210938 5.640625 -4.140625 C 5.648438 -4.117188 5.332031 -3.625 4.6875 -2.65625 C 4.03125 -1.707031 3.734375 -1.066406 3.796875 -0.734375 C 3.847656 -0.503906 3.957031 -0.390625 4.125 -0.390625 C 4.644531 -0.390625 5.59375 -1.242188 6.96875 -2.953125 C 7 -2.992188 7.03125 -3.015625 7.0625 -3.015625 C 7.101562 -3.015625 7.125 -2.984375 7.125 -2.921875 C 7.125 -2.835938 7.082031 -2.734375 7 -2.609375 C 5.726562 -0.910156 4.753906 -0.0625 4.078125 -0.0625 C 3.992188 -0.0625 3.910156 -0.078125 3.828125 -0.109375 C 3.390625 -0.273438 3.171875 -0.601562 3.171875 -1.09375 C 3.171875 -1.257812 3.191406 -1.425781 3.234375 -1.59375 L 2.296875 -0.703125 C 2.023438 -0.421875 1.773438 -0.21875 1.546875 -0.09375 C 1.328125 0.0195312 1.144531 0.078125 1 0.078125 Z M 0.875 -0.25 C 1.445312 -0.25 2.234375 -0.882812 3.234375 -2.15625 L 4.8125 -4.34375 C 4.726562 -4.476562 4.597656 -4.546875 4.421875 -4.546875 C 3.816406 -4.546875 2.992188 -4.054688 1.953125 -3.078125 C 0.878906 -2.078125 0.398438 -1.253906 0.515625 -0.609375 C 0.554688 -0.367188 0.675781 -0.25 0.875 -0.25 Z M 0.875 -0.25 "/></g></g></g><g fill="#000000" fill-opacity="1"><g transform="translate(45.067252, 13.782577)"><g><path d="M 3.53125 0.03125 C 3.289062 0.03125 3.171875 -0.101562 3.171875 -0.375 C 3.273438 -0.9375 3.5 -1.566406 3.84375 -2.265625 C 4 -2.597656 4.160156 -2.925781 4.328125 -3.25 C 4.492188 -3.582031 4.65625 -3.921875 4.8125 -4.265625 C 4.445312 -4.015625 4.078125 -3.734375 3.703125 -3.421875 C 3.335938 -3.117188 2.976562 -2.78125 2.625 -2.40625 C 2.21875 -1.96875 1.75 -1.40625 1.21875 -0.71875 C 0.820312 -0.226562 0.59375 0.015625 0.53125 0.015625 C 0.394531 0.015625 0.28125 -0.046875 0.1875 -0.171875 C 0.101562 -0.304688 0.0625 -0.421875 0.0625 -0.515625 C 0.0625 -0.640625 0.175781 -0.972656 0.40625 -1.515625 C 0.476562 -1.679688 0.550781 -1.847656 0.625 -2.015625 C 0.695312 -2.179688 0.769531 -2.34375 0.84375 -2.5 L -0.0625 -1.5625 C -0.0820312 -1.539062 -0.140625 -1.476562 -0.234375 -1.375 C -0.335938 -1.269531 -0.421875 -1.21875 -0.484375 -1.21875 C -0.523438 -1.21875 -0.546875 -1.253906 -0.546875 -1.328125 C -0.546875 -1.347656 -0.539062 -1.375 -0.53125 -1.40625 C -0.519531 -1.445312 -0.488281 -1.492188 -0.4375 -1.546875 C -0.28125 -1.691406 -0.125 -1.847656 0.03125 -2.015625 C 0.1875 -2.179688 0.347656 -2.378906 0.515625 -2.609375 C 0.648438 -2.773438 0.835938 -3.023438 1.078125 -3.359375 C 1.328125 -3.691406 1.628906 -4.113281 1.984375 -4.625 C 2.097656 -4.769531 2.253906 -4.84375 2.453125 -4.84375 C 2.648438 -4.84375 2.75 -4.75 2.75 -4.5625 C 2.75 -4.488281 2.492188 -4.023438 1.984375 -3.171875 C 1.722656 -2.710938 1.515625 -2.335938 1.359375 -2.046875 C 1.210938 -1.753906 1.117188 -1.539062 1.078125 -1.40625 C 1.296875 -1.644531 1.554688 -1.910156 1.859375 -2.203125 C 2.160156 -2.503906 2.515625 -2.84375 2.921875 -3.21875 C 4.140625 -4.351562 4.945312 -4.921875 5.34375 -4.921875 C 5.445312 -4.921875 5.550781 -4.882812 5.65625 -4.8125 C 5.757812 -4.738281 5.8125 -4.648438 5.8125 -4.546875 C 5.8125 -4.492188 5.617188 -4.128906 5.234375 -3.453125 C 4.859375 -2.765625 4.648438 -2.359375 4.609375 -2.234375 C 5.710938 -3.160156 6.265625 -3.628906 6.265625 -3.640625 C 7.203125 -4.359375 7.875 -4.71875 8.28125 -4.71875 C 8.40625 -4.71875 8.519531 -4.679688 8.625 -4.609375 C 8.726562 -4.535156 8.78125 -4.445312 8.78125 -4.34375 C 8.78125 -4.332031 8.460938 -3.914062 7.828125 -3.09375 C 7.160156 -2.269531 6.789062 -1.59375 6.71875 -1.0625 C 6.675781 -0.695312 6.859375 -0.515625 7.265625 -0.515625 C 7.515625 -0.515625 7.863281 -0.675781 8.3125 -1 C 8.757812 -1.320312 9.226562 -1.757812 9.71875 -2.3125 C 9.78125 -2.382812 9.84375 -2.453125 9.90625 -2.515625 C 9.976562 -2.578125 10.039062 -2.609375 10.09375 -2.609375 C 10.15625 -2.609375 10.1875 -2.585938 10.1875 -2.546875 C 10.1875 -2.472656 10.140625 -2.390625 10.046875 -2.296875 C 9.785156 -1.992188 9.476562 -1.675781 9.125 -1.34375 C 8.769531 -1.019531 8.414062 -0.742188 8.0625 -0.515625 C 7.71875 -0.285156 7.410156 -0.171875 7.140625 -0.171875 C 6.460938 -0.171875 6.125 -0.488281 6.125 -1.125 C 6.125 -1.34375 6.179688 -1.597656 6.296875 -1.890625 C 6.421875 -2.179688 6.546875 -2.445312 6.671875 -2.6875 C 6.960938 -3.25 7.273438 -3.742188 7.609375 -4.171875 C 7.285156 -4.015625 6.953125 -3.804688 6.609375 -3.546875 C 6.265625 -3.285156 5.910156 -2.976562 5.546875 -2.625 C 4.691406 -1.789062 4.101562 -0.945312 3.78125 -0.09375 C 3.726562 -0.0078125 3.644531 0.03125 3.53125 0.03125 Z M 3.53125 0.03125 "/></g></g></g><g fill="#000000" fill-opacity="1"><g transform="translate(54.505723, 13.782577)"><g><path d="M 0.765625 0.1875 C 0.441406 0.1875 0.148438 0.0859375 -0.109375 -0.109375 C -0.367188 -0.316406 -0.5 -0.585938 -0.5 -0.921875 C -0.5 -1.628906 -0.0625 -2.4375 0.8125 -3.34375 C 1.695312 -4.257812 2.488281 -4.71875 3.1875 -4.71875 C 3.414062 -4.71875 3.601562 -4.65625 3.75 -4.53125 C 3.894531 -4.40625 3.96875 -4.253906 3.96875 -4.078125 C 3.96875 -3.523438 3.519531 -2.976562 2.625 -2.4375 C 1.84375 -1.957031 1.179688 -1.71875 0.640625 -1.71875 C 0.554688 -1.71875 0.488281 -1.726562 0.4375 -1.75 C 0.28125 -1.476562 0.203125 -1.191406 0.203125 -0.890625 C 0.203125 -0.378906 0.445312 -0.125 0.9375 -0.125 C 1.4375 -0.125 2.082031 -0.457031 2.875 -1.125 C 3.476562 -1.613281 3.992188 -2.128906 4.421875 -2.671875 C 4.515625 -2.796875 4.597656 -2.859375 4.671875 -2.859375 C 4.722656 -2.859375 4.75 -2.828125 4.75 -2.765625 C 4.75 -2.703125 4.710938 -2.617188 4.640625 -2.515625 C 4.359375 -2.140625 4.054688 -1.796875 3.734375 -1.484375 C 3.421875 -1.179688 3.078125 -0.898438 2.703125 -0.640625 C 1.941406 -0.0859375 1.296875 0.1875 0.765625 0.1875 Z M 0.859375 -2.046875 C 1.234375 -2.046875 1.722656 -2.234375 2.328125 -2.609375 C 2.523438 -2.753906 2.722656 -2.910156 2.921875 -3.078125 C 3.117188 -3.253906 3.28125 -3.429688 3.40625 -3.609375 C 3.53125 -3.796875 3.59375 -3.957031 3.59375 -4.09375 C 3.59375 -4.226562 3.488281 -4.296875 3.28125 -4.296875 C 2.976562 -4.296875 2.554688 -4.070312 2.015625 -3.625 C 1.753906 -3.40625 1.503906 -3.164062 1.265625 -2.90625 C 1.023438 -2.644531 0.820312 -2.367188 0.65625 -2.078125 C 0.71875 -2.054688 0.785156 -2.046875 0.859375 -2.046875 Z M 0.859375 -2.046875 "/></g></g></g><g fill="#000000" fill-opacity="1"><g transform="translate(58.349922, 13.782577)"><g><path d="M 0.765625 0.1875 C 0.441406 0.1875 0.148438 0.0859375 -0.109375 -0.109375 C -0.367188 -0.316406 -0.5 -0.585938 -0.5 -0.921875 C -0.5 -1.628906 -0.0625 -2.4375 0.8125 -3.34375 C 1.695312 -4.257812 2.488281 -4.71875 3.1875 -4.71875 C 3.414062 -4.71875 3.601562 -4.65625 3.75 -4.53125 C 3.894531 -4.40625 3.96875 -4.253906 3.96875 -4.078125 C 3.96875 -3.523438 3.519531 -2.976562 2.625 -2.4375 C 1.84375 -1.957031 1.179688 -1.71875 0.640625 -1.71875 C 0.554688 -1.71875 0.488281 -1.726562 0.4375 -1.75 C 0.28125 -1.476562 0.203125 -1.191406 0.203125 -0.890625 C 0.203125 -0.378906 0.445312 -0.125 0.9375 -0.125 C 1.4375 -0.125 2.082031 -0.457031 2.875 -1.125 C 3.476562 -1.613281 3.992188 -2.128906 4.421875 -2.671875 C 4.515625 -2.796875 4.597656 -2.859375 4.671875 -2.859375 C 4.722656 -2.859375 4.75 -2.828125 4.75 -2.765625 C 4.75 -2.703125 4.710938 -2.617188 4.640625 -2.515625 C 4.359375 -2.140625 4.054688 -1.796875 3.734375 -1.484375 C 3.421875 -1.179688 3.078125 -0.898438 2.703125 -0.640625 C 1.941406 -0.0859375 1.296875 0.1875 0.765625 0.1875 Z M 0.859375 -2.046875 C 1.234375 -2.046875 1.722656 -2.234375 2.328125 -2.609375 C 2.523438 -2.753906 2.722656 -2.910156 2.921875 -3.078125 C 3.117188 -3.253906 3.28125 -3.429688 3.40625 -3.609375 C 3.53125 -3.796875 3.59375 -3.957031 3.59375 -4.09375 C 3.59375 -4.226562 3.488281 -4.296875 3.28125 -4.296875 C 2.976562 -4.296875 2.554688 -4.070312 2.015625 -3.625 C 1.753906 -3.40625 1.503906 -3.164062 1.265625 -2.90625 C 1.023438 -2.644531 0.820312 -2.367188 0.65625 -2.078125 C 0.71875 -2.054688 0.785156 -2.046875 0.859375 -2.046875 Z M 0.859375 -2.046875 "/></g></g></g><g fill="#000000" fill-opacity="1"><g transform="translate(62.194122, 13.782577)"><g><path d="M 3.046875 0.078125 C 2.617188 0.078125 2.320312 -0.03125 2.15625 -0.25 C 2 -0.476562 1.921875 -0.785156 1.921875 -1.171875 C 1.921875 -1.585938 2.050781 -2.082031 2.3125 -2.65625 C 2.414062 -2.882812 2.519531 -3.09375 2.625 -3.28125 C 2.738281 -3.46875 2.851562 -3.640625 2.96875 -3.796875 C 2.9375 -3.785156 2.90625 -3.78125 2.875 -3.78125 C 2.84375 -3.78125 2.8125 -3.78125 2.78125 -3.78125 C 2.539062 -3.78125 2.34375 -3.953125 2.1875 -4.296875 L 1.078125 -2.859375 C 0.484375 -2.085938 0.125 -1.703125 0 -1.703125 C -0.0507812 -1.703125 -0.078125 -1.722656 -0.078125 -1.765625 C -0.078125 -1.816406 -0.0507812 -1.878906 0 -1.953125 C 0.03125 -2.015625 0.0859375 -2.097656 0.171875 -2.203125 C 0.554688 -2.640625 0.90625 -3.070312 1.21875 -3.5 C 1.539062 -3.925781 1.804688 -4.34375 2.015625 -4.75 C 2.242188 -5.625 2.535156 -6.0625 2.890625 -6.0625 C 3.117188 -6.0625 3.234375 -5.953125 3.234375 -5.734375 C 3.234375 -5.546875 3.109375 -5.300781 2.859375 -5 C 2.617188 -4.6875 2.5 -4.523438 2.5 -4.515625 C 2.5 -4.304688 2.648438 -4.203125 2.953125 -4.203125 C 3.140625 -4.203125 3.34375 -4.265625 3.5625 -4.390625 L 3.953125 -4.640625 C 3.972656 -4.648438 4 -4.65625 4.03125 -4.65625 C 4.15625 -4.65625 4.257812 -4.601562 4.34375 -4.5 C 4.4375 -4.394531 4.46875 -4.304688 4.4375 -4.234375 L 3.40625 -2.9375 C 2.769531 -2.113281 2.453125 -1.453125 2.453125 -0.953125 C 2.453125 -0.503906 2.671875 -0.28125 3.109375 -0.28125 C 3.410156 -0.28125 3.734375 -0.367188 4.078125 -0.546875 C 4.421875 -0.734375 4.753906 -0.957031 5.078125 -1.21875 C 5.398438 -1.476562 5.671875 -1.734375 5.890625 -1.984375 L 6.25 -2.40625 C 6.269531 -2.425781 6.296875 -2.453125 6.328125 -2.484375 C 6.359375 -2.515625 6.382812 -2.53125 6.40625 -2.53125 C 6.46875 -2.53125 6.5 -2.492188 6.5 -2.421875 C 6.5 -2.398438 6.488281 -2.363281 6.46875 -2.3125 C 6.445312 -2.269531 6.414062 -2.21875 6.375 -2.15625 L 5.890625 -1.609375 C 5.660156 -1.347656 5.378906 -1.085938 5.046875 -0.828125 C 4.710938 -0.566406 4.367188 -0.347656 4.015625 -0.171875 C 3.660156 -0.00390625 3.335938 0.078125 3.046875 0.078125 Z M 3.046875 0.078125 "/></g></g></g><g fill="#000000" fill-opacity="1"><g transform="translate(68.087559, 13.782577)"><g/></g></g><g fill="#000000" fill-opacity="1"><g transform="translate(71.049227, 13.782577)"><g><path d="M 4.171875 1.421875 C 3.765625 1.421875 3.253906 1.175781 2.640625 0.6875 C 2.210938 0.613281 1.847656 0.519531 1.546875 0.40625 C 1.242188 0.289062 0.992188 0.15625 0.796875 0 C 0.515625 -0.238281 0.269531 -0.554688 0.0625 -0.953125 C -0.144531 -1.359375 -0.25 -1.742188 -0.25 -2.109375 C -0.25 -2.390625 -0.1875 -2.640625 -0.0625 -2.859375 C 0.238281 -3.390625 0.617188 -3.65625 1.078125 -3.65625 C 1.421875 -3.65625 1.625 -3.359375 1.6875 -2.765625 C 1.757812 -2.210938 1.816406 -1.773438 1.859375 -1.453125 C 1.898438 -1.128906 1.9375 -0.921875 1.96875 -0.828125 C 2.125 -0.335938 2.378906 0.078125 2.734375 0.421875 C 3.148438 0.503906 3.601562 0.546875 4.09375 0.546875 C 5.175781 0.546875 6.207031 0.34375 7.1875 -0.0625 C 7.613281 -0.238281 8.023438 -0.472656 8.421875 -0.765625 C 8.816406 -1.054688 9.144531 -1.375 9.40625 -1.71875 C 9.664062 -2.070312 9.796875 -2.410156 9.796875 -2.734375 C 9.796875 -3.203125 9.378906 -3.566406 8.546875 -3.828125 L 5.921875 -4.421875 C 5.378906 -4.546875 4.945312 -4.757812 4.625 -5.0625 C 4.300781 -5.363281 4.140625 -5.707031 4.140625 -6.09375 C 4.140625 -6.695312 4.515625 -7.296875 5.265625 -7.890625 C 5.640625 -8.203125 6.082031 -8.460938 6.59375 -8.671875 C 7.101562 -8.890625 7.640625 -9.054688 8.203125 -9.171875 C 8.765625 -9.285156 9.304688 -9.34375 9.828125 -9.34375 C 10.566406 -9.34375 11.195312 -9.226562 11.71875 -9 C 12.238281 -8.769531 12.5625 -8.4375 12.6875 -8 C 12.71875 -7.894531 12.734375 -7.785156 12.734375 -7.671875 C 12.734375 -7.066406 12.429688 -6.644531 11.828125 -6.40625 C 11.460938 -6.25 11.148438 -6.171875 10.890625 -6.171875 C 10.722656 -6.171875 10.597656 -6.203125 10.515625 -6.265625 C 10.492188 -6.285156 10.484375 -6.3125 10.484375 -6.34375 C 10.484375 -6.40625 10.625 -6.441406 10.90625 -6.453125 C 11.070312 -6.460938 11.207031 -6.476562 11.3125 -6.5 C 11.425781 -6.519531 11.507812 -6.539062 11.5625 -6.5625 C 11.9375 -6.757812 12.125 -7.054688 12.125 -7.453125 C 12.125 -7.648438 12.070312 -7.859375 11.96875 -8.078125 C 11.65625 -8.640625 10.878906 -8.921875 9.640625 -8.921875 C 9.191406 -8.921875 8.726562 -8.875 8.25 -8.78125 C 7.769531 -8.6875 7.316406 -8.546875 6.890625 -8.359375 C 6.460938 -8.179688 6.097656 -7.953125 5.796875 -7.671875 C 5.285156 -7.191406 5.03125 -6.765625 5.03125 -6.390625 C 5.03125 -6.097656 5.171875 -5.835938 5.453125 -5.609375 C 5.734375 -5.390625 6.164062 -5.222656 6.75 -5.109375 L 8.515625 -4.78125 C 9.191406 -4.65625 9.738281 -4.460938 10.15625 -4.203125 C 10.570312 -3.953125 10.78125 -3.566406 10.78125 -3.046875 C 10.78125 -2.585938 10.664062 -2.160156 10.4375 -1.765625 C 10.207031 -1.367188 9.898438 -1.007812 9.515625 -0.6875 C 9.128906 -0.375 8.691406 -0.113281 8.203125 0.09375 C 7.097656 0.582031 5.796875 0.828125 4.296875 0.828125 C 4.097656 0.828125 3.90625 0.820312 3.71875 0.8125 C 3.53125 0.800781 3.347656 0.785156 3.171875 0.765625 C 3.304688 0.835938 3.476562 0.914062 3.6875 1 C 3.90625 1.082031 4.15625 1.15625 4.4375 1.21875 C 4.46875 1.226562 4.484375 1.25 4.484375 1.28125 C 4.484375 1.375 4.378906 1.421875 4.171875 1.421875 Z M 2.203125 0.265625 C 1.929688 -0.0234375 1.71875 -0.332031 1.5625 -0.65625 C 1.34375 -1.15625 1.179688 -1.769531 1.078125 -2.5 C 0.992188 -3.03125 0.910156 -3.296875 0.828125 -3.296875 C 0.742188 -3.296875 0.632812 -3.234375 0.5 -3.109375 C 0.363281 -2.992188 0.296875 -2.738281 0.296875 -2.34375 C 0.296875 -1.59375 0.566406 -0.9375 1.109375 -0.375 C 1.378906 -0.09375 1.742188 0.117188 2.203125 0.265625 Z M 2.203125 0.265625 "/></g></g></g><g fill="#000000" fill-opacity="1"><g transform="translate(82.237769, 13.782577)"><g><path d="M 3.296875 -5.140625 C 3.128906 -5.140625 2.984375 -5.191406 2.859375 -5.296875 C 2.734375 -5.410156 2.671875 -5.539062 2.671875 -5.6875 C 2.671875 -5.957031 2.863281 -6.09375 3.25 -6.09375 C 3.382812 -6.09375 3.519531 -6.046875 3.65625 -5.953125 C 3.800781 -5.859375 3.875 -5.742188 3.875 -5.609375 C 3.875 -5.484375 3.804688 -5.375 3.671875 -5.28125 C 3.546875 -5.1875 3.421875 -5.140625 3.296875 -5.140625 Z M 0.53125 0.171875 C 0.3125 0.171875 0.132812 0.0976562 0 -0.046875 C -0.144531 -0.191406 -0.21875 -0.453125 -0.21875 -0.828125 C -0.21875 -1.035156 -0.171875 -1.273438 -0.078125 -1.546875 C 0.015625 -1.816406 0.132812 -2.09375 0.28125 -2.375 C 0.425781 -2.65625 0.566406 -2.90625 0.703125 -3.125 C 1.265625 -4.03125 1.722656 -4.488281 2.078125 -4.5 C 2.171875 -4.5 2.28125 -4.460938 2.40625 -4.390625 C 2.539062 -4.316406 2.609375 -4.234375 2.609375 -4.140625 C 2.609375 -4.140625 2.226562 -3.648438 1.46875 -2.671875 C 0.71875 -1.703125 0.34375 -1.015625 0.34375 -0.609375 C 0.34375 -0.296875 0.46875 -0.140625 0.71875 -0.140625 C 0.875 -0.140625 1.078125 -0.203125 1.328125 -0.328125 C 1.585938 -0.460938 1.859375 -0.632812 2.140625 -0.84375 C 2.421875 -1.0625 2.6875 -1.289062 2.9375 -1.53125 C 3.1875 -1.769531 3.394531 -1.988281 3.5625 -2.1875 C 3.65625 -2.3125 3.738281 -2.398438 3.8125 -2.453125 C 3.894531 -2.503906 3.945312 -2.53125 3.96875 -2.53125 C 4 -2.53125 4.015625 -2.5 4.015625 -2.4375 C 4.015625 -2.382812 3.957031 -2.28125 3.84375 -2.125 C 3.726562 -1.976562 3.570312 -1.804688 3.375 -1.609375 C 3.132812 -1.367188 2.867188 -1.109375 2.578125 -0.828125 C 2.296875 -0.554688 1.984375 -0.320312 1.640625 -0.125 C 1.304688 0.0703125 0.9375 0.171875 0.53125 0.171875 Z M 0.53125 0.171875 "/></g></g></g><g fill="#000000" fill-opacity="1"><g transform="translate(85.618271, 13.782577)"><g><path d="M 3.8125 0.03125 C 3.539062 0.03125 3.347656 -0.046875 3.234375 -0.203125 C 3.128906 -0.359375 3.078125 -0.550781 3.078125 -0.78125 C 3.078125 -1.351562 3.273438 -1.96875 3.671875 -2.625 L 4.640625 -4.1875 C 3.960938 -3.6875 3.285156 -3.0625 2.609375 -2.3125 C 2.429688 -2.113281 2.226562 -1.878906 2 -1.609375 C 1.78125 -1.347656 1.535156 -1.039062 1.265625 -0.6875 C 0.910156 -0.21875 0.695312 0.015625 0.625 0.015625 C 0.488281 0.015625 0.375 -0.046875 0.28125 -0.171875 C 0.195312 -0.296875 0.15625 -0.410156 0.15625 -0.515625 C 0.15625 -0.585938 0.175781 -0.726562 0.21875 -0.9375 C 0.269531 -1.15625 0.332031 -1.347656 0.40625 -1.515625 C 0.476562 -1.679688 0.550781 -1.847656 0.625 -2.015625 C 0.695312 -2.179688 0.769531 -2.34375 0.84375 -2.5 L -0.0625 -1.5625 C -0.0820312 -1.539062 -0.140625 -1.476562 -0.234375 -1.375 C -0.335938 -1.269531 -0.421875 -1.21875 -0.484375 -1.21875 C -0.523438 -1.21875 -0.546875 -1.253906 -0.546875 -1.328125 C -0.546875 -1.347656 -0.539062 -1.375 -0.53125 -1.40625 C -0.519531 -1.445312 -0.488281 -1.492188 -0.4375 -1.546875 C -0.28125 -1.691406 -0.125 -1.847656 0.03125 -2.015625 C 0.1875 -2.179688 0.347656 -2.378906 0.515625 -2.609375 C 0.609375 -2.710938 0.742188 -2.875 0.921875 -3.09375 C 1.109375 -3.320312 1.304688 -3.566406 1.515625 -3.828125 C 1.734375 -4.085938 1.9375 -4.328125 2.125 -4.546875 C 2.175781 -4.617188 2.226562 -4.664062 2.28125 -4.6875 C 2.34375 -4.707031 2.382812 -4.71875 2.40625 -4.71875 C 2.675781 -4.71875 2.8125 -4.613281 2.8125 -4.40625 C 2.8125 -4.351562 2.796875 -4.296875 2.765625 -4.234375 C 1.867188 -2.992188 1.332031 -2.050781 1.15625 -1.40625 C 2.3125 -2.5625 3.238281 -3.429688 3.9375 -4.015625 C 4.644531 -4.597656 5.144531 -4.890625 5.4375 -4.890625 C 5.601562 -4.890625 5.726562 -4.863281 5.8125 -4.8125 C 5.894531 -4.757812 5.9375 -4.664062 5.9375 -4.53125 C 5.9375 -4.476562 5.929688 -4.4375 5.921875 -4.40625 C 5.890625 -4.34375 5.6875 -4.066406 5.3125 -3.578125 C 5.082031 -3.296875 4.878906 -3.039062 4.703125 -2.8125 C 4.523438 -2.582031 4.382812 -2.382812 4.28125 -2.21875 C 4.09375 -1.9375 3.953125 -1.671875 3.859375 -1.421875 C 3.773438 -1.179688 3.734375 -0.976562 3.734375 -0.8125 C 3.734375 -0.738281 3.742188 -0.648438 3.765625 -0.546875 C 3.785156 -0.453125 3.847656 -0.40625 3.953125 -0.40625 C 4.179688 -0.40625 4.539062 -0.601562 5.03125 -1 C 5.257812 -1.195312 5.472656 -1.394531 5.671875 -1.59375 C 5.867188 -1.800781 6.054688 -2.007812 6.234375 -2.21875 C 6.273438 -2.25 6.335938 -2.320312 6.421875 -2.4375 C 6.515625 -2.550781 6.570312 -2.609375 6.59375 -2.609375 C 6.632812 -2.609375 6.65625 -2.570312 6.65625 -2.5 C 6.65625 -2.457031 6.628906 -2.390625 6.578125 -2.296875 C 6.535156 -2.203125 6.488281 -2.128906 6.4375 -2.078125 C 6.332031 -1.953125 6.171875 -1.773438 5.953125 -1.546875 C 5.742188 -1.316406 5.503906 -1.082031 5.234375 -0.84375 C 4.972656 -0.601562 4.71875 -0.394531 4.46875 -0.21875 C 4.21875 -0.0507812 4 0.03125 3.8125 0.03125 Z M 3.8125 0.03125 "/></g></g></g><g fill="#000000" fill-opacity="1"><g transform="translate(91.646326, 13.782577)"><g><path d="M -0.171875 3.0625 C -0.460938 3.0625 -0.710938 2.9375 -0.921875 2.6875 C -1.128906 2.4375 -1.238281 2.171875 -1.25 1.890625 C -1.226562 1.765625 -1.1875 1.703125 -1.125 1.703125 C -1.0625 1.703125 -1.023438 1.78125 -1.015625 1.9375 C -1.003906 2.09375 -0.925781 2.242188 -0.78125 2.390625 C -0.625 2.535156 -0.476562 2.609375 -0.34375 2.609375 C 0.226562 2.609375 0.835938 2.238281 1.484375 1.5 C 1.710938 1.226562 1.945312 0.910156 2.1875 0.546875 C 2.4375 0.179688 2.675781 -0.226562 2.90625 -0.6875 L 3.65625 -2.171875 L 2.53125 -1.03125 C 2.175781 -0.6875 1.867188 -0.425781 1.609375 -0.25 C 1.359375 -0.0820312 1.164062 0 1.03125 0 C 0.789062 0 0.550781 -0.0820312 0.3125 -0.25 C 0.0703125 -0.425781 -0.0625 -0.632812 -0.09375 -0.875 C -0.1875 -1.632812 0.296875 -2.546875 1.359375 -3.609375 C 2.421875 -4.648438 3.375 -5.171875 4.21875 -5.171875 C 4.445312 -5.171875 4.625 -5.117188 4.75 -5.015625 C 4.820312 -4.953125 4.875 -4.859375 4.90625 -4.734375 C 4.945312 -4.617188 4.976562 -4.5625 5 -4.5625 C 5.03125 -4.5625 5.0625 -4.566406 5.09375 -4.578125 C 5.125 -4.597656 5.160156 -4.609375 5.203125 -4.609375 C 5.328125 -4.609375 5.429688 -4.5625 5.515625 -4.46875 C 5.609375 -4.382812 5.640625 -4.296875 5.609375 -4.203125 C 5.597656 -4.109375 5.453125 -3.835938 5.171875 -3.390625 C 4.992188 -3.097656 4.789062 -2.738281 4.5625 -2.3125 C 4.332031 -1.882812 4.085938 -1.441406 3.828125 -0.984375 C 3.578125 -0.535156 3.332031 -0.113281 3.09375 0.28125 C 2.851562 0.675781 2.640625 0.992188 2.453125 1.234375 C 1.535156 2.453125 0.660156 3.0625 -0.171875 3.0625 Z M 0.890625 -0.34375 C 1.472656 -0.34375 2.265625 -0.976562 3.265625 -2.25 L 4.84375 -4.421875 C 4.78125 -4.566406 4.65625 -4.640625 4.46875 -4.640625 C 3.851562 -4.640625 3.023438 -4.148438 1.984375 -3.171875 C 0.910156 -2.148438 0.425781 -1.328125 0.53125 -0.703125 C 0.582031 -0.460938 0.703125 -0.34375 0.890625 -0.34375 Z M 0.890625 -0.34375 "/></g></g></g><g fill="#000000" fill-opacity="1"><g transform="translate(97.18077, 13.782577)"><g><path d="M -0.40625 0.078125 C -0.695312 0.078125 -0.84375 -0.00390625 -0.84375 -0.171875 C -0.84375 -0.273438 -0.78125 -0.4375 -0.65625 -0.65625 C -0.195312 -1.476562 0.210938 -2.203125 0.578125 -2.828125 C 0.941406 -3.460938 1.265625 -4 1.546875 -4.4375 C 2.722656 -6.34375 3.554688 -7.375 4.046875 -7.53125 C 4.066406 -7.53125 4.082031 -7.53125 4.09375 -7.53125 C 4.101562 -7.539062 4.113281 -7.546875 4.125 -7.546875 C 4.257812 -7.546875 4.34375 -7.441406 4.375 -7.234375 C 4.351562 -7.023438 3.835938 -6.269531 2.828125 -4.96875 C 2.296875 -4.300781 1.882812 -3.75 1.59375 -3.3125 C 1.300781 -2.875 1.117188 -2.554688 1.046875 -2.359375 C 1.378906 -2.597656 1.734375 -2.851562 2.109375 -3.125 C 2.484375 -3.394531 2.847656 -3.648438 3.203125 -3.890625 C 3.566406 -4.140625 3.894531 -4.335938 4.1875 -4.484375 C 4.476562 -4.640625 4.703125 -4.726562 4.859375 -4.75 C 4.878906 -4.75 4.90625 -4.75 4.9375 -4.75 C 4.96875 -4.757812 4.988281 -4.765625 5 -4.765625 C 5.269531 -4.765625 5.40625 -4.632812 5.40625 -4.375 C 5.40625 -4.3125 5.316406 -4.160156 5.140625 -3.921875 C 4.960938 -3.679688 4.691406 -3.3125 4.328125 -2.8125 C 3.660156 -1.9375 3.328125 -1.28125 3.328125 -0.84375 C 3.328125 -0.613281 3.414062 -0.5 3.59375 -0.5 C 3.769531 -0.507812 3.972656 -0.585938 4.203125 -0.734375 C 4.441406 -0.878906 4.679688 -1.0625 4.921875 -1.28125 C 5.160156 -1.5 5.375 -1.71875 5.5625 -1.9375 C 5.757812 -2.15625 5.910156 -2.320312 6.015625 -2.4375 C 6.097656 -2.53125 6.164062 -2.578125 6.21875 -2.578125 C 6.257812 -2.578125 6.28125 -2.554688 6.28125 -2.515625 C 6.28125 -2.429688 6.238281 -2.335938 6.15625 -2.234375 C 6.039062 -2.078125 5.863281 -1.878906 5.625 -1.640625 C 5.394531 -1.398438 5.140625 -1.15625 4.859375 -0.90625 C 4.585938 -0.664062 4.328125 -0.460938 4.078125 -0.296875 C 3.835938 -0.140625 3.660156 -0.0625 3.546875 -0.0625 C 2.953125 -0.0625 2.65625 -0.40625 2.65625 -1.09375 C 2.65625 -1.476562 2.835938 -1.984375 3.203125 -2.609375 C 3.335938 -2.847656 3.476562 -3.085938 3.625 -3.328125 C 3.78125 -3.566406 3.929688 -3.804688 4.078125 -4.046875 C 2.804688 -3.410156 1.648438 -2.46875 0.609375 -1.21875 C 0.484375 -1.039062 0.347656 -0.847656 0.203125 -0.640625 C 0.0664062 -0.441406 -0.0507812 -0.269531 -0.15625 -0.125 C -0.269531 0.0078125 -0.351562 0.078125 -0.40625 0.078125 Z M -0.40625 0.078125 "/></g></g></g><g fill="#000000" fill-opacity="1"><g transform="translate(41.112826, 34.349719)"><g/></g></g><g fill="#000000" fill-opacity="1"><g transform="translate(44.06351, 34.349719)"><g><path d="M 6.34375 0.703125 C 4.769531 0.703125 3.695312 0.164062 3.125 -0.90625 C 2.09375 -0.0507812 1.359375 0.375 0.921875 0.375 C 0.710938 0.375 0.550781 0.273438 0.4375 0.078125 C 0.320312 -0.117188 0.265625 -0.34375 0.265625 -0.59375 C 0.265625 -1.195312 0.492188 -1.894531 0.953125 -2.6875 C 1.148438 -3.039062 1.367188 -3.359375 1.609375 -3.640625 C 1.847656 -3.929688 2.117188 -4.078125 2.421875 -4.078125 C 2.710938 -4.078125 2.929688 -3.835938 3.078125 -3.359375 L 3.53125 -1.921875 C 3.6875 -2.097656 3.859375 -2.304688 4.046875 -2.546875 C 4.242188 -2.796875 4.460938 -3.082031 4.703125 -3.40625 L 6.046875 -5.203125 C 7.679688 -7.328125 8.75 -8.488281 9.25 -8.6875 C 9.4375 -8.757812 9.617188 -8.796875 9.796875 -8.796875 C 9.992188 -8.796875 10.15625 -8.75 10.28125 -8.65625 C 10.40625 -8.570312 10.46875 -8.476562 10.46875 -8.375 C 10.46875 -8.195312 10.320312 -8.09375 10.03125 -8.0625 C 9.726562 -7.894531 9.144531 -7.390625 8.28125 -6.546875 C 7.882812 -6.160156 7.5625 -5.835938 7.3125 -5.578125 C 7.070312 -5.328125 6.90625 -5.140625 6.8125 -5.015625 C 5.695312 -3.453125 4.664062 -2.253906 3.71875 -1.421875 C 4.332031 -0.210938 5.242188 0.390625 6.453125 0.390625 C 6.910156 0.390625 7.375 0.289062 7.84375 0.09375 C 8.320312 -0.09375 8.765625 -0.347656 9.171875 -0.671875 C 9.578125 -0.992188 9.90625 -1.347656 10.15625 -1.734375 C 10.40625 -2.128906 10.53125 -2.523438 10.53125 -2.921875 C 10.53125 -3.328125 10.382812 -3.691406 10.09375 -4.015625 C 9.800781 -4.347656 9.445312 -4.582031 9.03125 -4.71875 C 9.03125 -4.71875 8.953125 -4.726562 8.796875 -4.75 C 8.648438 -4.769531 8.425781 -4.800781 8.125 -4.84375 C 7.65625 -4.90625 7.421875 -5 7.421875 -5.125 C 7.421875 -5.21875 7.476562 -5.296875 7.59375 -5.359375 C 7.707031 -5.429688 7.820312 -5.46875 7.9375 -5.46875 C 8.03125 -5.46875 8.132812 -5.445312 8.25 -5.40625 C 8.375 -5.375 8.484375 -5.335938 8.578125 -5.296875 C 8.671875 -5.265625 8.71875 -5.25 8.71875 -5.25 C 8.800781 -5.238281 8.890625 -5.226562 8.984375 -5.21875 C 9.085938 -5.21875 9.1875 -5.21875 9.28125 -5.21875 C 9.9375 -5.21875 10.535156 -5.320312 11.078125 -5.53125 C 11.597656 -5.738281 11.976562 -6.023438 12.21875 -6.390625 C 12.457031 -6.765625 12.578125 -7.195312 12.578125 -7.6875 C 12.578125 -8.1875 12.421875 -8.578125 12.109375 -8.859375 C 11.796875 -9.148438 11.378906 -9.359375 10.859375 -9.484375 C 10.347656 -9.609375 9.796875 -9.671875 9.203125 -9.671875 C 8.035156 -9.671875 6.925781 -9.5 5.875 -9.15625 C 4.820312 -8.820312 3.910156 -8.265625 3.140625 -7.484375 C 2.554688 -6.867188 2.265625 -6.359375 2.265625 -5.953125 C 2.265625 -5.660156 2.335938 -5.414062 2.484375 -5.21875 C 2.523438 -5.164062 2.566406 -5.113281 2.609375 -5.0625 C 2.660156 -5.019531 2.722656 -4.972656 2.796875 -4.921875 C 2.847656 -4.890625 2.816406 -4.875 2.703125 -4.875 C 2.085938 -5.007812 1.78125 -5.421875 1.78125 -6.109375 C 1.78125 -6.796875 2.128906 -7.445312 2.828125 -8.0625 C 3.367188 -8.53125 3.984375 -8.90625 4.671875 -9.1875 C 5.367188 -9.476562 6.101562 -9.6875 6.875 -9.8125 C 7.644531 -9.945312 8.410156 -10.015625 9.171875 -10.015625 C 9.703125 -10.015625 10.21875 -9.972656 10.71875 -9.890625 C 11.21875 -9.816406 11.664062 -9.6875 12.0625 -9.5 C 12.46875 -9.3125 12.785156 -9.066406 13.015625 -8.765625 C 13.253906 -8.472656 13.375 -8.109375 13.375 -7.671875 C 13.375 -7.054688 13.207031 -6.5625 12.875 -6.1875 C 12.539062 -5.820312 12.097656 -5.539062 11.546875 -5.34375 C 10.890625 -5.113281 10.179688 -4.992188 9.421875 -4.984375 C 9.835938 -4.960938 10.203125 -4.847656 10.515625 -4.640625 C 10.828125 -4.441406 11.070312 -4.179688 11.25 -3.859375 C 11.425781 -3.546875 11.515625 -3.203125 11.515625 -2.828125 C 11.515625 -2.316406 11.363281 -1.84375 11.0625 -1.40625 C 10.757812 -0.976562 10.351562 -0.609375 9.84375 -0.296875 C 9.332031 0.015625 8.769531 0.257812 8.15625 0.4375 C 7.550781 0.613281 6.945312 0.703125 6.34375 0.703125 Z M 1.125 0.03125 C 1.4375 0.03125 2.046875 -0.421875 2.953125 -1.328125 L 2.921875 -1.390625 C 2.515625 -2.710938 2.191406 -3.375 1.953125 -3.375 C 1.941406 -3.375 1.921875 -3.363281 1.890625 -3.34375 C 1.148438 -2.28125 0.78125 -1.425781 0.78125 -0.78125 C 0.78125 -0.632812 0.804688 -0.460938 0.859375 -0.265625 C 0.910156 -0.0664062 1 0.03125 1.125 0.03125 Z M 1.125 0.03125 "/></g></g></g><g fill="#000000" fill-opacity="1"><g transform="translate(56.314066, 34.349719)"><g><path d="M -0.40625 0.078125 C -0.695312 0.078125 -0.84375 -0.00390625 -0.84375 -0.171875 C -0.84375 -0.273438 -0.78125 -0.4375 -0.65625 -0.65625 C -0.195312 -1.476562 0.210938 -2.203125 0.578125 -2.828125 C 0.941406 -3.460938 1.265625 -4 1.546875 -4.4375 C 2.722656 -6.34375 3.554688 -7.375 4.046875 -7.53125 C 4.066406 -7.53125 4.082031 -7.53125 4.09375 -7.53125 C 4.101562 -7.539062 4.113281 -7.546875 4.125 -7.546875 C 4.257812 -7.546875 4.34375 -7.441406 4.375 -7.234375 C 4.351562 -7.023438 3.835938 -6.269531 2.828125 -4.96875 C 2.296875 -4.300781 1.882812 -3.75 1.59375 -3.3125 C 1.300781 -2.875 1.117188 -2.554688 1.046875 -2.359375 C 1.378906 -2.597656 1.734375 -2.851562 2.109375 -3.125 C 2.484375 -3.394531 2.847656 -3.648438 3.203125 -3.890625 C 3.566406 -4.140625 3.894531 -4.335938 4.1875 -4.484375 C 4.476562 -4.640625 4.703125 -4.726562 4.859375 -4.75 C 4.878906 -4.75 4.90625 -4.75 4.9375 -4.75 C 4.96875 -4.757812 4.988281 -4.765625 5 -4.765625 C 5.269531 -4.765625 5.40625 -4.632812 5.40625 -4.375 C 5.40625 -4.3125 5.316406 -4.160156 5.140625 -3.921875 C 4.960938 -3.679688 4.691406 -3.3125 4.328125 -2.8125 C 3.660156 -1.9375 3.328125 -1.28125 3.328125 -0.84375 C 3.328125 -0.613281 3.414062 -0.5 3.59375 -0.5 C 3.769531 -0.507812 3.972656 -0.585938 4.203125 -0.734375 C 4.441406 -0.878906 4.679688 -1.0625 4.921875 -1.28125 C 5.160156 -1.5 5.375 -1.71875 5.5625 -1.9375 C 5.757812 -2.15625 5.910156 -2.320312 6.015625 -2.4375 C 6.097656 -2.53125 6.164062 -2.578125 6.21875 -2.578125 C 6.257812 -2.578125 6.28125 -2.554688 6.28125 -2.515625 C 6.28125 -2.429688 6.238281 -2.335938 6.15625 -2.234375 C 6.039062 -2.078125 5.863281 -1.878906 5.625 -1.640625 C 5.394531 -1.398438 5.140625 -1.15625 4.859375 -0.90625 C 4.585938 -0.664062 4.328125 -0.460938 4.078125 -0.296875 C 3.835938 -0.140625 3.660156 -0.0625 3.546875 -0.0625 C 2.953125 -0.0625 2.65625 -0.40625 2.65625 -1.09375 C 2.65625 -1.476562 2.835938 -1.984375 3.203125 -2.609375 C 3.335938 -2.847656 3.476562 -3.085938 3.625 -3.328125 C 3.78125 -3.566406 3.929688 -3.804688 4.078125 -4.046875 C 2.804688 -3.410156 1.648438 -2.46875 0.609375 -1.21875 C 0.484375 -1.039062 0.347656 -0.847656 0.203125 -0.640625 C 0.0664062 -0.441406 -0.0507812 -0.269531 -0.15625 -0.125 C -0.269531 0.0078125 -0.351562 0.078125 -0.40625 0.078125 Z M -0.40625 0.078125 "/></g></g></g><g fill="#000000" fill-opacity="1"><g transform="translate(61.938251, 34.349719)"><g><path d="M 1 0.078125 C 0.757812 0.078125 0.519531 -0.00390625 0.28125 -0.171875 C 0.0390625 -0.347656 -0.09375 -0.550781 -0.125 -0.78125 C -0.21875 -1.539062 0.265625 -2.453125 1.328125 -3.515625 C 2.390625 -4.566406 3.34375 -5.09375 4.1875 -5.09375 C 4.414062 -5.09375 4.59375 -5.039062 4.71875 -4.9375 C 4.789062 -4.863281 4.84375 -4.765625 4.875 -4.640625 C 4.914062 -4.523438 4.945312 -4.46875 4.96875 -4.46875 C 5.007812 -4.46875 5.039062 -4.472656 5.0625 -4.484375 C 5.09375 -4.503906 5.128906 -4.515625 5.171875 -4.515625 C 5.296875 -4.515625 5.398438 -4.46875 5.484375 -4.375 C 5.578125 -4.289062 5.628906 -4.210938 5.640625 -4.140625 C 5.648438 -4.117188 5.332031 -3.625 4.6875 -2.65625 C 4.03125 -1.707031 3.734375 -1.066406 3.796875 -0.734375 C 3.847656 -0.503906 3.957031 -0.390625 4.125 -0.390625 C 4.644531 -0.390625 5.59375 -1.242188 6.96875 -2.953125 C 7 -2.992188 7.03125 -3.015625 7.0625 -3.015625 C 7.101562 -3.015625 7.125 -2.984375 7.125 -2.921875 C 7.125 -2.835938 7.082031 -2.734375 7 -2.609375 C 5.726562 -0.910156 4.753906 -0.0625 4.078125 -0.0625 C 3.992188 -0.0625 3.910156 -0.078125 3.828125 -0.109375 C 3.390625 -0.273438 3.171875 -0.601562 3.171875 -1.09375 C 3.171875 -1.257812 3.191406 -1.425781 3.234375 -1.59375 L 2.296875 -0.703125 C 2.023438 -0.421875 1.773438 -0.21875 1.546875 -0.09375 C 1.328125 0.0195312 1.144531 0.078125 1 0.078125 Z M 0.875 -0.25 C 1.445312 -0.25 2.234375 -0.882812 3.234375 -2.15625 L 4.8125 -4.34375 C 4.726562 -4.476562 4.597656 -4.546875 4.421875 -4.546875 C 3.816406 -4.546875 2.992188 -4.054688 1.953125 -3.078125 C 0.878906 -2.078125 0.398438 -1.253906 0.515625 -0.609375 C 0.554688 -0.367188 0.675781 -0.25 0.875 -0.25 Z M 0.875 -0.25 "/></g></g></g><g clip-path="url(#id3)"><g fill="#000000" fill-opacity="1"><g transform="translate(68.100925, 34.349719)"><g><path d="M 0.34375 3.0625 C 0.0195312 3.0625 -0.257812 2.925781 -0.5 2.65625 C -0.738281 2.382812 -0.851562 2.078125 -0.84375 1.734375 C -0.71875 1.878906 -0.554688 2.054688 -0.359375 2.265625 C -0.0976562 2.503906 0.15625 2.625 0.40625 2.625 C 0.96875 2.625 1.582031 2.171875 2.25 1.265625 C 2.476562 0.953125 2.710938 0.582031 2.953125 0.15625 C 3.191406 -0.269531 3.425781 -0.738281 3.65625 -1.25 L 4.21875 -2.625 L 2.015625 -0.90625 C 1.335938 -0.382812 0.796875 -0.125 0.390625 -0.125 C 0.171875 -0.125 0 -0.203125 -0.125 -0.359375 C -0.257812 -0.515625 -0.328125 -0.679688 -0.328125 -0.859375 C -0.328125 -1.285156 0.0390625 -1.984375 0.78125 -2.953125 C 1.519531 -3.941406 2.070312 -4.4375 2.4375 -4.4375 C 2.75 -4.4375 2.90625 -4.320312 2.90625 -4.09375 C 2.90625 -4.007812 2.457031 -3.492188 1.5625 -2.546875 C 0.6875 -1.609375 0.25 -0.972656 0.25 -0.640625 C 0.25 -0.515625 0.335938 -0.453125 0.515625 -0.453125 C 0.828125 -0.453125 1.519531 -0.863281 2.59375 -1.6875 C 3.03125 -2.039062 3.414062 -2.359375 3.75 -2.640625 C 4.09375 -2.929688 4.378906 -3.191406 4.609375 -3.421875 C 4.679688 -3.523438 4.757812 -3.625 4.84375 -3.71875 C 4.925781 -3.8125 5 -3.90625 5.0625 -4 C 5.257812 -4.226562 5.453125 -4.34375 5.640625 -4.34375 C 5.910156 -4.34375 6.046875 -4.226562 6.046875 -4 C 6.046875 -3.96875 5.832031 -3.640625 5.40625 -3.015625 C 5.1875 -2.679688 5.007812 -2.421875 4.875 -2.234375 C 4.75 -2.046875 4.679688 -1.929688 4.671875 -1.890625 C 4.359375 -1.285156 3.882812 -0.410156 3.25 0.734375 C 2.28125 2.285156 1.3125 3.0625 0.34375 3.0625 Z M 0.34375 3.0625 "/></g></g></g></g><g fill="#000000" fill-opacity="1"><g transform="translate(73.635369, 34.349719)"><g><path d="M 1 0.078125 C 0.757812 0.078125 0.519531 -0.00390625 0.28125 -0.171875 C 0.0390625 -0.347656 -0.09375 -0.550781 -0.125 -0.78125 C -0.21875 -1.539062 0.265625 -2.453125 1.328125 -3.515625 C 2.390625 -4.566406 3.34375 -5.09375 4.1875 -5.09375 C 4.414062 -5.09375 4.59375 -5.039062 4.71875 -4.9375 C 4.789062 -4.863281 4.84375 -4.765625 4.875 -4.640625 C 4.914062 -4.523438 4.945312 -4.46875 4.96875 -4.46875 C 5.007812 -4.46875 5.039062 -4.472656 5.0625 -4.484375 C 5.09375 -4.503906 5.128906 -4.515625 5.171875 -4.515625 C 5.296875 -4.515625 5.398438 -4.46875 5.484375 -4.375 C 5.578125 -4.289062 5.628906 -4.210938 5.640625 -4.140625 C 5.648438 -4.117188 5.332031 -3.625 4.6875 -2.65625 C 4.03125 -1.707031 3.734375 -1.066406 3.796875 -0.734375 C 3.847656 -0.503906 3.957031 -0.390625 4.125 -0.390625 C 4.644531 -0.390625 5.59375 -1.242188 6.96875 -2.953125 C 7 -2.992188 7.03125 -3.015625 7.0625 -3.015625 C 7.101562 -3.015625 7.125 -2.984375 7.125 -2.921875 C 7.125 -2.835938 7.082031 -2.734375 7 -2.609375 C 5.726562 -0.910156 4.753906 -0.0625 4.078125 -0.0625 C 3.992188 -0.0625 3.910156 -0.078125 3.828125 -0.109375 C 3.390625 -0.273438 3.171875 -0.601562 3.171875 -1.09375 C 3.171875 -1.257812 3.191406 -1.425781 3.234375 -1.59375 L 2.296875 -0.703125 C 2.023438 -0.421875 1.773438 -0.21875 1.546875 -0.09375 C 1.328125 0.0195312 1.144531 0.078125 1 0.078125 Z M 0.875 -0.25 C 1.445312 -0.25 2.234375 -0.882812 3.234375 -2.15625 L 4.8125 -4.34375 C 4.726562 -4.476562 4.597656 -4.546875 4.421875 -4.546875 C 3.816406 -4.546875 2.992188 -4.054688 1.953125 -3.078125 C 0.878906 -2.078125 0.398438 -1.253906 0.515625 -0.609375 C 0.554688 -0.367188 0.675781 -0.25 0.875 -0.25 Z M 0.875 -0.25 "/></g></g></g><g fill="#000000" fill-opacity="1"><g transform="translate(79.798042, 34.349719)"><g><path d="M 1.140625 0.03125 C 0.847656 0.03125 0.578125 -0.0390625 0.328125 -0.1875 C 0.078125 -0.332031 -0.046875 -0.570312 -0.046875 -0.90625 C -0.046875 -1.375 0.117188 -1.929688 0.453125 -2.578125 C 0.785156 -3.234375 1.164062 -3.910156 1.59375 -4.609375 C 2.757812 -6.503906 3.585938 -7.453125 4.078125 -7.453125 C 4.179688 -7.453125 4.285156 -7.410156 4.390625 -7.328125 C 4.492188 -7.253906 4.550781 -7.175781 4.5625 -7.09375 L 3.515625 -5.6875 C 3.109375 -5.132812 2.738281 -4.625 2.40625 -4.15625 C 2.070312 -3.695312 1.789062 -3.285156 1.5625 -2.921875 C 1.4375 -2.722656 1.296875 -2.503906 1.140625 -2.265625 C 0.992188 -2.023438 0.863281 -1.78125 0.75 -1.53125 C 0.632812 -1.28125 0.578125 -1.023438 0.578125 -0.765625 C 0.578125 -0.640625 0.613281 -0.53125 0.6875 -0.4375 C 0.757812 -0.34375 0.882812 -0.296875 1.0625 -0.296875 C 1.382812 -0.296875 1.800781 -0.46875 2.3125 -0.8125 C 2.832031 -1.15625 3.347656 -1.632812 3.859375 -2.25 C 3.910156 -2.300781 3.960938 -2.351562 4.015625 -2.40625 C 4.078125 -2.457031 4.128906 -2.484375 4.171875 -2.484375 C 4.222656 -2.484375 4.25 -2.453125 4.25 -2.390625 C 4.25 -2.359375 4.210938 -2.300781 4.140625 -2.21875 C 4.078125 -2.132812 4.03125 -2.066406 4 -2.015625 L 3.640625 -1.609375 C 3.429688 -1.390625 3.191406 -1.148438 2.921875 -0.890625 C 2.648438 -0.640625 2.359375 -0.421875 2.046875 -0.234375 C 1.742188 -0.0546875 1.441406 0.03125 1.140625 0.03125 Z M 1.140625 0.03125 "/></g></g></g><g fill="#000000" fill-opacity="1"><g transform="translate(83.430307, 34.349719)"><g/></g></g></svg>