<svg xmlns="http://www.w3.org/2000/svg" xmlns:xlink="http://www.w3.org/1999/xlink" width="140" zoomAndPan="magnify" viewBox="0 0 104.88 37.5" height="50" preserveAspectRatio="xMidYMid meet" version="1.0"><defs><g/><clipPath id="id1"><path d="M 46.265625 19.5625 L 58.851562 19.5625 L 58.851562 37.007812 L 46.265625 37.007812 Z M 46.265625 19.5625 " clip-rule="nonzero"/></clipPath><clipPath id="id2"><path d="M 53 27 L 58.851562 27 L 58.851562 36 L 53 36 Z M 53 27 " clip-rule="nonzero"/></clipPath><clipPath id="id3"><path d="M 46.265625 34 L 54 34 L 54 37 L 46.265625 37 Z M 46.265625 34 " clip-rule="nonzero"/></clipPath></defs><g fill="#000000" fill-opacity="1"><g transform="translate(0.812249, 23.07778)"><g><path d="M 3.0625 -9.234375 L 6.171875 -1.71875 L 9.75 -9.828125 L 11.78125 -9.234375 L 11.8125 0.421875 L 9.75 0 L 9.75 -4.96875 L 7.3125 0.421875 L 5.40625 0 L 5.40625 -0.03125 L 5.40625 -0.015625 L 3.0625 -5.8125 L 3.09375 0.421875 L 1.03125 0 L 1.03125 -9.828125 Z M 3.0625 -9.234375 "/></g></g></g><g fill="#000000" fill-opacity="1"><g transform="translate(13.662554, 23.07778)"><g><path d="M 1.5625 -5.171875 L 0.765625 -6.515625 C 1.453125 -6.691406 2.21875 -6.859375 3.0625 -7.015625 C 3.90625 -7.171875 4.429688 -7.242188 4.640625 -7.234375 C 4.859375 -7.234375 5.289062 -6.914062 5.9375 -6.28125 C 6.59375 -5.644531 7.03125 -5.160156 7.25 -4.828125 C 7.332031 -4.703125 7.375 -4.300781 7.375 -3.625 C 7.375 -2.957031 7.359375 -2.191406 7.328125 -1.328125 C 7.304688 -0.460938 7.300781 0.117188 7.3125 0.421875 L 5.484375 0 L 5.5 -0.75 C 4.707031 0.0390625 4.0625 0.4375 3.5625 0.4375 C 3.082031 0.425781 2.476562 -0.0195312 1.75 -0.90625 C 1.019531 -1.789062 0.65625 -2.421875 0.65625 -2.796875 C 0.65625 -3.109375 0.863281 -3.390625 1.28125 -3.640625 C 1.695312 -3.898438 2.203125 -4.097656 2.796875 -4.234375 C 3.390625 -4.378906 3.914062 -4.488281 4.375 -4.5625 C 4.84375 -4.644531 5.238281 -4.703125 5.5625 -4.734375 L 5.578125 -5.140625 C 5.585938 -5.609375 5.335938 -5.863281 4.828125 -5.90625 C 4.347656 -5.925781 3.351562 -5.710938 1.84375 -5.265625 L 1.828125 -5.265625 L 1.8125 -5.25 L 1.78125 -5.25 L 1.765625 -5.234375 L 1.734375 -5.234375 L 1.71875 -5.21875 L 1.703125 -5.21875 L 1.6875 -5.203125 L 1.640625 -5.203125 L 1.625 -5.1875 L 1.59375 -5.1875 L 1.578125 -5.171875 Z M 2.296875 -1.46875 C 2.390625 -1.332031 2.554688 -1.242188 2.796875 -1.203125 C 3.046875 -1.171875 3.414062 -1.238281 3.90625 -1.40625 C 4.40625 -1.582031 4.945312 -1.882812 5.53125 -2.3125 L 5.546875 -3.609375 C 2.953125 -2.859375 1.867188 -2.144531 2.296875 -1.46875 Z M 2.296875 -1.46875 "/></g></g></g><g fill="#000000" fill-opacity="1"><g transform="translate(21.865503, 23.07778)"><g><path d="M 2.765625 -6.640625 L 2.765625 -6.234375 C 3.460938 -6.910156 4.109375 -7.234375 4.703125 -7.203125 C 4.890625 -7.191406 5.191406 -7.015625 5.609375 -6.671875 C 6.035156 -6.335938 6.441406 -5.960938 6.828125 -5.546875 C 7.753906 -6.691406 8.609375 -7.242188 9.390625 -7.203125 C 9.710938 -7.179688 10.269531 -6.785156 11.0625 -6.015625 C 11.851562 -5.253906 12.269531 -4.738281 12.3125 -4.46875 C 12.351562 -4.207031 12.375 -2.578125 12.375 0.421875 L 10.546875 0.015625 C 10.609375 -3.367188 10.582031 -5.160156 10.46875 -5.359375 C 10.351562 -5.566406 10.179688 -5.675781 9.953125 -5.6875 C 9.734375 -5.695312 9.492188 -5.625 9.234375 -5.46875 C 8.972656 -5.3125 8.707031 -5.113281 8.4375 -4.875 C 8.175781 -4.632812 7.914062 -4.363281 7.65625 -4.0625 C 7.675781 -3.519531 7.6875 -2.023438 7.6875 0.421875 L 5.859375 0.015625 C 5.910156 -3.367188 5.882812 -5.160156 5.78125 -5.359375 C 5.632812 -5.566406 5.445312 -5.675781 5.21875 -5.6875 C 5 -5.695312 4.742188 -5.609375 4.453125 -5.421875 C 4.160156 -5.234375 3.875 -5.003906 3.59375 -4.734375 C 3.3125 -4.460938 3.035156 -4.15625 2.765625 -3.8125 L 2.765625 0.421875 L 0.921875 0.015625 L 0.921875 -7.046875 Z M 2.765625 -6.640625 "/></g></g></g><g fill="#000000" fill-opacity="1"><g transform="translate(34.922356, 23.07778)"><g><path d="M 0.59375 -6.015625 L 0.140625 -7.046875 L 1.359375 -7.046875 L 1.359375 -8.640625 L 3.171875 -8.234375 L 3.171875 -7.046875 L 4.96875 -7.046875 L 5.40625 -6.015625 L 3.171875 -6.015625 L 3.171875 -4.140625 C 3.171875 -4.035156 3.171875 -3.875 3.171875 -3.65625 C 3.171875 -3.394531 3.164062 -3.128906 3.15625 -2.859375 C 3.15625 -2.597656 3.171875 -2.347656 3.203125 -2.109375 C 3.242188 -1.867188 3.285156 -1.648438 3.328125 -1.453125 C 3.378906 -1.265625 3.460938 -1.109375 3.578125 -0.984375 C 3.703125 -0.867188 3.847656 -0.789062 4.015625 -0.75 C 4.179688 -0.707031 4.394531 -0.734375 4.65625 -0.828125 C 4.914062 -0.921875 5.210938 -1.078125 5.546875 -1.296875 L 5.9375 -0.84375 C 5.375 -0.320312 4.898438 0.0390625 4.515625 0.25 C 4.222656 0.414062 3.816406 0.390625 3.296875 0.171875 C 2.773438 -0.046875 2.320312 -0.351562 1.9375 -0.75 C 1.550781 -1.15625 1.359375 -1.503906 1.359375 -1.796875 L 1.359375 -6.015625 Z M 0.59375 -6.015625 "/></g></g></g><g fill="#000000" fill-opacity="1"><g transform="translate(41.163092, 23.07778)"><g><path d="M 1.5625 -5.171875 L 0.765625 -6.515625 C 1.453125 -6.691406 2.21875 -6.859375 3.0625 -7.015625 C 3.90625 -7.171875 4.429688 -7.242188 4.640625 -7.234375 C 4.859375 -7.234375 5.289062 -6.914062 5.9375 -6.28125 C 6.59375 -5.644531 7.03125 -5.160156 7.25 -4.828125 C 7.332031 -4.703125 7.375 -4.300781 7.375 -3.625 C 7.375 -2.957031 7.359375 -2.191406 7.328125 -1.328125 C 7.304688 -0.460938 7.300781 0.117188 7.3125 0.421875 L 5.484375 0 L 5.5 -0.75 C 4.707031 0.0390625 4.0625 0.4375 3.5625 0.4375 C 3.082031 0.425781 2.476562 -0.0195312 1.75 -0.90625 C 1.019531 -1.789062 0.65625 -2.421875 0.65625 -2.796875 C 0.65625 -3.109375 0.863281 -3.390625 1.28125 -3.640625 C 1.695312 -3.898438 2.203125 -4.097656 2.796875 -4.234375 C 3.390625 -4.378906 3.914062 -4.488281 4.375 -4.5625 C 4.84375 -4.644531 5.238281 -4.703125 5.5625 -4.734375 L 5.578125 -5.140625 C 5.585938 -5.609375 5.335938 -5.863281 4.828125 -5.90625 C 4.347656 -5.925781 3.351562 -5.710938 1.84375 -5.265625 L 1.828125 -5.265625 L 1.8125 -5.25 L 1.78125 -5.25 L 1.765625 -5.234375 L 1.734375 -5.234375 L 1.71875 -5.21875 L 1.703125 -5.21875 L 1.6875 -5.203125 L 1.640625 -5.203125 L 1.625 -5.1875 L 1.59375 -5.1875 L 1.578125 -5.171875 Z M 2.296875 -1.46875 C 2.390625 -1.332031 2.554688 -1.242188 2.796875 -1.203125 C 3.046875 -1.171875 3.414062 -1.238281 3.90625 -1.40625 C 4.40625 -1.582031 4.945312 -1.882812 5.53125 -2.3125 L 5.546875 -3.609375 C 2.953125 -2.859375 1.867188 -2.144531 2.296875 -1.46875 Z M 2.296875 -1.46875 "/></g></g></g><g fill="#000000" fill-opacity="1"><g transform="translate(49.36604, 23.07778)"><g/></g></g><g fill="#000000" fill-opacity="1"><g transform="translate(54.529768, 23.07778)"><g><path d="M 7.03125 -3.0625 C 6.945312 -3.226562 6.722656 -3.472656 6.359375 -3.796875 C 5.398438 -3.441406 4.304688 -3.398438 3.078125 -3.671875 L 3.09375 0.421875 L 1.03125 0 L 1.03125 -9.875 C 1.925781 -10.113281 2.925781 -10.269531 4.03125 -10.34375 C 5.132812 -10.425781 5.832031 -10.367188 6.125 -10.171875 C 6.414062 -9.910156 6.875 -9.460938 7.5 -8.828125 C 8.132812 -8.203125 8.578125 -7.75 8.828125 -7.46875 C 9.078125 -7.144531 9.046875 -6.628906 8.734375 -5.921875 C 8.429688 -5.222656 7.90625 -4.640625 7.15625 -4.171875 C 8.195312 -3.734375 8.757812 -3.460938 8.84375 -3.359375 C 8.976562 -3.171875 9.070312 -2.957031 9.125 -2.71875 C 9.175781 -2.476562 9.203125 -2.273438 9.203125 -2.109375 C 9.203125 -1.941406 9.191406 -1.703125 9.171875 -1.390625 C 9.148438 -1.085938 9.140625 -0.882812 9.140625 -0.78125 C 9.140625 -0.6875 9.128906 -0.535156 9.109375 -0.328125 C 9.097656 -0.128906 9.09375 0.015625 9.09375 0.109375 C 9.09375 0.210938 9.109375 0.335938 9.140625 0.484375 C 9.171875 0.640625 9.21875 0.757812 9.28125 0.84375 C 9.351562 0.9375 9.457031 1.03125 9.59375 1.125 C 9.738281 1.226562 9.921875 1.316406 10.140625 1.390625 C 9.359375 1.546875 8.707031 1.414062 8.1875 1 C 7.675781 0.59375 7.394531 0 7.34375 -0.78125 C 7.34375 -0.84375 7.332031 -1.023438 7.3125 -1.328125 C 7.300781 -1.628906 7.285156 -1.847656 7.265625 -1.984375 C 7.253906 -2.128906 7.226562 -2.3125 7.1875 -2.53125 C 7.15625 -2.75 7.101562 -2.925781 7.03125 -3.0625 Z M 6.78125 -8.515625 C 6.207031 -9.066406 4.96875 -9.144531 3.0625 -8.75 L 3.078125 -4.609375 C 3.765625 -4.609375 4.382812 -4.710938 4.9375 -4.921875 C 5.5 -5.128906 5.925781 -5.394531 6.21875 -5.71875 C 6.519531 -6.050781 6.75 -6.398438 6.90625 -6.765625 C 7.0625 -7.128906 7.125 -7.46875 7.09375 -7.78125 C 7.0625 -8.101562 6.957031 -8.347656 6.78125 -8.515625 Z M 6.78125 -8.515625 "/></g></g></g><g fill="#000000" fill-opacity="1"><g transform="translate(64.5474, 23.07778)"><g><path d="M 1.5625 -5.171875 L 0.765625 -6.515625 C 1.453125 -6.691406 2.21875 -6.859375 3.0625 -7.015625 C 3.90625 -7.171875 4.429688 -7.242188 4.640625 -7.234375 C 4.859375 -7.234375 5.289062 -6.914062 5.9375 -6.28125 C 6.59375 -5.644531 7.03125 -5.160156 7.25 -4.828125 C 7.332031 -4.703125 7.375 -4.300781 7.375 -3.625 C 7.375 -2.957031 7.359375 -2.191406 7.328125 -1.328125 C 7.304688 -0.460938 7.300781 0.117188 7.3125 0.421875 L 5.484375 0 L 5.5 -0.75 C 4.707031 0.0390625 4.0625 0.4375 3.5625 0.4375 C 3.082031 0.425781 2.476562 -0.0195312 1.75 -0.90625 C 1.019531 -1.789062 0.65625 -2.421875 0.65625 -2.796875 C 0.65625 -3.109375 0.863281 -3.390625 1.28125 -3.640625 C 1.695312 -3.898438 2.203125 -4.097656 2.796875 -4.234375 C 3.390625 -4.378906 3.914062 -4.488281 4.375 -4.5625 C 4.84375 -4.644531 5.238281 -4.703125 5.5625 -4.734375 L 5.578125 -5.140625 C 5.585938 -5.609375 5.335938 -5.863281 4.828125 -5.90625 C 4.347656 -5.925781 3.351562 -5.710938 1.84375 -5.265625 L 1.828125 -5.265625 L 1.8125 -5.25 L 1.78125 -5.25 L 1.765625 -5.234375 L 1.734375 -5.234375 L 1.71875 -5.21875 L 1.703125 -5.21875 L 1.6875 -5.203125 L 1.640625 -5.203125 L 1.625 -5.1875 L 1.59375 -5.1875 L 1.578125 -5.171875 Z M 2.296875 -1.46875 C 2.390625 -1.332031 2.554688 -1.242188 2.796875 -1.203125 C 3.046875 -1.171875 3.414062 -1.238281 3.90625 -1.40625 C 4.40625 -1.582031 4.945312 -1.882812 5.53125 -2.3125 L 5.546875 -3.609375 C 2.953125 -2.859375 1.867188 -2.144531 2.296875 -1.46875 Z M 2.296875 -1.46875 "/></g></g></g><g fill="#000000" fill-opacity="1"><g transform="translate(72.750349, 23.07778)"><g><path d="M 2.84375 -6.640625 L 2.84375 -6.03125 C 3.71875 -6.84375 4.484375 -7.234375 5.140625 -7.203125 C 5.460938 -7.179688 6.019531 -6.785156 6.8125 -6.015625 C 7.601562 -5.253906 8.019531 -4.738281 8.0625 -4.46875 C 8.101562 -4.207031 8.125 -2.578125 8.125 0.421875 L 6.296875 0.015625 C 6.359375 -3.359375 6.332031 -5.144531 6.21875 -5.34375 C 6.039062 -5.675781 5.75 -5.773438 5.34375 -5.640625 C 4.9375 -5.503906 4.515625 -5.265625 4.078125 -4.921875 C 3.640625 -4.578125 3.226562 -4.175781 2.84375 -3.71875 L 2.84375 0.421875 L 0.921875 0.015625 L 0.921875 -7.046875 Z M 2.84375 -6.640625 "/></g></g></g><g fill="#000000" fill-opacity="1"><g transform="translate(81.558189, 23.07778)"><g><path d="M 2.5625 -0.28125 C 2.625 -0.15625 3.320312 -0.226562 4.65625 -0.5 C 5.988281 -0.78125 6.695312 -0.878906 6.78125 -0.796875 C 7.207031 -0.378906 7.484375 0.0507812 7.609375 0.5 C 7.734375 0.957031 7.71875 1.367188 7.5625 1.734375 C 7.40625 2.109375 7.175781 2.453125 6.875 2.765625 C 6.570312 3.078125 6.203125 3.320312 5.765625 3.5 C 5.335938 3.675781 4.898438 3.765625 4.453125 3.765625 C 3.703125 3.765625 2.953125 3.546875 2.203125 3.109375 C 1.453125 2.671875 1 2.289062 0.84375 1.96875 C 0.820312 1.945312 0.828125 1.90625 0.859375 1.84375 C 0.890625 1.789062 0.941406 1.722656 1.015625 1.640625 C 1.097656 1.566406 1.1875 1.484375 1.28125 1.390625 C 1.375 1.304688 1.5 1.1875 1.65625 1.03125 C 1.8125 0.882812 1.957031 0.742188 2.09375 0.609375 C 1.988281 0.453125 1.601562 -0.144531 0.9375 -1.1875 C 0.925781 -1.257812 0.914062 -1.316406 0.90625 -1.359375 C 0.894531 -1.398438 0.921875 -1.4375 0.984375 -1.46875 C 1.046875 -1.5 1.109375 -1.523438 1.171875 -1.546875 C 1.242188 -1.578125 1.347656 -1.609375 1.484375 -1.640625 C 1.617188 -1.671875 1.742188 -1.691406 1.859375 -1.703125 C 1.984375 -1.722656 2.132812 -1.753906 2.3125 -1.796875 C 2.5 -1.847656 2.671875 -1.898438 2.828125 -1.953125 C 2.648438 -2.054688 2.3125 -2.328125 1.8125 -2.765625 C 1.507812 -3.015625 1.28125 -3.289062 1.125 -3.59375 C 0.96875 -3.894531 0.890625 -4.179688 0.890625 -4.453125 C 0.890625 -4.722656 0.929688 -4.992188 1.015625 -5.265625 C 1.109375 -5.535156 1.25 -5.78125 1.4375 -6 C 1.625 -6.21875 1.820312 -6.421875 2.03125 -6.609375 C 2.238281 -6.796875 2.46875 -6.9375 2.71875 -7.03125 C 2.96875 -7.125 3.203125 -7.179688 3.421875 -7.203125 C 3.640625 -7.234375 3.847656 -7.203125 4.046875 -7.109375 C 4.710938 -6.785156 5.179688 -6.539062 5.453125 -6.375 L 8.078125 -6.375 L 8.53125 -5.34375 L 6.515625 -5.34375 C 7.679688 -3.28125 6.882812 -1.78125 4.125 -0.84375 C 3.914062 -0.769531 3.628906 -0.679688 3.265625 -0.578125 C 2.796875 -0.429688 2.5625 -0.332031 2.5625 -0.28125 Z M 4.890625 -5.75 C 4.484375 -6.050781 4.023438 -6 3.515625 -5.59375 C 3.015625 -5.195312 2.710938 -4.703125 2.609375 -4.109375 C 2.503906 -3.523438 2.660156 -3.035156 3.078125 -2.640625 C 3.484375 -2.367188 3.945312 -2.421875 4.46875 -2.796875 C 5 -3.171875 5.320312 -3.640625 5.4375 -4.203125 C 5.550781 -4.773438 5.367188 -5.289062 4.890625 -5.75 Z M 2.5625 1.234375 L 2.5 1.171875 L 1.828125 1.96875 C 2.546875 2.289062 3.253906 2.40625 3.953125 2.3125 C 4.660156 2.226562 5.269531 2.007812 5.78125 1.65625 C 6.300781 1.3125 6.554688 0.945312 6.546875 0.5625 C 6.546875 0.488281 6.257812 0.554688 5.6875 0.765625 C 5.113281 0.984375 4.53125 1.171875 3.9375 1.328125 C 3.34375 1.484375 2.882812 1.453125 2.5625 1.234375 Z M 2.5625 1.234375 "/></g></g></g><g fill="#000000" fill-opacity="1"><g transform="translate(90.307019, 23.07778)"><g><path d="M 2.046875 -7.953125 C 1.546875 -8.179688 1.171875 -8.539062 0.921875 -9.03125 C 0.941406 -9.1875 1.085938 -9.382812 1.359375 -9.625 C 1.640625 -9.875 1.863281 -10.019531 2.03125 -10.0625 C 2.53125 -9.832031 2.898438 -9.484375 3.140625 -9.015625 C 2.972656 -8.585938 2.609375 -8.234375 2.046875 -7.953125 Z M 2.9375 -6.640625 L 2.9375 0.421875 L 1.09375 0.015625 L 1.09375 -7.046875 Z M 2.9375 -6.640625 "/></g></g></g><g fill="#000000" fill-opacity="1"><g transform="translate(94.378984, 23.07778)"><g><path d="M 2.765625 -10.0625 L 2.765625 0.421875 L 0.921875 0.015625 L 0.921875 -10.46875 Z M 2.765625 -10.0625 "/></g></g></g><g fill="#000000" fill-opacity="1"><g transform="translate(97.934577, 23.07778)"><g><path d="M 2.046875 -7.953125 C 1.546875 -8.179688 1.171875 -8.539062 0.921875 -9.03125 C 0.941406 -9.1875 1.085938 -9.382812 1.359375 -9.625 C 1.640625 -9.875 1.863281 -10.019531 2.03125 -10.0625 C 2.53125 -9.832031 2.898438 -9.484375 3.140625 -9.015625 C 2.972656 -8.585938 2.609375 -8.234375 2.046875 -7.953125 Z M 2.9375 -6.640625 L 2.9375 0.421875 L 1.09375 0.015625 L 1.09375 -7.046875 Z M 2.9375 -6.640625 "/></g></g></g><g fill="#000000" fill-opacity="1"><g transform="translate(102.002743, 23.07778)"><g/></g></g><g clip-path="url(#id1)"><path fill="#000000" d="M 58.570312 29.761719 C 58.445312 29.660156 58.277344 29.628906 58.160156 29.511719 C 58.058594 29.414062 58.089844 29.261719 58.078125 29.207031 C 58.085938 29.183594 58.078125 29.15625 58.085938 29.128906 C 58.167969 28.671875 58.589844 29.144531 57.527344 27.675781 C 57.429688 27.546875 57.394531 27.515625 57.332031 27.367188 C 57.308594 27.3125 57.300781 27.222656 57.296875 27.21875 C 57.296875 27.199219 57.292969 27.171875 57.304688 27.15625 C 57.308594 27.152344 57.464844 27.042969 57.46875 27.042969 C 57.472656 27.039062 57.613281 26.933594 57.632812 26.914062 C 57.753906 26.820312 57.78125 26.601562 57.765625 26.578125 C 57.644531 26.378906 57.328125 26 57.078125 25.800781 C 56.988281 25.71875 56.972656 25.765625 56.871094 25.746094 C 56.871094 25.746094 55.429688 25.648438 55.429688 25.648438 C 55.421875 25.644531 54.996094 25.613281 54.417969 25.640625 C 54.414062 25.640625 53.8125 25.703125 53.582031 25.652344 C 53.214844 25.574219 52.839844 25.511719 52.460938 25.503906 C 52.382812 25.503906 52.257812 25.535156 52.183594 25.496094 C 52.085938 25.441406 52.082031 25.296875 52.074219 25.203125 C 52.066406 25.121094 52.15625 24.722656 52.265625 24.546875 C 52.308594 24.464844 52.386719 24.40625 52.425781 24.320312 C 52.445312 24.285156 52.519531 24.019531 52.429688 23.824219 C 52.414062 23.796875 52.417969 23.75 52.410156 23.714844 C 52.402344 23.667969 52.394531 23.617188 52.382812 23.570312 C 52.363281 23.5 52.246094 23.316406 52.167969 23.214844 C 52.078125 23.09375 51.929688 22.917969 51.761719 22.925781 C 51.609375 22.933594 51.46875 22.976562 51.355469 23.082031 C 51.121094 23.300781 51.125 23.554688 51.085938 23.796875 C 51.050781 24.019531 50.976562 24.207031 51.125 24.410156 C 51.1875 24.496094 51.363281 24.558594 51.378906 24.5625 C 51.480469 24.613281 51.429688 24.796875 51.40625 24.878906 C 51.367188 25.023438 51.289062 25.203125 51.175781 25.300781 C 51.054688 25.417969 51.039062 25.390625 50.953125 25.367188 C 50.863281 25.332031 50.835938 25.335938 50.792969 25.164062 C 50.664062 24.734375 50.460938 23.59375 50.457031 23.503906 C 50.441406 22.753906 50.035156 21.640625 49.996094 21.054688 C 49.960938 20.894531 50.203125 20.574219 50.15625 20.371094 C 50.191406 20.277344 50.3125 19.988281 50.304688 19.964844 C 50.292969 19.960938 50.277344 19.960938 50.273438 19.972656 C 50.210938 20.039062 50.160156 20.203125 50.128906 20.195312 C 50.132812 20.097656 50.304688 19.722656 50.253906 19.699219 C 50.210938 19.734375 50.148438 19.929688 50.117188 19.953125 C 50.082031 19.933594 50.191406 19.683594 50.167969 19.632812 C 50.160156 19.636719 50.152344 19.632812 50.144531 19.640625 C 50.105469 19.679688 50.097656 19.695312 50.085938 19.722656 C 50.085938 19.730469 49.945312 20.164062 49.933594 20.175781 C 49.925781 20.171875 49.921875 20.167969 49.917969 20.160156 C 49.902344 19.929688 49.9375 19.5625 49.894531 19.578125 C 49.867188 19.585938 49.855469 19.746094 49.851562 19.773438 C 49.84375 19.828125 49.832031 19.886719 49.832031 19.945312 C 49.828125 19.964844 49.828125 19.984375 49.828125 20.003906 C 49.816406 20.03125 49.816406 20.304688 49.785156 20.378906 C 49.753906 20.464844 49.738281 20.792969 49.765625 20.886719 C 49.757812 22.101562 49.898438 23.289062 49.976562 23.527344 C 50.09375 23.878906 50.109375 24.371094 50.113281 24.382812 C 50.113281 24.386719 50.152344 24.941406 50.15625 24.957031 C 50.15625 24.984375 50.195312 25.246094 50.195312 25.253906 C 50.261719 25.59375 50.320312 25.550781 50.425781 25.875 C 50.429688 25.890625 50.605469 26.410156 50.78125 26.660156 C 51.035156 27.070312 51.097656 27.382812 51.105469 27.589844 C 51.121094 27.640625 51.121094 28.058594 51.121094 28.085938 C 51.113281 28.390625 50.890625 28.445312 50.585938 29.222656 C 50.542969 29.296875 50.273438 30.121094 50.261719 30.351562 C 50.121094 31.054688 49.816406 31.667969 49.789062 31.761719 C 49.773438 31.785156 49.769531 31.820312 49.757812 31.84375 C 49.75 31.871094 49.730469 31.886719 49.726562 31.914062 C 49.269531 33.042969 49.03125 34.289062 47.800781 34.886719 C 47.796875 34.890625 47.792969 34.898438 47.792969 34.90625 C 47.863281 34.984375 47.789062 34.914062 47.914062 35.074219 C 47.917969 35.097656 47.886719 35.164062 47.894531 35.210938 C 47.90625 35.226562 47.917969 35.234375 47.925781 35.25 C 47.9375 35.265625 47.960938 35.265625 47.972656 35.28125 C 47.984375 35.296875 48 35.308594 48.015625 35.316406 C 48.035156 35.328125 48.050781 35.347656 48.074219 35.355469 C 48.09375 35.359375 48.101562 35.378906 48.113281 35.390625 C 48.128906 35.398438 48.148438 35.402344 48.160156 35.414062 C 48.183594 35.441406 48.230469 35.441406 48.257812 35.464844 C 48.28125 35.488281 48.320312 35.488281 48.347656 35.507812 C 48.363281 35.523438 48.386719 35.53125 48.40625 35.535156 C 48.441406 35.546875 48.46875 35.570312 48.503906 35.578125 C 48.527344 35.582031 48.554688 35.582031 48.574219 35.597656 C 48.621094 35.632812 48.683594 35.617188 48.730469 35.640625 C 48.800781 35.679688 48.988281 35.664062 49.011719 35.664062 C 49.078125 35.664062 49.054688 35.699219 49.050781 35.714844 C 48.988281 35.890625 49.09375 35.835938 49.503906 35.835938 C 49.519531 35.835938 49.535156 35.832031 49.550781 35.84375 C 49.5625 35.855469 49.570312 35.875 49.585938 35.882812 C 49.601562 35.894531 49.660156 35.957031 49.671875 35.96875 C 49.707031 35.984375 49.796875 35.96875 49.859375 35.988281 C 49.890625 35.996094 49.917969 36.011719 49.949219 36.011719 C 50.023438 36.019531 50.101562 36.019531 50.171875 36.042969 C 50.246094 36.066406 50.363281 36.058594 50.429688 36.082031 C 50.5 36.105469 50.835938 36.132812 50.890625 36.082031 C 50.90625 36.0625 50.933594 36.0625 50.957031 36.058594 C 50.964844 36.046875 50.96875 36.023438 50.984375 36.019531 C 51.007812 36.007812 51.066406 35.949219 51.085938 35.9375 C 51.117188 35.933594 51.152344 35.933594 51.179688 35.949219 C 51.226562 35.976562 51.273438 35.972656 51.25 36 C 51.230469 36.015625 51.136719 36.023438 51.183594 36.054688 C 51.195312 36.0625 51.214844 36.0625 51.230469 36.066406 C 51.257812 36.070312 51.269531 36.101562 51.300781 36.105469 C 51.402344 36.117188 51.511719 36.136719 51.535156 36.035156 C 51.566406 35.910156 51.496094 35.832031 51.523438 35.730469 C 51.542969 35.648438 51.734375 35.746094 51.859375 35.757812 C 51.925781 35.757812 52.105469 35.765625 52.152344 35.734375 C 52.1875 35.703125 52.246094 35.722656 52.28125 35.691406 C 52.304688 35.671875 52.332031 35.667969 52.359375 35.660156 C 52.375 35.65625 52.382812 35.636719 52.394531 35.628906 C 52.410156 35.621094 52.433594 35.621094 52.445312 35.605469 C 52.460938 35.59375 52.472656 35.582031 52.492188 35.574219 C 52.511719 35.566406 52.519531 35.539062 52.546875 35.535156 C 52.585938 35.527344 52.769531 35.339844 52.8125 35.308594 C 52.820312 35.300781 52.824219 35.289062 52.832031 35.28125 C 52.839844 35.273438 52.847656 35.269531 52.855469 35.261719 C 52.863281 35.25 52.867188 35.234375 52.878906 35.226562 C 52.890625 35.222656 52.898438 35.214844 52.90625 35.203125 C 52.914062 35.179688 52.9375 35.179688 52.949219 35.160156 C 52.957031 35.140625 52.980469 35.136719 52.988281 35.117188 C 52.992188 35.101562 53.003906 35.09375 53.011719 35.085938 C 53.027344 35.074219 53.03125 35.054688 53.046875 35.046875 C 53.144531 34.984375 53.164062 34.960938 53.152344 34.9375 C 53.144531 34.914062 53.136719 34.890625 53.117188 34.871094 C 53.085938 34.835938 53.082031 34.785156 53.0625 34.746094 C 53.003906 34.625 53.121094 34.414062 53.214844 34.382812 C 53.238281 34.378906 53.265625 34.324219 53.339844 34.351562 C 53.355469 34.363281 53.34375 34.382812 53.34375 34.394531 C 53.335938 34.421875 53.347656 34.449219 53.335938 34.472656 C 53.269531 34.625 53.4375 34.507812 53.503906 34.621094 C 53.515625 34.707031 53.441406 34.765625 53.429688 34.898438 C 53.414062 35.019531 53.4375 34.992188 53.4375 35.109375 C 53.433594 35.160156 53.367188 35.101562 53.332031 35.101562 C 53.328125 35.101562 53.183594 35.128906 53.121094 35.207031 C 53.113281 35.21875 53.097656 35.222656 53.089844 35.230469 C 53.078125 35.277344 52.953125 35.375 53.089844 35.65625 C 53.097656 35.667969 53.136719 35.675781 53.144531 35.734375 C 53.136719 35.75 53.117188 35.753906 53.101562 35.761719 C 53.09375 35.769531 53.089844 35.78125 53.082031 35.789062 C 53.070312 35.796875 53.058594 35.796875 53.046875 35.804688 C 53.039062 35.8125 53.035156 35.820312 53.027344 35.832031 C 53.019531 35.839844 53.007812 35.84375 53 35.851562 C 52.992188 35.859375 52.988281 35.867188 52.980469 35.875 C 52.972656 35.882812 52.957031 35.886719 52.949219 35.902344 C 52.945312 35.914062 52.9375 35.921875 52.925781 35.929688 C 52.90625 35.9375 52.902344 35.957031 52.890625 35.96875 C 52.882812 35.972656 52.871094 35.980469 52.867188 35.988281 C 52.863281 35.996094 52.859375 36.007812 52.851562 36.011719 C 52.84375 36.019531 52.832031 36.019531 52.828125 36.03125 C 52.800781 36.078125 52.789062 36.054688 52.773438 36.089844 C 52.761719 36.105469 52.738281 36.105469 52.734375 36.128906 C 52.730469 36.152344 52.699219 36.152344 52.6875 36.167969 C 52.679688 36.179688 52.667969 36.191406 52.652344 36.199219 C 52.636719 36.207031 52.636719 36.230469 52.613281 36.238281 C 52.589844 36.246094 52.582031 36.273438 52.558594 36.28125 C 52.542969 36.289062 52.53125 36.300781 52.523438 36.3125 C 52.511719 36.324219 52.496094 36.328125 52.484375 36.335938 C 52.472656 36.34375 52.46875 36.355469 52.460938 36.363281 C 52.445312 36.371094 52.429688 36.371094 52.417969 36.382812 C 52.402344 36.394531 52.390625 36.410156 52.375 36.414062 C 52.339844 36.425781 52.316406 36.449219 52.285156 36.457031 C 52.261719 36.464844 52.246094 36.476562 52.230469 36.488281 C 52.199219 36.507812 52.164062 36.503906 52.132812 36.519531 C 52.054688 36.566406 51.695312 36.570312 51.613281 36.523438 C 51.558594 36.496094 51.46875 36.5 51.453125 36.503906 C 51.386719 36.628906 51.519531 36.75 51.421875 36.878906 C 51.402344 36.90625 51.363281 36.910156 51.332031 36.925781 C 51.308594 36.9375 51.285156 36.933594 51.261719 36.917969 C 51.207031 36.886719 51.121094 36.925781 51.070312 36.832031 C 51.09375 36.800781 51.164062 36.816406 51.148438 36.78125 C 51.128906 36.765625 51.105469 36.769531 51.082031 36.765625 C 51.039062 36.761719 50.988281 36.746094 50.945312 36.769531 C 50.882812 36.808594 50.894531 36.832031 50.839844 36.859375 C 50.820312 36.867188 50.804688 36.890625 50.785156 36.894531 C 50.679688 36.921875 50.628906 36.957031 50.445312 36.917969 C 50.347656 36.890625 50.207031 36.902344 50.160156 36.886719 C 50.101562 36.875 50.066406 36.855469 49.976562 36.855469 C 49.820312 36.863281 49.746094 36.816406 49.671875 36.816406 C 49.488281 36.8125 49.507812 36.816406 49.441406 36.738281 C 49.429688 36.722656 49.410156 36.722656 49.398438 36.707031 C 49.371094 36.675781 49.390625 36.667969 49.246094 36.671875 C 49.21875 36.671875 48.9375 36.691406 48.855469 36.675781 C 48.789062 36.613281 48.867188 36.558594 48.847656 36.503906 C 48.789062 36.503906 48.519531 36.511719 48.492188 36.488281 C 48.449219 36.453125 48.359375 36.46875 48.324219 36.4375 C 48.304688 36.417969 48.273438 36.417969 48.25 36.414062 C 48.207031 36.40625 48.207031 36.390625 48.109375 36.363281 C 48.089844 36.355469 48.078125 36.332031 48.058594 36.328125 C 48.039062 36.324219 48.019531 36.324219 48.003906 36.304688 C 47.988281 36.285156 47.957031 36.285156 47.933594 36.277344 C 47.914062 36.273438 47.90625 36.25 47.886719 36.242188 C 47.871094 36.234375 47.855469 36.230469 47.84375 36.21875 C 47.8125 36.191406 47.816406 36.214844 47.777344 36.167969 C 47.761719 36.148438 47.730469 36.152344 47.710938 36.140625 C 47.699219 36.128906 47.695312 36.113281 47.679688 36.101562 C 47.621094 36.054688 47.652344 36.046875 47.65625 36.007812 C 47.65625 35.945312 47.671875 35.933594 47.632812 35.890625 C 47.582031 35.839844 47.53125 35.746094 47.519531 35.730469 C 47.515625 35.726562 47.386719 35.558594 47.382812 35.542969 C 47.347656 35.492188 47.304688 35.453125 47.269531 35.40625 C 47.257812 35.394531 47.242188 35.394531 47.234375 35.378906 C 47.222656 35.359375 47.203125 35.347656 47.191406 35.332031 C 47.175781 35.3125 47.148438 35.308594 47.132812 35.289062 C 47.121094 35.265625 47.085938 35.265625 47.070312 35.246094 C 47.023438 35.207031 47.007812 35.226562 46.980469 35.203125 C 46.960938 35.183594 46.933594 35.175781 46.90625 35.175781 C 46.890625 35.175781 46.878906 35.160156 46.867188 35.152344 C 46.851562 35.132812 46.820312 35.140625 46.800781 35.117188 C 46.785156 35.097656 46.757812 35.085938 46.730469 35.085938 C 46.714844 35.085938 46.710938 35.070312 46.703125 35.0625 C 46.691406 35.046875 46.671875 35.046875 46.65625 35.039062 C 46.648438 35.027344 46.644531 35.007812 46.628906 35.003906 C 46.613281 35 46.597656 34.992188 46.585938 34.984375 C 46.566406 34.976562 46.542969 34.984375 46.523438 34.976562 C 46.484375 34.964844 46.34375 34.933594 46.328125 34.933594 C 46.265625 34.921875 46.304688 34.964844 46.320312 34.996094 C 46.402344 35.148438 46.585938 35.3125 46.757812 35.378906 C 46.875 35.4375 47.023438 35.425781 47.351562 35.878906 C 47.414062 35.964844 47.472656 36.0625 47.539062 36.148438 C 47.554688 36.164062 47.582031 36.175781 47.582031 36.199219 C 47.589844 36.25 47.53125 36.3125 47.574219 36.363281 C 47.667969 36.46875 48.136719 36.734375 48.484375 36.789062 C 48.519531 36.796875 48.695312 36.824219 48.726562 36.8125 C 48.761719 36.8125 48.796875 36.808594 48.832031 36.800781 C 48.878906 36.808594 48.820312 36.863281 48.824219 36.9375 C 48.820312 37.035156 49.046875 36.984375 49.117188 36.992188 C 49.148438 36.984375 49.183594 36.988281 49.214844 36.980469 C 49.246094 36.984375 49.371094 36.960938 49.402344 36.984375 C 49.445312 37.011719 49.472656 37.066406 49.511719 37.09375 C 49.582031 37.140625 49.679688 37.136719 49.761719 37.144531 C 50.335938 37.207031 50.691406 37.324219 50.921875 37.21875 C 51.023438 37.171875 51.070312 37.046875 51.195312 37.074219 C 51.207031 37.078125 51.242188 37.070312 51.296875 37.09375 C 51.304688 37.097656 51.304688 37.109375 51.304688 37.117188 C 51.273438 37.128906 51.242188 37.132812 51.214844 37.152344 C 51.191406 37.203125 51.375 37.246094 51.402344 37.25 C 51.484375 37.269531 51.625 37.246094 51.632812 37.140625 C 51.644531 36.945312 51.539062 36.921875 51.636719 36.78125 C 51.644531 36.78125 51.65625 36.78125 51.664062 36.78125 C 51.773438 36.902344 52.136719 36.8125 52.167969 36.863281 C 52.167969 36.890625 52.164062 36.921875 52.167969 36.953125 C 52.179688 36.984375 52.367188 37.042969 52.398438 37 C 52.414062 36.984375 52.410156 36.851562 52.410156 36.847656 C 52.402344 36.785156 52.46875 36.792969 52.519531 36.761719 C 52.539062 36.75 52.5625 36.746094 52.578125 36.734375 C 52.589844 36.722656 52.609375 36.726562 52.621094 36.726562 C 52.742188 36.785156 53.144531 37.144531 53.273438 37.164062 C 53.308594 37.171875 53.371094 37.207031 53.546875 37.175781 C 53.574219 37.167969 53.601562 37.164062 53.625 37.152344 C 53.6875 37.132812 53.910156 37.046875 53.804688 36.945312 C 53.78125 36.925781 53.726562 36.921875 53.699219 36.917969 C 53.613281 36.898438 53.519531 36.910156 53.453125 36.84375 C 53.382812 36.777344 53.335938 36.679688 53.277344 36.601562 C 53.0625 36.292969 53.089844 36.339844 53.089844 36.304688 C 53.128906 36.253906 53.296875 36.070312 53.429688 35.988281 C 53.429688 35.984375 53.425781 35.976562 53.425781 35.972656 C 53.292969 35.808594 53.285156 35.710938 53.292969 35.605469 C 53.304688 35.570312 53.3125 35.535156 53.332031 35.503906 C 53.398438 35.414062 53.515625 35.320312 53.601562 35.34375 C 53.621094 35.546875 53.492188 35.519531 53.675781 35.574219 C 54.003906 35.574219 53.46875 35.945312 53.855469 36.34375 C 53.933594 36.382812 54.113281 36.136719 54.464844 35.824219 C 54.652344 35.660156 54.722656 35.621094 54.84375 35.601562 C 54.902344 35.589844 54.972656 35.597656 55.03125 35.578125 C 55.046875 35.570312 55.851562 35.226562 55.851562 35.015625 C 55.863281 34.984375 55.847656 34.992188 55.84375 34.832031 C 55.84375 34.738281 55.914062 34.671875 56 34.582031 C 56.199219 34.382812 56.175781 34.210938 56.179688 34.179688 C 56.183594 34.152344 56.195312 34.128906 56.199219 34.101562 C 56.203125 34.007812 56.550781 33.703125 56.625 33.589844 C 56.644531 33.550781 56.765625 33.378906 56.707031 33.085938 C 56.707031 32.996094 56.542969 32.648438 56.558594 32.554688 C 56.59375 32.5 56.847656 32.511719 56.902344 32.402344 C 56.90625 32.332031 56.878906 32.277344 56.867188 32.261719 C 56.800781 32.164062 56.707031 32.199219 56.730469 32.164062 C 56.773438 32.089844 56.929688 32.117188 56.992188 32.128906 C 57.089844 32.148438 57.183594 32.164062 57.273438 32.113281 C 57.703125 31.855469 57.671875 31.699219 57.992188 31.695312 C 58.050781 31.675781 58.414062 31.679688 58.464844 31.679688 C 58.851562 31.683594 58.695312 31.558594 58.628906 31.414062 C 58.410156 31 58.714844 30.347656 58.730469 30.277344 C 58.765625 30.101562 58.71875 29.875 58.570312 29.761719 Z M 57.347656 26.605469 C 57.402344 26.597656 57.453125 26.5625 57.46875 26.59375 C 57.527344 26.722656 57.453125 26.832031 57.34375 26.917969 C 57.277344 26.960938 57.296875 26.921875 57.292969 26.820312 C 57.28125 26.765625 57.292969 26.613281 57.347656 26.605469 Z M 58.121094 30.148438 C 58.097656 30.191406 58.027344 30.382812 58.015625 30.484375 C 58.015625 30.5 58 30.503906 57.992188 30.515625 C 57.988281 30.640625 57.960938 30.601562 57.960938 30.90625 C 57.992188 31.144531 58 31.097656 58.019531 31.15625 C 58.027344 31.175781 58.027344 31.203125 58.042969 31.21875 C 58.046875 31.226562 58.132812 31.355469 58.09375 31.382812 C 58.058594 31.398438 58.027344 31.433594 57.984375 31.425781 C 57.273438 31.429688 57.316406 31.433594 57.316406 31.433594 C 57.292969 31.445312 57.269531 31.457031 57.246094 31.46875 C 57.230469 31.480469 57.207031 31.46875 57.195312 31.488281 C 57.171875 31.523438 57.125 31.523438 57.078125 31.59375 C 57.066406 31.609375 57.042969 31.605469 57.039062 31.625 C 57.027344 31.648438 56.992188 31.652344 56.980469 31.675781 C 56.96875 31.703125 56.929688 31.691406 56.914062 31.710938 C 56.898438 31.726562 56.882812 31.738281 56.867188 31.742188 C 56.839844 31.75 56.828125 31.773438 56.804688 31.785156 C 56.730469 31.820312 56.808594 31.824219 56.65625 31.824219 C 56.632812 31.824219 56.617188 31.8125 56.601562 31.800781 C 56.40625 31.789062 56.378906 31.761719 56.335938 31.816406 C 56.386719 31.878906 56.390625 31.851562 56.441406 31.914062 C 56.480469 31.964844 56.476562 32.042969 56.460938 32.074219 C 56.445312 32.097656 56.414062 32.09375 56.394531 32.109375 C 56.351562 32.144531 56.292969 32.132812 56.242188 32.148438 C 56.132812 32.175781 56.140625 32.164062 56.304688 32.644531 C 56.339844 33.015625 56.285156 33.046875 56.269531 33.101562 C 56.09375 33.359375 55.871094 33.5 55.863281 33.652344 C 55.863281 33.878906 55.78125 33.953125 55.738281 34.027344 C 55.730469 34.035156 55.71875 34.042969 55.710938 34.050781 C 55.699219 34.074219 55.679688 34.089844 55.667969 34.113281 C 55.644531 34.128906 55.628906 34.15625 55.609375 34.175781 C 55.601562 34.203125 55.585938 34.230469 55.582031 34.257812 C 55.5625 34.324219 55.613281 34.386719 55.585938 34.484375 C 55.582031 34.507812 55.566406 34.53125 55.5625 34.550781 C 55.558594 34.558594 55.550781 34.5625 55.542969 34.566406 C 55.527344 34.578125 55.515625 34.597656 55.496094 34.605469 C 55.480469 34.609375 55.46875 34.625 55.453125 34.636719 C 55.433594 34.65625 55.394531 34.648438 55.375 34.671875 C 55.355469 34.691406 55.328125 34.691406 55.304688 34.699219 C 55.269531 34.710938 55.296875 34.730469 55.207031 34.742188 C 55.164062 34.800781 55.109375 34.765625 55.054688 34.804688 C 55.027344 34.824219 54.988281 34.824219 54.957031 34.832031 C 54.9375 34.839844 54.925781 34.855469 54.90625 34.863281 C 54.839844 34.898438 54.679688 34.804688 54.523438 34.902344 C 54.507812 34.910156 54.492188 34.914062 54.476562 34.921875 C 54.460938 34.929688 54.449219 34.949219 54.433594 34.953125 C 54.414062 34.960938 54.394531 34.964844 54.386719 34.984375 C 54.375 35 54.351562 35.003906 54.335938 35.011719 C 54.328125 35.023438 54.320312 35.039062 54.308594 35.042969 C 54.292969 35.050781 54.28125 35.058594 54.269531 35.070312 C 54.253906 35.089844 54.226562 35.097656 54.210938 35.117188 C 54.199219 35.136719 54.171875 35.140625 54.15625 35.164062 C 54.152344 35.175781 54.140625 35.179688 54.128906 35.1875 C 54.113281 35.191406 54.109375 35.207031 54.101562 35.21875 C 54.089844 35.226562 54.078125 35.230469 54.066406 35.234375 C 54.058594 35.242188 54.050781 35.253906 54.042969 35.261719 C 54.035156 35.269531 54.019531 35.269531 54.007812 35.277344 C 54 35.285156 53.996094 35.292969 53.988281 35.300781 C 53.90625 35.332031 53.941406 35.367188 53.867188 35.355469 C 53.789062 35.3125 53.726562 35.117188 53.730469 35.046875 C 53.722656 34.828125 53.808594 34.828125 53.785156 34.714844 C 53.785156 34.695312 53.761719 34.695312 53.746094 34.6875 C 53.714844 34.683594 53.6875 34.664062 53.65625 34.65625 C 53.640625 34.65625 53.613281 34.648438 53.609375 34.628906 C 53.609375 34.609375 53.601562 34.578125 53.625 34.566406 C 53.648438 34.558594 53.65625 34.53125 53.679688 34.519531 C 53.695312 34.515625 53.703125 34.496094 53.71875 34.484375 C 53.734375 34.472656 53.753906 34.472656 53.769531 34.457031 C 53.792969 34.433594 53.828125 34.429688 53.851562 34.410156 C 53.867188 34.402344 53.878906 34.386719 53.898438 34.386719 C 54.035156 34.363281 53.972656 34.375 54.046875 34.371094 C 54.082031 34.371094 54.117188 34.386719 54.152344 34.367188 C 54.1875 34.34375 54.230469 34.347656 54.269531 34.339844 C 54.296875 34.332031 54.316406 34.3125 54.34375 34.304688 C 54.371094 34.300781 54.394531 34.296875 54.417969 34.292969 C 54.433594 34.285156 54.445312 34.269531 54.460938 34.265625 C 54.484375 34.257812 54.511719 34.257812 54.535156 34.25 C 54.558594 34.238281 54.574219 34.214844 54.597656 34.214844 C 54.625 34.210938 54.648438 34.207031 54.667969 34.183594 C 54.683594 34.164062 54.714844 34.171875 54.730469 34.152344 C 54.738281 34.136719 54.753906 34.125 54.769531 34.121094 C 54.789062 34.113281 54.792969 34.085938 54.816406 34.078125 C 54.886719 34.054688 54.796875 33.78125 54.871094 33.691406 C 54.890625 33.683594 54.914062 33.683594 54.921875 33.664062 C 54.929688 33.640625 54.953125 33.632812 54.964844 33.613281 C 54.980469 33.597656 55 33.578125 55.011719 33.558594 C 55.03125 33.539062 55.039062 33.515625 55.054688 33.496094 C 55.066406 33.464844 55.078125 33.4375 55.089844 33.40625 C 55.101562 33.378906 55.101562 33.234375 55.136719 33.152344 C 55.15625 33.109375 55.265625 33 55.269531 32.996094 C 55.277344 32.980469 55.296875 32.976562 55.308594 32.96875 C 55.3125 32.960938 55.351562 32.898438 55.375 32.890625 C 55.402344 32.875 55.4375 32.808594 55.453125 32.800781 C 55.46875 32.792969 55.46875 32.773438 55.480469 32.761719 C 55.597656 32.648438 55.566406 32.273438 55.535156 32.207031 C 55.523438 32.175781 55.515625 32.144531 55.507812 32.109375 C 55.507812 32.097656 55.488281 32.089844 55.488281 32.078125 C 55.480469 32.058594 55.472656 32.042969 55.46875 32.027344 C 55.460938 32 55.453125 31.972656 55.441406 31.949219 C 55.429688 31.917969 55.425781 31.886719 55.417969 31.855469 C 55.417969 31.832031 55.40625 31.796875 55.4375 31.785156 C 55.460938 31.78125 55.488281 31.769531 55.515625 31.769531 C 55.535156 31.769531 55.554688 31.753906 55.574219 31.75 C 55.605469 31.742188 55.644531 31.75 55.667969 31.722656 C 55.683594 31.703125 55.710938 31.695312 55.71875 31.671875 C 55.726562 31.652344 55.734375 31.636719 55.722656 31.617188 C 55.703125 31.582031 55.710938 31.527344 55.636719 31.484375 C 55.613281 31.476562 55.589844 31.476562 55.566406 31.46875 C 55.546875 31.429688 55.582031 31.433594 55.597656 31.421875 C 55.613281 31.410156 55.621094 31.390625 55.640625 31.390625 C 55.746094 31.390625 55.800781 31.40625 55.8125 31.410156 C 55.839844 31.417969 55.871094 31.429688 55.902344 31.429688 C 56.035156 31.425781 55.992188 31.4375 56.035156 31.402344 C 56.050781 31.390625 56.074219 31.390625 56.089844 31.375 C 56.105469 31.363281 56.117188 31.351562 56.136719 31.34375 C 56.160156 31.332031 56.171875 31.304688 56.199219 31.296875 C 56.222656 31.292969 56.238281 31.273438 56.253906 31.261719 C 56.273438 31.25 56.273438 31.226562 56.285156 31.21875 C 56.296875 31.207031 56.3125 31.214844 56.320312 31.207031 C 56.335938 31.191406 56.347656 31.175781 56.367188 31.167969 C 56.386719 31.15625 56.394531 31.132812 56.414062 31.125 C 56.429688 31.117188 56.4375 31.101562 56.449219 31.089844 C 56.46875 31.078125 56.488281 31.078125 56.507812 31.070312 C 56.519531 31.0625 56.554688 31.035156 56.609375 31.03125 C 57.351562 31.027344 57.328125 31.054688 57.359375 30.976562 C 57.355469 30.957031 57.34375 30.945312 57.339844 30.925781 C 57.335938 30.917969 57.332031 30.910156 57.324219 30.902344 C 57.324219 30.894531 57.324219 30.882812 57.320312 30.875 C 57.316406 30.867188 57.304688 30.859375 57.296875 30.847656 C 57.289062 30.820312 57.285156 30.792969 57.273438 30.765625 C 57.261719 30.726562 57.222656 30.675781 57.21875 30.523438 C 57.1875 30.441406 57.242188 30.285156 57.238281 30.171875 C 57.234375 30.15625 57.25 30.144531 57.253906 30.128906 C 57.265625 30.066406 57.28125 30.003906 57.304688 29.949219 C 57.320312 29.90625 57.324219 29.859375 57.339844 29.816406 C 57.347656 29.800781 57.367188 29.796875 57.367188 29.777344 C 57.410156 29.527344 57.332031 29.480469 57.324219 29.421875 C 57.304688 29.34375 57.296875 29.390625 57.269531 29.332031 C 57.265625 29.320312 57.253906 29.320312 57.246094 29.316406 C 57.230469 29.3125 57.226562 29.296875 57.21875 29.289062 C 57.207031 29.273438 57.179688 29.273438 57.171875 29.253906 C 57.160156 29.230469 57.132812 29.230469 57.113281 29.21875 C 57.101562 29.210938 57.097656 29.195312 57.082031 29.191406 C 57.003906 29.164062 57.035156 29.140625 56.984375 29.140625 C 56.976562 29.132812 56.972656 29.125 56.96875 29.117188 C 56.960938 29.089844 56.929688 29.101562 56.914062 29.082031 C 56.832031 28.972656 56.851562 29.039062 56.792969 28.894531 C 56.792969 28.855469 56.792969 28.816406 56.792969 28.773438 C 56.792969 28.757812 56.804688 28.742188 56.808594 28.726562 C 56.808594 28.6875 56.816406 28.648438 56.820312 28.609375 C 56.820312 28.507812 56.8125 28.359375 56.8125 28.355469 C 56.78125 28.308594 56.792969 28.246094 56.761719 28.199219 C 56.726562 28.09375 56.710938 28.113281 56.691406 28.042969 C 56.679688 28.039062 56.664062 28.035156 56.660156 28.019531 C 56.65625 28 56.652344 27.980469 56.640625 27.964844 C 56.632812 27.96875 56.621094 27.976562 56.613281 27.980469 C 56.226562 28.46875 55.691406 28.71875 55.523438 28.769531 C 55.160156 28.941406 54.367188 29.136719 54.203125 29.144531 C 54.136719 29.164062 53.695312 29.222656 53.691406 29.222656 C 53.339844 29.261719 53.28125 29.292969 53.203125 29.144531 C 53.125 29.007812 53.0625 28.644531 53.0625 28.636719 C 53.035156 28.425781 52.6875 27.730469 52.714844 27.589844 C 52.714844 27.582031 52.773438 26.726562 52.890625 26.535156 C 52.929688 26.484375 52.902344 26.480469 53.210938 26.410156 C 53.316406 26.394531 53.441406 26.34375 53.476562 26.335938 C 53.574219 26.308594 53.855469 26.277344 53.898438 26.277344 C 53.929688 26.269531 54.269531 26.261719 54.300781 26.253906 C 54.582031 26.253906 55.023438 26.230469 55.074219 26.238281 C 55.078125 26.234375 55.863281 26.21875 55.925781 26.199219 C 55.976562 26.203125 56.023438 26.1875 56.074219 26.1875 C 56.105469 26.179688 56.140625 26.1875 56.171875 26.179688 C 56.179688 26.179688 56.835938 26.117188 56.835938 26.117188 C 56.855469 26.113281 56.875 26.121094 56.878906 26.136719 C 56.910156 26.242188 57.058594 26.460938 57.125 26.542969 C 57.175781 26.605469 57.164062 26.5625 57.164062 26.878906 C 57.164062 26.878906 57.167969 26.875 57.167969 27.082031 C 57.164062 27.167969 57.097656 27.160156 56.878906 27.511719 L 56.882812 27.515625 C 56.882812 27.523438 56.882812 27.539062 56.890625 27.546875 C 56.964844 27.601562 56.976562 27.660156 57.019531 27.691406 C 57.03125 27.71875 57.054688 27.738281 57.070312 27.765625 C 57.085938 27.78125 57.347656 28.167969 57.347656 28.167969 C 57.367188 28.183594 57.363281 28.207031 57.378906 28.222656 C 57.390625 28.242188 57.410156 28.257812 57.417969 28.28125 C 57.417969 28.292969 57.484375 28.382812 57.492188 28.390625 C 57.503906 28.402344 57.5 28.425781 57.511719 28.433594 C 57.535156 28.445312 57.539062 28.472656 57.546875 28.492188 C 57.546875 28.496094 57.589844 28.5625 57.597656 28.59375 C 57.601562 28.609375 57.621094 28.613281 57.625 28.628906 C 57.660156 28.734375 57.671875 28.6875 57.671875 28.773438 C 57.652344 28.917969 57.507812 28.925781 57.539062 29.28125 C 57.5625 29.386719 57.589844 29.386719 57.601562 29.429688 C 57.605469 29.445312 57.625 29.449219 57.640625 29.457031 C 57.65625 29.464844 57.660156 29.484375 57.675781 29.492188 C 57.75 29.523438 57.6875 29.519531 57.761719 29.539062 C 57.78125 29.542969 57.789062 29.5625 57.808594 29.574219 C 57.820312 29.582031 57.835938 29.582031 57.851562 29.589844 C 57.859375 29.597656 57.871094 29.609375 57.878906 29.617188 C 57.898438 29.625 57.921875 29.625 57.933594 29.644531 C 57.945312 29.664062 57.976562 29.667969 57.988281 29.691406 C 57.996094 29.707031 58.015625 29.707031 58.023438 29.722656 C 58.03125 29.742188 58.039062 29.769531 58.054688 29.789062 C 58.0625 29.796875 58.078125 29.804688 58.082031 29.816406 C 58.097656 29.871094 58.113281 29.925781 58.121094 29.980469 C 58.125 30 58.132812 30.128906 58.121094 30.148438 Z M 58.121094 30.148438 " fill-opacity="1" fill-rule="nonzero"/></g><g clip-path="url(#id2)"><path fill="#fe0101" d="M 57.980469 30.714844 C 58.035156 30.316406 58.320312 29.949219 57.960938 29.648438 C 57.816406 29.523438 57.605469 29.515625 57.554688 29.257812 C 57.484375 28.894531 57.820312 28.90625 57.625 28.585938 C 57.253906 27.980469 57.210938 27.933594 57.117188 27.808594 C 56.734375 27.300781 56.695312 27.195312 56.621094 27.695312 C 56.597656 27.875 56.5625 27.925781 56.636719 28.003906 C 56.757812 28.125 56.804688 28.332031 56.808594 28.496094 C 56.8125 28.652344 56.742188 28.824219 56.816406 28.976562 C 56.945312 29.238281 57.320312 29.164062 57.363281 29.640625 C 57.390625 29.785156 57.253906 29.882812 57.203125 30.335938 C 57.167969 30.660156 57.304688 30.882812 57.332031 30.933594 C 57.40625 31.109375 56.738281 30.953125 56.535156 31.035156 C 56.4375 31.074219 56.386719 31.125 56.042969 31.386719 C 55.9375 31.464844 55.746094 31.347656 55.632812 31.382812 C 55.53125 31.414062 55.503906 31.484375 55.605469 31.492188 C 55.679688 31.496094 55.789062 31.675781 55.625 31.71875 C 55.140625 31.847656 55.558594 31.808594 55.542969 32.546875 C 55.535156 32.746094 55.339844 32.890625 55.15625 33.097656 C 55.042969 33.222656 55.160156 33.464844 54.886719 33.664062 C 54.84375 33.695312 54.835938 33.710938 54.832031 33.753906 C 54.804688 34.03125 54.90625 34.039062 54.671875 34.160156 C 54.257812 34.382812 53.976562 34.34375 53.890625 34.375 C 53.792969 34.410156 53.585938 34.527344 53.597656 34.628906 C 53.601562 34.675781 53.707031 34.6875 53.738281 34.699219 C 53.820312 34.726562 53.75 34.804688 53.734375 34.867188 C 53.667969 35.171875 53.828125 35.359375 53.867188 35.367188 C 54.011719 35.390625 54.265625 34.96875 54.671875 34.871094 C 54.761719 34.851562 54.777344 34.921875 54.980469 34.847656 C 55.613281 34.621094 55.625 34.546875 55.601562 34.355469 C 55.578125 34.148438 55.660156 34.175781 55.765625 34.007812 C 55.976562 33.6875 55.75 33.722656 56.035156 33.398438 C 56.183594 33.230469 56.523438 33.003906 56.207031 32.320312 C 56.101562 32.097656 56.304688 32.195312 56.445312 32.101562 C 56.558594 32.023438 56.457031 31.878906 56.390625 31.839844 C 56.34375 31.816406 56.347656 31.804688 56.386719 31.800781 C 56.609375 31.785156 56.683594 31.894531 56.816406 31.800781 C 57.09375 31.605469 57.234375 31.40625 57.542969 31.4375 C 57.617188 31.445312 57.699219 31.445312 57.777344 31.441406 C 58.472656 31.429688 57.882812 31.316406 57.980469 30.714844 Z M 57.980469 30.714844 " fill-opacity="1" fill-rule="nonzero"/></g><g clip-path="url(#id3)"><path fill="#fe0101" d="M 53.390625 34.546875 C 53.335938 34.542969 53.335938 34.542969 53.347656 34.5 C 53.371094 34.382812 53.371094 34.34375 53.34375 34.335938 C 53.199219 34.285156 52.914062 34.546875 53.105469 34.875 C 53.140625 34.9375 53.160156 34.957031 53.097656 34.988281 C 52.949219 35.066406 52.648438 35.613281 52.070312 35.734375 C 51.886719 35.773438 51.679688 35.695312 51.648438 35.691406 C 51.277344 35.605469 51.785156 36.144531 51.316406 36.085938 C 51.261719 36.082031 51.28125 36.058594 51.214844 36.046875 C 51.203125 36.046875 51.191406 36.042969 51.191406 36.039062 C 51.210938 36.027344 51.234375 36.03125 51.265625 36.007812 C 51.28125 35.984375 51.269531 35.964844 51.25 35.960938 C 51.167969 35.933594 51.160156 35.90625 51.082031 35.921875 C 51.050781 35.9375 51.035156 35.960938 51.015625 35.980469 C 50.757812 36.21875 50.210938 35.988281 49.949219 35.996094 C 49.921875 35.996094 49.894531 35.980469 49.863281 35.972656 C 49.800781 35.953125 49.710938 35.964844 49.679688 35.953125 C 49.554688 35.847656 49.585938 35.820312 49.515625 35.820312 C 49.105469 35.816406 49.011719 35.871094 49.0625 35.726562 C 49.089844 35.644531 49.054688 35.636719 48.972656 35.652344 C 48.902344 35.660156 48.496094 35.613281 48.109375 35.359375 C 47.734375 35.117188 48.019531 35.195312 47.894531 35.019531 C 47.839844 34.9375 47.769531 34.785156 47.714844 34.746094 C 47.691406 34.742188 47.675781 34.746094 47.652344 34.753906 C 47.101562 34.933594 46.507812 34.71875 46.425781 34.730469 C 46.425781 34.753906 46.425781 34.757812 46.4375 34.785156 C 46.722656 35.308594 47.003906 34.996094 47.484375 35.710938 C 47.507812 35.746094 47.546875 35.835938 47.617188 35.902344 C 47.6875 35.980469 47.570312 36.035156 47.667969 36.113281 C 47.847656 36.261719 48.0625 36.363281 48.285156 36.441406 C 48.640625 36.566406 48.6875 36.503906 48.832031 36.515625 C 48.839844 36.558594 48.769531 36.621094 48.847656 36.691406 C 48.964844 36.714844 49.296875 36.675781 49.347656 36.6875 C 49.367188 36.695312 49.382812 36.714844 49.402344 36.734375 C 49.546875 36.882812 49.546875 36.792969 49.757812 36.847656 C 49.90625 36.882812 49.992188 36.855469 50.105469 36.890625 C 50.242188 36.929688 50.300781 36.898438 50.4375 36.933594 C 50.832031 37.015625 50.882812 36.753906 51.046875 36.777344 C 51.109375 36.785156 51.117188 36.78125 51.132812 36.789062 C 51.132812 36.789062 51.109375 36.792969 51.109375 36.796875 C 51.070312 36.804688 51.0625 36.8125 51.046875 36.832031 C 51.074219 36.875 51.101562 36.902344 51.179688 36.914062 C 51.289062 36.933594 51.273438 36.964844 51.359375 36.929688 C 51.589844 36.832031 51.382812 36.5625 51.460938 36.515625 C 51.511719 36.488281 51.613281 36.5625 51.792969 36.570312 C 52.523438 36.597656 52.90625 35.898438 53.109375 35.777344 C 53.175781 35.734375 53.167969 35.703125 53.121094 35.660156 C 53.058594 35.601562 52.996094 35.386719 53.105469 35.242188 C 53.203125 35.109375 53.347656 35.117188 53.332031 35.117188 C 53.359375 35.117188 53.382812 35.140625 53.414062 35.144531 C 53.484375 35.152344 53.433594 35.015625 53.445312 34.898438 C 53.457031 34.765625 53.535156 34.71875 53.519531 34.617188 C 53.519531 34.601562 53.496094 34.554688 53.390625 34.546875 Z M 53.390625 34.546875 " fill-opacity="1" fill-rule="nonzero"/></g><path fill="#fe0101" d="M 51.335938 23.828125 C 51.449219 23.769531 51.40625 23.667969 51.285156 23.707031 C 51.324219 23.585938 51.222656 23.542969 51.164062 23.65625 C 51.105469 23.542969 51.003906 23.585938 51.042969 23.707031 C 50.921875 23.667969 50.878906 23.769531 50.992188 23.828125 C 50.878906 23.882812 50.921875 23.988281 51.042969 23.949219 C 51.003906 24.066406 51.105469 24.109375 51.164062 23.996094 C 51.222656 24.109375 51.324219 24.070312 51.285156 23.949219 C 51.40625 23.988281 51.449219 23.882812 51.335938 23.828125 Z M 51.132812 23.828125 C 51.132812 23.785156 51.195312 23.785156 51.195312 23.828125 C 51.195312 23.867188 51.132812 23.867188 51.132812 23.828125 Z M 51.132812 23.828125 " fill-opacity="1" fill-rule="nonzero"/></svg>